%TF.GenerationSoftware,KiCad,Pcbnew,9.0.4-1.fc42*%
%TF.CreationDate,2025-09-03T13:41:55+02:00*%
%TF.ProjectId,pedai-hw,70656461-692d-4687-972e-6b696361645f,rev?*%
%TF.SameCoordinates,Original*%
%TF.FileFunction,Copper,L2,Bot*%
%TF.FilePolarity,Positive*%
%FSLAX46Y46*%
G04 Gerber Fmt 4.6, Leading zero omitted, Abs format (unit mm)*
G04 Created by KiCad (PCBNEW 9.0.4-1.fc42) date 2025-09-03 13:41:55*
%MOMM*%
%LPD*%
G01*
G04 APERTURE LIST*
%TA.AperFunction,ComponentPad*%
%ADD10C,1.600000*%
%TD*%
%TA.AperFunction,ComponentPad*%
%ADD11R,1.700000X1.700000*%
%TD*%
%TA.AperFunction,ComponentPad*%
%ADD12C,1.700000*%
%TD*%
%TA.AperFunction,ViaPad*%
%ADD13C,0.600000*%
%TD*%
%TA.AperFunction,Conductor*%
%ADD14C,0.200000*%
%TD*%
G04 APERTURE END LIST*
D10*
%TO.P,R24,1*%
%TO.N,+3.3V*%
X737760000Y-274000000D03*
%TO.P,R24,2*%
%TO.N,/NOTE_24*%
X727600000Y-274000000D03*
%TD*%
%TO.P,R25,1*%
%TO.N,+3.3V*%
X758640000Y-273800000D03*
%TO.P,R25,2*%
%TO.N,/NOTE_25*%
X768800000Y-273800000D03*
%TD*%
%TO.P,R5,1*%
%TO.N,+3.3V*%
X188080000Y-273000000D03*
%TO.P,R5,2*%
%TO.N,/NOTE_5*%
X177920000Y-273000000D03*
%TD*%
%TO.P,R15,1*%
%TO.N,+3.3V*%
X487480000Y-274000000D03*
%TO.P,R15,2*%
%TO.N,/NOTE_15*%
X477320000Y-274000000D03*
%TD*%
%TO.P,R16,1*%
%TO.N,+3.3V*%
X512960000Y-274000000D03*
%TO.P,R16,2*%
%TO.N,/NOTE_16*%
X502800000Y-274000000D03*
%TD*%
D11*
%TO.P,J9,1,Pin_1*%
%TO.N,/NOTE_8*%
X275000000Y-277000000D03*
%TD*%
D10*
%TO.P,R14,1*%
%TO.N,+3.3V*%
X462480000Y-274000000D03*
%TO.P,R14,2*%
%TO.N,/NOTE_14*%
X452320000Y-274000000D03*
%TD*%
%TO.P,R10,1*%
%TO.N,+3.3V*%
X337960000Y-273600000D03*
%TO.P,R10,2*%
%TO.N,/NOTE_10*%
X327800000Y-273600000D03*
%TD*%
%TO.P,R17,1*%
%TO.N,+3.3V*%
X537480000Y-274000000D03*
%TO.P,R17,2*%
%TO.N,/NOTE_17*%
X527320000Y-274000000D03*
%TD*%
D11*
%TO.P,J18,1,Pin_1*%
%TO.N,/NOTE_15*%
X474500000Y-277500000D03*
%TD*%
%TO.P,J5,1,Pin_1*%
%TO.N,/NOTE_4*%
X150000000Y-277000000D03*
%TD*%
%TO.P,J20,1,Pin_1*%
%TO.N,/NOTE_17*%
X524500000Y-277500000D03*
%TD*%
%TO.P,J12,1,Pin_1*%
%TO.N,/NOTE_11*%
X350000000Y-277000000D03*
%TD*%
D10*
%TO.P,R18,1*%
%TO.N,+3.3V*%
X587880000Y-274000000D03*
%TO.P,R18,2*%
%TO.N,/NOTE_18*%
X577720000Y-274000000D03*
%TD*%
%TO.P,R19,1*%
%TO.N,+3.3V*%
X612880000Y-274200000D03*
%TO.P,R19,2*%
%TO.N,/NOTE_19*%
X602720000Y-274200000D03*
%TD*%
D11*
%TO.P,J23,1,Pin_1*%
%TO.N,/NOTE_20*%
X625500000Y-277600000D03*
%TD*%
D10*
%TO.P,R7,1*%
%TO.N,+3.3V*%
X263280000Y-273400000D03*
%TO.P,R7,2*%
%TO.N,/NOTE_7*%
X253120000Y-273400000D03*
%TD*%
D11*
%TO.P,J21,1,Pin_1*%
%TO.N,/NOTE_18*%
X575000000Y-277500000D03*
%TD*%
%TO.P,J4,1,Pin_1*%
%TO.N,/NOTE_3*%
X125000000Y-277000000D03*
%TD*%
%TO.P,J19,1,Pin_1*%
%TO.N,/NOTE_16*%
X500000000Y-277500000D03*
%TD*%
D10*
%TO.P,R1,1*%
%TO.N,+3.3V*%
X88160000Y-273000000D03*
%TO.P,R1,2*%
%TO.N,/NOTE_1*%
X78000000Y-273000000D03*
%TD*%
%TO.P,R3,1*%
%TO.N,+3.3V*%
X138000000Y-273000000D03*
%TO.P,R3,2*%
%TO.N,/NOTE_3*%
X127840000Y-273000000D03*
%TD*%
D11*
%TO.P,J7,1,Pin_1*%
%TO.N,/NOTE_6*%
X225000000Y-277500000D03*
%TD*%
%TO.P,J6,1,Pin_1*%
%TO.N,/NOTE_5*%
X175000000Y-277000000D03*
%TD*%
%TO.P,J24,1,Pin_1*%
%TO.N,/NOTE_21*%
X650000000Y-277600000D03*
%TD*%
%TO.P,J10,1,Pin_1*%
%TO.N,/NOTE_9*%
X300000000Y-277000000D03*
%TD*%
%TO.P,J2,1,Pin_1*%
%TO.N,/NOTE_1*%
X75000000Y-277000000D03*
%TD*%
D10*
%TO.P,R13,2*%
%TO.N,/NOTE_13*%
X427800000Y-274000000D03*
%TO.P,R13,1*%
%TO.N,+3.3V*%
X437960000Y-274000000D03*
%TD*%
D11*
%TO.P,J8,1,Pin_1*%
%TO.N,/NOTE_7*%
X250000000Y-277000000D03*
%TD*%
D10*
%TO.P,R21,1*%
%TO.N,+3.3V*%
X662880000Y-274200000D03*
%TO.P,R21,2*%
%TO.N,/NOTE_21*%
X652720000Y-274200000D03*
%TD*%
%TO.P,R23,1*%
%TO.N,+3.3V*%
X712880000Y-274000000D03*
%TO.P,R23,2*%
%TO.N,/NOTE_23*%
X702720000Y-274000000D03*
%TD*%
D11*
%TO.P,J13,1,Pin_1*%
%TO.N,/NOTE_12*%
X375000000Y-277500000D03*
%TD*%
%TO.P,J28,1,Pin_1*%
%TO.N,/NOTE_25*%
X775000000Y-277500000D03*
%TD*%
%TO.P,J3,1,Pin_1*%
%TO.N,/NOTE_2*%
X100000000Y-277000000D03*
%TD*%
D10*
%TO.P,R20,1*%
%TO.N,+3.3V*%
X638280000Y-274200000D03*
%TO.P,R20,2*%
%TO.N,/NOTE_20*%
X628120000Y-274200000D03*
%TD*%
D11*
%TO.P,J15,1,Pin_1*%
%TO.N,/NOTE_14*%
X449500000Y-277400000D03*
%TD*%
D10*
%TO.P,R9,1*%
%TO.N,+3.3V*%
X312960000Y-273600000D03*
%TO.P,R9,2*%
%TO.N,/NOTE_9*%
X302800000Y-273600000D03*
%TD*%
D11*
%TO.P,J22,1,Pin_1*%
%TO.N,/NOTE_19*%
X600000000Y-277600000D03*
%TD*%
D10*
%TO.P,R6,1*%
%TO.N,+3.3V*%
X237960000Y-273600000D03*
%TO.P,R6,2*%
%TO.N,/NOTE_6*%
X227800000Y-273600000D03*
%TD*%
D11*
%TO.P,J26,1,Pin_1*%
%TO.N,/NOTE_23*%
X700000000Y-277500000D03*
%TD*%
%TO.P,J14,1,Pin_1*%
%TO.N,/NOTE_13*%
X425000000Y-277400000D03*
%TD*%
%TO.P,J25,1,Pin_1*%
%TO.N,/NOTE_22*%
X675000000Y-277500000D03*
%TD*%
D10*
%TO.P,R2,1*%
%TO.N,+3.3V*%
X113200000Y-273000000D03*
%TO.P,R2,2*%
%TO.N,/NOTE_2*%
X103040000Y-273000000D03*
%TD*%
D11*
%TO.P,J30,1,Pin_1*%
%TO.N,/UART_TX*%
X749060000Y-217400000D03*
D12*
%TO.P,J30,2,Pin_2*%
%TO.N,/UART_RX*%
X751600000Y-217400000D03*
%TD*%
D10*
%TO.P,R12,1*%
%TO.N,+3.3V*%
X387880000Y-274000000D03*
%TO.P,R12,2*%
%TO.N,/NOTE_12*%
X377720000Y-274000000D03*
%TD*%
%TO.P,R4,1*%
%TO.N,+3.3V*%
X163000000Y-273000000D03*
%TO.P,R4,2*%
%TO.N,/NOTE_4*%
X152840000Y-273000000D03*
%TD*%
D11*
%TO.P,J16,1,Pin_1*%
%TO.N,/NOTE_22*%
X742750000Y-217490000D03*
D12*
%TO.P,J16,2,Pin_2*%
%TO.N,/NOTE_23*%
X742750000Y-220030000D03*
%TO.P,J16,3,Pin_3*%
%TO.N,/NOTE_24*%
X742750000Y-222570000D03*
%TO.P,J16,4,Pin_4*%
%TO.N,/NOTE_25*%
X742750000Y-225110000D03*
%TO.P,J16,5,Pin_5*%
%TO.N,/NOTE_9*%
X742750000Y-227650000D03*
%TO.P,J16,6,Pin_6*%
%TO.N,/UART_TX*%
X742750000Y-230190000D03*
%TO.P,J16,7,Pin_7*%
%TO.N,/UART_RX*%
X742750000Y-232730000D03*
%TO.P,J16,8,Pin_8*%
%TO.N,unconnected-(J16-Pin_8-Pad8)*%
X742750000Y-235270000D03*
%TO.P,J16,9,Pin_9*%
%TO.N,unconnected-(J16-Pin_9-Pad9)*%
X742750000Y-237810000D03*
%TO.P,J16,10,Pin_10*%
%TO.N,/NOTE_10*%
X742750000Y-240350000D03*
%TO.P,J16,11,Pin_11*%
%TO.N,/NOTE_14*%
X742750000Y-242890000D03*
%TO.P,J16,12,Pin_12*%
%TO.N,/NOTE_15*%
X742750000Y-245430000D03*
%TO.P,J16,13,Pin_13*%
%TO.N,/NOTE_16*%
X742750000Y-247970000D03*
%TO.P,J16,14,Pin_14*%
%TO.N,/NOTE_17*%
X742750000Y-250510000D03*
%TO.P,J16,15,Pin_15*%
%TO.N,/NOTE_18*%
X742750000Y-253050000D03*
%TO.P,J16,16,Pin_16*%
%TO.N,/NOTE_19*%
X742750000Y-255590000D03*
%TO.P,J16,17,Pin_17*%
%TO.N,/NOTE_20*%
X742750000Y-258130000D03*
%TO.P,J16,18,Pin_18*%
%TO.N,unconnected-(J16-Pin_18-Pad18)*%
X742750000Y-260670000D03*
%TO.P,J16,19,Pin_19*%
%TO.N,GND*%
X742750000Y-263210000D03*
%TO.P,J16,20,Pin_20*%
%TO.N,+3.3V*%
X742750000Y-265750000D03*
%TD*%
D10*
%TO.P,R11,2*%
%TO.N,/NOTE_11*%
X352840000Y-273700000D03*
%TO.P,R11,1*%
%TO.N,+3.3V*%
X363000000Y-273700000D03*
%TD*%
%TO.P,R8,1*%
%TO.N,+3.3V*%
X287960000Y-273600000D03*
%TO.P,R8,2*%
%TO.N,/NOTE_8*%
X277800000Y-273600000D03*
%TD*%
D11*
%TO.P,J27,1,Pin_1*%
%TO.N,/NOTE_24*%
X725000000Y-277500000D03*
%TD*%
%TO.P,J11,1,Pin_1*%
%TO.N,/NOTE_10*%
X325000000Y-277000000D03*
%TD*%
D10*
%TO.P,R22,1*%
%TO.N,+3.3V*%
X687960000Y-274000000D03*
%TO.P,R22,2*%
%TO.N,/NOTE_22*%
X677800000Y-274000000D03*
%TD*%
D11*
%TO.P,J17,1,Pin_1*%
%TO.N,unconnected-(J17-Pin_1-Pad1)*%
X757750000Y-217490000D03*
D12*
%TO.P,J17,2,Pin_2*%
%TO.N,unconnected-(J17-Pin_2-Pad2)*%
X757750000Y-220030000D03*
%TO.P,J17,3,Pin_3*%
%TO.N,unconnected-(J17-Pin_3-Pad3)*%
X757750000Y-222570000D03*
%TO.P,J17,4,Pin_4*%
%TO.N,/NOTE_21*%
X757750000Y-225110000D03*
%TO.P,J17,5,Pin_5*%
%TO.N,/NOTE_13*%
X757750000Y-227650000D03*
%TO.P,J17,6,Pin_6*%
%TO.N,/NOTE_12*%
X757750000Y-230190000D03*
%TO.P,J17,7,Pin_7*%
%TO.N,/NOTE_11*%
X757750000Y-232730000D03*
%TO.P,J17,8,Pin_8*%
%TO.N,/NOTE_8*%
X757750000Y-235270000D03*
%TO.P,J17,9,Pin_9*%
%TO.N,/NOTE_7*%
X757750000Y-237810000D03*
%TO.P,J17,10,Pin_10*%
%TO.N,/NOTE_6*%
X757750000Y-240350000D03*
%TO.P,J17,11,Pin_11*%
%TO.N,/NOTE_5*%
X757750000Y-242890000D03*
%TO.P,J17,12,Pin_12*%
%TO.N,/NOTE_4*%
X757750000Y-245430000D03*
%TO.P,J17,13,Pin_13*%
%TO.N,/NOTE_3*%
X757750000Y-247970000D03*
%TO.P,J17,14,Pin_14*%
%TO.N,/NOTE_2*%
X757750000Y-250510000D03*
%TO.P,J17,15,Pin_15*%
%TO.N,/NOTE_1*%
X757750000Y-253050000D03*
%TO.P,J17,16,Pin_16*%
%TO.N,unconnected-(J17-Pin_16-Pad16)*%
X757750000Y-255590000D03*
%TO.P,J17,17,Pin_17*%
%TO.N,unconnected-(J17-Pin_17-Pad17)*%
X757750000Y-258130000D03*
%TO.P,J17,18,Pin_18*%
%TO.N,unconnected-(J17-Pin_18-Pad18)*%
X757750000Y-260670000D03*
%TO.P,J17,19,Pin_19*%
%TO.N,unconnected-(J17-Pin_19-Pad19)*%
X757750000Y-263210000D03*
%TO.P,J17,20,Pin_20*%
%TO.N,unconnected-(J17-Pin_20-Pad20)*%
X757750000Y-265750000D03*
%TD*%
D13*
%TO.N,/UART_RX*%
X748000000Y-231400000D03*
%TO.N,/UART_TX*%
X747200000Y-229800000D03*
%TO.N,GND*%
X744400000Y-274182869D03*
%TO.N,/NOTE_21*%
X744800000Y-226200000D03*
%TO.N,/NOTE_25*%
X748799999Y-227000000D03*
X758600000Y-268400000D03*
X749400000Y-267800000D03*
%TO.N,/NOTE_20*%
X745600000Y-258600000D03*
%TO.N,/NOTE_19*%
X746196000Y-256000000D03*
%TO.N,/NOTE_18*%
X746398000Y-253600000D03*
%TO.N,/NOTE_17*%
X746998000Y-251200000D03*
%TO.N,/NOTE_16*%
X747200000Y-248600000D03*
%TO.N,/NOTE_15*%
X747400000Y-245800000D03*
%TO.N,/NOTE_14*%
X747600000Y-243200000D03*
%TO.N,/NOTE_13*%
X750800000Y-228000000D03*
X749200000Y-279200000D03*
%TO.N,/NOTE_12*%
X751600000Y-230800000D03*
X750000000Y-280200000D03*
%TO.N,/NOTE_11*%
X752000000Y-234600000D03*
X749800000Y-281000000D03*
%TO.N,/NOTE_10*%
X750536984Y-281736984D03*
X752400000Y-242200000D03*
%TO.N,/NOTE_9*%
X749600000Y-282533357D03*
X753392000Y-229600000D03*
%TO.N,/NOTE_8*%
X750556239Y-283133358D03*
%TO.N,/NOTE_7*%
X751000000Y-283799000D03*
%TO.N,/NOTE_6*%
X751800000Y-284200000D03*
%TO.N,/NOTE_5*%
X753600000Y-272003000D03*
%TO.N,/NOTE_4*%
X754334870Y-271645529D03*
%TO.N,/NOTE_2*%
X755800000Y-270800000D03*
%TO.N,/NOTE_1*%
X756600000Y-270400000D03*
%TO.N,/NOTE_3*%
X755000000Y-271201000D03*
%TD*%
D14*
%TO.N,/NOTE_8*%
X753793000Y-239227000D02*
X757750000Y-235270000D01*
X750556239Y-283133358D02*
X752199000Y-281490597D01*
X752199000Y-281490597D02*
X752199000Y-280200000D01*
%TO.N,+3.3V*%
X638280000Y-274200000D02*
X639280000Y-273200000D01*
X639280000Y-273200000D02*
X639280000Y-272800000D01*
X638080000Y-272800000D02*
X638280000Y-273000000D01*
X638280000Y-273000000D02*
X638280000Y-274200000D01*
%TO.N,/UART_RX*%
X748000000Y-221000000D02*
X748000000Y-231400000D01*
X751600000Y-217400000D02*
X748000000Y-221000000D01*
%TO.N,/UART_TX*%
X747400000Y-220200000D02*
X747200000Y-220400000D01*
X749060000Y-217400000D02*
X749060000Y-218540000D01*
X747200000Y-220400000D02*
X747200000Y-229800000D01*
X749060000Y-218540000D02*
X747400000Y-220200000D01*
%TO.N,GND*%
X744400000Y-274182869D02*
X744400000Y-274000000D01*
X744400000Y-274000000D02*
X744200000Y-273800000D01*
X744200000Y-264660000D02*
X742750000Y-263210000D01*
X744200000Y-273800000D02*
X744200000Y-264660000D01*
%TO.N,/NOTE_25*%
X748799999Y-227000000D02*
X749400000Y-227600001D01*
X749400000Y-227600001D02*
X749400000Y-267800000D01*
X758600000Y-269199942D02*
X758600000Y-268400000D01*
X763200058Y-273800000D02*
X758600000Y-269199942D01*
X768800000Y-273800000D02*
X763200058Y-273800000D01*
X775000000Y-277500000D02*
X772500000Y-277500000D01*
X772500000Y-277500000D02*
X768800000Y-273800000D01*
%TO.N,/NOTE_24*%
X727600000Y-274000000D02*
X735600000Y-274000000D01*
X735600000Y-274000000D02*
X738000000Y-271600000D01*
X741200000Y-271200000D02*
X741200000Y-270467042D01*
X738000000Y-271600000D02*
X740800000Y-271600000D01*
X740800000Y-271600000D02*
X741200000Y-271200000D01*
X741200000Y-270467042D02*
X741252000Y-270415042D01*
X741252000Y-270415042D02*
X741252000Y-224068000D01*
X741252000Y-224068000D02*
X742750000Y-222570000D01*
%TO.N,/NOTE_23*%
X702720000Y-274000000D02*
X705000000Y-274000000D01*
X705000000Y-274000000D02*
X708000000Y-271000000D01*
X708000000Y-271000000D02*
X740600000Y-271000000D01*
X740600000Y-271000000D02*
X740600000Y-270499942D01*
X740851000Y-221929000D02*
X742750000Y-220030000D01*
X740600000Y-270499942D02*
X740851000Y-270248942D01*
X740851000Y-270248942D02*
X740851000Y-221929000D01*
%TO.N,/NOTE_24*%
X725000000Y-277500000D02*
X725000000Y-276600000D01*
X725000000Y-276600000D02*
X727600000Y-274000000D01*
%TO.N,/NOTE_23*%
X700000000Y-277500000D02*
X700000000Y-276720000D01*
X700000000Y-276720000D02*
X702720000Y-274000000D01*
%TO.N,/NOTE_22*%
X677800000Y-274000000D02*
X677800000Y-277000000D01*
X744090000Y-217490000D02*
X742750000Y-217490000D01*
X677800000Y-277000000D02*
X680600000Y-279800000D01*
X680600000Y-279800000D02*
X744600000Y-279800000D01*
X744200000Y-217600000D02*
X744090000Y-217490000D01*
X744600000Y-279800000D02*
X745000000Y-279400000D01*
X744199000Y-217601000D02*
X744200000Y-217600000D01*
X745000000Y-279400000D02*
X745000000Y-259800000D01*
X744199000Y-258799000D02*
X744199000Y-217601000D01*
X745000000Y-259800000D02*
X744400000Y-259200000D01*
X744400000Y-259000000D02*
X744199000Y-258799000D01*
X744400000Y-259200000D02*
X744400000Y-259000000D01*
X675000000Y-277500000D02*
X675000000Y-276800000D01*
X675000000Y-276800000D02*
X677800000Y-274000000D01*
%TO.N,/NOTE_21*%
X650000000Y-277600000D02*
X650000000Y-276920000D01*
X650000000Y-276920000D02*
X652720000Y-274200000D01*
%TO.N,/NOTE_20*%
X745994000Y-258994000D02*
X745600000Y-258600000D01*
X745994000Y-259000000D02*
X745994000Y-258994000D01*
X745994000Y-280206000D02*
X745994000Y-280200000D01*
X745200000Y-281000000D02*
X745994000Y-280206000D01*
X628120000Y-279720000D02*
X629400000Y-281000000D01*
X628120000Y-274200000D02*
X628120000Y-279720000D01*
X745994000Y-280200000D02*
X745994000Y-259000000D01*
X629400000Y-281000000D02*
X745200000Y-281000000D01*
X625500000Y-277600000D02*
X625500000Y-276820000D01*
X625500000Y-276820000D02*
X628120000Y-274200000D01*
%TO.N,/NOTE_19*%
X746395000Y-256199000D02*
X746196000Y-256000000D01*
X746395000Y-256400000D02*
X746395000Y-256199000D01*
X746395000Y-279195000D02*
X746395000Y-256400000D01*
X602720000Y-274200000D02*
X602720000Y-280320000D01*
X602720000Y-280320000D02*
X603800000Y-281400000D01*
X603800000Y-281400000D02*
X745400000Y-281400000D01*
X745400000Y-281400000D02*
X746395000Y-280405000D01*
X746395000Y-280405000D02*
X746395000Y-279195000D01*
X600000000Y-277600000D02*
X600000000Y-276920000D01*
X600000000Y-276920000D02*
X602720000Y-274200000D01*
%TO.N,/NOTE_16*%
X502800000Y-274000000D02*
X502800000Y-280400000D01*
X502800000Y-280400000D02*
X505200000Y-282800000D01*
X505200000Y-282800000D02*
X747000000Y-282800000D01*
X747598000Y-248998000D02*
X747200000Y-248600000D01*
X747000000Y-282800000D02*
X747598000Y-282202000D01*
X747598000Y-282202000D02*
X747598000Y-248998000D01*
%TO.N,/NOTE_18*%
X577720000Y-274000000D02*
X577720000Y-279920000D01*
X577720000Y-279920000D02*
X579800000Y-282000000D01*
X579800000Y-282000000D02*
X746000000Y-282000000D01*
X746000000Y-282000000D02*
X746796000Y-281204000D01*
X746796000Y-281204000D02*
X746796000Y-253998000D01*
X746796000Y-253998000D02*
X746398000Y-253600000D01*
%TO.N,/NOTE_17*%
X527320000Y-274000000D02*
X527320000Y-279520000D01*
X527320000Y-279520000D02*
X530200000Y-282400000D01*
X530200000Y-282400000D02*
X746400000Y-282400000D01*
X746400000Y-282400000D02*
X747197000Y-281603000D01*
X747197000Y-281603000D02*
X747197000Y-251399000D01*
X747197000Y-251399000D02*
X746998000Y-251200000D01*
%TO.N,/NOTE_18*%
X575000000Y-277500000D02*
X575000000Y-276720000D01*
X575000000Y-276720000D02*
X577720000Y-274000000D01*
%TO.N,/NOTE_17*%
X524500000Y-277500000D02*
X524500000Y-276820000D01*
X524500000Y-276820000D02*
X527320000Y-274000000D01*
%TO.N,/NOTE_16*%
X500000000Y-277500000D02*
X500000000Y-276800000D01*
X500000000Y-276800000D02*
X502800000Y-274000000D01*
%TO.N,/NOTE_15*%
X477320000Y-274000000D02*
X477320000Y-282120000D01*
X477320000Y-282120000D02*
X478600000Y-283400000D01*
X478600000Y-283400000D02*
X747600000Y-283400000D01*
X747600000Y-283400000D02*
X747999000Y-283001000D01*
X747999000Y-283001000D02*
X747999000Y-246399000D01*
X747999000Y-246399000D02*
X747400000Y-245800000D01*
X474500000Y-277500000D02*
X474500000Y-276820000D01*
X474500000Y-276820000D02*
X477320000Y-274000000D01*
%TO.N,/NOTE_14*%
X748400000Y-244000000D02*
X747600000Y-243200000D01*
X748400000Y-279400000D02*
X748400000Y-244000000D01*
X747600000Y-284400000D02*
X748400000Y-283600000D01*
X748400000Y-283600000D02*
X748400000Y-279400000D01*
X456600000Y-284400000D02*
X747600000Y-284400000D01*
X452320000Y-274000000D02*
X452320000Y-280120000D01*
X452320000Y-280120000D02*
X456600000Y-284400000D01*
X449500000Y-277400000D02*
X449500000Y-276820000D01*
X449500000Y-276820000D02*
X452320000Y-274000000D01*
%TO.N,/NOTE_13*%
X750800000Y-228000000D02*
X750800000Y-228200000D01*
X750800000Y-228200000D02*
X750400000Y-228600000D01*
X750400000Y-228600000D02*
X750400000Y-268200000D01*
X750400000Y-268200000D02*
X749800000Y-268800000D01*
X749800000Y-268800000D02*
X749800000Y-278600000D01*
X749800000Y-278600000D02*
X749200000Y-279200000D01*
%TO.N,/NOTE_12*%
X751200000Y-268400000D02*
X751200000Y-231200000D01*
X751200000Y-231200000D02*
X751600000Y-230800000D01*
X750400000Y-269400000D02*
X750400000Y-269200000D01*
X750400000Y-269200000D02*
X751200000Y-268400000D01*
%TO.N,/NOTE_11*%
X749800000Y-281000000D02*
X750400000Y-281000000D01*
X750400000Y-281000000D02*
X750995000Y-280405000D01*
X750995000Y-280405000D02*
X750995000Y-269795000D01*
X750995000Y-269795000D02*
X751005000Y-269795000D01*
X751005000Y-269795000D02*
X751800000Y-269000000D01*
X751800000Y-269000000D02*
X751799000Y-268999000D01*
X751799000Y-268999000D02*
X751799000Y-234801000D01*
X751799000Y-234801000D02*
X752000000Y-234600000D01*
%TO.N,/NOTE_12*%
X750000000Y-280200000D02*
X750400000Y-279800000D01*
X750400000Y-279800000D02*
X750400000Y-279600000D01*
X750400000Y-279600000D02*
X750400000Y-269400000D01*
%TO.N,/NOTE_10*%
X752791000Y-268067800D02*
X752991000Y-267867800D01*
X752791000Y-268740600D02*
X752791000Y-268067800D01*
X751396000Y-280804000D02*
X751396000Y-271600000D01*
X751396000Y-270135600D02*
X752791000Y-268740600D01*
X752991000Y-267867800D02*
X752991000Y-242791000D01*
X752991000Y-242791000D02*
X752400000Y-242200000D01*
X751396000Y-271600000D02*
X751396000Y-270135600D01*
X750536984Y-281736984D02*
X750536984Y-281663016D01*
X750536984Y-281663016D02*
X751396000Y-280804000D01*
%TO.N,/NOTE_9*%
X751798000Y-281324497D02*
X750589140Y-282533357D01*
X751798000Y-280366100D02*
X751798000Y-281324497D01*
X750589140Y-282533357D02*
X749600000Y-282533357D01*
X751797000Y-280365100D02*
X751798000Y-280366100D01*
X751797000Y-270301700D02*
X751797000Y-280365100D01*
X753192000Y-268906700D02*
X751797000Y-270301700D01*
X753392000Y-268033900D02*
X753192000Y-268233900D01*
X753192000Y-268233900D02*
X753192000Y-268906700D01*
X753392000Y-229600000D02*
X753392000Y-268033900D01*
%TO.N,/NOTE_8*%
X753593000Y-269072800D02*
X753593000Y-268400000D01*
X752199000Y-280200000D02*
X752199000Y-279999000D01*
X752198000Y-270467800D02*
X753593000Y-269072800D01*
X753793000Y-268200000D02*
X753793000Y-239227000D01*
X753593000Y-268400000D02*
X753793000Y-268200000D01*
X752199000Y-280200000D02*
X752198000Y-280199000D01*
X752198000Y-280199000D02*
X752198000Y-270467800D01*
%TO.N,/NOTE_7*%
X751000000Y-283799000D02*
X752599000Y-282200000D01*
X752599000Y-282200000D02*
X752599000Y-270633900D01*
X754194000Y-268400000D02*
X754194000Y-241366000D01*
X752599000Y-270633900D02*
X753994000Y-269238900D01*
X753994000Y-269238900D02*
X753994000Y-268600000D01*
X753994000Y-268600000D02*
X754194000Y-268400000D01*
X754194000Y-241366000D02*
X757750000Y-237810000D01*
%TO.N,/NOTE_6*%
X754395000Y-268800000D02*
X754595000Y-268600000D01*
X753000000Y-283000000D02*
X753000000Y-270800000D01*
X754997000Y-243103000D02*
X757750000Y-240350000D01*
X751800000Y-284200000D02*
X753000000Y-283000000D01*
X753000000Y-270800000D02*
X754395000Y-269405000D01*
X754395000Y-269405000D02*
X754395000Y-268800000D01*
X754595000Y-268600000D02*
X754595000Y-253002000D01*
X754595000Y-253002000D02*
X754997000Y-252600000D01*
X754997000Y-252600000D02*
X754997000Y-243103000D01*
%TO.N,/NOTE_5*%
X754796000Y-269000000D02*
X754996000Y-268800000D01*
X753600000Y-272003000D02*
X753600000Y-270800000D01*
X753600000Y-270800000D02*
X754796000Y-269604000D01*
X754796000Y-269604000D02*
X754796000Y-269000000D01*
X754996000Y-268800000D02*
X754996000Y-253202000D01*
X754996000Y-253202000D02*
X755398000Y-252800000D01*
X755398000Y-252800000D02*
X755398000Y-245242000D01*
X755398000Y-245242000D02*
X757750000Y-242890000D01*
%TO.N,+3.3V*%
X737760000Y-274000000D02*
X737760000Y-273054107D01*
X737760000Y-273054107D02*
X738200000Y-272614107D01*
X639280000Y-272800000D02*
X662280000Y-272800000D01*
X512960000Y-273600000D02*
X513760000Y-272800000D01*
X363000000Y-273400000D02*
X363600000Y-272800000D01*
X387400000Y-272800000D02*
X388000000Y-273400000D01*
X613080000Y-272800000D02*
X613680000Y-273400000D01*
X462080000Y-272800000D02*
X462480000Y-273200000D01*
X588760000Y-272800000D02*
X613080000Y-272800000D01*
X537960000Y-273600000D02*
X538760000Y-272800000D01*
X488400000Y-272800000D02*
X512160000Y-272800000D01*
X614280000Y-272800000D02*
X638080000Y-272800000D01*
X513760000Y-272800000D02*
X537160000Y-272800000D01*
X437880000Y-273200000D02*
X438280000Y-272800000D01*
X363600000Y-272800000D02*
X387400000Y-272800000D01*
X742800000Y-271600000D02*
X742800000Y-265800000D01*
X587560000Y-272800000D02*
X588160000Y-273400000D01*
X388600000Y-272800000D02*
X437480000Y-272800000D01*
X512160000Y-272800000D02*
X512960000Y-273600000D01*
X538760000Y-272800000D02*
X587560000Y-272800000D01*
X388000000Y-273400000D02*
X388600000Y-272800000D01*
X437480000Y-272800000D02*
X437880000Y-273200000D01*
X662280000Y-272800000D02*
X662880000Y-273400000D01*
X438280000Y-272800000D02*
X462080000Y-272800000D01*
X588160000Y-273400000D02*
X588760000Y-272800000D01*
X537160000Y-272800000D02*
X537960000Y-273600000D01*
X613680000Y-273400000D02*
X614280000Y-272800000D01*
X687360000Y-272800000D02*
X687960000Y-273400000D01*
X462480000Y-273200000D02*
X462784012Y-272895988D01*
X462784012Y-272895988D02*
X487295988Y-272895988D01*
X487295988Y-272895988D02*
X487800000Y-273400000D01*
X487800000Y-273400000D02*
X488400000Y-272800000D01*
X662880000Y-273400000D02*
X663480000Y-272800000D01*
X663480000Y-272800000D02*
X687360000Y-272800000D01*
X741785893Y-272614107D02*
X742800000Y-271600000D01*
X738200000Y-272614107D02*
X741785893Y-272614107D01*
X742800000Y-265800000D02*
X742750000Y-265750000D01*
X337960000Y-273600000D02*
X338961000Y-272599000D01*
X338961000Y-272599000D02*
X361899000Y-272599000D01*
X361899000Y-272599000D02*
X363000000Y-273700000D01*
X337600000Y-272600000D02*
X337600000Y-273240000D01*
X337600000Y-273240000D02*
X337960000Y-273600000D01*
X287960000Y-273600000D02*
X289160000Y-272400000D01*
X289160000Y-272400000D02*
X312760000Y-272400000D01*
X312760000Y-272400000D02*
X313160000Y-272800000D01*
X313160000Y-272800000D02*
X313560000Y-272400000D01*
X313560000Y-272400000D02*
X337400000Y-272400000D01*
X337400000Y-272400000D02*
X337600000Y-272600000D01*
%TO.N,/NOTE_4*%
X754334870Y-271645529D02*
X754334870Y-270848087D01*
X754334870Y-270848087D02*
X755197000Y-269985957D01*
X755799000Y-247381000D02*
X757750000Y-245430000D01*
X755799000Y-253000000D02*
X755799000Y-247381000D01*
X755397000Y-253402000D02*
X755799000Y-253000000D01*
X755197000Y-269985957D02*
X755197000Y-269200000D01*
X755397000Y-269000000D02*
X755397000Y-253402000D01*
X755197000Y-269200000D02*
X755397000Y-269000000D01*
%TO.N,/NOTE_3*%
X755000000Y-271201000D02*
X755199000Y-271002000D01*
X755199000Y-271002000D02*
X755199000Y-270551057D01*
X755199000Y-270551057D02*
X755551057Y-270199000D01*
X756200000Y-249520000D02*
X757750000Y-247970000D01*
X755551057Y-270199000D02*
X755598000Y-270199000D01*
X755598000Y-270199000D02*
X755598000Y-269434900D01*
X755598000Y-269434900D02*
X755798000Y-269234900D01*
X755798000Y-269234900D02*
X755798000Y-253867800D01*
X755798000Y-253867800D02*
X756200000Y-253465800D01*
X756200000Y-253465800D02*
X756200000Y-249520000D01*
%TO.N,+3.3V*%
X263280000Y-273400000D02*
X264181000Y-272499000D01*
X264181000Y-272499000D02*
X286859000Y-272499000D01*
X286859000Y-272499000D02*
X287960000Y-273600000D01*
X261859000Y-271899000D02*
X262960000Y-273000000D01*
X237960000Y-273600000D02*
X239661000Y-271899000D01*
X161899000Y-271899000D02*
X163000000Y-273000000D01*
X139101000Y-271899000D02*
X161899000Y-271899000D01*
X163000000Y-273000000D02*
X164101000Y-271899000D01*
X188581000Y-272499000D02*
X236859000Y-272499000D01*
X236859000Y-272499000D02*
X237960000Y-273600000D01*
X114400000Y-271800000D02*
X136800000Y-271800000D01*
X188080000Y-273000000D02*
X188581000Y-272499000D01*
X186979000Y-271899000D02*
X188080000Y-273000000D01*
X239661000Y-271899000D02*
X261859000Y-271899000D01*
X138000000Y-273000000D02*
X139101000Y-271899000D01*
X113200000Y-273000000D02*
X114400000Y-271800000D01*
X164101000Y-271899000D02*
X186979000Y-271899000D01*
X136800000Y-271800000D02*
X138000000Y-273000000D01*
X89261000Y-271899000D02*
X112099000Y-271899000D01*
X88160000Y-273000000D02*
X89261000Y-271899000D01*
X112099000Y-271899000D02*
X113200000Y-273000000D01*
%TO.N,/NOTE_2*%
X756600000Y-251660000D02*
X757750000Y-250510000D01*
X755800000Y-270800000D02*
X755847943Y-270800000D01*
X756600000Y-253632900D02*
X756600000Y-251660000D01*
X756199000Y-254033900D02*
X756600000Y-253632900D01*
X755999000Y-269601000D02*
X756199000Y-269401000D01*
X756199000Y-269401000D02*
X756199000Y-254033900D01*
X755999000Y-270648943D02*
X755999000Y-269601000D01*
X755847943Y-270800000D02*
X755999000Y-270648943D01*
%TO.N,/NOTE_1*%
X756600000Y-270400000D02*
X756600000Y-254200000D01*
X756600000Y-254200000D02*
X757750000Y-253050000D01*
%TO.N,/NOTE_21*%
X652720000Y-279520000D02*
X653600000Y-280400000D01*
X745000000Y-280599000D02*
X745001000Y-280599000D01*
X745593000Y-259400000D02*
X745400000Y-259400000D01*
X745400000Y-259400000D02*
X745000000Y-259000000D01*
X653600000Y-280400000D02*
X653799000Y-280599000D01*
X745000000Y-259000000D02*
X744800000Y-258800000D01*
X745001000Y-280599000D02*
X745593000Y-280007000D01*
X745593000Y-279600000D02*
X745593000Y-259400000D01*
X745593000Y-280007000D02*
X745593000Y-279600000D01*
X744800000Y-258800000D02*
X744800000Y-226200000D01*
X653799000Y-280599000D02*
X745000000Y-280599000D01*
X652720000Y-274200000D02*
X652720000Y-279520000D01*
%TD*%
M02*
