%TF.GenerationSoftware,KiCad,Pcbnew,9.0.4-1.fc42*%
%TF.CreationDate,2025-09-03T13:41:55+02:00*%
%TF.ProjectId,pedai-hw,70656461-692d-4687-972e-6b696361645f,rev?*%
%TF.SameCoordinates,Original*%
%TF.FileFunction,Copper,L1,Top*%
%TF.FilePolarity,Positive*%
%FSLAX46Y46*%
G04 Gerber Fmt 4.6, Leading zero omitted, Abs format (unit mm)*
G04 Created by KiCad (PCBNEW 9.0.4-1.fc42) date 2025-09-03 13:41:55*
%MOMM*%
%LPD*%
G01*
G04 APERTURE LIST*
G04 Aperture macros list*
%AMRoundRect*
0 Rectangle with rounded corners*
0 $1 Rounding radius*
0 $2 $3 $4 $5 $6 $7 $8 $9 X,Y pos of 4 corners*
0 Add a 4 corners polygon primitive as box body*
4,1,4,$2,$3,$4,$5,$6,$7,$8,$9,$2,$3,0*
0 Add four circle primitives for the rounded corners*
1,1,$1+$1,$2,$3*
1,1,$1+$1,$4,$5*
1,1,$1+$1,$6,$7*
1,1,$1+$1,$8,$9*
0 Add four rect primitives between the rounded corners*
20,1,$1+$1,$2,$3,$4,$5,0*
20,1,$1+$1,$4,$5,$6,$7,0*
20,1,$1+$1,$6,$7,$8,$9,0*
20,1,$1+$1,$8,$9,$2,$3,0*%
G04 Aperture macros list end*
%TA.AperFunction,ComponentPad*%
%ADD10C,1.600000*%
%TD*%
%TA.AperFunction,ComponentPad*%
%ADD11R,1.700000X1.700000*%
%TD*%
%TA.AperFunction,SMDPad,CuDef*%
%ADD12RoundRect,1.250000X-3.750000X1.250000X-3.750000X-1.250000X3.750000X-1.250000X3.750000X1.250000X0*%
%TD*%
%TA.AperFunction,ComponentPad*%
%ADD13C,1.700000*%
%TD*%
%TA.AperFunction,ViaPad*%
%ADD14C,0.600000*%
%TD*%
%TA.AperFunction,Conductor*%
%ADD15C,0.200000*%
%TD*%
G04 APERTURE END LIST*
D10*
%TO.P,R24,1*%
%TO.N,+3.3V*%
X737760000Y-274000000D03*
%TO.P,R24,2*%
%TO.N,/NOTE_24*%
X727600000Y-274000000D03*
%TD*%
%TO.P,R25,1*%
%TO.N,+3.3V*%
X758640000Y-273800000D03*
%TO.P,R25,2*%
%TO.N,/NOTE_25*%
X768800000Y-273800000D03*
%TD*%
%TO.P,R5,1*%
%TO.N,+3.3V*%
X188080000Y-273000000D03*
%TO.P,R5,2*%
%TO.N,/NOTE_5*%
X177920000Y-273000000D03*
%TD*%
%TO.P,R15,1*%
%TO.N,+3.3V*%
X487480000Y-274000000D03*
%TO.P,R15,2*%
%TO.N,/NOTE_15*%
X477320000Y-274000000D03*
%TD*%
%TO.P,R16,1*%
%TO.N,+3.3V*%
X512960000Y-274000000D03*
%TO.P,R16,2*%
%TO.N,/NOTE_16*%
X502800000Y-274000000D03*
%TD*%
D11*
%TO.P,J9,1,Pin_1*%
%TO.N,/NOTE_8*%
X275000000Y-277000000D03*
%TD*%
D10*
%TO.P,R14,1*%
%TO.N,+3.3V*%
X462480000Y-274000000D03*
%TO.P,R14,2*%
%TO.N,/NOTE_14*%
X452320000Y-274000000D03*
%TD*%
%TO.P,R10,1*%
%TO.N,+3.3V*%
X337960000Y-273600000D03*
%TO.P,R10,2*%
%TO.N,/NOTE_10*%
X327800000Y-273600000D03*
%TD*%
%TO.P,R17,1*%
%TO.N,+3.3V*%
X537480000Y-274000000D03*
%TO.P,R17,2*%
%TO.N,/NOTE_17*%
X527320000Y-274000000D03*
%TD*%
D11*
%TO.P,J18,1,Pin_1*%
%TO.N,/NOTE_15*%
X474500000Y-277500000D03*
%TD*%
%TO.P,J5,1,Pin_1*%
%TO.N,/NOTE_4*%
X150000000Y-277000000D03*
%TD*%
%TO.P,J20,1,Pin_1*%
%TO.N,/NOTE_17*%
X524500000Y-277500000D03*
%TD*%
%TO.P,J12,1,Pin_1*%
%TO.N,/NOTE_11*%
X350000000Y-277000000D03*
%TD*%
D10*
%TO.P,R18,1*%
%TO.N,+3.3V*%
X587880000Y-274000000D03*
%TO.P,R18,2*%
%TO.N,/NOTE_18*%
X577720000Y-274000000D03*
%TD*%
%TO.P,R19,1*%
%TO.N,+3.3V*%
X612880000Y-274200000D03*
%TO.P,R19,2*%
%TO.N,/NOTE_19*%
X602720000Y-274200000D03*
%TD*%
D11*
%TO.P,J23,1,Pin_1*%
%TO.N,/NOTE_20*%
X625500000Y-277600000D03*
%TD*%
D10*
%TO.P,R7,1*%
%TO.N,+3.3V*%
X263280000Y-273400000D03*
%TO.P,R7,2*%
%TO.N,/NOTE_7*%
X253120000Y-273400000D03*
%TD*%
D11*
%TO.P,J21,1,Pin_1*%
%TO.N,/NOTE_18*%
X575000000Y-277500000D03*
%TD*%
%TO.P,J4,1,Pin_1*%
%TO.N,/NOTE_3*%
X125000000Y-277000000D03*
%TD*%
%TO.P,J19,1,Pin_1*%
%TO.N,/NOTE_16*%
X500000000Y-277500000D03*
%TD*%
D10*
%TO.P,R1,1*%
%TO.N,+3.3V*%
X88160000Y-273000000D03*
%TO.P,R1,2*%
%TO.N,/NOTE_1*%
X78000000Y-273000000D03*
%TD*%
%TO.P,R3,1*%
%TO.N,+3.3V*%
X138000000Y-273000000D03*
%TO.P,R3,2*%
%TO.N,/NOTE_3*%
X127840000Y-273000000D03*
%TD*%
D11*
%TO.P,J7,1,Pin_1*%
%TO.N,/NOTE_6*%
X225000000Y-277500000D03*
%TD*%
%TO.P,J6,1,Pin_1*%
%TO.N,/NOTE_5*%
X175000000Y-277000000D03*
%TD*%
%TO.P,J24,1,Pin_1*%
%TO.N,/NOTE_21*%
X650000000Y-277600000D03*
%TD*%
%TO.P,J10,1,Pin_1*%
%TO.N,/NOTE_9*%
X300000000Y-277000000D03*
%TD*%
%TO.P,J2,1,Pin_1*%
%TO.N,/NOTE_1*%
X75000000Y-277000000D03*
%TD*%
D10*
%TO.P,R13,2*%
%TO.N,/NOTE_13*%
X427800000Y-274000000D03*
%TO.P,R13,1*%
%TO.N,+3.3V*%
X437960000Y-274000000D03*
%TD*%
D11*
%TO.P,J8,1,Pin_1*%
%TO.N,/NOTE_7*%
X250000000Y-277000000D03*
%TD*%
D12*
%TO.P,J29,1,Pin_1*%
%TO.N,GND*%
X763800000Y-282000000D03*
%TD*%
D10*
%TO.P,R21,1*%
%TO.N,+3.3V*%
X662880000Y-274200000D03*
%TO.P,R21,2*%
%TO.N,/NOTE_21*%
X652720000Y-274200000D03*
%TD*%
%TO.P,R23,1*%
%TO.N,+3.3V*%
X712880000Y-274000000D03*
%TO.P,R23,2*%
%TO.N,/NOTE_23*%
X702720000Y-274000000D03*
%TD*%
D11*
%TO.P,J13,1,Pin_1*%
%TO.N,/NOTE_12*%
X375000000Y-277500000D03*
%TD*%
%TO.P,J28,1,Pin_1*%
%TO.N,/NOTE_25*%
X775000000Y-277500000D03*
%TD*%
%TO.P,J3,1,Pin_1*%
%TO.N,/NOTE_2*%
X100000000Y-277000000D03*
%TD*%
D10*
%TO.P,R20,1*%
%TO.N,+3.3V*%
X638280000Y-274200000D03*
%TO.P,R20,2*%
%TO.N,/NOTE_20*%
X628120000Y-274200000D03*
%TD*%
D11*
%TO.P,J15,1,Pin_1*%
%TO.N,/NOTE_14*%
X449500000Y-277400000D03*
%TD*%
D10*
%TO.P,R9,1*%
%TO.N,+3.3V*%
X312960000Y-273600000D03*
%TO.P,R9,2*%
%TO.N,/NOTE_9*%
X302800000Y-273600000D03*
%TD*%
D11*
%TO.P,J22,1,Pin_1*%
%TO.N,/NOTE_19*%
X600000000Y-277600000D03*
%TD*%
D10*
%TO.P,R6,1*%
%TO.N,+3.3V*%
X237960000Y-273600000D03*
%TO.P,R6,2*%
%TO.N,/NOTE_6*%
X227800000Y-273600000D03*
%TD*%
D11*
%TO.P,J26,1,Pin_1*%
%TO.N,/NOTE_23*%
X700000000Y-277500000D03*
%TD*%
%TO.P,J14,1,Pin_1*%
%TO.N,/NOTE_13*%
X425000000Y-277400000D03*
%TD*%
%TO.P,J25,1,Pin_1*%
%TO.N,/NOTE_22*%
X675000000Y-277500000D03*
%TD*%
D10*
%TO.P,R2,1*%
%TO.N,+3.3V*%
X113200000Y-273000000D03*
%TO.P,R2,2*%
%TO.N,/NOTE_2*%
X103040000Y-273000000D03*
%TD*%
D11*
%TO.P,J30,1,Pin_1*%
%TO.N,/UART_TX*%
X749060000Y-217400000D03*
D13*
%TO.P,J30,2,Pin_2*%
%TO.N,/UART_RX*%
X751600000Y-217400000D03*
%TD*%
D10*
%TO.P,R12,1*%
%TO.N,+3.3V*%
X387880000Y-274000000D03*
%TO.P,R12,2*%
%TO.N,/NOTE_12*%
X377720000Y-274000000D03*
%TD*%
%TO.P,R4,1*%
%TO.N,+3.3V*%
X163000000Y-273000000D03*
%TO.P,R4,2*%
%TO.N,/NOTE_4*%
X152840000Y-273000000D03*
%TD*%
D11*
%TO.P,J16,1,Pin_1*%
%TO.N,/NOTE_22*%
X742750000Y-217490000D03*
D13*
%TO.P,J16,2,Pin_2*%
%TO.N,/NOTE_23*%
X742750000Y-220030000D03*
%TO.P,J16,3,Pin_3*%
%TO.N,/NOTE_24*%
X742750000Y-222570000D03*
%TO.P,J16,4,Pin_4*%
%TO.N,/NOTE_25*%
X742750000Y-225110000D03*
%TO.P,J16,5,Pin_5*%
%TO.N,/NOTE_9*%
X742750000Y-227650000D03*
%TO.P,J16,6,Pin_6*%
%TO.N,/UART_TX*%
X742750000Y-230190000D03*
%TO.P,J16,7,Pin_7*%
%TO.N,/UART_RX*%
X742750000Y-232730000D03*
%TO.P,J16,8,Pin_8*%
%TO.N,unconnected-(J16-Pin_8-Pad8)*%
X742750000Y-235270000D03*
%TO.P,J16,9,Pin_9*%
%TO.N,unconnected-(J16-Pin_9-Pad9)*%
X742750000Y-237810000D03*
%TO.P,J16,10,Pin_10*%
%TO.N,/NOTE_10*%
X742750000Y-240350000D03*
%TO.P,J16,11,Pin_11*%
%TO.N,/NOTE_14*%
X742750000Y-242890000D03*
%TO.P,J16,12,Pin_12*%
%TO.N,/NOTE_15*%
X742750000Y-245430000D03*
%TO.P,J16,13,Pin_13*%
%TO.N,/NOTE_16*%
X742750000Y-247970000D03*
%TO.P,J16,14,Pin_14*%
%TO.N,/NOTE_17*%
X742750000Y-250510000D03*
%TO.P,J16,15,Pin_15*%
%TO.N,/NOTE_18*%
X742750000Y-253050000D03*
%TO.P,J16,16,Pin_16*%
%TO.N,/NOTE_19*%
X742750000Y-255590000D03*
%TO.P,J16,17,Pin_17*%
%TO.N,/NOTE_20*%
X742750000Y-258130000D03*
%TO.P,J16,18,Pin_18*%
%TO.N,unconnected-(J16-Pin_18-Pad18)*%
X742750000Y-260670000D03*
%TO.P,J16,19,Pin_19*%
%TO.N,GND*%
X742750000Y-263210000D03*
%TO.P,J16,20,Pin_20*%
%TO.N,+3.3V*%
X742750000Y-265750000D03*
%TD*%
D10*
%TO.P,R11,2*%
%TO.N,/NOTE_11*%
X352840000Y-273700000D03*
%TO.P,R11,1*%
%TO.N,+3.3V*%
X363000000Y-273700000D03*
%TD*%
%TO.P,R8,1*%
%TO.N,+3.3V*%
X287960000Y-273600000D03*
%TO.P,R8,2*%
%TO.N,/NOTE_8*%
X277800000Y-273600000D03*
%TD*%
D11*
%TO.P,J27,1,Pin_1*%
%TO.N,/NOTE_24*%
X725000000Y-277500000D03*
%TD*%
%TO.P,J11,1,Pin_1*%
%TO.N,/NOTE_10*%
X325000000Y-277000000D03*
%TD*%
D10*
%TO.P,R22,1*%
%TO.N,+3.3V*%
X687960000Y-274000000D03*
%TO.P,R22,2*%
%TO.N,/NOTE_22*%
X677800000Y-274000000D03*
%TD*%
D11*
%TO.P,J17,1,Pin_1*%
%TO.N,unconnected-(J17-Pin_1-Pad1)*%
X757750000Y-217490000D03*
D13*
%TO.P,J17,2,Pin_2*%
%TO.N,unconnected-(J17-Pin_2-Pad2)*%
X757750000Y-220030000D03*
%TO.P,J17,3,Pin_3*%
%TO.N,unconnected-(J17-Pin_3-Pad3)*%
X757750000Y-222570000D03*
%TO.P,J17,4,Pin_4*%
%TO.N,/NOTE_21*%
X757750000Y-225110000D03*
%TO.P,J17,5,Pin_5*%
%TO.N,/NOTE_13*%
X757750000Y-227650000D03*
%TO.P,J17,6,Pin_6*%
%TO.N,/NOTE_12*%
X757750000Y-230190000D03*
%TO.P,J17,7,Pin_7*%
%TO.N,/NOTE_11*%
X757750000Y-232730000D03*
%TO.P,J17,8,Pin_8*%
%TO.N,/NOTE_8*%
X757750000Y-235270000D03*
%TO.P,J17,9,Pin_9*%
%TO.N,/NOTE_7*%
X757750000Y-237810000D03*
%TO.P,J17,10,Pin_10*%
%TO.N,/NOTE_6*%
X757750000Y-240350000D03*
%TO.P,J17,11,Pin_11*%
%TO.N,/NOTE_5*%
X757750000Y-242890000D03*
%TO.P,J17,12,Pin_12*%
%TO.N,/NOTE_4*%
X757750000Y-245430000D03*
%TO.P,J17,13,Pin_13*%
%TO.N,/NOTE_3*%
X757750000Y-247970000D03*
%TO.P,J17,14,Pin_14*%
%TO.N,/NOTE_2*%
X757750000Y-250510000D03*
%TO.P,J17,15,Pin_15*%
%TO.N,/NOTE_1*%
X757750000Y-253050000D03*
%TO.P,J17,16,Pin_16*%
%TO.N,unconnected-(J17-Pin_16-Pad16)*%
X757750000Y-255590000D03*
%TO.P,J17,17,Pin_17*%
%TO.N,unconnected-(J17-Pin_17-Pad17)*%
X757750000Y-258130000D03*
%TO.P,J17,18,Pin_18*%
%TO.N,unconnected-(J17-Pin_18-Pad18)*%
X757750000Y-260670000D03*
%TO.P,J17,19,Pin_19*%
%TO.N,unconnected-(J17-Pin_19-Pad19)*%
X757750000Y-263210000D03*
%TO.P,J17,20,Pin_20*%
%TO.N,unconnected-(J17-Pin_20-Pad20)*%
X757750000Y-265750000D03*
%TD*%
D14*
%TO.N,/UART_RX*%
X748000000Y-231400000D03*
%TO.N,/UART_TX*%
X747200000Y-229800000D03*
%TO.N,GND*%
X744400000Y-274182869D03*
%TO.N,/NOTE_21*%
X744800000Y-226200000D03*
%TO.N,/NOTE_25*%
X748799999Y-227000000D03*
X758600000Y-268400000D03*
X749400000Y-267800000D03*
%TO.N,/NOTE_20*%
X745600000Y-258600000D03*
%TO.N,/NOTE_19*%
X746196000Y-256000000D03*
%TO.N,/NOTE_18*%
X746398000Y-253600000D03*
%TO.N,/NOTE_17*%
X746998000Y-251200000D03*
%TO.N,/NOTE_16*%
X747200000Y-248600000D03*
%TO.N,/NOTE_15*%
X747400000Y-245800000D03*
%TO.N,/NOTE_14*%
X747600000Y-243200000D03*
%TO.N,/NOTE_13*%
X750800000Y-228000000D03*
X749200000Y-279200000D03*
%TO.N,/NOTE_12*%
X751600000Y-230800000D03*
X750000000Y-280200000D03*
%TO.N,/NOTE_11*%
X752000000Y-234600000D03*
X749800000Y-281000000D03*
%TO.N,/NOTE_10*%
X750536984Y-281736984D03*
X752400000Y-242200000D03*
%TO.N,/NOTE_9*%
X749600000Y-282533357D03*
X753392000Y-229600000D03*
%TO.N,/NOTE_8*%
X750556239Y-283133358D03*
%TO.N,/NOTE_7*%
X751000000Y-283799000D03*
%TO.N,/NOTE_6*%
X751800000Y-284200000D03*
%TO.N,/NOTE_5*%
X753600000Y-272003000D03*
%TO.N,/NOTE_4*%
X754334870Y-271645529D03*
%TO.N,/NOTE_2*%
X755800000Y-270800000D03*
%TO.N,/NOTE_1*%
X756600000Y-270400000D03*
%TO.N,/NOTE_3*%
X755000000Y-271201000D03*
%TD*%
D15*
%TO.N,/UART_RX*%
X748000000Y-231400000D02*
X744080000Y-231400000D01*
X744080000Y-231400000D02*
X742750000Y-232730000D01*
%TO.N,/UART_TX*%
X747200000Y-229800000D02*
X746810000Y-230190000D01*
X746810000Y-230190000D02*
X742750000Y-230190000D01*
%TO.N,GND*%
X744400000Y-274182869D02*
X744400000Y-274800000D01*
X746600000Y-275000000D02*
X753600000Y-282000000D01*
X744400000Y-274800000D02*
X744600000Y-275000000D01*
X744600000Y-275000000D02*
X746600000Y-275000000D01*
X753600000Y-282000000D02*
X763800000Y-282000000D01*
%TO.N,/NOTE_25*%
X748799999Y-227000000D02*
X744640000Y-227000000D01*
X744640000Y-227000000D02*
X742750000Y-225110000D01*
X758600000Y-268400000D02*
X750000000Y-268400000D01*
X750000000Y-268400000D02*
X749400000Y-267800000D01*
%TO.N,+3.3V*%
X712880000Y-274000000D02*
X714080000Y-272800000D01*
X714080000Y-272800000D02*
X736560000Y-272800000D01*
X736560000Y-272800000D02*
X737760000Y-274000000D01*
%TO.N,/NOTE_5*%
X718247879Y-272205441D02*
X718579649Y-272205441D01*
X717584087Y-272205189D02*
X717915857Y-272205189D01*
X718745875Y-272205567D02*
X718911671Y-272205693D01*
X741534200Y-272000000D02*
X753597000Y-272000000D01*
X718579649Y-272205441D02*
X718579775Y-272205567D01*
X717583898Y-272205000D02*
X717584087Y-272205189D01*
X717086658Y-272205000D02*
X717583898Y-272205000D01*
X718911975Y-272205567D02*
X718912101Y-272205441D01*
X718579775Y-272205567D02*
X718745875Y-272205567D01*
X717915857Y-272205189D02*
X717915983Y-272205315D01*
X718911671Y-272205693D02*
X718911797Y-272205567D01*
X753597000Y-272000000D02*
X753600000Y-272003000D01*
X717085966Y-272204308D02*
X717086658Y-272205000D01*
X188679534Y-271804000D02*
X717085966Y-272204308D01*
X179116000Y-271804000D02*
X188679534Y-271804000D01*
X718913076Y-272205000D02*
X741163342Y-272205000D01*
X718247753Y-272205315D02*
X718247879Y-272205441D01*
X717915983Y-272205315D02*
X718247753Y-272205315D01*
X177920000Y-273000000D02*
X179116000Y-271804000D01*
X718911797Y-272205567D02*
X718911975Y-272205567D01*
X718912101Y-272205441D02*
X718912279Y-272205441D01*
X718912279Y-272205441D02*
X718912405Y-272205315D01*
X718912405Y-272205315D02*
X718912583Y-272205315D01*
X718912583Y-272205315D02*
X718912709Y-272205189D01*
X718912709Y-272205189D02*
X718912887Y-272205189D01*
X718912887Y-272205189D02*
X718913076Y-272205000D01*
X741163342Y-272205000D02*
X741166342Y-272202000D01*
X741166342Y-272202000D02*
X741332200Y-272202000D01*
X741332200Y-272202000D02*
X741534200Y-272000000D01*
%TO.N,+3.3V*%
X687960000Y-274000000D02*
X689160000Y-272800000D01*
X689160000Y-272800000D02*
X711680000Y-272800000D01*
X711680000Y-272800000D02*
X712880000Y-274000000D01*
%TO.N,/NOTE_20*%
X745600000Y-258600000D02*
X745130000Y-258130000D01*
X745130000Y-258130000D02*
X742750000Y-258130000D01*
%TO.N,/NOTE_19*%
X745786000Y-255590000D02*
X742750000Y-255590000D01*
X746196000Y-256000000D02*
X745786000Y-255590000D01*
%TO.N,/NOTE_18*%
X745848000Y-253050000D02*
X742750000Y-253050000D01*
X746398000Y-253600000D02*
X745848000Y-253050000D01*
%TO.N,/NOTE_17*%
X746998000Y-251200000D02*
X746308000Y-250510000D01*
X746308000Y-250510000D02*
X742750000Y-250510000D01*
%TO.N,/NOTE_16*%
X746570000Y-247970000D02*
X742750000Y-247970000D01*
X747200000Y-248600000D02*
X746570000Y-247970000D01*
%TO.N,/NOTE_15*%
X747400000Y-245800000D02*
X747030000Y-245430000D01*
X747030000Y-245430000D02*
X742750000Y-245430000D01*
%TO.N,/NOTE_14*%
X747290000Y-242890000D02*
X742750000Y-242890000D01*
X747600000Y-243200000D02*
X747290000Y-242890000D01*
%TO.N,/NOTE_13*%
X427800000Y-274000000D02*
X427800000Y-276799000D01*
X427800000Y-276799000D02*
X430201000Y-279200000D01*
X430201000Y-279200000D02*
X749200000Y-279200000D01*
X750800000Y-228000000D02*
X751150000Y-227650000D01*
X751150000Y-227650000D02*
X757750000Y-227650000D01*
X425000000Y-277400000D02*
X425000000Y-276800000D01*
X425000000Y-276800000D02*
X427800000Y-274000000D01*
%TO.N,/NOTE_12*%
X377720000Y-274000000D02*
X377720000Y-279720000D01*
X377720000Y-279720000D02*
X378200000Y-280200000D01*
X378200000Y-280200000D02*
X750000000Y-280200000D01*
X757140000Y-230800000D02*
X757750000Y-230190000D01*
X751600000Y-230800000D02*
X757140000Y-230800000D01*
X375000000Y-277500000D02*
X375000000Y-276720000D01*
X375000000Y-276720000D02*
X377720000Y-274000000D01*
%TO.N,/NOTE_11*%
X752000000Y-234600000D02*
X753000000Y-233600000D01*
X753000000Y-233600000D02*
X756880000Y-233600000D01*
X756880000Y-233600000D02*
X757750000Y-232730000D01*
X749800000Y-281000000D02*
X354000000Y-281000000D01*
X352840000Y-279840000D02*
X352840000Y-273700000D01*
X354000000Y-281000000D02*
X352840000Y-279840000D01*
X350000000Y-277000000D02*
X350000000Y-276540000D01*
X350000000Y-276540000D02*
X352840000Y-273700000D01*
%TO.N,/NOTE_10*%
X327800000Y-273600000D02*
X327800000Y-275800000D01*
X333800000Y-281800000D02*
X750473968Y-281800000D01*
X327800000Y-275800000D02*
X333800000Y-281800000D01*
X750473968Y-281800000D02*
X750536984Y-281736984D01*
X752400000Y-242200000D02*
X751400000Y-241200000D01*
X751400000Y-241200000D02*
X743600000Y-241200000D01*
X743600000Y-241200000D02*
X742750000Y-240350000D01*
X325000000Y-277000000D02*
X325000000Y-276400000D01*
X325000000Y-276400000D02*
X327800000Y-273600000D01*
%TO.N,/NOTE_9*%
X752592000Y-228800000D02*
X743900000Y-228800000D01*
X753392000Y-229600000D02*
X752592000Y-228800000D01*
X743900000Y-228800000D02*
X742750000Y-227650000D01*
X311733357Y-282533357D02*
X749600000Y-282533357D01*
X302800000Y-273600000D02*
X311733357Y-282533357D01*
X300000000Y-277000000D02*
X300000000Y-276400000D01*
X300000000Y-276400000D02*
X302800000Y-273600000D01*
%TO.N,/NOTE_8*%
X277800000Y-273600000D02*
X287333358Y-283133358D01*
X287333358Y-283133358D02*
X750556239Y-283133358D01*
X275000000Y-277000000D02*
X275000000Y-276400000D01*
X275000000Y-276400000D02*
X277800000Y-273600000D01*
%TO.N,/NOTE_7*%
X253120000Y-273400000D02*
X263519000Y-283799000D01*
X263519000Y-283799000D02*
X751000000Y-283799000D01*
X250000000Y-277000000D02*
X250000000Y-276520000D01*
X250000000Y-276520000D02*
X253120000Y-273400000D01*
%TO.N,/NOTE_6*%
X227800000Y-283799000D02*
X228400000Y-284399000D01*
X751601000Y-284399000D02*
X751800000Y-284200000D01*
X228400000Y-284399000D02*
X751601000Y-284399000D01*
X227800000Y-273600000D02*
X227800000Y-283799000D01*
X225000000Y-277500000D02*
X225000000Y-276400000D01*
X225000000Y-276400000D02*
X227800000Y-273600000D01*
%TO.N,/NOTE_4*%
X718745875Y-271804567D02*
X718746001Y-271804441D01*
X718413853Y-271804315D02*
X718413979Y-271804441D01*
X718081957Y-271804189D02*
X718082083Y-271804315D01*
X718746787Y-271804189D02*
X718746976Y-271804000D01*
X718579765Y-271804441D02*
X718745875Y-271804567D01*
X718082083Y-271804315D02*
X718413853Y-271804315D01*
X717750187Y-271804189D02*
X718081957Y-271804189D01*
X717749998Y-271804000D02*
X717750187Y-271804189D01*
X718413979Y-271804441D02*
X718579765Y-271804441D01*
X188679618Y-271403000D02*
X717252192Y-271803434D01*
X717252758Y-271804000D02*
X717749998Y-271804000D01*
X717252192Y-271803434D02*
X717252758Y-271804000D01*
X154437000Y-271403000D02*
X188679618Y-271403000D01*
X718746976Y-271804000D02*
X740997242Y-271804000D01*
X152840000Y-273000000D02*
X154437000Y-271403000D01*
X718746001Y-271804441D02*
X718746179Y-271804441D01*
X718746179Y-271804441D02*
X718746305Y-271804315D01*
X718746305Y-271804315D02*
X718746483Y-271804315D01*
X741000242Y-271801000D02*
X741166100Y-271801000D01*
X754092341Y-271403000D02*
X754334870Y-271645529D01*
X718746483Y-271804315D02*
X718746609Y-271804189D01*
X718746609Y-271804189D02*
X718746787Y-271804189D01*
X740997242Y-271804000D02*
X741000242Y-271801000D01*
X741166100Y-271801000D02*
X741564100Y-271403000D01*
X741564100Y-271403000D02*
X754092341Y-271403000D01*
%TO.N,/NOTE_5*%
X175000000Y-277000000D02*
X175000000Y-275920000D01*
X175000000Y-275920000D02*
X177920000Y-273000000D01*
%TO.N,/NOTE_4*%
X150000000Y-277000000D02*
X150000000Y-275840000D01*
X150000000Y-275840000D02*
X152840000Y-273000000D01*
%TO.N,/NOTE_3*%
X718580205Y-271403315D02*
X718580383Y-271403315D01*
X718580876Y-271403000D02*
X740831142Y-271403000D01*
X718580383Y-271403315D02*
X718580509Y-271403189D01*
X718248057Y-271403189D02*
X718248183Y-271403315D01*
X718580079Y-271403441D02*
X718580205Y-271403315D01*
X718580509Y-271403189D02*
X718580687Y-271403189D01*
X717916098Y-271403000D02*
X717916287Y-271403189D01*
X718248183Y-271403315D02*
X718413948Y-271403315D01*
X717916287Y-271403189D02*
X718248057Y-271403189D01*
X741398000Y-271002000D02*
X754801000Y-271002000D01*
X717418858Y-271403000D02*
X717916098Y-271403000D01*
X717418418Y-271402560D02*
X717418858Y-271403000D01*
X718413948Y-271403315D02*
X718580079Y-271403441D01*
X188679702Y-271002000D02*
X717418418Y-271402560D01*
X127840000Y-273000000D02*
X129838000Y-271002000D01*
X129838000Y-271002000D02*
X188679702Y-271002000D01*
X718580687Y-271403189D02*
X718580876Y-271403000D01*
X740831142Y-271403000D02*
X740834142Y-271400000D01*
X740834142Y-271400000D02*
X741000000Y-271400000D01*
X741000000Y-271400000D02*
X741398000Y-271002000D01*
X754801000Y-271002000D02*
X755000000Y-271201000D01*
%TO.N,+3.3V*%
X737760000Y-273200000D02*
X758040000Y-273200000D01*
X758040000Y-273200000D02*
X758640000Y-273800000D01*
%TO.N,/NOTE_2*%
X100000000Y-276040000D02*
X103040000Y-273000000D01*
X718248089Y-271002189D02*
X718082387Y-271002189D01*
X718414776Y-271002000D02*
X718414587Y-271002189D01*
X717584958Y-271002000D02*
X717584644Y-271001686D01*
X755601000Y-270601000D02*
X741066042Y-270601000D01*
X105439000Y-270601000D02*
X103040000Y-273000000D01*
X717584644Y-271001686D02*
X188679786Y-270601000D01*
X740665042Y-271002000D02*
X718414776Y-271002000D01*
X718414409Y-271002189D02*
X718414283Y-271002315D01*
X755800000Y-270800000D02*
X755601000Y-270601000D01*
X717998797Y-271002000D02*
X717584958Y-271002000D01*
X100000000Y-277000000D02*
X100000000Y-276040000D01*
X718082261Y-271002063D02*
X717998797Y-271002000D01*
X718414587Y-271002189D02*
X718414409Y-271002189D01*
X718414283Y-271002315D02*
X718248089Y-271002189D01*
X718082387Y-271002189D02*
X718082261Y-271002063D01*
X188679786Y-270601000D02*
X105439000Y-270601000D01*
X741066042Y-270601000D02*
X740665042Y-271002000D01*
%TO.N,/NOTE_1*%
X81081335Y-270200000D02*
X188679870Y-270200000D01*
X718248487Y-270601189D02*
X718248676Y-270601000D01*
X78000000Y-273000000D02*
X80881665Y-270118335D01*
X718248676Y-270601000D02*
X740498942Y-270601000D01*
X717999007Y-270601000D02*
X718248487Y-270601189D01*
X740851000Y-270200000D02*
X756400000Y-270200000D01*
X717750870Y-270600812D02*
X717751058Y-270601000D01*
X75000000Y-276000000D02*
X78000000Y-273000000D01*
X740498942Y-270601000D02*
X740851000Y-270248942D01*
X75000000Y-277000000D02*
X75000000Y-276000000D01*
X740851000Y-270248942D02*
X740851000Y-270200000D01*
X756400000Y-270200000D02*
X756600000Y-270400000D01*
X80881665Y-270118335D02*
X80999759Y-270118424D01*
X188679870Y-270200000D02*
X717750870Y-270600812D01*
X717751058Y-270601000D02*
X717999007Y-270601000D01*
X80999759Y-270118424D02*
X81081335Y-270200000D01*
%TO.N,/NOTE_3*%
X125000000Y-275840000D02*
X127840000Y-273000000D01*
X125000000Y-277000000D02*
X125000000Y-275840000D01*
%TO.N,/NOTE_21*%
X746400000Y-224800000D02*
X755800000Y-224800000D01*
X745000000Y-226200000D02*
X746400000Y-224800000D01*
X744800000Y-226200000D02*
X745000000Y-226200000D01*
X755800000Y-224800000D02*
X756110000Y-225110000D01*
X756110000Y-225110000D02*
X757750000Y-225110000D01*
%TD*%
M02*
