M48
; DRILL file {KiCad 9.0.4-1.fc42} date 2025-08-31T15:20:41+0200
; FORMAT={-:-/ absolute / metric / decimal}
; #@! TF.CreationDate,2025-08-31T15:20:41+02:00
; #@! TF.GenerationSoftware,Kicad,Pcbnew,9.0.4-1.fc42
; #@! TF.FileFunction,Plated,1,2,PTH
FMAT,2
METRIC
; #@! TA.AperFunction,Plated,PTH,ViaDrill
T1C0.300
; #@! TA.AperFunction,Plated,PTH,ComponentDrill
T2C0.800
; #@! TA.AperFunction,Plated,PTH,ComponentDrill
T3C1.000
%
G90
G05
T1
X278.5Y-273.75
X280.875Y-272.125
X282.25Y-277.25
X282.25Y-280.75
X291.5Y-278.25
X292.0Y-274.75
X292.25Y-279.25
X292.75Y-276.0
X293.0Y-282.25
X293.75Y-274.0
X294.0Y-283.5
X295.0Y-276.5
X295.75Y-275.75
X295.75Y-280.25
X377.25Y-277.25
X378.035Y-270.542
X419.2Y-273.0
X419.4Y-280.0
X508.376Y-272.824
X508.661Y-274.939
X509.25Y-272.0
X509.5Y-275.5
X513.0Y-273.5
X513.0Y-278.5
X513.75Y-275.5
X513.75Y-280.25
X516.2Y-273.2
X516.9Y-277.2
X517.0Y-274.75
X517.5Y-281.8
X517.75Y-271.35
X518.1Y-281.208
X518.5Y-270.75
X518.5Y-284.2
X519.5Y-279.75
X520.0Y-279.0
X520.25Y-283.5
X520.75Y-278.0
X521.5Y-282.75
X522.0Y-278.0
X523.0Y-281.528
X523.0Y-282.8
X524.6Y-281.528
X735.8Y-273.2
X736.2Y-279.8
X738.2Y-273.4
X738.2Y-277.4
X738.6Y-280.726
X738.8Y-283.6
X743.0Y-281.0
X743.2Y-279.0
X743.8Y-281.6
X744.2Y-278.2
X745.0Y-250.6
X745.2Y-270.4
X747.2Y-274.398
X747.2Y-276.2
X747.8Y-277.6
X748.0Y-275.2
X748.6Y-258.4
X748.6Y-272.0
X748.6Y-279.4
X748.8Y-282.6
X749.0Y-256.0
X749.4Y-280.0
X750.0Y-263.4
X750.0Y-281.6
X750.2Y-253.4
X751.0Y-280.8
X751.2Y-265.8
X751.6Y-275.4
X752.8Y-245.6
X753.0Y-244.0
X753.4Y-272.4
X754.0Y-270.2
T2
X748.25Y-217.24
X750.25Y-217.24
X752.25Y-217.24
T3
X75.0Y-277.0
X100.0Y-277.0
X125.0Y-277.0
X150.0Y-277.0
X175.0Y-277.0
X225.0Y-277.5
X250.0Y-277.0
X275.0Y-277.0
X300.0Y-277.0
X325.0Y-277.0
X350.0Y-277.5
X375.0Y-277.5
X425.0Y-277.0
X449.5Y-277.0
X474.5Y-277.5
X500.0Y-277.5
X524.5Y-277.5
X575.0Y-277.5
X600.0Y-277.0
X625.5Y-277.5
X650.0Y-277.5
X675.0Y-277.5
X700.0Y-277.5
X725.0Y-277.5
X742.75Y-217.49
X742.75Y-220.03
X742.75Y-222.57
X742.75Y-225.11
X742.75Y-227.65
X742.75Y-230.19
X742.75Y-232.73
X742.75Y-235.27
X742.75Y-237.81
X742.75Y-240.35
X742.75Y-242.89
X742.75Y-245.43
X742.75Y-247.97
X742.75Y-250.51
X742.75Y-253.05
X742.75Y-255.59
X742.75Y-258.13
X742.75Y-260.67
X742.75Y-263.21
X742.75Y-265.75
X757.75Y-217.49
X757.75Y-220.03
X757.75Y-222.57
X757.75Y-225.11
X757.75Y-227.65
X757.75Y-230.19
X757.75Y-232.73
X757.75Y-235.27
X757.75Y-237.81
X757.75Y-240.35
X757.75Y-242.89
X757.75Y-245.43
X757.75Y-247.97
X757.75Y-250.51
X757.75Y-253.05
X757.75Y-255.59
X757.75Y-258.13
X757.75Y-260.67
X757.75Y-263.21
X757.75Y-265.75
X775.0Y-277.5
M30
