%TF.GenerationSoftware,KiCad,Pcbnew,9.0.4-1.fc42*%
%TF.CreationDate,2025-09-03T13:41:55+02:00*%
%TF.ProjectId,pedai-hw,70656461-692d-4687-972e-6b696361645f,rev?*%
%TF.SameCoordinates,Original*%
%TF.FileFunction,Legend,Top*%
%TF.FilePolarity,Positive*%
%FSLAX46Y46*%
G04 Gerber Fmt 4.6, Leading zero omitted, Abs format (unit mm)*
G04 Created by KiCad (PCBNEW 9.0.4-1.fc42) date 2025-09-03 13:41:55*
%MOMM*%
%LPD*%
G01*
G04 APERTURE LIST*
%ADD10C,0.150000*%
%ADD11C,0.120000*%
G04 APERTURE END LIST*
D10*
X732037142Y-276824819D02*
X731703809Y-276348628D01*
X731465714Y-276824819D02*
X731465714Y-275824819D01*
X731465714Y-275824819D02*
X731846666Y-275824819D01*
X731846666Y-275824819D02*
X731941904Y-275872438D01*
X731941904Y-275872438D02*
X731989523Y-275920057D01*
X731989523Y-275920057D02*
X732037142Y-276015295D01*
X732037142Y-276015295D02*
X732037142Y-276158152D01*
X732037142Y-276158152D02*
X731989523Y-276253390D01*
X731989523Y-276253390D02*
X731941904Y-276301009D01*
X731941904Y-276301009D02*
X731846666Y-276348628D01*
X731846666Y-276348628D02*
X731465714Y-276348628D01*
X732418095Y-275920057D02*
X732465714Y-275872438D01*
X732465714Y-275872438D02*
X732560952Y-275824819D01*
X732560952Y-275824819D02*
X732799047Y-275824819D01*
X732799047Y-275824819D02*
X732894285Y-275872438D01*
X732894285Y-275872438D02*
X732941904Y-275920057D01*
X732941904Y-275920057D02*
X732989523Y-276015295D01*
X732989523Y-276015295D02*
X732989523Y-276110533D01*
X732989523Y-276110533D02*
X732941904Y-276253390D01*
X732941904Y-276253390D02*
X732370476Y-276824819D01*
X732370476Y-276824819D02*
X732989523Y-276824819D01*
X733846666Y-276158152D02*
X733846666Y-276824819D01*
X733608571Y-275777200D02*
X733370476Y-276491485D01*
X733370476Y-276491485D02*
X733989523Y-276491485D01*
X763077142Y-271884819D02*
X762743809Y-271408628D01*
X762505714Y-271884819D02*
X762505714Y-270884819D01*
X762505714Y-270884819D02*
X762886666Y-270884819D01*
X762886666Y-270884819D02*
X762981904Y-270932438D01*
X762981904Y-270932438D02*
X763029523Y-270980057D01*
X763029523Y-270980057D02*
X763077142Y-271075295D01*
X763077142Y-271075295D02*
X763077142Y-271218152D01*
X763077142Y-271218152D02*
X763029523Y-271313390D01*
X763029523Y-271313390D02*
X762981904Y-271361009D01*
X762981904Y-271361009D02*
X762886666Y-271408628D01*
X762886666Y-271408628D02*
X762505714Y-271408628D01*
X763458095Y-270980057D02*
X763505714Y-270932438D01*
X763505714Y-270932438D02*
X763600952Y-270884819D01*
X763600952Y-270884819D02*
X763839047Y-270884819D01*
X763839047Y-270884819D02*
X763934285Y-270932438D01*
X763934285Y-270932438D02*
X763981904Y-270980057D01*
X763981904Y-270980057D02*
X764029523Y-271075295D01*
X764029523Y-271075295D02*
X764029523Y-271170533D01*
X764029523Y-271170533D02*
X763981904Y-271313390D01*
X763981904Y-271313390D02*
X763410476Y-271884819D01*
X763410476Y-271884819D02*
X764029523Y-271884819D01*
X764934285Y-270884819D02*
X764458095Y-270884819D01*
X764458095Y-270884819D02*
X764410476Y-271361009D01*
X764410476Y-271361009D02*
X764458095Y-271313390D01*
X764458095Y-271313390D02*
X764553333Y-271265771D01*
X764553333Y-271265771D02*
X764791428Y-271265771D01*
X764791428Y-271265771D02*
X764886666Y-271313390D01*
X764886666Y-271313390D02*
X764934285Y-271361009D01*
X764934285Y-271361009D02*
X764981904Y-271456247D01*
X764981904Y-271456247D02*
X764981904Y-271694342D01*
X764981904Y-271694342D02*
X764934285Y-271789580D01*
X764934285Y-271789580D02*
X764886666Y-271837200D01*
X764886666Y-271837200D02*
X764791428Y-271884819D01*
X764791428Y-271884819D02*
X764553333Y-271884819D01*
X764553333Y-271884819D02*
X764458095Y-271837200D01*
X764458095Y-271837200D02*
X764410476Y-271789580D01*
X182833333Y-275824819D02*
X182500000Y-275348628D01*
X182261905Y-275824819D02*
X182261905Y-274824819D01*
X182261905Y-274824819D02*
X182642857Y-274824819D01*
X182642857Y-274824819D02*
X182738095Y-274872438D01*
X182738095Y-274872438D02*
X182785714Y-274920057D01*
X182785714Y-274920057D02*
X182833333Y-275015295D01*
X182833333Y-275015295D02*
X182833333Y-275158152D01*
X182833333Y-275158152D02*
X182785714Y-275253390D01*
X182785714Y-275253390D02*
X182738095Y-275301009D01*
X182738095Y-275301009D02*
X182642857Y-275348628D01*
X182642857Y-275348628D02*
X182261905Y-275348628D01*
X183738095Y-274824819D02*
X183261905Y-274824819D01*
X183261905Y-274824819D02*
X183214286Y-275301009D01*
X183214286Y-275301009D02*
X183261905Y-275253390D01*
X183261905Y-275253390D02*
X183357143Y-275205771D01*
X183357143Y-275205771D02*
X183595238Y-275205771D01*
X183595238Y-275205771D02*
X183690476Y-275253390D01*
X183690476Y-275253390D02*
X183738095Y-275301009D01*
X183738095Y-275301009D02*
X183785714Y-275396247D01*
X183785714Y-275396247D02*
X183785714Y-275634342D01*
X183785714Y-275634342D02*
X183738095Y-275729580D01*
X183738095Y-275729580D02*
X183690476Y-275777200D01*
X183690476Y-275777200D02*
X183595238Y-275824819D01*
X183595238Y-275824819D02*
X183357143Y-275824819D01*
X183357143Y-275824819D02*
X183261905Y-275777200D01*
X183261905Y-275777200D02*
X183214286Y-275729580D01*
X481757142Y-276824819D02*
X481423809Y-276348628D01*
X481185714Y-276824819D02*
X481185714Y-275824819D01*
X481185714Y-275824819D02*
X481566666Y-275824819D01*
X481566666Y-275824819D02*
X481661904Y-275872438D01*
X481661904Y-275872438D02*
X481709523Y-275920057D01*
X481709523Y-275920057D02*
X481757142Y-276015295D01*
X481757142Y-276015295D02*
X481757142Y-276158152D01*
X481757142Y-276158152D02*
X481709523Y-276253390D01*
X481709523Y-276253390D02*
X481661904Y-276301009D01*
X481661904Y-276301009D02*
X481566666Y-276348628D01*
X481566666Y-276348628D02*
X481185714Y-276348628D01*
X482709523Y-276824819D02*
X482138095Y-276824819D01*
X482423809Y-276824819D02*
X482423809Y-275824819D01*
X482423809Y-275824819D02*
X482328571Y-275967676D01*
X482328571Y-275967676D02*
X482233333Y-276062914D01*
X482233333Y-276062914D02*
X482138095Y-276110533D01*
X483614285Y-275824819D02*
X483138095Y-275824819D01*
X483138095Y-275824819D02*
X483090476Y-276301009D01*
X483090476Y-276301009D02*
X483138095Y-276253390D01*
X483138095Y-276253390D02*
X483233333Y-276205771D01*
X483233333Y-276205771D02*
X483471428Y-276205771D01*
X483471428Y-276205771D02*
X483566666Y-276253390D01*
X483566666Y-276253390D02*
X483614285Y-276301009D01*
X483614285Y-276301009D02*
X483661904Y-276396247D01*
X483661904Y-276396247D02*
X483661904Y-276634342D01*
X483661904Y-276634342D02*
X483614285Y-276729580D01*
X483614285Y-276729580D02*
X483566666Y-276777200D01*
X483566666Y-276777200D02*
X483471428Y-276824819D01*
X483471428Y-276824819D02*
X483233333Y-276824819D01*
X483233333Y-276824819D02*
X483138095Y-276777200D01*
X483138095Y-276777200D02*
X483090476Y-276729580D01*
X507237142Y-276824819D02*
X506903809Y-276348628D01*
X506665714Y-276824819D02*
X506665714Y-275824819D01*
X506665714Y-275824819D02*
X507046666Y-275824819D01*
X507046666Y-275824819D02*
X507141904Y-275872438D01*
X507141904Y-275872438D02*
X507189523Y-275920057D01*
X507189523Y-275920057D02*
X507237142Y-276015295D01*
X507237142Y-276015295D02*
X507237142Y-276158152D01*
X507237142Y-276158152D02*
X507189523Y-276253390D01*
X507189523Y-276253390D02*
X507141904Y-276301009D01*
X507141904Y-276301009D02*
X507046666Y-276348628D01*
X507046666Y-276348628D02*
X506665714Y-276348628D01*
X508189523Y-276824819D02*
X507618095Y-276824819D01*
X507903809Y-276824819D02*
X507903809Y-275824819D01*
X507903809Y-275824819D02*
X507808571Y-275967676D01*
X507808571Y-275967676D02*
X507713333Y-276062914D01*
X507713333Y-276062914D02*
X507618095Y-276110533D01*
X509046666Y-275824819D02*
X508856190Y-275824819D01*
X508856190Y-275824819D02*
X508760952Y-275872438D01*
X508760952Y-275872438D02*
X508713333Y-275920057D01*
X508713333Y-275920057D02*
X508618095Y-276062914D01*
X508618095Y-276062914D02*
X508570476Y-276253390D01*
X508570476Y-276253390D02*
X508570476Y-276634342D01*
X508570476Y-276634342D02*
X508618095Y-276729580D01*
X508618095Y-276729580D02*
X508665714Y-276777200D01*
X508665714Y-276777200D02*
X508760952Y-276824819D01*
X508760952Y-276824819D02*
X508951428Y-276824819D01*
X508951428Y-276824819D02*
X509046666Y-276777200D01*
X509046666Y-276777200D02*
X509094285Y-276729580D01*
X509094285Y-276729580D02*
X509141904Y-276634342D01*
X509141904Y-276634342D02*
X509141904Y-276396247D01*
X509141904Y-276396247D02*
X509094285Y-276301009D01*
X509094285Y-276301009D02*
X509046666Y-276253390D01*
X509046666Y-276253390D02*
X508951428Y-276205771D01*
X508951428Y-276205771D02*
X508760952Y-276205771D01*
X508760952Y-276205771D02*
X508665714Y-276253390D01*
X508665714Y-276253390D02*
X508618095Y-276301009D01*
X508618095Y-276301009D02*
X508570476Y-276396247D01*
X274666666Y-274074819D02*
X274666666Y-274789104D01*
X274666666Y-274789104D02*
X274619047Y-274931961D01*
X274619047Y-274931961D02*
X274523809Y-275027200D01*
X274523809Y-275027200D02*
X274380952Y-275074819D01*
X274380952Y-275074819D02*
X274285714Y-275074819D01*
X275190476Y-275074819D02*
X275380952Y-275074819D01*
X275380952Y-275074819D02*
X275476190Y-275027200D01*
X275476190Y-275027200D02*
X275523809Y-274979580D01*
X275523809Y-274979580D02*
X275619047Y-274836723D01*
X275619047Y-274836723D02*
X275666666Y-274646247D01*
X275666666Y-274646247D02*
X275666666Y-274265295D01*
X275666666Y-274265295D02*
X275619047Y-274170057D01*
X275619047Y-274170057D02*
X275571428Y-274122438D01*
X275571428Y-274122438D02*
X275476190Y-274074819D01*
X275476190Y-274074819D02*
X275285714Y-274074819D01*
X275285714Y-274074819D02*
X275190476Y-274122438D01*
X275190476Y-274122438D02*
X275142857Y-274170057D01*
X275142857Y-274170057D02*
X275095238Y-274265295D01*
X275095238Y-274265295D02*
X275095238Y-274503390D01*
X275095238Y-274503390D02*
X275142857Y-274598628D01*
X275142857Y-274598628D02*
X275190476Y-274646247D01*
X275190476Y-274646247D02*
X275285714Y-274693866D01*
X275285714Y-274693866D02*
X275476190Y-274693866D01*
X275476190Y-274693866D02*
X275571428Y-274646247D01*
X275571428Y-274646247D02*
X275619047Y-274598628D01*
X275619047Y-274598628D02*
X275666666Y-274503390D01*
X456757142Y-276824819D02*
X456423809Y-276348628D01*
X456185714Y-276824819D02*
X456185714Y-275824819D01*
X456185714Y-275824819D02*
X456566666Y-275824819D01*
X456566666Y-275824819D02*
X456661904Y-275872438D01*
X456661904Y-275872438D02*
X456709523Y-275920057D01*
X456709523Y-275920057D02*
X456757142Y-276015295D01*
X456757142Y-276015295D02*
X456757142Y-276158152D01*
X456757142Y-276158152D02*
X456709523Y-276253390D01*
X456709523Y-276253390D02*
X456661904Y-276301009D01*
X456661904Y-276301009D02*
X456566666Y-276348628D01*
X456566666Y-276348628D02*
X456185714Y-276348628D01*
X457709523Y-276824819D02*
X457138095Y-276824819D01*
X457423809Y-276824819D02*
X457423809Y-275824819D01*
X457423809Y-275824819D02*
X457328571Y-275967676D01*
X457328571Y-275967676D02*
X457233333Y-276062914D01*
X457233333Y-276062914D02*
X457138095Y-276110533D01*
X458566666Y-276158152D02*
X458566666Y-276824819D01*
X458328571Y-275777200D02*
X458090476Y-276491485D01*
X458090476Y-276491485D02*
X458709523Y-276491485D01*
X332237142Y-276424819D02*
X331903809Y-275948628D01*
X331665714Y-276424819D02*
X331665714Y-275424819D01*
X331665714Y-275424819D02*
X332046666Y-275424819D01*
X332046666Y-275424819D02*
X332141904Y-275472438D01*
X332141904Y-275472438D02*
X332189523Y-275520057D01*
X332189523Y-275520057D02*
X332237142Y-275615295D01*
X332237142Y-275615295D02*
X332237142Y-275758152D01*
X332237142Y-275758152D02*
X332189523Y-275853390D01*
X332189523Y-275853390D02*
X332141904Y-275901009D01*
X332141904Y-275901009D02*
X332046666Y-275948628D01*
X332046666Y-275948628D02*
X331665714Y-275948628D01*
X333189523Y-276424819D02*
X332618095Y-276424819D01*
X332903809Y-276424819D02*
X332903809Y-275424819D01*
X332903809Y-275424819D02*
X332808571Y-275567676D01*
X332808571Y-275567676D02*
X332713333Y-275662914D01*
X332713333Y-275662914D02*
X332618095Y-275710533D01*
X333808571Y-275424819D02*
X333903809Y-275424819D01*
X333903809Y-275424819D02*
X333999047Y-275472438D01*
X333999047Y-275472438D02*
X334046666Y-275520057D01*
X334046666Y-275520057D02*
X334094285Y-275615295D01*
X334094285Y-275615295D02*
X334141904Y-275805771D01*
X334141904Y-275805771D02*
X334141904Y-276043866D01*
X334141904Y-276043866D02*
X334094285Y-276234342D01*
X334094285Y-276234342D02*
X334046666Y-276329580D01*
X334046666Y-276329580D02*
X333999047Y-276377200D01*
X333999047Y-276377200D02*
X333903809Y-276424819D01*
X333903809Y-276424819D02*
X333808571Y-276424819D01*
X333808571Y-276424819D02*
X333713333Y-276377200D01*
X333713333Y-276377200D02*
X333665714Y-276329580D01*
X333665714Y-276329580D02*
X333618095Y-276234342D01*
X333618095Y-276234342D02*
X333570476Y-276043866D01*
X333570476Y-276043866D02*
X333570476Y-275805771D01*
X333570476Y-275805771D02*
X333618095Y-275615295D01*
X333618095Y-275615295D02*
X333665714Y-275520057D01*
X333665714Y-275520057D02*
X333713333Y-275472438D01*
X333713333Y-275472438D02*
X333808571Y-275424819D01*
X531757142Y-276824819D02*
X531423809Y-276348628D01*
X531185714Y-276824819D02*
X531185714Y-275824819D01*
X531185714Y-275824819D02*
X531566666Y-275824819D01*
X531566666Y-275824819D02*
X531661904Y-275872438D01*
X531661904Y-275872438D02*
X531709523Y-275920057D01*
X531709523Y-275920057D02*
X531757142Y-276015295D01*
X531757142Y-276015295D02*
X531757142Y-276158152D01*
X531757142Y-276158152D02*
X531709523Y-276253390D01*
X531709523Y-276253390D02*
X531661904Y-276301009D01*
X531661904Y-276301009D02*
X531566666Y-276348628D01*
X531566666Y-276348628D02*
X531185714Y-276348628D01*
X532709523Y-276824819D02*
X532138095Y-276824819D01*
X532423809Y-276824819D02*
X532423809Y-275824819D01*
X532423809Y-275824819D02*
X532328571Y-275967676D01*
X532328571Y-275967676D02*
X532233333Y-276062914D01*
X532233333Y-276062914D02*
X532138095Y-276110533D01*
X533042857Y-275824819D02*
X533709523Y-275824819D01*
X533709523Y-275824819D02*
X533280952Y-276824819D01*
X473690476Y-274574819D02*
X473690476Y-275289104D01*
X473690476Y-275289104D02*
X473642857Y-275431961D01*
X473642857Y-275431961D02*
X473547619Y-275527200D01*
X473547619Y-275527200D02*
X473404762Y-275574819D01*
X473404762Y-275574819D02*
X473309524Y-275574819D01*
X474690476Y-275574819D02*
X474119048Y-275574819D01*
X474404762Y-275574819D02*
X474404762Y-274574819D01*
X474404762Y-274574819D02*
X474309524Y-274717676D01*
X474309524Y-274717676D02*
X474214286Y-274812914D01*
X474214286Y-274812914D02*
X474119048Y-274860533D01*
X475261905Y-275003390D02*
X475166667Y-274955771D01*
X475166667Y-274955771D02*
X475119048Y-274908152D01*
X475119048Y-274908152D02*
X475071429Y-274812914D01*
X475071429Y-274812914D02*
X475071429Y-274765295D01*
X475071429Y-274765295D02*
X475119048Y-274670057D01*
X475119048Y-274670057D02*
X475166667Y-274622438D01*
X475166667Y-274622438D02*
X475261905Y-274574819D01*
X475261905Y-274574819D02*
X475452381Y-274574819D01*
X475452381Y-274574819D02*
X475547619Y-274622438D01*
X475547619Y-274622438D02*
X475595238Y-274670057D01*
X475595238Y-274670057D02*
X475642857Y-274765295D01*
X475642857Y-274765295D02*
X475642857Y-274812914D01*
X475642857Y-274812914D02*
X475595238Y-274908152D01*
X475595238Y-274908152D02*
X475547619Y-274955771D01*
X475547619Y-274955771D02*
X475452381Y-275003390D01*
X475452381Y-275003390D02*
X475261905Y-275003390D01*
X475261905Y-275003390D02*
X475166667Y-275051009D01*
X475166667Y-275051009D02*
X475119048Y-275098628D01*
X475119048Y-275098628D02*
X475071429Y-275193866D01*
X475071429Y-275193866D02*
X475071429Y-275384342D01*
X475071429Y-275384342D02*
X475119048Y-275479580D01*
X475119048Y-275479580D02*
X475166667Y-275527200D01*
X475166667Y-275527200D02*
X475261905Y-275574819D01*
X475261905Y-275574819D02*
X475452381Y-275574819D01*
X475452381Y-275574819D02*
X475547619Y-275527200D01*
X475547619Y-275527200D02*
X475595238Y-275479580D01*
X475595238Y-275479580D02*
X475642857Y-275384342D01*
X475642857Y-275384342D02*
X475642857Y-275193866D01*
X475642857Y-275193866D02*
X475595238Y-275098628D01*
X475595238Y-275098628D02*
X475547619Y-275051009D01*
X475547619Y-275051009D02*
X475452381Y-275003390D01*
X149666666Y-274074819D02*
X149666666Y-274789104D01*
X149666666Y-274789104D02*
X149619047Y-274931961D01*
X149619047Y-274931961D02*
X149523809Y-275027200D01*
X149523809Y-275027200D02*
X149380952Y-275074819D01*
X149380952Y-275074819D02*
X149285714Y-275074819D01*
X150619047Y-274074819D02*
X150142857Y-274074819D01*
X150142857Y-274074819D02*
X150095238Y-274551009D01*
X150095238Y-274551009D02*
X150142857Y-274503390D01*
X150142857Y-274503390D02*
X150238095Y-274455771D01*
X150238095Y-274455771D02*
X150476190Y-274455771D01*
X150476190Y-274455771D02*
X150571428Y-274503390D01*
X150571428Y-274503390D02*
X150619047Y-274551009D01*
X150619047Y-274551009D02*
X150666666Y-274646247D01*
X150666666Y-274646247D02*
X150666666Y-274884342D01*
X150666666Y-274884342D02*
X150619047Y-274979580D01*
X150619047Y-274979580D02*
X150571428Y-275027200D01*
X150571428Y-275027200D02*
X150476190Y-275074819D01*
X150476190Y-275074819D02*
X150238095Y-275074819D01*
X150238095Y-275074819D02*
X150142857Y-275027200D01*
X150142857Y-275027200D02*
X150095238Y-274979580D01*
X523690476Y-274574819D02*
X523690476Y-275289104D01*
X523690476Y-275289104D02*
X523642857Y-275431961D01*
X523642857Y-275431961D02*
X523547619Y-275527200D01*
X523547619Y-275527200D02*
X523404762Y-275574819D01*
X523404762Y-275574819D02*
X523309524Y-275574819D01*
X524119048Y-274670057D02*
X524166667Y-274622438D01*
X524166667Y-274622438D02*
X524261905Y-274574819D01*
X524261905Y-274574819D02*
X524500000Y-274574819D01*
X524500000Y-274574819D02*
X524595238Y-274622438D01*
X524595238Y-274622438D02*
X524642857Y-274670057D01*
X524642857Y-274670057D02*
X524690476Y-274765295D01*
X524690476Y-274765295D02*
X524690476Y-274860533D01*
X524690476Y-274860533D02*
X524642857Y-275003390D01*
X524642857Y-275003390D02*
X524071429Y-275574819D01*
X524071429Y-275574819D02*
X524690476Y-275574819D01*
X525309524Y-274574819D02*
X525404762Y-274574819D01*
X525404762Y-274574819D02*
X525500000Y-274622438D01*
X525500000Y-274622438D02*
X525547619Y-274670057D01*
X525547619Y-274670057D02*
X525595238Y-274765295D01*
X525595238Y-274765295D02*
X525642857Y-274955771D01*
X525642857Y-274955771D02*
X525642857Y-275193866D01*
X525642857Y-275193866D02*
X525595238Y-275384342D01*
X525595238Y-275384342D02*
X525547619Y-275479580D01*
X525547619Y-275479580D02*
X525500000Y-275527200D01*
X525500000Y-275527200D02*
X525404762Y-275574819D01*
X525404762Y-275574819D02*
X525309524Y-275574819D01*
X525309524Y-275574819D02*
X525214286Y-275527200D01*
X525214286Y-275527200D02*
X525166667Y-275479580D01*
X525166667Y-275479580D02*
X525119048Y-275384342D01*
X525119048Y-275384342D02*
X525071429Y-275193866D01*
X525071429Y-275193866D02*
X525071429Y-274955771D01*
X525071429Y-274955771D02*
X525119048Y-274765295D01*
X525119048Y-274765295D02*
X525166667Y-274670057D01*
X525166667Y-274670057D02*
X525214286Y-274622438D01*
X525214286Y-274622438D02*
X525309524Y-274574819D01*
X349190476Y-274074819D02*
X349190476Y-274789104D01*
X349190476Y-274789104D02*
X349142857Y-274931961D01*
X349142857Y-274931961D02*
X349047619Y-275027200D01*
X349047619Y-275027200D02*
X348904762Y-275074819D01*
X348904762Y-275074819D02*
X348809524Y-275074819D01*
X350190476Y-275074819D02*
X349619048Y-275074819D01*
X349904762Y-275074819D02*
X349904762Y-274074819D01*
X349904762Y-274074819D02*
X349809524Y-274217676D01*
X349809524Y-274217676D02*
X349714286Y-274312914D01*
X349714286Y-274312914D02*
X349619048Y-274360533D01*
X350571429Y-274170057D02*
X350619048Y-274122438D01*
X350619048Y-274122438D02*
X350714286Y-274074819D01*
X350714286Y-274074819D02*
X350952381Y-274074819D01*
X350952381Y-274074819D02*
X351047619Y-274122438D01*
X351047619Y-274122438D02*
X351095238Y-274170057D01*
X351095238Y-274170057D02*
X351142857Y-274265295D01*
X351142857Y-274265295D02*
X351142857Y-274360533D01*
X351142857Y-274360533D02*
X351095238Y-274503390D01*
X351095238Y-274503390D02*
X350523810Y-275074819D01*
X350523810Y-275074819D02*
X351142857Y-275074819D01*
X582157142Y-276824819D02*
X581823809Y-276348628D01*
X581585714Y-276824819D02*
X581585714Y-275824819D01*
X581585714Y-275824819D02*
X581966666Y-275824819D01*
X581966666Y-275824819D02*
X582061904Y-275872438D01*
X582061904Y-275872438D02*
X582109523Y-275920057D01*
X582109523Y-275920057D02*
X582157142Y-276015295D01*
X582157142Y-276015295D02*
X582157142Y-276158152D01*
X582157142Y-276158152D02*
X582109523Y-276253390D01*
X582109523Y-276253390D02*
X582061904Y-276301009D01*
X582061904Y-276301009D02*
X581966666Y-276348628D01*
X581966666Y-276348628D02*
X581585714Y-276348628D01*
X583109523Y-276824819D02*
X582538095Y-276824819D01*
X582823809Y-276824819D02*
X582823809Y-275824819D01*
X582823809Y-275824819D02*
X582728571Y-275967676D01*
X582728571Y-275967676D02*
X582633333Y-276062914D01*
X582633333Y-276062914D02*
X582538095Y-276110533D01*
X583680952Y-276253390D02*
X583585714Y-276205771D01*
X583585714Y-276205771D02*
X583538095Y-276158152D01*
X583538095Y-276158152D02*
X583490476Y-276062914D01*
X583490476Y-276062914D02*
X583490476Y-276015295D01*
X583490476Y-276015295D02*
X583538095Y-275920057D01*
X583538095Y-275920057D02*
X583585714Y-275872438D01*
X583585714Y-275872438D02*
X583680952Y-275824819D01*
X583680952Y-275824819D02*
X583871428Y-275824819D01*
X583871428Y-275824819D02*
X583966666Y-275872438D01*
X583966666Y-275872438D02*
X584014285Y-275920057D01*
X584014285Y-275920057D02*
X584061904Y-276015295D01*
X584061904Y-276015295D02*
X584061904Y-276062914D01*
X584061904Y-276062914D02*
X584014285Y-276158152D01*
X584014285Y-276158152D02*
X583966666Y-276205771D01*
X583966666Y-276205771D02*
X583871428Y-276253390D01*
X583871428Y-276253390D02*
X583680952Y-276253390D01*
X583680952Y-276253390D02*
X583585714Y-276301009D01*
X583585714Y-276301009D02*
X583538095Y-276348628D01*
X583538095Y-276348628D02*
X583490476Y-276443866D01*
X583490476Y-276443866D02*
X583490476Y-276634342D01*
X583490476Y-276634342D02*
X583538095Y-276729580D01*
X583538095Y-276729580D02*
X583585714Y-276777200D01*
X583585714Y-276777200D02*
X583680952Y-276824819D01*
X583680952Y-276824819D02*
X583871428Y-276824819D01*
X583871428Y-276824819D02*
X583966666Y-276777200D01*
X583966666Y-276777200D02*
X584014285Y-276729580D01*
X584014285Y-276729580D02*
X584061904Y-276634342D01*
X584061904Y-276634342D02*
X584061904Y-276443866D01*
X584061904Y-276443866D02*
X584014285Y-276348628D01*
X584014285Y-276348628D02*
X583966666Y-276301009D01*
X583966666Y-276301009D02*
X583871428Y-276253390D01*
X607157142Y-277024819D02*
X606823809Y-276548628D01*
X606585714Y-277024819D02*
X606585714Y-276024819D01*
X606585714Y-276024819D02*
X606966666Y-276024819D01*
X606966666Y-276024819D02*
X607061904Y-276072438D01*
X607061904Y-276072438D02*
X607109523Y-276120057D01*
X607109523Y-276120057D02*
X607157142Y-276215295D01*
X607157142Y-276215295D02*
X607157142Y-276358152D01*
X607157142Y-276358152D02*
X607109523Y-276453390D01*
X607109523Y-276453390D02*
X607061904Y-276501009D01*
X607061904Y-276501009D02*
X606966666Y-276548628D01*
X606966666Y-276548628D02*
X606585714Y-276548628D01*
X608109523Y-277024819D02*
X607538095Y-277024819D01*
X607823809Y-277024819D02*
X607823809Y-276024819D01*
X607823809Y-276024819D02*
X607728571Y-276167676D01*
X607728571Y-276167676D02*
X607633333Y-276262914D01*
X607633333Y-276262914D02*
X607538095Y-276310533D01*
X608585714Y-277024819D02*
X608776190Y-277024819D01*
X608776190Y-277024819D02*
X608871428Y-276977200D01*
X608871428Y-276977200D02*
X608919047Y-276929580D01*
X608919047Y-276929580D02*
X609014285Y-276786723D01*
X609014285Y-276786723D02*
X609061904Y-276596247D01*
X609061904Y-276596247D02*
X609061904Y-276215295D01*
X609061904Y-276215295D02*
X609014285Y-276120057D01*
X609014285Y-276120057D02*
X608966666Y-276072438D01*
X608966666Y-276072438D02*
X608871428Y-276024819D01*
X608871428Y-276024819D02*
X608680952Y-276024819D01*
X608680952Y-276024819D02*
X608585714Y-276072438D01*
X608585714Y-276072438D02*
X608538095Y-276120057D01*
X608538095Y-276120057D02*
X608490476Y-276215295D01*
X608490476Y-276215295D02*
X608490476Y-276453390D01*
X608490476Y-276453390D02*
X608538095Y-276548628D01*
X608538095Y-276548628D02*
X608585714Y-276596247D01*
X608585714Y-276596247D02*
X608680952Y-276643866D01*
X608680952Y-276643866D02*
X608871428Y-276643866D01*
X608871428Y-276643866D02*
X608966666Y-276596247D01*
X608966666Y-276596247D02*
X609014285Y-276548628D01*
X609014285Y-276548628D02*
X609061904Y-276453390D01*
X624690476Y-274674819D02*
X624690476Y-275389104D01*
X624690476Y-275389104D02*
X624642857Y-275531961D01*
X624642857Y-275531961D02*
X624547619Y-275627200D01*
X624547619Y-275627200D02*
X624404762Y-275674819D01*
X624404762Y-275674819D02*
X624309524Y-275674819D01*
X625119048Y-274770057D02*
X625166667Y-274722438D01*
X625166667Y-274722438D02*
X625261905Y-274674819D01*
X625261905Y-274674819D02*
X625500000Y-274674819D01*
X625500000Y-274674819D02*
X625595238Y-274722438D01*
X625595238Y-274722438D02*
X625642857Y-274770057D01*
X625642857Y-274770057D02*
X625690476Y-274865295D01*
X625690476Y-274865295D02*
X625690476Y-274960533D01*
X625690476Y-274960533D02*
X625642857Y-275103390D01*
X625642857Y-275103390D02*
X625071429Y-275674819D01*
X625071429Y-275674819D02*
X625690476Y-275674819D01*
X626023810Y-274674819D02*
X626642857Y-274674819D01*
X626642857Y-274674819D02*
X626309524Y-275055771D01*
X626309524Y-275055771D02*
X626452381Y-275055771D01*
X626452381Y-275055771D02*
X626547619Y-275103390D01*
X626547619Y-275103390D02*
X626595238Y-275151009D01*
X626595238Y-275151009D02*
X626642857Y-275246247D01*
X626642857Y-275246247D02*
X626642857Y-275484342D01*
X626642857Y-275484342D02*
X626595238Y-275579580D01*
X626595238Y-275579580D02*
X626547619Y-275627200D01*
X626547619Y-275627200D02*
X626452381Y-275674819D01*
X626452381Y-275674819D02*
X626166667Y-275674819D01*
X626166667Y-275674819D02*
X626071429Y-275627200D01*
X626071429Y-275627200D02*
X626023810Y-275579580D01*
X258033333Y-276224819D02*
X257700000Y-275748628D01*
X257461905Y-276224819D02*
X257461905Y-275224819D01*
X257461905Y-275224819D02*
X257842857Y-275224819D01*
X257842857Y-275224819D02*
X257938095Y-275272438D01*
X257938095Y-275272438D02*
X257985714Y-275320057D01*
X257985714Y-275320057D02*
X258033333Y-275415295D01*
X258033333Y-275415295D02*
X258033333Y-275558152D01*
X258033333Y-275558152D02*
X257985714Y-275653390D01*
X257985714Y-275653390D02*
X257938095Y-275701009D01*
X257938095Y-275701009D02*
X257842857Y-275748628D01*
X257842857Y-275748628D02*
X257461905Y-275748628D01*
X258366667Y-275224819D02*
X259033333Y-275224819D01*
X259033333Y-275224819D02*
X258604762Y-276224819D01*
X574190476Y-274574819D02*
X574190476Y-275289104D01*
X574190476Y-275289104D02*
X574142857Y-275431961D01*
X574142857Y-275431961D02*
X574047619Y-275527200D01*
X574047619Y-275527200D02*
X573904762Y-275574819D01*
X573904762Y-275574819D02*
X573809524Y-275574819D01*
X574619048Y-274670057D02*
X574666667Y-274622438D01*
X574666667Y-274622438D02*
X574761905Y-274574819D01*
X574761905Y-274574819D02*
X575000000Y-274574819D01*
X575000000Y-274574819D02*
X575095238Y-274622438D01*
X575095238Y-274622438D02*
X575142857Y-274670057D01*
X575142857Y-274670057D02*
X575190476Y-274765295D01*
X575190476Y-274765295D02*
X575190476Y-274860533D01*
X575190476Y-274860533D02*
X575142857Y-275003390D01*
X575142857Y-275003390D02*
X574571429Y-275574819D01*
X574571429Y-275574819D02*
X575190476Y-275574819D01*
X576142857Y-275574819D02*
X575571429Y-275574819D01*
X575857143Y-275574819D02*
X575857143Y-274574819D01*
X575857143Y-274574819D02*
X575761905Y-274717676D01*
X575761905Y-274717676D02*
X575666667Y-274812914D01*
X575666667Y-274812914D02*
X575571429Y-274860533D01*
X63488095Y-272454819D02*
X63488095Y-271454819D01*
X63488095Y-271931009D02*
X64059523Y-271931009D01*
X64059523Y-272454819D02*
X64059523Y-271454819D01*
X65059523Y-272454819D02*
X64488095Y-272454819D01*
X64773809Y-272454819D02*
X64773809Y-271454819D01*
X64773809Y-271454819D02*
X64678571Y-271597676D01*
X64678571Y-271597676D02*
X64583333Y-271692914D01*
X64583333Y-271692914D02*
X64488095Y-271740533D01*
X124666666Y-274074819D02*
X124666666Y-274789104D01*
X124666666Y-274789104D02*
X124619047Y-274931961D01*
X124619047Y-274931961D02*
X124523809Y-275027200D01*
X124523809Y-275027200D02*
X124380952Y-275074819D01*
X124380952Y-275074819D02*
X124285714Y-275074819D01*
X125571428Y-274408152D02*
X125571428Y-275074819D01*
X125333333Y-274027200D02*
X125095238Y-274741485D01*
X125095238Y-274741485D02*
X125714285Y-274741485D01*
X499190476Y-274574819D02*
X499190476Y-275289104D01*
X499190476Y-275289104D02*
X499142857Y-275431961D01*
X499142857Y-275431961D02*
X499047619Y-275527200D01*
X499047619Y-275527200D02*
X498904762Y-275574819D01*
X498904762Y-275574819D02*
X498809524Y-275574819D01*
X500190476Y-275574819D02*
X499619048Y-275574819D01*
X499904762Y-275574819D02*
X499904762Y-274574819D01*
X499904762Y-274574819D02*
X499809524Y-274717676D01*
X499809524Y-274717676D02*
X499714286Y-274812914D01*
X499714286Y-274812914D02*
X499619048Y-274860533D01*
X500666667Y-275574819D02*
X500857143Y-275574819D01*
X500857143Y-275574819D02*
X500952381Y-275527200D01*
X500952381Y-275527200D02*
X501000000Y-275479580D01*
X501000000Y-275479580D02*
X501095238Y-275336723D01*
X501095238Y-275336723D02*
X501142857Y-275146247D01*
X501142857Y-275146247D02*
X501142857Y-274765295D01*
X501142857Y-274765295D02*
X501095238Y-274670057D01*
X501095238Y-274670057D02*
X501047619Y-274622438D01*
X501047619Y-274622438D02*
X500952381Y-274574819D01*
X500952381Y-274574819D02*
X500761905Y-274574819D01*
X500761905Y-274574819D02*
X500666667Y-274622438D01*
X500666667Y-274622438D02*
X500619048Y-274670057D01*
X500619048Y-274670057D02*
X500571429Y-274765295D01*
X500571429Y-274765295D02*
X500571429Y-275003390D01*
X500571429Y-275003390D02*
X500619048Y-275098628D01*
X500619048Y-275098628D02*
X500666667Y-275146247D01*
X500666667Y-275146247D02*
X500761905Y-275193866D01*
X500761905Y-275193866D02*
X500952381Y-275193866D01*
X500952381Y-275193866D02*
X501047619Y-275146247D01*
X501047619Y-275146247D02*
X501095238Y-275098628D01*
X501095238Y-275098628D02*
X501142857Y-275003390D01*
X82913333Y-275824819D02*
X82580000Y-275348628D01*
X82341905Y-275824819D02*
X82341905Y-274824819D01*
X82341905Y-274824819D02*
X82722857Y-274824819D01*
X82722857Y-274824819D02*
X82818095Y-274872438D01*
X82818095Y-274872438D02*
X82865714Y-274920057D01*
X82865714Y-274920057D02*
X82913333Y-275015295D01*
X82913333Y-275015295D02*
X82913333Y-275158152D01*
X82913333Y-275158152D02*
X82865714Y-275253390D01*
X82865714Y-275253390D02*
X82818095Y-275301009D01*
X82818095Y-275301009D02*
X82722857Y-275348628D01*
X82722857Y-275348628D02*
X82341905Y-275348628D01*
X83865714Y-275824819D02*
X83294286Y-275824819D01*
X83580000Y-275824819D02*
X83580000Y-274824819D01*
X83580000Y-274824819D02*
X83484762Y-274967676D01*
X83484762Y-274967676D02*
X83389524Y-275062914D01*
X83389524Y-275062914D02*
X83294286Y-275110533D01*
X132753333Y-275824819D02*
X132420000Y-275348628D01*
X132181905Y-275824819D02*
X132181905Y-274824819D01*
X132181905Y-274824819D02*
X132562857Y-274824819D01*
X132562857Y-274824819D02*
X132658095Y-274872438D01*
X132658095Y-274872438D02*
X132705714Y-274920057D01*
X132705714Y-274920057D02*
X132753333Y-275015295D01*
X132753333Y-275015295D02*
X132753333Y-275158152D01*
X132753333Y-275158152D02*
X132705714Y-275253390D01*
X132705714Y-275253390D02*
X132658095Y-275301009D01*
X132658095Y-275301009D02*
X132562857Y-275348628D01*
X132562857Y-275348628D02*
X132181905Y-275348628D01*
X133086667Y-274824819D02*
X133705714Y-274824819D01*
X133705714Y-274824819D02*
X133372381Y-275205771D01*
X133372381Y-275205771D02*
X133515238Y-275205771D01*
X133515238Y-275205771D02*
X133610476Y-275253390D01*
X133610476Y-275253390D02*
X133658095Y-275301009D01*
X133658095Y-275301009D02*
X133705714Y-275396247D01*
X133705714Y-275396247D02*
X133705714Y-275634342D01*
X133705714Y-275634342D02*
X133658095Y-275729580D01*
X133658095Y-275729580D02*
X133610476Y-275777200D01*
X133610476Y-275777200D02*
X133515238Y-275824819D01*
X133515238Y-275824819D02*
X133229524Y-275824819D01*
X133229524Y-275824819D02*
X133134286Y-275777200D01*
X133134286Y-275777200D02*
X133086667Y-275729580D01*
X224666666Y-274574819D02*
X224666666Y-275289104D01*
X224666666Y-275289104D02*
X224619047Y-275431961D01*
X224619047Y-275431961D02*
X224523809Y-275527200D01*
X224523809Y-275527200D02*
X224380952Y-275574819D01*
X224380952Y-275574819D02*
X224285714Y-275574819D01*
X225047619Y-274574819D02*
X225714285Y-274574819D01*
X225714285Y-274574819D02*
X225285714Y-275574819D01*
X174666666Y-274074819D02*
X174666666Y-274789104D01*
X174666666Y-274789104D02*
X174619047Y-274931961D01*
X174619047Y-274931961D02*
X174523809Y-275027200D01*
X174523809Y-275027200D02*
X174380952Y-275074819D01*
X174380952Y-275074819D02*
X174285714Y-275074819D01*
X175571428Y-274074819D02*
X175380952Y-274074819D01*
X175380952Y-274074819D02*
X175285714Y-274122438D01*
X175285714Y-274122438D02*
X175238095Y-274170057D01*
X175238095Y-274170057D02*
X175142857Y-274312914D01*
X175142857Y-274312914D02*
X175095238Y-274503390D01*
X175095238Y-274503390D02*
X175095238Y-274884342D01*
X175095238Y-274884342D02*
X175142857Y-274979580D01*
X175142857Y-274979580D02*
X175190476Y-275027200D01*
X175190476Y-275027200D02*
X175285714Y-275074819D01*
X175285714Y-275074819D02*
X175476190Y-275074819D01*
X175476190Y-275074819D02*
X175571428Y-275027200D01*
X175571428Y-275027200D02*
X175619047Y-274979580D01*
X175619047Y-274979580D02*
X175666666Y-274884342D01*
X175666666Y-274884342D02*
X175666666Y-274646247D01*
X175666666Y-274646247D02*
X175619047Y-274551009D01*
X175619047Y-274551009D02*
X175571428Y-274503390D01*
X175571428Y-274503390D02*
X175476190Y-274455771D01*
X175476190Y-274455771D02*
X175285714Y-274455771D01*
X175285714Y-274455771D02*
X175190476Y-274503390D01*
X175190476Y-274503390D02*
X175142857Y-274551009D01*
X175142857Y-274551009D02*
X175095238Y-274646247D01*
X649190476Y-274674819D02*
X649190476Y-275389104D01*
X649190476Y-275389104D02*
X649142857Y-275531961D01*
X649142857Y-275531961D02*
X649047619Y-275627200D01*
X649047619Y-275627200D02*
X648904762Y-275674819D01*
X648904762Y-275674819D02*
X648809524Y-275674819D01*
X649619048Y-274770057D02*
X649666667Y-274722438D01*
X649666667Y-274722438D02*
X649761905Y-274674819D01*
X649761905Y-274674819D02*
X650000000Y-274674819D01*
X650000000Y-274674819D02*
X650095238Y-274722438D01*
X650095238Y-274722438D02*
X650142857Y-274770057D01*
X650142857Y-274770057D02*
X650190476Y-274865295D01*
X650190476Y-274865295D02*
X650190476Y-274960533D01*
X650190476Y-274960533D02*
X650142857Y-275103390D01*
X650142857Y-275103390D02*
X649571429Y-275674819D01*
X649571429Y-275674819D02*
X650190476Y-275674819D01*
X651047619Y-275008152D02*
X651047619Y-275674819D01*
X650809524Y-274627200D02*
X650571429Y-275341485D01*
X650571429Y-275341485D02*
X651190476Y-275341485D01*
X299190476Y-274074819D02*
X299190476Y-274789104D01*
X299190476Y-274789104D02*
X299142857Y-274931961D01*
X299142857Y-274931961D02*
X299047619Y-275027200D01*
X299047619Y-275027200D02*
X298904762Y-275074819D01*
X298904762Y-275074819D02*
X298809524Y-275074819D01*
X300190476Y-275074819D02*
X299619048Y-275074819D01*
X299904762Y-275074819D02*
X299904762Y-274074819D01*
X299904762Y-274074819D02*
X299809524Y-274217676D01*
X299809524Y-274217676D02*
X299714286Y-274312914D01*
X299714286Y-274312914D02*
X299619048Y-274360533D01*
X300809524Y-274074819D02*
X300904762Y-274074819D01*
X300904762Y-274074819D02*
X301000000Y-274122438D01*
X301000000Y-274122438D02*
X301047619Y-274170057D01*
X301047619Y-274170057D02*
X301095238Y-274265295D01*
X301095238Y-274265295D02*
X301142857Y-274455771D01*
X301142857Y-274455771D02*
X301142857Y-274693866D01*
X301142857Y-274693866D02*
X301095238Y-274884342D01*
X301095238Y-274884342D02*
X301047619Y-274979580D01*
X301047619Y-274979580D02*
X301000000Y-275027200D01*
X301000000Y-275027200D02*
X300904762Y-275074819D01*
X300904762Y-275074819D02*
X300809524Y-275074819D01*
X300809524Y-275074819D02*
X300714286Y-275027200D01*
X300714286Y-275027200D02*
X300666667Y-274979580D01*
X300666667Y-274979580D02*
X300619048Y-274884342D01*
X300619048Y-274884342D02*
X300571429Y-274693866D01*
X300571429Y-274693866D02*
X300571429Y-274455771D01*
X300571429Y-274455771D02*
X300619048Y-274265295D01*
X300619048Y-274265295D02*
X300666667Y-274170057D01*
X300666667Y-274170057D02*
X300714286Y-274122438D01*
X300714286Y-274122438D02*
X300809524Y-274074819D01*
X74666666Y-274074819D02*
X74666666Y-274789104D01*
X74666666Y-274789104D02*
X74619047Y-274931961D01*
X74619047Y-274931961D02*
X74523809Y-275027200D01*
X74523809Y-275027200D02*
X74380952Y-275074819D01*
X74380952Y-275074819D02*
X74285714Y-275074819D01*
X75095238Y-274170057D02*
X75142857Y-274122438D01*
X75142857Y-274122438D02*
X75238095Y-274074819D01*
X75238095Y-274074819D02*
X75476190Y-274074819D01*
X75476190Y-274074819D02*
X75571428Y-274122438D01*
X75571428Y-274122438D02*
X75619047Y-274170057D01*
X75619047Y-274170057D02*
X75666666Y-274265295D01*
X75666666Y-274265295D02*
X75666666Y-274360533D01*
X75666666Y-274360533D02*
X75619047Y-274503390D01*
X75619047Y-274503390D02*
X75047619Y-275074819D01*
X75047619Y-275074819D02*
X75666666Y-275074819D01*
X432237142Y-276824819D02*
X431903809Y-276348628D01*
X431665714Y-276824819D02*
X431665714Y-275824819D01*
X431665714Y-275824819D02*
X432046666Y-275824819D01*
X432046666Y-275824819D02*
X432141904Y-275872438D01*
X432141904Y-275872438D02*
X432189523Y-275920057D01*
X432189523Y-275920057D02*
X432237142Y-276015295D01*
X432237142Y-276015295D02*
X432237142Y-276158152D01*
X432237142Y-276158152D02*
X432189523Y-276253390D01*
X432189523Y-276253390D02*
X432141904Y-276301009D01*
X432141904Y-276301009D02*
X432046666Y-276348628D01*
X432046666Y-276348628D02*
X431665714Y-276348628D01*
X433189523Y-276824819D02*
X432618095Y-276824819D01*
X432903809Y-276824819D02*
X432903809Y-275824819D01*
X432903809Y-275824819D02*
X432808571Y-275967676D01*
X432808571Y-275967676D02*
X432713333Y-276062914D01*
X432713333Y-276062914D02*
X432618095Y-276110533D01*
X433522857Y-275824819D02*
X434141904Y-275824819D01*
X434141904Y-275824819D02*
X433808571Y-276205771D01*
X433808571Y-276205771D02*
X433951428Y-276205771D01*
X433951428Y-276205771D02*
X434046666Y-276253390D01*
X434046666Y-276253390D02*
X434094285Y-276301009D01*
X434094285Y-276301009D02*
X434141904Y-276396247D01*
X434141904Y-276396247D02*
X434141904Y-276634342D01*
X434141904Y-276634342D02*
X434094285Y-276729580D01*
X434094285Y-276729580D02*
X434046666Y-276777200D01*
X434046666Y-276777200D02*
X433951428Y-276824819D01*
X433951428Y-276824819D02*
X433665714Y-276824819D01*
X433665714Y-276824819D02*
X433570476Y-276777200D01*
X433570476Y-276777200D02*
X433522857Y-276729580D01*
X249666666Y-274074819D02*
X249666666Y-274789104D01*
X249666666Y-274789104D02*
X249619047Y-274931961D01*
X249619047Y-274931961D02*
X249523809Y-275027200D01*
X249523809Y-275027200D02*
X249380952Y-275074819D01*
X249380952Y-275074819D02*
X249285714Y-275074819D01*
X250285714Y-274503390D02*
X250190476Y-274455771D01*
X250190476Y-274455771D02*
X250142857Y-274408152D01*
X250142857Y-274408152D02*
X250095238Y-274312914D01*
X250095238Y-274312914D02*
X250095238Y-274265295D01*
X250095238Y-274265295D02*
X250142857Y-274170057D01*
X250142857Y-274170057D02*
X250190476Y-274122438D01*
X250190476Y-274122438D02*
X250285714Y-274074819D01*
X250285714Y-274074819D02*
X250476190Y-274074819D01*
X250476190Y-274074819D02*
X250571428Y-274122438D01*
X250571428Y-274122438D02*
X250619047Y-274170057D01*
X250619047Y-274170057D02*
X250666666Y-274265295D01*
X250666666Y-274265295D02*
X250666666Y-274312914D01*
X250666666Y-274312914D02*
X250619047Y-274408152D01*
X250619047Y-274408152D02*
X250571428Y-274455771D01*
X250571428Y-274455771D02*
X250476190Y-274503390D01*
X250476190Y-274503390D02*
X250285714Y-274503390D01*
X250285714Y-274503390D02*
X250190476Y-274551009D01*
X250190476Y-274551009D02*
X250142857Y-274598628D01*
X250142857Y-274598628D02*
X250095238Y-274693866D01*
X250095238Y-274693866D02*
X250095238Y-274884342D01*
X250095238Y-274884342D02*
X250142857Y-274979580D01*
X250142857Y-274979580D02*
X250190476Y-275027200D01*
X250190476Y-275027200D02*
X250285714Y-275074819D01*
X250285714Y-275074819D02*
X250476190Y-275074819D01*
X250476190Y-275074819D02*
X250571428Y-275027200D01*
X250571428Y-275027200D02*
X250619047Y-274979580D01*
X250619047Y-274979580D02*
X250666666Y-274884342D01*
X250666666Y-274884342D02*
X250666666Y-274693866D01*
X250666666Y-274693866D02*
X250619047Y-274598628D01*
X250619047Y-274598628D02*
X250571428Y-274551009D01*
X250571428Y-274551009D02*
X250476190Y-274503390D01*
X657157142Y-277024819D02*
X656823809Y-276548628D01*
X656585714Y-277024819D02*
X656585714Y-276024819D01*
X656585714Y-276024819D02*
X656966666Y-276024819D01*
X656966666Y-276024819D02*
X657061904Y-276072438D01*
X657061904Y-276072438D02*
X657109523Y-276120057D01*
X657109523Y-276120057D02*
X657157142Y-276215295D01*
X657157142Y-276215295D02*
X657157142Y-276358152D01*
X657157142Y-276358152D02*
X657109523Y-276453390D01*
X657109523Y-276453390D02*
X657061904Y-276501009D01*
X657061904Y-276501009D02*
X656966666Y-276548628D01*
X656966666Y-276548628D02*
X656585714Y-276548628D01*
X657538095Y-276120057D02*
X657585714Y-276072438D01*
X657585714Y-276072438D02*
X657680952Y-276024819D01*
X657680952Y-276024819D02*
X657919047Y-276024819D01*
X657919047Y-276024819D02*
X658014285Y-276072438D01*
X658014285Y-276072438D02*
X658061904Y-276120057D01*
X658061904Y-276120057D02*
X658109523Y-276215295D01*
X658109523Y-276215295D02*
X658109523Y-276310533D01*
X658109523Y-276310533D02*
X658061904Y-276453390D01*
X658061904Y-276453390D02*
X657490476Y-277024819D01*
X657490476Y-277024819D02*
X658109523Y-277024819D01*
X659061904Y-277024819D02*
X658490476Y-277024819D01*
X658776190Y-277024819D02*
X658776190Y-276024819D01*
X658776190Y-276024819D02*
X658680952Y-276167676D01*
X658680952Y-276167676D02*
X658585714Y-276262914D01*
X658585714Y-276262914D02*
X658490476Y-276310533D01*
X707157142Y-276824819D02*
X706823809Y-276348628D01*
X706585714Y-276824819D02*
X706585714Y-275824819D01*
X706585714Y-275824819D02*
X706966666Y-275824819D01*
X706966666Y-275824819D02*
X707061904Y-275872438D01*
X707061904Y-275872438D02*
X707109523Y-275920057D01*
X707109523Y-275920057D02*
X707157142Y-276015295D01*
X707157142Y-276015295D02*
X707157142Y-276158152D01*
X707157142Y-276158152D02*
X707109523Y-276253390D01*
X707109523Y-276253390D02*
X707061904Y-276301009D01*
X707061904Y-276301009D02*
X706966666Y-276348628D01*
X706966666Y-276348628D02*
X706585714Y-276348628D01*
X707538095Y-275920057D02*
X707585714Y-275872438D01*
X707585714Y-275872438D02*
X707680952Y-275824819D01*
X707680952Y-275824819D02*
X707919047Y-275824819D01*
X707919047Y-275824819D02*
X708014285Y-275872438D01*
X708014285Y-275872438D02*
X708061904Y-275920057D01*
X708061904Y-275920057D02*
X708109523Y-276015295D01*
X708109523Y-276015295D02*
X708109523Y-276110533D01*
X708109523Y-276110533D02*
X708061904Y-276253390D01*
X708061904Y-276253390D02*
X707490476Y-276824819D01*
X707490476Y-276824819D02*
X708109523Y-276824819D01*
X708442857Y-275824819D02*
X709061904Y-275824819D01*
X709061904Y-275824819D02*
X708728571Y-276205771D01*
X708728571Y-276205771D02*
X708871428Y-276205771D01*
X708871428Y-276205771D02*
X708966666Y-276253390D01*
X708966666Y-276253390D02*
X709014285Y-276301009D01*
X709014285Y-276301009D02*
X709061904Y-276396247D01*
X709061904Y-276396247D02*
X709061904Y-276634342D01*
X709061904Y-276634342D02*
X709014285Y-276729580D01*
X709014285Y-276729580D02*
X708966666Y-276777200D01*
X708966666Y-276777200D02*
X708871428Y-276824819D01*
X708871428Y-276824819D02*
X708585714Y-276824819D01*
X708585714Y-276824819D02*
X708490476Y-276777200D01*
X708490476Y-276777200D02*
X708442857Y-276729580D01*
X374190476Y-274574819D02*
X374190476Y-275289104D01*
X374190476Y-275289104D02*
X374142857Y-275431961D01*
X374142857Y-275431961D02*
X374047619Y-275527200D01*
X374047619Y-275527200D02*
X373904762Y-275574819D01*
X373904762Y-275574819D02*
X373809524Y-275574819D01*
X375190476Y-275574819D02*
X374619048Y-275574819D01*
X374904762Y-275574819D02*
X374904762Y-274574819D01*
X374904762Y-274574819D02*
X374809524Y-274717676D01*
X374809524Y-274717676D02*
X374714286Y-274812914D01*
X374714286Y-274812914D02*
X374619048Y-274860533D01*
X375523810Y-274574819D02*
X376142857Y-274574819D01*
X376142857Y-274574819D02*
X375809524Y-274955771D01*
X375809524Y-274955771D02*
X375952381Y-274955771D01*
X375952381Y-274955771D02*
X376047619Y-275003390D01*
X376047619Y-275003390D02*
X376095238Y-275051009D01*
X376095238Y-275051009D02*
X376142857Y-275146247D01*
X376142857Y-275146247D02*
X376142857Y-275384342D01*
X376142857Y-275384342D02*
X376095238Y-275479580D01*
X376095238Y-275479580D02*
X376047619Y-275527200D01*
X376047619Y-275527200D02*
X375952381Y-275574819D01*
X375952381Y-275574819D02*
X375666667Y-275574819D01*
X375666667Y-275574819D02*
X375571429Y-275527200D01*
X375571429Y-275527200D02*
X375523810Y-275479580D01*
X774190476Y-274574819D02*
X774190476Y-275289104D01*
X774190476Y-275289104D02*
X774142857Y-275431961D01*
X774142857Y-275431961D02*
X774047619Y-275527200D01*
X774047619Y-275527200D02*
X773904762Y-275574819D01*
X773904762Y-275574819D02*
X773809524Y-275574819D01*
X774619048Y-274670057D02*
X774666667Y-274622438D01*
X774666667Y-274622438D02*
X774761905Y-274574819D01*
X774761905Y-274574819D02*
X775000000Y-274574819D01*
X775000000Y-274574819D02*
X775095238Y-274622438D01*
X775095238Y-274622438D02*
X775142857Y-274670057D01*
X775142857Y-274670057D02*
X775190476Y-274765295D01*
X775190476Y-274765295D02*
X775190476Y-274860533D01*
X775190476Y-274860533D02*
X775142857Y-275003390D01*
X775142857Y-275003390D02*
X774571429Y-275574819D01*
X774571429Y-275574819D02*
X775190476Y-275574819D01*
X775761905Y-275003390D02*
X775666667Y-274955771D01*
X775666667Y-274955771D02*
X775619048Y-274908152D01*
X775619048Y-274908152D02*
X775571429Y-274812914D01*
X775571429Y-274812914D02*
X775571429Y-274765295D01*
X775571429Y-274765295D02*
X775619048Y-274670057D01*
X775619048Y-274670057D02*
X775666667Y-274622438D01*
X775666667Y-274622438D02*
X775761905Y-274574819D01*
X775761905Y-274574819D02*
X775952381Y-274574819D01*
X775952381Y-274574819D02*
X776047619Y-274622438D01*
X776047619Y-274622438D02*
X776095238Y-274670057D01*
X776095238Y-274670057D02*
X776142857Y-274765295D01*
X776142857Y-274765295D02*
X776142857Y-274812914D01*
X776142857Y-274812914D02*
X776095238Y-274908152D01*
X776095238Y-274908152D02*
X776047619Y-274955771D01*
X776047619Y-274955771D02*
X775952381Y-275003390D01*
X775952381Y-275003390D02*
X775761905Y-275003390D01*
X775761905Y-275003390D02*
X775666667Y-275051009D01*
X775666667Y-275051009D02*
X775619048Y-275098628D01*
X775619048Y-275098628D02*
X775571429Y-275193866D01*
X775571429Y-275193866D02*
X775571429Y-275384342D01*
X775571429Y-275384342D02*
X775619048Y-275479580D01*
X775619048Y-275479580D02*
X775666667Y-275527200D01*
X775666667Y-275527200D02*
X775761905Y-275574819D01*
X775761905Y-275574819D02*
X775952381Y-275574819D01*
X775952381Y-275574819D02*
X776047619Y-275527200D01*
X776047619Y-275527200D02*
X776095238Y-275479580D01*
X776095238Y-275479580D02*
X776142857Y-275384342D01*
X776142857Y-275384342D02*
X776142857Y-275193866D01*
X776142857Y-275193866D02*
X776095238Y-275098628D01*
X776095238Y-275098628D02*
X776047619Y-275051009D01*
X776047619Y-275051009D02*
X775952381Y-275003390D01*
X99666666Y-274074819D02*
X99666666Y-274789104D01*
X99666666Y-274789104D02*
X99619047Y-274931961D01*
X99619047Y-274931961D02*
X99523809Y-275027200D01*
X99523809Y-275027200D02*
X99380952Y-275074819D01*
X99380952Y-275074819D02*
X99285714Y-275074819D01*
X100047619Y-274074819D02*
X100666666Y-274074819D01*
X100666666Y-274074819D02*
X100333333Y-274455771D01*
X100333333Y-274455771D02*
X100476190Y-274455771D01*
X100476190Y-274455771D02*
X100571428Y-274503390D01*
X100571428Y-274503390D02*
X100619047Y-274551009D01*
X100619047Y-274551009D02*
X100666666Y-274646247D01*
X100666666Y-274646247D02*
X100666666Y-274884342D01*
X100666666Y-274884342D02*
X100619047Y-274979580D01*
X100619047Y-274979580D02*
X100571428Y-275027200D01*
X100571428Y-275027200D02*
X100476190Y-275074819D01*
X100476190Y-275074819D02*
X100190476Y-275074819D01*
X100190476Y-275074819D02*
X100095238Y-275027200D01*
X100095238Y-275027200D02*
X100047619Y-274979580D01*
X785488095Y-272454819D02*
X785488095Y-271454819D01*
X785488095Y-271931009D02*
X786059523Y-271931009D01*
X786059523Y-272454819D02*
X786059523Y-271454819D01*
X786488095Y-271550057D02*
X786535714Y-271502438D01*
X786535714Y-271502438D02*
X786630952Y-271454819D01*
X786630952Y-271454819D02*
X786869047Y-271454819D01*
X786869047Y-271454819D02*
X786964285Y-271502438D01*
X786964285Y-271502438D02*
X787011904Y-271550057D01*
X787011904Y-271550057D02*
X787059523Y-271645295D01*
X787059523Y-271645295D02*
X787059523Y-271740533D01*
X787059523Y-271740533D02*
X787011904Y-271883390D01*
X787011904Y-271883390D02*
X786440476Y-272454819D01*
X786440476Y-272454819D02*
X787059523Y-272454819D01*
X632557142Y-277024819D02*
X632223809Y-276548628D01*
X631985714Y-277024819D02*
X631985714Y-276024819D01*
X631985714Y-276024819D02*
X632366666Y-276024819D01*
X632366666Y-276024819D02*
X632461904Y-276072438D01*
X632461904Y-276072438D02*
X632509523Y-276120057D01*
X632509523Y-276120057D02*
X632557142Y-276215295D01*
X632557142Y-276215295D02*
X632557142Y-276358152D01*
X632557142Y-276358152D02*
X632509523Y-276453390D01*
X632509523Y-276453390D02*
X632461904Y-276501009D01*
X632461904Y-276501009D02*
X632366666Y-276548628D01*
X632366666Y-276548628D02*
X631985714Y-276548628D01*
X632938095Y-276120057D02*
X632985714Y-276072438D01*
X632985714Y-276072438D02*
X633080952Y-276024819D01*
X633080952Y-276024819D02*
X633319047Y-276024819D01*
X633319047Y-276024819D02*
X633414285Y-276072438D01*
X633414285Y-276072438D02*
X633461904Y-276120057D01*
X633461904Y-276120057D02*
X633509523Y-276215295D01*
X633509523Y-276215295D02*
X633509523Y-276310533D01*
X633509523Y-276310533D02*
X633461904Y-276453390D01*
X633461904Y-276453390D02*
X632890476Y-277024819D01*
X632890476Y-277024819D02*
X633509523Y-277024819D01*
X634128571Y-276024819D02*
X634223809Y-276024819D01*
X634223809Y-276024819D02*
X634319047Y-276072438D01*
X634319047Y-276072438D02*
X634366666Y-276120057D01*
X634366666Y-276120057D02*
X634414285Y-276215295D01*
X634414285Y-276215295D02*
X634461904Y-276405771D01*
X634461904Y-276405771D02*
X634461904Y-276643866D01*
X634461904Y-276643866D02*
X634414285Y-276834342D01*
X634414285Y-276834342D02*
X634366666Y-276929580D01*
X634366666Y-276929580D02*
X634319047Y-276977200D01*
X634319047Y-276977200D02*
X634223809Y-277024819D01*
X634223809Y-277024819D02*
X634128571Y-277024819D01*
X634128571Y-277024819D02*
X634033333Y-276977200D01*
X634033333Y-276977200D02*
X633985714Y-276929580D01*
X633985714Y-276929580D02*
X633938095Y-276834342D01*
X633938095Y-276834342D02*
X633890476Y-276643866D01*
X633890476Y-276643866D02*
X633890476Y-276405771D01*
X633890476Y-276405771D02*
X633938095Y-276215295D01*
X633938095Y-276215295D02*
X633985714Y-276120057D01*
X633985714Y-276120057D02*
X634033333Y-276072438D01*
X634033333Y-276072438D02*
X634128571Y-276024819D01*
X448690476Y-274474819D02*
X448690476Y-275189104D01*
X448690476Y-275189104D02*
X448642857Y-275331961D01*
X448642857Y-275331961D02*
X448547619Y-275427200D01*
X448547619Y-275427200D02*
X448404762Y-275474819D01*
X448404762Y-275474819D02*
X448309524Y-275474819D01*
X449690476Y-275474819D02*
X449119048Y-275474819D01*
X449404762Y-275474819D02*
X449404762Y-274474819D01*
X449404762Y-274474819D02*
X449309524Y-274617676D01*
X449309524Y-274617676D02*
X449214286Y-274712914D01*
X449214286Y-274712914D02*
X449119048Y-274760533D01*
X450595238Y-274474819D02*
X450119048Y-274474819D01*
X450119048Y-274474819D02*
X450071429Y-274951009D01*
X450071429Y-274951009D02*
X450119048Y-274903390D01*
X450119048Y-274903390D02*
X450214286Y-274855771D01*
X450214286Y-274855771D02*
X450452381Y-274855771D01*
X450452381Y-274855771D02*
X450547619Y-274903390D01*
X450547619Y-274903390D02*
X450595238Y-274951009D01*
X450595238Y-274951009D02*
X450642857Y-275046247D01*
X450642857Y-275046247D02*
X450642857Y-275284342D01*
X450642857Y-275284342D02*
X450595238Y-275379580D01*
X450595238Y-275379580D02*
X450547619Y-275427200D01*
X450547619Y-275427200D02*
X450452381Y-275474819D01*
X450452381Y-275474819D02*
X450214286Y-275474819D01*
X450214286Y-275474819D02*
X450119048Y-275427200D01*
X450119048Y-275427200D02*
X450071429Y-275379580D01*
X307713333Y-276424819D02*
X307380000Y-275948628D01*
X307141905Y-276424819D02*
X307141905Y-275424819D01*
X307141905Y-275424819D02*
X307522857Y-275424819D01*
X307522857Y-275424819D02*
X307618095Y-275472438D01*
X307618095Y-275472438D02*
X307665714Y-275520057D01*
X307665714Y-275520057D02*
X307713333Y-275615295D01*
X307713333Y-275615295D02*
X307713333Y-275758152D01*
X307713333Y-275758152D02*
X307665714Y-275853390D01*
X307665714Y-275853390D02*
X307618095Y-275901009D01*
X307618095Y-275901009D02*
X307522857Y-275948628D01*
X307522857Y-275948628D02*
X307141905Y-275948628D01*
X308189524Y-276424819D02*
X308380000Y-276424819D01*
X308380000Y-276424819D02*
X308475238Y-276377200D01*
X308475238Y-276377200D02*
X308522857Y-276329580D01*
X308522857Y-276329580D02*
X308618095Y-276186723D01*
X308618095Y-276186723D02*
X308665714Y-275996247D01*
X308665714Y-275996247D02*
X308665714Y-275615295D01*
X308665714Y-275615295D02*
X308618095Y-275520057D01*
X308618095Y-275520057D02*
X308570476Y-275472438D01*
X308570476Y-275472438D02*
X308475238Y-275424819D01*
X308475238Y-275424819D02*
X308284762Y-275424819D01*
X308284762Y-275424819D02*
X308189524Y-275472438D01*
X308189524Y-275472438D02*
X308141905Y-275520057D01*
X308141905Y-275520057D02*
X308094286Y-275615295D01*
X308094286Y-275615295D02*
X308094286Y-275853390D01*
X308094286Y-275853390D02*
X308141905Y-275948628D01*
X308141905Y-275948628D02*
X308189524Y-275996247D01*
X308189524Y-275996247D02*
X308284762Y-276043866D01*
X308284762Y-276043866D02*
X308475238Y-276043866D01*
X308475238Y-276043866D02*
X308570476Y-275996247D01*
X308570476Y-275996247D02*
X308618095Y-275948628D01*
X308618095Y-275948628D02*
X308665714Y-275853390D01*
X599190476Y-274674819D02*
X599190476Y-275389104D01*
X599190476Y-275389104D02*
X599142857Y-275531961D01*
X599142857Y-275531961D02*
X599047619Y-275627200D01*
X599047619Y-275627200D02*
X598904762Y-275674819D01*
X598904762Y-275674819D02*
X598809524Y-275674819D01*
X599619048Y-274770057D02*
X599666667Y-274722438D01*
X599666667Y-274722438D02*
X599761905Y-274674819D01*
X599761905Y-274674819D02*
X600000000Y-274674819D01*
X600000000Y-274674819D02*
X600095238Y-274722438D01*
X600095238Y-274722438D02*
X600142857Y-274770057D01*
X600142857Y-274770057D02*
X600190476Y-274865295D01*
X600190476Y-274865295D02*
X600190476Y-274960533D01*
X600190476Y-274960533D02*
X600142857Y-275103390D01*
X600142857Y-275103390D02*
X599571429Y-275674819D01*
X599571429Y-275674819D02*
X600190476Y-275674819D01*
X600571429Y-274770057D02*
X600619048Y-274722438D01*
X600619048Y-274722438D02*
X600714286Y-274674819D01*
X600714286Y-274674819D02*
X600952381Y-274674819D01*
X600952381Y-274674819D02*
X601047619Y-274722438D01*
X601047619Y-274722438D02*
X601095238Y-274770057D01*
X601095238Y-274770057D02*
X601142857Y-274865295D01*
X601142857Y-274865295D02*
X601142857Y-274960533D01*
X601142857Y-274960533D02*
X601095238Y-275103390D01*
X601095238Y-275103390D02*
X600523810Y-275674819D01*
X600523810Y-275674819D02*
X601142857Y-275674819D01*
X232713333Y-276424819D02*
X232380000Y-275948628D01*
X232141905Y-276424819D02*
X232141905Y-275424819D01*
X232141905Y-275424819D02*
X232522857Y-275424819D01*
X232522857Y-275424819D02*
X232618095Y-275472438D01*
X232618095Y-275472438D02*
X232665714Y-275520057D01*
X232665714Y-275520057D02*
X232713333Y-275615295D01*
X232713333Y-275615295D02*
X232713333Y-275758152D01*
X232713333Y-275758152D02*
X232665714Y-275853390D01*
X232665714Y-275853390D02*
X232618095Y-275901009D01*
X232618095Y-275901009D02*
X232522857Y-275948628D01*
X232522857Y-275948628D02*
X232141905Y-275948628D01*
X233570476Y-275424819D02*
X233380000Y-275424819D01*
X233380000Y-275424819D02*
X233284762Y-275472438D01*
X233284762Y-275472438D02*
X233237143Y-275520057D01*
X233237143Y-275520057D02*
X233141905Y-275662914D01*
X233141905Y-275662914D02*
X233094286Y-275853390D01*
X233094286Y-275853390D02*
X233094286Y-276234342D01*
X233094286Y-276234342D02*
X233141905Y-276329580D01*
X233141905Y-276329580D02*
X233189524Y-276377200D01*
X233189524Y-276377200D02*
X233284762Y-276424819D01*
X233284762Y-276424819D02*
X233475238Y-276424819D01*
X233475238Y-276424819D02*
X233570476Y-276377200D01*
X233570476Y-276377200D02*
X233618095Y-276329580D01*
X233618095Y-276329580D02*
X233665714Y-276234342D01*
X233665714Y-276234342D02*
X233665714Y-275996247D01*
X233665714Y-275996247D02*
X233618095Y-275901009D01*
X233618095Y-275901009D02*
X233570476Y-275853390D01*
X233570476Y-275853390D02*
X233475238Y-275805771D01*
X233475238Y-275805771D02*
X233284762Y-275805771D01*
X233284762Y-275805771D02*
X233189524Y-275853390D01*
X233189524Y-275853390D02*
X233141905Y-275901009D01*
X233141905Y-275901009D02*
X233094286Y-275996247D01*
X699190476Y-274574819D02*
X699190476Y-275289104D01*
X699190476Y-275289104D02*
X699142857Y-275431961D01*
X699142857Y-275431961D02*
X699047619Y-275527200D01*
X699047619Y-275527200D02*
X698904762Y-275574819D01*
X698904762Y-275574819D02*
X698809524Y-275574819D01*
X699619048Y-274670057D02*
X699666667Y-274622438D01*
X699666667Y-274622438D02*
X699761905Y-274574819D01*
X699761905Y-274574819D02*
X700000000Y-274574819D01*
X700000000Y-274574819D02*
X700095238Y-274622438D01*
X700095238Y-274622438D02*
X700142857Y-274670057D01*
X700142857Y-274670057D02*
X700190476Y-274765295D01*
X700190476Y-274765295D02*
X700190476Y-274860533D01*
X700190476Y-274860533D02*
X700142857Y-275003390D01*
X700142857Y-275003390D02*
X699571429Y-275574819D01*
X699571429Y-275574819D02*
X700190476Y-275574819D01*
X701047619Y-274574819D02*
X700857143Y-274574819D01*
X700857143Y-274574819D02*
X700761905Y-274622438D01*
X700761905Y-274622438D02*
X700714286Y-274670057D01*
X700714286Y-274670057D02*
X700619048Y-274812914D01*
X700619048Y-274812914D02*
X700571429Y-275003390D01*
X700571429Y-275003390D02*
X700571429Y-275384342D01*
X700571429Y-275384342D02*
X700619048Y-275479580D01*
X700619048Y-275479580D02*
X700666667Y-275527200D01*
X700666667Y-275527200D02*
X700761905Y-275574819D01*
X700761905Y-275574819D02*
X700952381Y-275574819D01*
X700952381Y-275574819D02*
X701047619Y-275527200D01*
X701047619Y-275527200D02*
X701095238Y-275479580D01*
X701095238Y-275479580D02*
X701142857Y-275384342D01*
X701142857Y-275384342D02*
X701142857Y-275146247D01*
X701142857Y-275146247D02*
X701095238Y-275051009D01*
X701095238Y-275051009D02*
X701047619Y-275003390D01*
X701047619Y-275003390D02*
X700952381Y-274955771D01*
X700952381Y-274955771D02*
X700761905Y-274955771D01*
X700761905Y-274955771D02*
X700666667Y-275003390D01*
X700666667Y-275003390D02*
X700619048Y-275051009D01*
X700619048Y-275051009D02*
X700571429Y-275146247D01*
X424190476Y-274474819D02*
X424190476Y-275189104D01*
X424190476Y-275189104D02*
X424142857Y-275331961D01*
X424142857Y-275331961D02*
X424047619Y-275427200D01*
X424047619Y-275427200D02*
X423904762Y-275474819D01*
X423904762Y-275474819D02*
X423809524Y-275474819D01*
X425190476Y-275474819D02*
X424619048Y-275474819D01*
X424904762Y-275474819D02*
X424904762Y-274474819D01*
X424904762Y-274474819D02*
X424809524Y-274617676D01*
X424809524Y-274617676D02*
X424714286Y-274712914D01*
X424714286Y-274712914D02*
X424619048Y-274760533D01*
X426047619Y-274808152D02*
X426047619Y-275474819D01*
X425809524Y-274427200D02*
X425571429Y-275141485D01*
X425571429Y-275141485D02*
X426190476Y-275141485D01*
X674190476Y-274574819D02*
X674190476Y-275289104D01*
X674190476Y-275289104D02*
X674142857Y-275431961D01*
X674142857Y-275431961D02*
X674047619Y-275527200D01*
X674047619Y-275527200D02*
X673904762Y-275574819D01*
X673904762Y-275574819D02*
X673809524Y-275574819D01*
X674619048Y-274670057D02*
X674666667Y-274622438D01*
X674666667Y-274622438D02*
X674761905Y-274574819D01*
X674761905Y-274574819D02*
X675000000Y-274574819D01*
X675000000Y-274574819D02*
X675095238Y-274622438D01*
X675095238Y-274622438D02*
X675142857Y-274670057D01*
X675142857Y-274670057D02*
X675190476Y-274765295D01*
X675190476Y-274765295D02*
X675190476Y-274860533D01*
X675190476Y-274860533D02*
X675142857Y-275003390D01*
X675142857Y-275003390D02*
X674571429Y-275574819D01*
X674571429Y-275574819D02*
X675190476Y-275574819D01*
X676095238Y-274574819D02*
X675619048Y-274574819D01*
X675619048Y-274574819D02*
X675571429Y-275051009D01*
X675571429Y-275051009D02*
X675619048Y-275003390D01*
X675619048Y-275003390D02*
X675714286Y-274955771D01*
X675714286Y-274955771D02*
X675952381Y-274955771D01*
X675952381Y-274955771D02*
X676047619Y-275003390D01*
X676047619Y-275003390D02*
X676095238Y-275051009D01*
X676095238Y-275051009D02*
X676142857Y-275146247D01*
X676142857Y-275146247D02*
X676142857Y-275384342D01*
X676142857Y-275384342D02*
X676095238Y-275479580D01*
X676095238Y-275479580D02*
X676047619Y-275527200D01*
X676047619Y-275527200D02*
X675952381Y-275574819D01*
X675952381Y-275574819D02*
X675714286Y-275574819D01*
X675714286Y-275574819D02*
X675619048Y-275527200D01*
X675619048Y-275527200D02*
X675571429Y-275479580D01*
X107953333Y-275824819D02*
X107620000Y-275348628D01*
X107381905Y-275824819D02*
X107381905Y-274824819D01*
X107381905Y-274824819D02*
X107762857Y-274824819D01*
X107762857Y-274824819D02*
X107858095Y-274872438D01*
X107858095Y-274872438D02*
X107905714Y-274920057D01*
X107905714Y-274920057D02*
X107953333Y-275015295D01*
X107953333Y-275015295D02*
X107953333Y-275158152D01*
X107953333Y-275158152D02*
X107905714Y-275253390D01*
X107905714Y-275253390D02*
X107858095Y-275301009D01*
X107858095Y-275301009D02*
X107762857Y-275348628D01*
X107762857Y-275348628D02*
X107381905Y-275348628D01*
X108334286Y-274920057D02*
X108381905Y-274872438D01*
X108381905Y-274872438D02*
X108477143Y-274824819D01*
X108477143Y-274824819D02*
X108715238Y-274824819D01*
X108715238Y-274824819D02*
X108810476Y-274872438D01*
X108810476Y-274872438D02*
X108858095Y-274920057D01*
X108858095Y-274920057D02*
X108905714Y-275015295D01*
X108905714Y-275015295D02*
X108905714Y-275110533D01*
X108905714Y-275110533D02*
X108858095Y-275253390D01*
X108858095Y-275253390D02*
X108286667Y-275824819D01*
X108286667Y-275824819D02*
X108905714Y-275824819D01*
X382157142Y-276824819D02*
X381823809Y-276348628D01*
X381585714Y-276824819D02*
X381585714Y-275824819D01*
X381585714Y-275824819D02*
X381966666Y-275824819D01*
X381966666Y-275824819D02*
X382061904Y-275872438D01*
X382061904Y-275872438D02*
X382109523Y-275920057D01*
X382109523Y-275920057D02*
X382157142Y-276015295D01*
X382157142Y-276015295D02*
X382157142Y-276158152D01*
X382157142Y-276158152D02*
X382109523Y-276253390D01*
X382109523Y-276253390D02*
X382061904Y-276301009D01*
X382061904Y-276301009D02*
X381966666Y-276348628D01*
X381966666Y-276348628D02*
X381585714Y-276348628D01*
X383109523Y-276824819D02*
X382538095Y-276824819D01*
X382823809Y-276824819D02*
X382823809Y-275824819D01*
X382823809Y-275824819D02*
X382728571Y-275967676D01*
X382728571Y-275967676D02*
X382633333Y-276062914D01*
X382633333Y-276062914D02*
X382538095Y-276110533D01*
X383490476Y-275920057D02*
X383538095Y-275872438D01*
X383538095Y-275872438D02*
X383633333Y-275824819D01*
X383633333Y-275824819D02*
X383871428Y-275824819D01*
X383871428Y-275824819D02*
X383966666Y-275872438D01*
X383966666Y-275872438D02*
X384014285Y-275920057D01*
X384014285Y-275920057D02*
X384061904Y-276015295D01*
X384061904Y-276015295D02*
X384061904Y-276110533D01*
X384061904Y-276110533D02*
X384014285Y-276253390D01*
X384014285Y-276253390D02*
X383442857Y-276824819D01*
X383442857Y-276824819D02*
X384061904Y-276824819D01*
X157753333Y-275824819D02*
X157420000Y-275348628D01*
X157181905Y-275824819D02*
X157181905Y-274824819D01*
X157181905Y-274824819D02*
X157562857Y-274824819D01*
X157562857Y-274824819D02*
X157658095Y-274872438D01*
X157658095Y-274872438D02*
X157705714Y-274920057D01*
X157705714Y-274920057D02*
X157753333Y-275015295D01*
X157753333Y-275015295D02*
X157753333Y-275158152D01*
X157753333Y-275158152D02*
X157705714Y-275253390D01*
X157705714Y-275253390D02*
X157658095Y-275301009D01*
X157658095Y-275301009D02*
X157562857Y-275348628D01*
X157562857Y-275348628D02*
X157181905Y-275348628D01*
X158610476Y-275158152D02*
X158610476Y-275824819D01*
X158372381Y-274777200D02*
X158134286Y-275491485D01*
X158134286Y-275491485D02*
X158753333Y-275491485D01*
X357277142Y-276524819D02*
X356943809Y-276048628D01*
X356705714Y-276524819D02*
X356705714Y-275524819D01*
X356705714Y-275524819D02*
X357086666Y-275524819D01*
X357086666Y-275524819D02*
X357181904Y-275572438D01*
X357181904Y-275572438D02*
X357229523Y-275620057D01*
X357229523Y-275620057D02*
X357277142Y-275715295D01*
X357277142Y-275715295D02*
X357277142Y-275858152D01*
X357277142Y-275858152D02*
X357229523Y-275953390D01*
X357229523Y-275953390D02*
X357181904Y-276001009D01*
X357181904Y-276001009D02*
X357086666Y-276048628D01*
X357086666Y-276048628D02*
X356705714Y-276048628D01*
X358229523Y-276524819D02*
X357658095Y-276524819D01*
X357943809Y-276524819D02*
X357943809Y-275524819D01*
X357943809Y-275524819D02*
X357848571Y-275667676D01*
X357848571Y-275667676D02*
X357753333Y-275762914D01*
X357753333Y-275762914D02*
X357658095Y-275810533D01*
X359181904Y-276524819D02*
X358610476Y-276524819D01*
X358896190Y-276524819D02*
X358896190Y-275524819D01*
X358896190Y-275524819D02*
X358800952Y-275667676D01*
X358800952Y-275667676D02*
X358705714Y-275762914D01*
X358705714Y-275762914D02*
X358610476Y-275810533D01*
X282713333Y-276424819D02*
X282380000Y-275948628D01*
X282141905Y-276424819D02*
X282141905Y-275424819D01*
X282141905Y-275424819D02*
X282522857Y-275424819D01*
X282522857Y-275424819D02*
X282618095Y-275472438D01*
X282618095Y-275472438D02*
X282665714Y-275520057D01*
X282665714Y-275520057D02*
X282713333Y-275615295D01*
X282713333Y-275615295D02*
X282713333Y-275758152D01*
X282713333Y-275758152D02*
X282665714Y-275853390D01*
X282665714Y-275853390D02*
X282618095Y-275901009D01*
X282618095Y-275901009D02*
X282522857Y-275948628D01*
X282522857Y-275948628D02*
X282141905Y-275948628D01*
X283284762Y-275853390D02*
X283189524Y-275805771D01*
X283189524Y-275805771D02*
X283141905Y-275758152D01*
X283141905Y-275758152D02*
X283094286Y-275662914D01*
X283094286Y-275662914D02*
X283094286Y-275615295D01*
X283094286Y-275615295D02*
X283141905Y-275520057D01*
X283141905Y-275520057D02*
X283189524Y-275472438D01*
X283189524Y-275472438D02*
X283284762Y-275424819D01*
X283284762Y-275424819D02*
X283475238Y-275424819D01*
X283475238Y-275424819D02*
X283570476Y-275472438D01*
X283570476Y-275472438D02*
X283618095Y-275520057D01*
X283618095Y-275520057D02*
X283665714Y-275615295D01*
X283665714Y-275615295D02*
X283665714Y-275662914D01*
X283665714Y-275662914D02*
X283618095Y-275758152D01*
X283618095Y-275758152D02*
X283570476Y-275805771D01*
X283570476Y-275805771D02*
X283475238Y-275853390D01*
X283475238Y-275853390D02*
X283284762Y-275853390D01*
X283284762Y-275853390D02*
X283189524Y-275901009D01*
X283189524Y-275901009D02*
X283141905Y-275948628D01*
X283141905Y-275948628D02*
X283094286Y-276043866D01*
X283094286Y-276043866D02*
X283094286Y-276234342D01*
X283094286Y-276234342D02*
X283141905Y-276329580D01*
X283141905Y-276329580D02*
X283189524Y-276377200D01*
X283189524Y-276377200D02*
X283284762Y-276424819D01*
X283284762Y-276424819D02*
X283475238Y-276424819D01*
X283475238Y-276424819D02*
X283570476Y-276377200D01*
X283570476Y-276377200D02*
X283618095Y-276329580D01*
X283618095Y-276329580D02*
X283665714Y-276234342D01*
X283665714Y-276234342D02*
X283665714Y-276043866D01*
X283665714Y-276043866D02*
X283618095Y-275948628D01*
X283618095Y-275948628D02*
X283570476Y-275901009D01*
X283570476Y-275901009D02*
X283475238Y-275853390D01*
X724190476Y-274574819D02*
X724190476Y-275289104D01*
X724190476Y-275289104D02*
X724142857Y-275431961D01*
X724142857Y-275431961D02*
X724047619Y-275527200D01*
X724047619Y-275527200D02*
X723904762Y-275574819D01*
X723904762Y-275574819D02*
X723809524Y-275574819D01*
X724619048Y-274670057D02*
X724666667Y-274622438D01*
X724666667Y-274622438D02*
X724761905Y-274574819D01*
X724761905Y-274574819D02*
X725000000Y-274574819D01*
X725000000Y-274574819D02*
X725095238Y-274622438D01*
X725095238Y-274622438D02*
X725142857Y-274670057D01*
X725142857Y-274670057D02*
X725190476Y-274765295D01*
X725190476Y-274765295D02*
X725190476Y-274860533D01*
X725190476Y-274860533D02*
X725142857Y-275003390D01*
X725142857Y-275003390D02*
X724571429Y-275574819D01*
X724571429Y-275574819D02*
X725190476Y-275574819D01*
X725523810Y-274574819D02*
X726190476Y-274574819D01*
X726190476Y-274574819D02*
X725761905Y-275574819D01*
X324190476Y-274074819D02*
X324190476Y-274789104D01*
X324190476Y-274789104D02*
X324142857Y-274931961D01*
X324142857Y-274931961D02*
X324047619Y-275027200D01*
X324047619Y-275027200D02*
X323904762Y-275074819D01*
X323904762Y-275074819D02*
X323809524Y-275074819D01*
X325190476Y-275074819D02*
X324619048Y-275074819D01*
X324904762Y-275074819D02*
X324904762Y-274074819D01*
X324904762Y-274074819D02*
X324809524Y-274217676D01*
X324809524Y-274217676D02*
X324714286Y-274312914D01*
X324714286Y-274312914D02*
X324619048Y-274360533D01*
X326142857Y-275074819D02*
X325571429Y-275074819D01*
X325857143Y-275074819D02*
X325857143Y-274074819D01*
X325857143Y-274074819D02*
X325761905Y-274217676D01*
X325761905Y-274217676D02*
X325666667Y-274312914D01*
X325666667Y-274312914D02*
X325571429Y-274360533D01*
X682237142Y-276824819D02*
X681903809Y-276348628D01*
X681665714Y-276824819D02*
X681665714Y-275824819D01*
X681665714Y-275824819D02*
X682046666Y-275824819D01*
X682046666Y-275824819D02*
X682141904Y-275872438D01*
X682141904Y-275872438D02*
X682189523Y-275920057D01*
X682189523Y-275920057D02*
X682237142Y-276015295D01*
X682237142Y-276015295D02*
X682237142Y-276158152D01*
X682237142Y-276158152D02*
X682189523Y-276253390D01*
X682189523Y-276253390D02*
X682141904Y-276301009D01*
X682141904Y-276301009D02*
X682046666Y-276348628D01*
X682046666Y-276348628D02*
X681665714Y-276348628D01*
X682618095Y-275920057D02*
X682665714Y-275872438D01*
X682665714Y-275872438D02*
X682760952Y-275824819D01*
X682760952Y-275824819D02*
X682999047Y-275824819D01*
X682999047Y-275824819D02*
X683094285Y-275872438D01*
X683094285Y-275872438D02*
X683141904Y-275920057D01*
X683141904Y-275920057D02*
X683189523Y-276015295D01*
X683189523Y-276015295D02*
X683189523Y-276110533D01*
X683189523Y-276110533D02*
X683141904Y-276253390D01*
X683141904Y-276253390D02*
X682570476Y-276824819D01*
X682570476Y-276824819D02*
X683189523Y-276824819D01*
X683570476Y-275920057D02*
X683618095Y-275872438D01*
X683618095Y-275872438D02*
X683713333Y-275824819D01*
X683713333Y-275824819D02*
X683951428Y-275824819D01*
X683951428Y-275824819D02*
X684046666Y-275872438D01*
X684046666Y-275872438D02*
X684094285Y-275920057D01*
X684094285Y-275920057D02*
X684141904Y-276015295D01*
X684141904Y-276015295D02*
X684141904Y-276110533D01*
X684141904Y-276110533D02*
X684094285Y-276253390D01*
X684094285Y-276253390D02*
X683522857Y-276824819D01*
X683522857Y-276824819D02*
X684141904Y-276824819D01*
D11*
%TO.C,R24*%
X728640000Y-274000000D02*
X729410000Y-274000000D01*
X736720000Y-274000000D02*
X735950000Y-274000000D01*
X735950000Y-275370000D02*
X729410000Y-275370000D01*
X729410000Y-272630000D01*
X735950000Y-272630000D01*
X735950000Y-275370000D01*
%TO.C,R25*%
X759680000Y-273800000D02*
X760450000Y-273800000D01*
X767760000Y-273800000D02*
X766990000Y-273800000D01*
X760450000Y-272430000D02*
X766990000Y-272430000D01*
X766990000Y-275170000D01*
X760450000Y-275170000D01*
X760450000Y-272430000D01*
%TO.C,R5*%
X178960000Y-273000000D02*
X179730000Y-273000000D01*
X187040000Y-273000000D02*
X186270000Y-273000000D01*
X186270000Y-274370000D02*
X179730000Y-274370000D01*
X179730000Y-271630000D01*
X186270000Y-271630000D01*
X186270000Y-274370000D01*
%TO.C,R15*%
X478360000Y-274000000D02*
X479130000Y-274000000D01*
X486440000Y-274000000D02*
X485670000Y-274000000D01*
X485670000Y-275370000D02*
X479130000Y-275370000D01*
X479130000Y-272630000D01*
X485670000Y-272630000D01*
X485670000Y-275370000D01*
%TO.C,R16*%
X503840000Y-274000000D02*
X504610000Y-274000000D01*
X511920000Y-274000000D02*
X511150000Y-274000000D01*
X511150000Y-275370000D02*
X504610000Y-275370000D01*
X504610000Y-272630000D01*
X511150000Y-272630000D01*
X511150000Y-275370000D01*
%TO.C,J9*%
X273620000Y-275620000D02*
X275000000Y-275620000D01*
X273620000Y-277000000D02*
X273620000Y-275620000D01*
X273620000Y-278270000D02*
X273620000Y-278380000D01*
X273620000Y-278270000D02*
X276380000Y-278270000D01*
X273620000Y-278380000D02*
X276380000Y-278380000D01*
X276380000Y-278270000D02*
X276380000Y-278380000D01*
%TO.C,R14*%
X453360000Y-274000000D02*
X454130000Y-274000000D01*
X461440000Y-274000000D02*
X460670000Y-274000000D01*
X460670000Y-275370000D02*
X454130000Y-275370000D01*
X454130000Y-272630000D01*
X460670000Y-272630000D01*
X460670000Y-275370000D01*
%TO.C,R10*%
X328840000Y-273600000D02*
X329610000Y-273600000D01*
X336920000Y-273600000D02*
X336150000Y-273600000D01*
X336150000Y-274970000D02*
X329610000Y-274970000D01*
X329610000Y-272230000D01*
X336150000Y-272230000D01*
X336150000Y-274970000D01*
%TO.C,R17*%
X528360000Y-274000000D02*
X529130000Y-274000000D01*
X536440000Y-274000000D02*
X535670000Y-274000000D01*
X535670000Y-275370000D02*
X529130000Y-275370000D01*
X529130000Y-272630000D01*
X535670000Y-272630000D01*
X535670000Y-275370000D01*
%TO.C,J18*%
X475880000Y-278770000D02*
X475880000Y-278880000D01*
X473120000Y-278880000D02*
X475880000Y-278880000D01*
X473120000Y-278770000D02*
X475880000Y-278770000D01*
X473120000Y-278770000D02*
X473120000Y-278880000D01*
X473120000Y-277500000D02*
X473120000Y-276120000D01*
X473120000Y-276120000D02*
X474500000Y-276120000D01*
%TO.C,J5*%
X148620000Y-275620000D02*
X150000000Y-275620000D01*
X148620000Y-277000000D02*
X148620000Y-275620000D01*
X148620000Y-278270000D02*
X148620000Y-278380000D01*
X148620000Y-278270000D02*
X151380000Y-278270000D01*
X148620000Y-278380000D02*
X151380000Y-278380000D01*
X151380000Y-278270000D02*
X151380000Y-278380000D01*
%TO.C,J20*%
X523120000Y-276120000D02*
X524500000Y-276120000D01*
X523120000Y-277500000D02*
X523120000Y-276120000D01*
X523120000Y-278770000D02*
X523120000Y-278880000D01*
X523120000Y-278770000D02*
X525880000Y-278770000D01*
X523120000Y-278880000D02*
X525880000Y-278880000D01*
X525880000Y-278770000D02*
X525880000Y-278880000D01*
%TO.C,J12*%
X351380000Y-278270000D02*
X351380000Y-278380000D01*
X348620000Y-278380000D02*
X351380000Y-278380000D01*
X348620000Y-278270000D02*
X351380000Y-278270000D01*
X348620000Y-278270000D02*
X348620000Y-278380000D01*
X348620000Y-277000000D02*
X348620000Y-275620000D01*
X348620000Y-275620000D02*
X350000000Y-275620000D01*
%TO.C,R18*%
X578760000Y-274000000D02*
X579530000Y-274000000D01*
X586840000Y-274000000D02*
X586070000Y-274000000D01*
X586070000Y-275370000D02*
X579530000Y-275370000D01*
X579530000Y-272630000D01*
X586070000Y-272630000D01*
X586070000Y-275370000D01*
%TO.C,R19*%
X603760000Y-274200000D02*
X604530000Y-274200000D01*
X611840000Y-274200000D02*
X611070000Y-274200000D01*
X611070000Y-275570000D02*
X604530000Y-275570000D01*
X604530000Y-272830000D01*
X611070000Y-272830000D01*
X611070000Y-275570000D01*
%TO.C,J23*%
X624120000Y-276220000D02*
X625500000Y-276220000D01*
X624120000Y-277600000D02*
X624120000Y-276220000D01*
X624120000Y-278870000D02*
X624120000Y-278980000D01*
X624120000Y-278870000D02*
X626880000Y-278870000D01*
X624120000Y-278980000D02*
X626880000Y-278980000D01*
X626880000Y-278870000D02*
X626880000Y-278980000D01*
%TO.C,R7*%
X254160000Y-273400000D02*
X254930000Y-273400000D01*
X262240000Y-273400000D02*
X261470000Y-273400000D01*
X261470000Y-274770000D02*
X254930000Y-274770000D01*
X254930000Y-272030000D01*
X261470000Y-272030000D01*
X261470000Y-274770000D01*
%TO.C,J21*%
X573620000Y-276120000D02*
X575000000Y-276120000D01*
X573620000Y-277500000D02*
X573620000Y-276120000D01*
X573620000Y-278770000D02*
X573620000Y-278880000D01*
X573620000Y-278770000D02*
X576380000Y-278770000D01*
X573620000Y-278880000D02*
X576380000Y-278880000D01*
X576380000Y-278770000D02*
X576380000Y-278880000D01*
%TO.C,J4*%
X123620000Y-275620000D02*
X125000000Y-275620000D01*
X123620000Y-277000000D02*
X123620000Y-275620000D01*
X123620000Y-278270000D02*
X123620000Y-278380000D01*
X123620000Y-278270000D02*
X126380000Y-278270000D01*
X123620000Y-278380000D02*
X126380000Y-278380000D01*
X126380000Y-278270000D02*
X126380000Y-278380000D01*
%TO.C,J19*%
X498620000Y-276120000D02*
X500000000Y-276120000D01*
X498620000Y-277500000D02*
X498620000Y-276120000D01*
X498620000Y-278770000D02*
X498620000Y-278880000D01*
X498620000Y-278770000D02*
X501380000Y-278770000D01*
X498620000Y-278880000D02*
X501380000Y-278880000D01*
X501380000Y-278770000D02*
X501380000Y-278880000D01*
%TO.C,R1*%
X79040000Y-273000000D02*
X79810000Y-273000000D01*
X87120000Y-273000000D02*
X86350000Y-273000000D01*
X86350000Y-274370000D02*
X79810000Y-274370000D01*
X79810000Y-271630000D01*
X86350000Y-271630000D01*
X86350000Y-274370000D01*
%TO.C,R3*%
X128880000Y-273000000D02*
X129650000Y-273000000D01*
X136960000Y-273000000D02*
X136190000Y-273000000D01*
X136190000Y-274370000D02*
X129650000Y-274370000D01*
X129650000Y-271630000D01*
X136190000Y-271630000D01*
X136190000Y-274370000D01*
%TO.C,J7*%
X223620000Y-276120000D02*
X225000000Y-276120000D01*
X223620000Y-277500000D02*
X223620000Y-276120000D01*
X223620000Y-278770000D02*
X223620000Y-278880000D01*
X223620000Y-278770000D02*
X226380000Y-278770000D01*
X223620000Y-278880000D02*
X226380000Y-278880000D01*
X226380000Y-278770000D02*
X226380000Y-278880000D01*
%TO.C,J6*%
X173620000Y-275620000D02*
X175000000Y-275620000D01*
X173620000Y-277000000D02*
X173620000Y-275620000D01*
X173620000Y-278270000D02*
X173620000Y-278380000D01*
X173620000Y-278270000D02*
X176380000Y-278270000D01*
X173620000Y-278380000D02*
X176380000Y-278380000D01*
X176380000Y-278270000D02*
X176380000Y-278380000D01*
%TO.C,J24*%
X648620000Y-276220000D02*
X650000000Y-276220000D01*
X648620000Y-277600000D02*
X648620000Y-276220000D01*
X648620000Y-278870000D02*
X648620000Y-278980000D01*
X648620000Y-278870000D02*
X651380000Y-278870000D01*
X648620000Y-278980000D02*
X651380000Y-278980000D01*
X651380000Y-278870000D02*
X651380000Y-278980000D01*
%TO.C,J10*%
X298620000Y-275620000D02*
X300000000Y-275620000D01*
X298620000Y-277000000D02*
X298620000Y-275620000D01*
X298620000Y-278270000D02*
X298620000Y-278380000D01*
X298620000Y-278270000D02*
X301380000Y-278270000D01*
X298620000Y-278380000D02*
X301380000Y-278380000D01*
X301380000Y-278270000D02*
X301380000Y-278380000D01*
%TO.C,J2*%
X73620000Y-275620000D02*
X75000000Y-275620000D01*
X73620000Y-277000000D02*
X73620000Y-275620000D01*
X73620000Y-278270000D02*
X73620000Y-278380000D01*
X73620000Y-278270000D02*
X76380000Y-278270000D01*
X73620000Y-278380000D02*
X76380000Y-278380000D01*
X76380000Y-278270000D02*
X76380000Y-278380000D01*
%TO.C,R13*%
X436150000Y-275370000D02*
X429610000Y-275370000D01*
X429610000Y-272630000D01*
X436150000Y-272630000D01*
X436150000Y-275370000D01*
X436920000Y-274000000D02*
X436150000Y-274000000D01*
X428840000Y-274000000D02*
X429610000Y-274000000D01*
%TO.C,J8*%
X248620000Y-275620000D02*
X250000000Y-275620000D01*
X248620000Y-277000000D02*
X248620000Y-275620000D01*
X248620000Y-278270000D02*
X248620000Y-278380000D01*
X248620000Y-278270000D02*
X251380000Y-278270000D01*
X248620000Y-278380000D02*
X251380000Y-278380000D01*
X251380000Y-278270000D02*
X251380000Y-278380000D01*
%TO.C,R21*%
X653760000Y-274200000D02*
X654530000Y-274200000D01*
X661840000Y-274200000D02*
X661070000Y-274200000D01*
X661070000Y-275570000D02*
X654530000Y-275570000D01*
X654530000Y-272830000D01*
X661070000Y-272830000D01*
X661070000Y-275570000D01*
%TO.C,R23*%
X703760000Y-274000000D02*
X704530000Y-274000000D01*
X711840000Y-274000000D02*
X711070000Y-274000000D01*
X711070000Y-275370000D02*
X704530000Y-275370000D01*
X704530000Y-272630000D01*
X711070000Y-272630000D01*
X711070000Y-275370000D01*
%TO.C,J13*%
X373620000Y-276120000D02*
X375000000Y-276120000D01*
X373620000Y-277500000D02*
X373620000Y-276120000D01*
X373620000Y-278770000D02*
X373620000Y-278880000D01*
X373620000Y-278770000D02*
X376380000Y-278770000D01*
X373620000Y-278880000D02*
X376380000Y-278880000D01*
X376380000Y-278770000D02*
X376380000Y-278880000D01*
%TO.C,J28*%
X773620000Y-276120000D02*
X775000000Y-276120000D01*
X773620000Y-277500000D02*
X773620000Y-276120000D01*
X773620000Y-278770000D02*
X773620000Y-278880000D01*
X773620000Y-278770000D02*
X776380000Y-278770000D01*
X773620000Y-278880000D02*
X776380000Y-278880000D01*
X776380000Y-278770000D02*
X776380000Y-278880000D01*
%TO.C,J3*%
X98620000Y-275620000D02*
X100000000Y-275620000D01*
X98620000Y-277000000D02*
X98620000Y-275620000D01*
X98620000Y-278270000D02*
X98620000Y-278380000D01*
X98620000Y-278270000D02*
X101380000Y-278270000D01*
X98620000Y-278380000D02*
X101380000Y-278380000D01*
X101380000Y-278270000D02*
X101380000Y-278380000D01*
%TO.C,R20*%
X629160000Y-274200000D02*
X629930000Y-274200000D01*
X637240000Y-274200000D02*
X636470000Y-274200000D01*
X636470000Y-275570000D02*
X629930000Y-275570000D01*
X629930000Y-272830000D01*
X636470000Y-272830000D01*
X636470000Y-275570000D01*
%TO.C,J15*%
X448120000Y-276020000D02*
X449500000Y-276020000D01*
X448120000Y-277400000D02*
X448120000Y-276020000D01*
X448120000Y-278670000D02*
X448120000Y-278780000D01*
X448120000Y-278670000D02*
X450880000Y-278670000D01*
X448120000Y-278780000D02*
X450880000Y-278780000D01*
X450880000Y-278670000D02*
X450880000Y-278780000D01*
%TO.C,R9*%
X303840000Y-273600000D02*
X304610000Y-273600000D01*
X311920000Y-273600000D02*
X311150000Y-273600000D01*
X311150000Y-274970000D02*
X304610000Y-274970000D01*
X304610000Y-272230000D01*
X311150000Y-272230000D01*
X311150000Y-274970000D01*
%TO.C,J22*%
X598620000Y-276220000D02*
X600000000Y-276220000D01*
X598620000Y-277600000D02*
X598620000Y-276220000D01*
X598620000Y-278870000D02*
X598620000Y-278980000D01*
X598620000Y-278870000D02*
X601380000Y-278870000D01*
X598620000Y-278980000D02*
X601380000Y-278980000D01*
X601380000Y-278870000D02*
X601380000Y-278980000D01*
%TO.C,R6*%
X228840000Y-273600000D02*
X229610000Y-273600000D01*
X236920000Y-273600000D02*
X236150000Y-273600000D01*
X236150000Y-274970000D02*
X229610000Y-274970000D01*
X229610000Y-272230000D01*
X236150000Y-272230000D01*
X236150000Y-274970000D01*
%TO.C,J26*%
X698620000Y-276120000D02*
X700000000Y-276120000D01*
X698620000Y-277500000D02*
X698620000Y-276120000D01*
X698620000Y-278770000D02*
X698620000Y-278880000D01*
X698620000Y-278770000D02*
X701380000Y-278770000D01*
X698620000Y-278880000D02*
X701380000Y-278880000D01*
X701380000Y-278770000D02*
X701380000Y-278880000D01*
%TO.C,J14*%
X426380000Y-278670000D02*
X426380000Y-278780000D01*
X423620000Y-278780000D02*
X426380000Y-278780000D01*
X423620000Y-278670000D02*
X426380000Y-278670000D01*
X423620000Y-278670000D02*
X423620000Y-278780000D01*
X423620000Y-277400000D02*
X423620000Y-276020000D01*
X423620000Y-276020000D02*
X425000000Y-276020000D01*
%TO.C,J25*%
X676380000Y-278770000D02*
X676380000Y-278880000D01*
X673620000Y-278880000D02*
X676380000Y-278880000D01*
X673620000Y-278770000D02*
X676380000Y-278770000D01*
X673620000Y-278770000D02*
X673620000Y-278880000D01*
X673620000Y-277500000D02*
X673620000Y-276120000D01*
X673620000Y-276120000D02*
X675000000Y-276120000D01*
%TO.C,R2*%
X104080000Y-273000000D02*
X104850000Y-273000000D01*
X112160000Y-273000000D02*
X111390000Y-273000000D01*
X111390000Y-274370000D02*
X104850000Y-274370000D01*
X104850000Y-271630000D01*
X111390000Y-271630000D01*
X111390000Y-274370000D01*
%TO.C,J30*%
X747730000Y-216070000D02*
X749060000Y-216070000D01*
X747730000Y-217400000D02*
X747730000Y-216070000D01*
X750330000Y-216070000D02*
X752930000Y-216070000D01*
X750330000Y-218730000D02*
X750330000Y-216070000D01*
X750330000Y-218730000D02*
X752930000Y-218730000D01*
X752930000Y-218730000D02*
X752930000Y-216070000D01*
%TO.C,R12*%
X378760000Y-274000000D02*
X379530000Y-274000000D01*
X386840000Y-274000000D02*
X386070000Y-274000000D01*
X386070000Y-275370000D02*
X379530000Y-275370000D01*
X379530000Y-272630000D01*
X386070000Y-272630000D01*
X386070000Y-275370000D01*
%TO.C,R4*%
X153880000Y-273000000D02*
X154650000Y-273000000D01*
X161960000Y-273000000D02*
X161190000Y-273000000D01*
X161190000Y-274370000D02*
X154650000Y-274370000D01*
X154650000Y-271630000D01*
X161190000Y-271630000D01*
X161190000Y-274370000D01*
%TO.C,J16*%
X741420000Y-218760000D02*
X741420000Y-267080000D01*
X741420000Y-218760000D02*
X744080000Y-218760000D01*
X741420000Y-267080000D02*
X744080000Y-267080000D01*
X742750000Y-216160000D02*
X744080000Y-216160000D01*
X744080000Y-216160000D02*
X744080000Y-217490000D01*
X744080000Y-218760000D02*
X744080000Y-267080000D01*
%TO.C,R11*%
X361190000Y-275070000D02*
X354650000Y-275070000D01*
X354650000Y-272330000D01*
X361190000Y-272330000D01*
X361190000Y-275070000D01*
X361960000Y-273700000D02*
X361190000Y-273700000D01*
X353880000Y-273700000D02*
X354650000Y-273700000D01*
%TO.C,R8*%
X278840000Y-273600000D02*
X279610000Y-273600000D01*
X286920000Y-273600000D02*
X286150000Y-273600000D01*
X286150000Y-274970000D02*
X279610000Y-274970000D01*
X279610000Y-272230000D01*
X286150000Y-272230000D01*
X286150000Y-274970000D01*
%TO.C,J27*%
X723620000Y-276120000D02*
X725000000Y-276120000D01*
X723620000Y-277500000D02*
X723620000Y-276120000D01*
X723620000Y-278770000D02*
X723620000Y-278880000D01*
X723620000Y-278770000D02*
X726380000Y-278770000D01*
X723620000Y-278880000D02*
X726380000Y-278880000D01*
X726380000Y-278770000D02*
X726380000Y-278880000D01*
%TO.C,J11*%
X323620000Y-275620000D02*
X325000000Y-275620000D01*
X323620000Y-277000000D02*
X323620000Y-275620000D01*
X323620000Y-278270000D02*
X323620000Y-278380000D01*
X323620000Y-278270000D02*
X326380000Y-278270000D01*
X323620000Y-278380000D02*
X326380000Y-278380000D01*
X326380000Y-278270000D02*
X326380000Y-278380000D01*
%TO.C,R22*%
X678840000Y-274000000D02*
X679610000Y-274000000D01*
X686920000Y-274000000D02*
X686150000Y-274000000D01*
X686150000Y-275370000D02*
X679610000Y-275370000D01*
X679610000Y-272630000D01*
X686150000Y-272630000D01*
X686150000Y-275370000D01*
%TO.C,J17*%
X756420000Y-218760000D02*
X756420000Y-267080000D01*
X756420000Y-218760000D02*
X759080000Y-218760000D01*
X756420000Y-267080000D02*
X759080000Y-267080000D01*
X757750000Y-216160000D02*
X759080000Y-216160000D01*
X759080000Y-216160000D02*
X759080000Y-217490000D01*
X759080000Y-218760000D02*
X759080000Y-267080000D01*
%TD*%
M02*
