%TF.GenerationSoftware,KiCad,Pcbnew,9.0.4-1.fc42*%
%TF.CreationDate,2025-08-31T15:20:44+02:00*%
%TF.ProjectId,pedai-hw,70656461-692d-4687-972e-6b696361645f,rev?*%
%TF.SameCoordinates,Original*%
%TF.FileFunction,Soldermask,Top*%
%TF.FilePolarity,Negative*%
%FSLAX46Y46*%
G04 Gerber Fmt 4.6, Leading zero omitted, Abs format (unit mm)*
G04 Created by KiCad (PCBNEW 9.0.4-1.fc42) date 2025-08-31 15:20:44*
%MOMM*%
%LPD*%
G01*
G04 APERTURE LIST*
G04 Aperture macros list*
%AMRoundRect*
0 Rectangle with rounded corners*
0 $1 Rounding radius*
0 $2 $3 $4 $5 $6 $7 $8 $9 X,Y pos of 4 corners*
0 Add a 4 corners polygon primitive as box body*
4,1,4,$2,$3,$4,$5,$6,$7,$8,$9,$2,$3,0*
0 Add four circle primitives for the rounded corners*
1,1,$1+$1,$2,$3*
1,1,$1+$1,$4,$5*
1,1,$1+$1,$6,$7*
1,1,$1+$1,$8,$9*
0 Add four rect primitives between the rounded corners*
20,1,$1+$1,$2,$3,$4,$5,0*
20,1,$1+$1,$4,$5,$6,$7,0*
20,1,$1+$1,$6,$7,$8,$9,0*
20,1,$1+$1,$8,$9,$2,$3,0*%
G04 Aperture macros list end*
%ADD10R,1.475000X0.450000*%
%ADD11RoundRect,0.250000X0.312500X0.625000X-0.312500X0.625000X-0.312500X-0.625000X0.312500X-0.625000X0*%
%ADD12C,4.300000*%
%ADD13RoundRect,1.250000X-3.750000X1.250000X-3.750000X-1.250000X3.750000X-1.250000X3.750000X1.250000X0*%
%ADD14RoundRect,0.250000X-0.312500X-0.625000X0.312500X-0.625000X0.312500X0.625000X-0.312500X0.625000X0*%
%ADD15R,1.700000X1.700000*%
%ADD16C,1.700000*%
%ADD17R,1.350000X1.350000*%
%ADD18C,1.350000*%
G04 APERTURE END LIST*
D10*
%TO.C,IC3*%
X516000000Y-277250000D03*
X516000000Y-277900000D03*
X516000000Y-278550000D03*
X516000000Y-279200000D03*
X516000000Y-279850000D03*
X516000000Y-280500000D03*
X516000000Y-281150000D03*
X516000000Y-281800000D03*
X510124000Y-281800000D03*
X510124000Y-281150000D03*
X510124000Y-280500000D03*
X510124000Y-279850000D03*
X510124000Y-279200000D03*
X510124000Y-278550000D03*
X510124000Y-277900000D03*
X510124000Y-277250000D03*
%TD*%
D11*
%TO.C,R3*%
X511637000Y-273025000D03*
X514562000Y-273025000D03*
%TD*%
D12*
%TO.C,H2*%
X786250000Y-277250000D03*
%TD*%
D13*
%TO.C,J29*%
X763800000Y-282000000D03*
%TD*%
D12*
%TO.C,H1*%
X64250000Y-277250000D03*
%TD*%
D14*
%TO.C,R2*%
X754200000Y-274800000D03*
X757125000Y-274800000D03*
%TD*%
%TO.C,R1*%
X285537500Y-280750000D03*
X288462500Y-280750000D03*
%TD*%
D15*
%TO.C,J27*%
X725000000Y-277500000D03*
%TD*%
%TO.C,J28*%
X775000000Y-277500000D03*
%TD*%
D16*
%TO.C,J17*%
X757750000Y-265750000D03*
X757750000Y-263210000D03*
X757750000Y-260670000D03*
X757750000Y-258130000D03*
X757750000Y-255590000D03*
X757750000Y-253050000D03*
X757750000Y-250510000D03*
X757750000Y-247970000D03*
X757750000Y-245430000D03*
X757750000Y-242890000D03*
X757750000Y-240350000D03*
X757750000Y-237810000D03*
X757750000Y-235270000D03*
X757750000Y-232730000D03*
X757750000Y-230190000D03*
X757750000Y-227650000D03*
X757750000Y-225110000D03*
X757750000Y-222570000D03*
X757750000Y-220030000D03*
D15*
X757750000Y-217490000D03*
%TD*%
%TO.C,J9*%
X275000000Y-277000000D03*
%TD*%
%TO.C,J18*%
X474500000Y-277500000D03*
%TD*%
%TO.C,J5*%
X150000000Y-277000000D03*
%TD*%
%TO.C,J20*%
X524500000Y-277500000D03*
%TD*%
%TO.C,J12*%
X350000000Y-277500000D03*
%TD*%
%TO.C,J23*%
X625500000Y-277500000D03*
%TD*%
%TO.C,J21*%
X575000000Y-277500000D03*
%TD*%
%TO.C,J4*%
X125000000Y-277000000D03*
%TD*%
%TO.C,J19*%
X500000000Y-277500000D03*
%TD*%
%TO.C,J7*%
X225000000Y-277500000D03*
%TD*%
%TO.C,J6*%
X175000000Y-277000000D03*
%TD*%
%TO.C,J24*%
X650000000Y-277500000D03*
%TD*%
%TO.C,J10*%
X300000000Y-277000000D03*
%TD*%
%TO.C,J2*%
X75000000Y-277000000D03*
%TD*%
%TO.C,J8*%
X250000000Y-277000000D03*
%TD*%
%TO.C,J13*%
X375000000Y-277500000D03*
%TD*%
%TO.C,J3*%
X100000000Y-277000000D03*
%TD*%
%TO.C,J15*%
X449500000Y-277000000D03*
%TD*%
D17*
%TO.C,J1*%
X748250000Y-217240000D03*
D18*
X750250000Y-217240000D03*
X752250000Y-217240000D03*
%TD*%
D15*
%TO.C,J22*%
X600000000Y-277000000D03*
%TD*%
%TO.C,J26*%
X700000000Y-277500000D03*
%TD*%
%TO.C,J14*%
X425000000Y-277000000D03*
%TD*%
%TO.C,J25*%
X675000000Y-277500000D03*
%TD*%
%TO.C,J16*%
X742750000Y-217490000D03*
D16*
X742750000Y-220030000D03*
X742750000Y-222570000D03*
X742750000Y-225110000D03*
X742750000Y-227650000D03*
X742750000Y-230190000D03*
X742750000Y-232730000D03*
X742750000Y-235270000D03*
X742750000Y-237810000D03*
X742750000Y-240350000D03*
X742750000Y-242890000D03*
X742750000Y-245430000D03*
X742750000Y-247970000D03*
X742750000Y-250510000D03*
X742750000Y-253050000D03*
X742750000Y-255590000D03*
X742750000Y-258130000D03*
X742750000Y-260670000D03*
X742750000Y-263210000D03*
X742750000Y-265750000D03*
%TD*%
D15*
%TO.C,J11*%
X325000000Y-277000000D03*
%TD*%
D10*
%TO.C,IC2*%
X740200000Y-276250000D03*
X740200000Y-276900000D03*
X740200000Y-277550000D03*
X740200000Y-278200000D03*
X740200000Y-278850000D03*
X740200000Y-279500000D03*
X740200000Y-280150000D03*
X740200000Y-280800000D03*
X746076000Y-280800000D03*
X746076000Y-280150000D03*
X746076000Y-279500000D03*
X746076000Y-278850000D03*
X746076000Y-278200000D03*
X746076000Y-277550000D03*
X746076000Y-276900000D03*
X746076000Y-276250000D03*
%TD*%
%TO.C,IC1*%
X290188000Y-276525000D03*
X290188000Y-275875000D03*
X290188000Y-275225000D03*
X290188000Y-274575000D03*
X290188000Y-273925000D03*
X290188000Y-273275000D03*
X290188000Y-272625000D03*
X290188000Y-271975000D03*
X284312000Y-271975000D03*
X284312000Y-272625000D03*
X284312000Y-273275000D03*
X284312000Y-273925000D03*
X284312000Y-274575000D03*
X284312000Y-275225000D03*
X284312000Y-275875000D03*
X284312000Y-276525000D03*
%TD*%
M02*
