M48
; DRILL file {KiCad 9.0.4-1.fc42} date 2025-09-03T13:41:51+0200
; FORMAT={-:-/ absolute / metric / decimal}
; #@! TF.CreationDate,2025-09-03T13:41:51+02:00
; #@! TF.GenerationSoftware,Kicad,Pcbnew,9.0.4-1.fc42
; #@! TF.FileFunction,Plated,1,2,PTH
FMAT,2
METRIC
; #@! TA.AperFunction,Plated,PTH,ViaDrill
T1C0.300
; #@! TA.AperFunction,Plated,PTH,ComponentDrill
T2C0.800
; #@! TA.AperFunction,Plated,PTH,ComponentDrill
T3C1.000
%
G90
G05
T1
X744.4Y-274.183
X744.8Y-226.2
X745.6Y-258.6
X746.196Y-256.0
X746.398Y-253.6
X746.998Y-251.2
X747.2Y-229.8
X747.2Y-248.6
X747.4Y-245.8
X747.6Y-243.2
X748.0Y-231.4
X748.8Y-227.0
X749.2Y-279.2
X749.4Y-267.8
X749.6Y-282.533
X749.8Y-281.0
X750.0Y-280.2
X750.537Y-281.737
X750.556Y-283.133
X750.8Y-228.0
X751.0Y-283.799
X751.6Y-230.8
X751.8Y-284.2
X752.0Y-234.6
X752.4Y-242.2
X753.392Y-229.6
X753.6Y-272.003
X754.335Y-271.646
X755.0Y-271.201
X755.8Y-270.8
X756.6Y-270.4
X758.6Y-268.4
T2
X78.0Y-273.0
X88.16Y-273.0
X103.04Y-273.0
X113.2Y-273.0
X127.84Y-273.0
X138.0Y-273.0
X152.84Y-273.0
X163.0Y-273.0
X177.92Y-273.0
X188.08Y-273.0
X227.8Y-273.6
X237.96Y-273.6
X253.12Y-273.4
X263.28Y-273.4
X277.8Y-273.6
X287.96Y-273.6
X302.8Y-273.6
X312.96Y-273.6
X327.8Y-273.6
X337.96Y-273.6
X352.84Y-273.7
X363.0Y-273.7
X377.72Y-274.0
X387.88Y-274.0
X427.8Y-274.0
X437.96Y-274.0
X452.32Y-274.0
X462.48Y-274.0
X477.32Y-274.0
X487.48Y-274.0
X502.8Y-274.0
X512.96Y-274.0
X527.32Y-274.0
X537.48Y-274.0
X577.72Y-274.0
X587.88Y-274.0
X602.72Y-274.2
X612.88Y-274.2
X628.12Y-274.2
X638.28Y-274.2
X652.72Y-274.2
X662.88Y-274.2
X677.8Y-274.0
X687.96Y-274.0
X702.72Y-274.0
X712.88Y-274.0
X727.6Y-274.0
X737.76Y-274.0
X758.64Y-273.8
X768.8Y-273.8
T3
X75.0Y-277.0
X100.0Y-277.0
X125.0Y-277.0
X150.0Y-277.0
X175.0Y-277.0
X225.0Y-277.5
X250.0Y-277.0
X275.0Y-277.0
X300.0Y-277.0
X325.0Y-277.0
X350.0Y-277.0
X375.0Y-277.5
X425.0Y-277.4
X449.5Y-277.4
X474.5Y-277.5
X500.0Y-277.5
X524.5Y-277.5
X575.0Y-277.5
X600.0Y-277.6
X625.5Y-277.6
X650.0Y-277.6
X675.0Y-277.5
X700.0Y-277.5
X725.0Y-277.5
X742.75Y-217.49
X742.75Y-220.03
X742.75Y-222.57
X742.75Y-225.11
X742.75Y-227.65
X742.75Y-230.19
X742.75Y-232.73
X742.75Y-235.27
X742.75Y-237.81
X742.75Y-240.35
X742.75Y-242.89
X742.75Y-245.43
X742.75Y-247.97
X742.75Y-250.51
X742.75Y-253.05
X742.75Y-255.59
X742.75Y-258.13
X742.75Y-260.67
X742.75Y-263.21
X742.75Y-265.75
X749.06Y-217.4
X751.6Y-217.4
X757.75Y-217.49
X757.75Y-220.03
X757.75Y-222.57
X757.75Y-225.11
X757.75Y-227.65
X757.75Y-230.19
X757.75Y-232.73
X757.75Y-235.27
X757.75Y-237.81
X757.75Y-240.35
X757.75Y-242.89
X757.75Y-245.43
X757.75Y-247.97
X757.75Y-250.51
X757.75Y-253.05
X757.75Y-255.59
X757.75Y-258.13
X757.75Y-260.67
X757.75Y-263.21
X757.75Y-265.75
X775.0Y-277.5
M30
