M48
; DRILL file {KiCad 8.0.7-1.fc40} date 2024-12-16T20:09:57+0100
; FORMAT={-:-/ absolute / inch / decimal}
; #@! TF.CreationDate,2024-12-16T20:09:57+01:00
; #@! TF.GenerationSoftware,Kicad,Pcbnew,8.0.7-1.fc40
; #@! TF.FileFunction,Plated,1,2,PTH
FMAT,2
INCH
; #@! TA.AperFunction,Plated,PTH,ViaDrill
T1C0.0118
; #@! TA.AperFunction,Plated,PTH,ComponentDrill
T2C0.0276
; #@! TA.AperFunction,Plated,PTH,ComponentDrill
T3C0.0287
; #@! TA.AperFunction,Plated,PTH,ComponentDrill
T4C0.0354
; #@! TA.AperFunction,Plated,PTH,ComponentDrill
T5C0.0374
; #@! TA.AperFunction,Plated,PTH,ComponentDrill
T6C0.0394
%
G90
G05
T1
X3.8189Y-3.6909
X4.0551Y-3.6024
X4.0748Y-3.4941
X4.4291Y-3.3071
X4.4587Y-3.189
X4.4685Y-3.4449
X4.8327Y-3.5236
X4.9409Y-3.6122
X4.9902Y-3.6122
X5.1969Y-3.7402
X5.7874Y-4.3012
X5.8465Y-3.75
X5.8465Y-4.3504
X6.0138Y-3.6713
X6.3681Y-3.4646
X6.3976Y-3.4252
X6.4862Y-3.3465
X6.5059Y-3.4449
X6.5157Y-3.5236
X6.7421Y-3.6024
X6.7717Y-4.0551
X6.8898Y-3.5925
X6.8898Y-3.7303
X7.3031Y-3.878
X7.313Y-3.8091
X7.3228Y-4.0453
X7.3425Y-3.75
X7.4508Y-4.2421
X7.5591Y-3.7894
X7.6181Y-3.9075
X7.6772Y-4.065
T2
X3.3071Y-3.7366
X3.3071Y-3.9366
X3.3071Y-4.0713
X3.3071Y-4.2713
X3.3071Y-4.4157
X3.3071Y-4.6157
X3.3366Y-2.8921
X3.3366Y-3.0921
X3.3465Y-2.4984
X3.3465Y-2.6984
X3.5791Y-4.6654
X3.5925Y-2.5
X3.7791Y-4.6654
X3.7925Y-2.5
X4.0059Y-4.4752
X4.0059Y-4.6752
X4.0453Y-2.4787
X4.0453Y-2.6787
X4.0453Y-2.7839
X4.0453Y-2.9839
X4.0453Y-3.089
X4.0453Y-3.289
X4.0551Y-3.8976
X4.0551Y-4.0976
X4.3406Y-2.487
X4.3406Y-2.687
X4.3406Y-3.7287
X4.3406Y-3.9287
X4.3406Y-4.0437
X4.3406Y-4.2437
X4.3406Y-4.3783
X4.3406Y-4.5783
X4.3504Y-2.9118
X4.3504Y-3.1118
X4.5555Y-2.5
X4.5866Y-4.6752
X4.7555Y-2.5
X4.7866Y-4.6752
X5.0295Y-2.4886
X5.0295Y-2.6886
X5.0295Y-2.8331
X5.0295Y-3.0331
X5.0295Y-3.1579
X5.0295Y-3.3579
X5.0591Y-4.0339
X5.0591Y-4.2339
X5.0591Y-4.4094
X5.0591Y-4.6094
X5.3429Y-2.8512
X5.3429Y-3.0512
X5.3528Y-2.4492
X5.3528Y-2.6492
X5.6661Y-2.4803
X5.8661Y-2.4803
X6.0004Y-3.8287
X6.0102Y-4.1732
X6.0516Y-2.5067
X6.0516Y-2.7067
X6.0516Y-2.8413
X6.0516Y-3.0413
X6.0516Y-3.1776
X6.0516Y-3.3776
X6.2004Y-3.8287
X6.2102Y-4.1732
X6.3583Y-2.5098
X6.3583Y-2.7098
X6.3583Y-2.915
X6.3583Y-3.115
X6.7913Y-2.4606
X6.9913Y-2.4606
X7.1654Y-2.5264
X7.1654Y-2.7264
X7.1654Y-2.8626
X7.1654Y-3.0626
X7.1654Y-3.189
X7.1654Y-3.389
X7.6083Y-3.0382
X7.6083Y-3.2382
X7.6083Y-3.3646
X7.6083Y-3.5646
T3
X3.5138Y-2.7016
X3.5138Y-2.8016
X3.5138Y-2.9016
X3.5138Y-3.0016
X3.5138Y-3.1016
X3.5138Y-3.2016
X3.5138Y-3.3016
X3.5138Y-3.4016
X3.5236Y-3.7669
X3.5236Y-3.8669
X3.5236Y-3.9669
X3.5236Y-4.0669
X3.5236Y-4.1669
X3.5236Y-4.2669
X3.5236Y-4.3669
X3.5236Y-4.4669
X3.8264Y-2.7016
X3.8264Y-2.8016
X3.8264Y-2.9016
X3.8264Y-3.0016
X3.8264Y-3.1016
X3.8264Y-3.2016
X3.8264Y-3.3016
X3.8264Y-3.4016
X3.8362Y-3.7669
X3.8362Y-3.8669
X3.8362Y-3.9669
X3.8362Y-4.0669
X3.8362Y-4.1669
X3.8362Y-4.2669
X3.8362Y-4.3669
X3.8362Y-4.4669
X4.5299Y-2.6969
X4.5299Y-2.7969
X4.5299Y-2.8969
X4.5299Y-2.9969
X4.5299Y-3.0969
X4.5299Y-3.1969
X4.5299Y-3.2969
X4.5299Y-3.3969
X4.5472Y-3.7598
X4.5472Y-3.8598
X4.5472Y-3.9598
X4.5472Y-4.0598
X4.5472Y-4.1598
X4.5472Y-4.2598
X4.5472Y-4.3598
X4.5472Y-4.4598
X4.8425Y-2.6969
X4.8425Y-2.7969
X4.8425Y-2.8969
X4.8425Y-2.9969
X4.8425Y-3.0969
X4.8425Y-3.1969
X4.8425Y-3.2969
X4.8425Y-3.3969
X4.8598Y-3.7598
X4.8598Y-3.8598
X4.8598Y-3.9598
X4.8598Y-4.0598
X4.8598Y-4.1598
X4.8598Y-4.2598
X4.8598Y-4.3598
X4.8598Y-4.4598
X5.5693Y-2.6543
X5.5693Y-2.7543
X5.5693Y-2.8543
X5.5693Y-2.9543
X5.5693Y-3.0543
X5.5693Y-3.1543
X5.5693Y-3.2543
X5.5693Y-3.3543
X5.8819Y-2.6543
X5.8819Y-2.7543
X5.8819Y-2.8543
X5.8819Y-2.9543
X5.8819Y-3.0543
X5.8819Y-3.1543
X5.8819Y-3.2543
X5.8819Y-3.3543
X6.6043Y-2.6579
X6.6043Y-2.7579
X6.6043Y-2.8579
X6.6043Y-2.9579
X6.6043Y-3.0579
X6.6043Y-3.1579
X6.6043Y-3.2579
X6.6043Y-3.3579
X6.9169Y-2.6579
X6.9169Y-2.7579
X6.9169Y-2.8579
X6.9169Y-2.9579
X6.9169Y-3.0579
X6.9169Y-3.1579
X6.9169Y-3.2579
X6.9169Y-3.3579
T4
X5.5496Y-4.1732
X5.5594Y-3.8189
X5.6496Y-4.1732
X5.6594Y-3.8189
T5
X3.3661Y-2.1654
X3.4252Y-5.0295
X3.4646Y-2.1654
X3.5236Y-5.0295
X3.563Y-2.1654
X3.622Y-5.0295
X3.6614Y-2.1654
X3.7205Y-5.0295
X3.7598Y-2.1654
X3.8189Y-5.0295
X3.8583Y-2.1654
X3.9173Y-5.0295
X4.4094Y-2.1654
X4.439Y-5.0295
X4.5079Y-2.1654
X4.5374Y-5.0295
X4.6063Y-2.1654
X4.6358Y-5.0295
X4.7047Y-2.1654
X4.7343Y-5.0295
X4.8031Y-2.1654
X4.8327Y-5.0295
X4.9016Y-2.1654
X4.9311Y-5.0295
X5.4724Y-2.1654
X5.5709Y-2.1654
X5.6693Y-2.1654
X5.7677Y-2.1654
X5.8661Y-2.1654
X5.9646Y-2.1654
X6.5354Y-2.1654
X6.6339Y-2.1654
X6.7323Y-2.1654
X6.8307Y-2.1654
X6.9291Y-2.1654
X7.0276Y-2.1654
T6
X5.2461Y-5.2823
X5.2461Y-5.3823
X5.2461Y-5.4823
X5.2461Y-5.5823
X5.2461Y-5.6823
X5.2461Y-5.7823
X6.1323Y-4.4917
X6.1323Y-4.5917
X6.1323Y-4.6917
X6.1323Y-4.7917
X6.6142Y-3.8835
X6.6142Y-3.9835
X6.6142Y-4.0835
X6.6142Y-4.1835
X6.6142Y-4.2835
X6.6142Y-4.3835
X6.6142Y-4.4835
X6.6142Y-4.5835
X6.6142Y-4.6835
X6.6142Y-4.7835
X6.6142Y-4.8835
X6.6142Y-4.9835
X6.6142Y-5.0835
X6.6142Y-5.1835
X6.6142Y-5.2835
X6.6142Y-5.3835
X6.6142Y-5.4835
X6.6142Y-5.5835
X6.6142Y-5.6835
X6.6142Y-5.7835
X7.2047Y-3.8835
X7.2047Y-3.9835
X7.2047Y-4.0835
X7.2047Y-4.1835
X7.2047Y-4.2835
X7.2047Y-4.3835
X7.2047Y-4.4835
X7.2047Y-4.5835
X7.2047Y-4.6835
X7.2047Y-4.7835
X7.2047Y-4.8835
X7.2047Y-4.9835
X7.2047Y-5.0835
X7.2047Y-5.1835
X7.2047Y-5.2835
X7.2047Y-5.3835
X7.2047Y-5.4835
X7.2047Y-5.5835
X7.2047Y-5.6835
X7.2047Y-5.7835
X7.7854Y-4.2866
X7.7854Y-4.3866
X7.7854Y-4.4866
X7.7854Y-4.5866
X7.7854Y-4.6866
X7.7854Y-4.7866
X7.7854Y-4.8866
X7.7854Y-4.9866
X7.7854Y-5.0866
X7.7854Y-5.1866
X7.7854Y-5.2866
X7.7854Y-5.3866
X7.7854Y-5.4866
X7.7854Y-5.5866
X7.7854Y-5.6866
X7.7854Y-5.7866
M30
