%TF.GenerationSoftware,KiCad,Pcbnew,8.0.7-1.fc40*%
%TF.CreationDate,2024-12-16T20:10:01+01:00*%
%TF.ProjectId,pedai-hw,70656461-692d-4687-972e-6b696361645f,rev?*%
%TF.SameCoordinates,Original*%
%TF.FileFunction,Soldermask,Top*%
%TF.FilePolarity,Negative*%
%FSLAX46Y46*%
G04 Gerber Fmt 4.6, Leading zero omitted, Abs format (unit mm)*
G04 Created by KiCad (PCBNEW 8.0.7-1.fc40) date 2024-12-16 20:10:01*
%MOMM*%
%LPD*%
G01*
G04 APERTURE LIST*
G04 Aperture macros list*
%AMRoundRect*
0 Rectangle with rounded corners*
0 $1 Rounding radius*
0 $2 $3 $4 $5 $6 $7 $8 $9 X,Y pos of 4 corners*
0 Add a 4 corners polygon primitive as box body*
4,1,4,$2,$3,$4,$5,$6,$7,$8,$9,$2,$3,0*
0 Add four circle primitives for the rounded corners*
1,1,$1+$1,$2,$3*
1,1,$1+$1,$4,$5*
1,1,$1+$1,$6,$7*
1,1,$1+$1,$8,$9*
0 Add four rect primitives between the rounded corners*
20,1,$1+$1,$2,$3,$4,$5,0*
20,1,$1+$1,$4,$5,$6,$7,0*
20,1,$1+$1,$6,$7,$8,$9,0*
20,1,$1+$1,$8,$9,$2,$3,0*%
G04 Aperture macros list end*
%ADD10C,1.400000*%
%ADD11O,1.400000X1.400000*%
%ADD12R,1.130000X1.130000*%
%ADD13C,1.130000*%
%ADD14RoundRect,0.250000X-0.600000X-0.725000X0.600000X-0.725000X0.600000X0.725000X-0.600000X0.725000X0*%
%ADD15O,1.700000X1.950000*%
%ADD16R,1.800000X1.800000*%
%ADD17C,1.800000*%
%ADD18C,4.300000*%
%ADD19RoundRect,0.250000X0.600000X0.725000X-0.600000X0.725000X-0.600000X-0.725000X0.600000X-0.725000X0*%
%ADD20R,1.700000X1.700000*%
%ADD21O,1.700000X1.700000*%
G04 APERTURE END LIST*
D10*
%TO.C,R38*%
X110250000Y-99790000D03*
D11*
X110250000Y-94710000D03*
%TD*%
D10*
%TO.C,R12*%
X110500000Y-73960000D03*
D11*
X110500000Y-79040000D03*
%TD*%
D10*
%TO.C,R14*%
X153710000Y-63670000D03*
D11*
X153710000Y-68750000D03*
%TD*%
D10*
%TO.C,R13*%
X153710000Y-72170000D03*
D11*
X153710000Y-77250000D03*
%TD*%
D10*
%TO.C,R10*%
X127750000Y-80210000D03*
D11*
X127750000Y-85290000D03*
%TD*%
D10*
%TO.C,R23*%
X161500000Y-63750000D03*
D11*
X161500000Y-68830000D03*
%TD*%
D10*
%TO.C,R15*%
X149000000Y-63000000D03*
D11*
X143920000Y-63000000D03*
%TD*%
D10*
%TO.C,R24*%
X161500000Y-74040000D03*
D11*
X161500000Y-79120000D03*
%TD*%
D12*
%TO.C,IC2*%
X115060000Y-68500000D03*
D13*
X115060000Y-71040000D03*
X115060000Y-73580000D03*
X115060000Y-76120000D03*
X115060000Y-78660000D03*
X115060000Y-81200000D03*
X115060000Y-83740000D03*
X115060000Y-86280000D03*
X123000000Y-86280000D03*
X123000000Y-83740000D03*
X123000000Y-81200000D03*
X123000000Y-78660000D03*
X123000000Y-76120000D03*
X123000000Y-73580000D03*
X123000000Y-71040000D03*
X123000000Y-68500000D03*
%TD*%
D10*
%TO.C,R9*%
X120790000Y-63500000D03*
D11*
X115710000Y-63500000D03*
%TD*%
D10*
%TO.C,R35*%
X110250000Y-107790000D03*
D11*
X110250000Y-102710000D03*
%TD*%
D10*
%TO.C,R4*%
X102750000Y-78460000D03*
D11*
X102750000Y-83540000D03*
%TD*%
D10*
%TO.C,R8*%
X127750000Y-63210000D03*
D11*
X127750000Y-68290000D03*
%TD*%
D14*
%TO.C,J10*%
X87000000Y-127750000D03*
D15*
X89500000Y-127750000D03*
X92000000Y-127750000D03*
X94500000Y-127750000D03*
X97000000Y-127750000D03*
X99500000Y-127750000D03*
%TD*%
D16*
%TO.C,D2*%
X141210000Y-97000000D03*
D17*
X143750000Y-97000000D03*
%TD*%
D10*
%TO.C,R7*%
X127750000Y-71960000D03*
D11*
X127750000Y-77040000D03*
%TD*%
D10*
%TO.C,R39*%
X128500000Y-117080000D03*
D11*
X128500000Y-112000000D03*
%TD*%
D12*
%TO.C,IC4*%
X167750000Y-67510000D03*
D13*
X167750000Y-70050000D03*
X167750000Y-72590000D03*
X167750000Y-75130000D03*
X167750000Y-77670000D03*
X167750000Y-80210000D03*
X167750000Y-82750000D03*
X167750000Y-85290000D03*
X175690000Y-85290000D03*
X175690000Y-82750000D03*
X175690000Y-80210000D03*
X175690000Y-77670000D03*
X175690000Y-75130000D03*
X175690000Y-72590000D03*
X175690000Y-70050000D03*
X175690000Y-67510000D03*
%TD*%
D10*
%TO.C,R40*%
X128500000Y-107540000D03*
D11*
X128500000Y-102460000D03*
%TD*%
D10*
%TO.C,R1*%
X102750000Y-75790000D03*
D11*
X102750000Y-70710000D03*
%TD*%
D18*
%TO.C,H1*%
X82500000Y-142500000D03*
%TD*%
D10*
%TO.C,R36*%
X110250000Y-116290000D03*
D11*
X110250000Y-111210000D03*
%TD*%
D16*
%TO.C,D1*%
X140960000Y-106000000D03*
D17*
X143500000Y-106000000D03*
%TD*%
D19*
%TO.C,J8*%
X151500000Y-55000000D03*
D15*
X149000000Y-55000000D03*
X146500000Y-55000000D03*
X144000000Y-55000000D03*
X141500000Y-55000000D03*
X139000000Y-55000000D03*
%TD*%
D10*
%TO.C,R20*%
X182000000Y-64170000D03*
D11*
X182000000Y-69250000D03*
%TD*%
D10*
%TO.C,R16*%
X153710000Y-80710000D03*
D11*
X153710000Y-85790000D03*
%TD*%
D10*
%TO.C,R27*%
X95990000Y-118500000D03*
D11*
X90910000Y-118500000D03*
%TD*%
D10*
%TO.C,R18*%
X135710000Y-72420000D03*
D11*
X135710000Y-77500000D03*
%TD*%
D18*
%TO.C,H2*%
X197500000Y-57500000D03*
%TD*%
D10*
%TO.C,R30*%
X103000000Y-104080000D03*
D11*
X103000000Y-99000000D03*
%TD*%
D12*
%TO.C,IC3*%
X141460000Y-67420000D03*
D13*
X141460000Y-69960000D03*
X141460000Y-72500000D03*
X141460000Y-75040000D03*
X141460000Y-77580000D03*
X141460000Y-80120000D03*
X141460000Y-82660000D03*
X141460000Y-85200000D03*
X149400000Y-85200000D03*
X149400000Y-82660000D03*
X149400000Y-80120000D03*
X149400000Y-77580000D03*
X149400000Y-75040000D03*
X149400000Y-72500000D03*
X149400000Y-69960000D03*
X149400000Y-67420000D03*
%TD*%
D10*
%TO.C,R28*%
X84000000Y-99990000D03*
D11*
X84000000Y-94910000D03*
%TD*%
D20*
%TO.C,J15*%
X155760000Y-121710000D03*
D21*
X155760000Y-119170000D03*
X155760000Y-116630000D03*
X155760000Y-114090000D03*
%TD*%
D10*
%TO.C,R19*%
X182000000Y-72710000D03*
D11*
X182000000Y-77790000D03*
%TD*%
D10*
%TO.C,R25*%
X84000000Y-108490000D03*
D11*
X84000000Y-103410000D03*
%TD*%
D10*
%TO.C,R3*%
X96330000Y-63500000D03*
D11*
X91250000Y-63500000D03*
%TD*%
D10*
%TO.C,R32*%
X157490000Y-97250000D03*
D11*
X152410000Y-97250000D03*
%TD*%
D10*
%TO.C,R29*%
X101750000Y-118750000D03*
D11*
X101750000Y-113670000D03*
%TD*%
D10*
%TO.C,R37*%
X121580000Y-118750000D03*
D11*
X116500000Y-118750000D03*
%TD*%
D10*
%TO.C,R21*%
X177580000Y-62500000D03*
D11*
X172500000Y-62500000D03*
%TD*%
D10*
%TO.C,R2*%
X102750000Y-62960000D03*
D11*
X102750000Y-68040000D03*
%TD*%
D20*
%TO.C,J5*%
X197750000Y-108880000D03*
D21*
X197750000Y-111420000D03*
X197750000Y-113960000D03*
X197750000Y-116500000D03*
X197750000Y-119040000D03*
X197750000Y-121580000D03*
X197750000Y-124120000D03*
X197750000Y-126660000D03*
X197750000Y-129200000D03*
X197750000Y-131740000D03*
X197750000Y-134280000D03*
X197750000Y-136820000D03*
X197750000Y-139360000D03*
X197750000Y-141900000D03*
X197750000Y-144440000D03*
X197750000Y-146980000D03*
%TD*%
D14*
%TO.C,J1*%
X112750000Y-127750000D03*
D15*
X115250000Y-127750000D03*
X117750000Y-127750000D03*
X120250000Y-127750000D03*
X122750000Y-127750000D03*
X125250000Y-127750000D03*
%TD*%
D20*
%TO.C,J3*%
X133250000Y-134170000D03*
D21*
X133250000Y-136710000D03*
X133250000Y-139250000D03*
X133250000Y-141790000D03*
X133250000Y-144330000D03*
X133250000Y-146870000D03*
%TD*%
D10*
%TO.C,R33*%
X193250000Y-82250000D03*
D11*
X193250000Y-77170000D03*
%TD*%
D19*
%TO.C,J9*%
X178500000Y-55000000D03*
D15*
X176000000Y-55000000D03*
X173500000Y-55000000D03*
X171000000Y-55000000D03*
X168500000Y-55000000D03*
X166000000Y-55000000D03*
%TD*%
D10*
%TO.C,R5*%
X85000000Y-63460000D03*
D11*
X85000000Y-68540000D03*
%TD*%
D12*
%TO.C,IC1*%
X89250000Y-68620000D03*
D13*
X89250000Y-71160000D03*
X89250000Y-73700000D03*
X89250000Y-76240000D03*
X89250000Y-78780000D03*
X89250000Y-81320000D03*
X89250000Y-83860000D03*
X89250000Y-86400000D03*
X97190000Y-86400000D03*
X97190000Y-83860000D03*
X97190000Y-81320000D03*
X97190000Y-78780000D03*
X97190000Y-76240000D03*
X97190000Y-73700000D03*
X97190000Y-71160000D03*
X97190000Y-68620000D03*
%TD*%
D10*
%TO.C,R11*%
X110250000Y-63170000D03*
D11*
X110250000Y-68250000D03*
%TD*%
D19*
%TO.C,J7*%
X124500000Y-55000000D03*
D15*
X122000000Y-55000000D03*
X119500000Y-55000000D03*
X117000000Y-55000000D03*
X114500000Y-55000000D03*
X112000000Y-55000000D03*
%TD*%
D10*
%TO.C,R22*%
X182000000Y-81000000D03*
D11*
X182000000Y-86080000D03*
%TD*%
D20*
%TO.C,J17*%
X168000000Y-146900000D03*
D21*
X168000000Y-144360000D03*
X168000000Y-141820000D03*
X168000000Y-139280000D03*
X168000000Y-136740000D03*
X168000000Y-134200000D03*
X168000000Y-131660000D03*
X168000000Y-129120000D03*
X168000000Y-126580000D03*
X168000000Y-124040000D03*
X168000000Y-121500000D03*
X168000000Y-118960000D03*
X168000000Y-116420000D03*
X168000000Y-113880000D03*
X168000000Y-111340000D03*
X168000000Y-108800000D03*
X168000000Y-106260000D03*
X168000000Y-103720000D03*
X168000000Y-101180000D03*
X168000000Y-98640000D03*
%TD*%
D12*
%TO.C,IC6*%
X123440000Y-113280000D03*
D13*
X123440000Y-110740000D03*
X123440000Y-108200000D03*
X123440000Y-105660000D03*
X123440000Y-103120000D03*
X123440000Y-100580000D03*
X123440000Y-98040000D03*
X123440000Y-95500000D03*
X115500000Y-95500000D03*
X115500000Y-98040000D03*
X115500000Y-100580000D03*
X115500000Y-103120000D03*
X115500000Y-105660000D03*
X115500000Y-108200000D03*
X115500000Y-110740000D03*
X115500000Y-113280000D03*
%TD*%
D19*
%TO.C,J6*%
X98000000Y-55000000D03*
D15*
X95500000Y-55000000D03*
X93000000Y-55000000D03*
X90500000Y-55000000D03*
X88000000Y-55000000D03*
X85500000Y-55000000D03*
%TD*%
D10*
%TO.C,R34*%
X193250000Y-90540000D03*
D11*
X193250000Y-85460000D03*
%TD*%
D12*
%TO.C,IC5*%
X97440000Y-113460000D03*
D13*
X97440000Y-110920000D03*
X97440000Y-108380000D03*
X97440000Y-105840000D03*
X97440000Y-103300000D03*
X97440000Y-100760000D03*
X97440000Y-98220000D03*
X97440000Y-95680000D03*
X89500000Y-95680000D03*
X89500000Y-98220000D03*
X89500000Y-100760000D03*
X89500000Y-103300000D03*
X89500000Y-105840000D03*
X89500000Y-108380000D03*
X89500000Y-110920000D03*
X89500000Y-113460000D03*
%TD*%
D10*
%TO.C,R17*%
X135960000Y-62210000D03*
D11*
X135960000Y-67290000D03*
%TD*%
D10*
%TO.C,R6*%
X84750000Y-73460000D03*
D11*
X84750000Y-78540000D03*
%TD*%
D20*
%TO.C,J16*%
X183000000Y-146900000D03*
D21*
X183000000Y-144360000D03*
X183000000Y-141820000D03*
X183000000Y-139280000D03*
X183000000Y-136740000D03*
X183000000Y-134200000D03*
X183000000Y-131660000D03*
X183000000Y-129120000D03*
X183000000Y-126580000D03*
X183000000Y-124040000D03*
X183000000Y-121500000D03*
X183000000Y-118960000D03*
X183000000Y-116420000D03*
X183000000Y-113880000D03*
X183000000Y-111340000D03*
X183000000Y-108800000D03*
X183000000Y-106260000D03*
X183000000Y-103720000D03*
X183000000Y-101180000D03*
X183000000Y-98640000D03*
%TD*%
D10*
%TO.C,R26*%
X84000000Y-117240000D03*
D11*
X84000000Y-112160000D03*
%TD*%
D10*
%TO.C,R31*%
X157740000Y-106000000D03*
D11*
X152660000Y-106000000D03*
%TD*%
M02*
