%TF.GenerationSoftware,KiCad,Pcbnew,8.0.7-1.fc40*%
%TF.CreationDate,2024-12-24T18:05:21+01:00*%
%TF.ProjectId,pedai-hw,70656461-692d-4687-972e-6b696361645f,rev?*%
%TF.SameCoordinates,Original*%
%TF.FileFunction,Legend,Bot*%
%TF.FilePolarity,Positive*%
%FSLAX46Y46*%
G04 Gerber Fmt 4.6, Leading zero omitted, Abs format (unit mm)*
G04 Created by KiCad (PCBNEW 8.0.7-1.fc40) date 2024-12-24 18:05:21*
%MOMM*%
%LPD*%
G01*
G04 APERTURE LIST*
%ADD10C,0.000000*%
G04 APERTURE END LIST*
D10*
%TO.C,G\u002A\u002A\u002A*%
G36*
X145712883Y-126506280D02*
G01*
X145692432Y-126526731D01*
X145671981Y-126506280D01*
X145692432Y-126485829D01*
X145712883Y-126506280D01*
G37*
G36*
X143372299Y-116934936D02*
G01*
X143413010Y-116988949D01*
X143412143Y-117013738D01*
X143364439Y-117037520D01*
X143332610Y-117029103D01*
X143299678Y-116972759D01*
X143323287Y-116928068D01*
X143372299Y-116934936D01*
G37*
G36*
X141818050Y-116951292D02*
G01*
X141860277Y-116993550D01*
X141857669Y-117016766D01*
X141806763Y-117037520D01*
X141772994Y-117030846D01*
X141753250Y-116993550D01*
X141758805Y-116981424D01*
X141806763Y-116949581D01*
X141818050Y-116951292D01*
G37*
G36*
X140343064Y-115290430D02*
G01*
X140368417Y-115330255D01*
X140371498Y-115416801D01*
X140343003Y-115456428D01*
X140271574Y-115476961D01*
X140198763Y-115447991D01*
X140158305Y-115375979D01*
X140157246Y-115349983D01*
X140192154Y-115278669D01*
X140264379Y-115254056D01*
X140343064Y-115290430D01*
G37*
G36*
X150330933Y-123965369D02*
G01*
X150383084Y-124030850D01*
X150372331Y-124119792D01*
X150344162Y-124163103D01*
X150284965Y-124191202D01*
X150216380Y-124139161D01*
X150212098Y-124133621D01*
X150190334Y-124056623D01*
X150213035Y-123982860D01*
X150269626Y-123949919D01*
X150330933Y-123965369D01*
G37*
G36*
X150330933Y-128587269D02*
G01*
X150383084Y-128652751D01*
X150372331Y-128741692D01*
X150344162Y-128785003D01*
X150284965Y-128813102D01*
X150216380Y-128761062D01*
X150212098Y-128755521D01*
X150190334Y-128678524D01*
X150213035Y-128604760D01*
X150269626Y-128571819D01*
X150330933Y-128587269D01*
G37*
G36*
X150357040Y-123435291D02*
G01*
X150391507Y-123503000D01*
X150369983Y-123568222D01*
X150340498Y-123599043D01*
X150279154Y-123616935D01*
X150210374Y-123559300D01*
X150200221Y-123546433D01*
X150182076Y-123489710D01*
X150228316Y-123426369D01*
X150264025Y-123393394D01*
X150307962Y-123381766D01*
X150357040Y-123435291D01*
G37*
G36*
X150357040Y-128057191D02*
G01*
X150391507Y-128124901D01*
X150369983Y-128190122D01*
X150340498Y-128220943D01*
X150279154Y-128238835D01*
X150210374Y-128181200D01*
X150200221Y-128168333D01*
X150182076Y-128111610D01*
X150228316Y-128048269D01*
X150264025Y-128015295D01*
X150307962Y-128003666D01*
X150357040Y-128057191D01*
G37*
G36*
X133523140Y-115647309D02*
G01*
X133647493Y-115654671D01*
X133710915Y-115673799D01*
X133728664Y-115708212D01*
X133726717Y-115722136D01*
X133694812Y-115750833D01*
X133611928Y-115765469D01*
X133462802Y-115769565D01*
X133402465Y-115769116D01*
X133278111Y-115761753D01*
X133214690Y-115742626D01*
X133196941Y-115708212D01*
X133198887Y-115694288D01*
X133230792Y-115665591D01*
X133313676Y-115650956D01*
X133462802Y-115646860D01*
X133523140Y-115647309D01*
G37*
G36*
X133523140Y-115892720D02*
G01*
X133647493Y-115900082D01*
X133710915Y-115919209D01*
X133728664Y-115953623D01*
X133726717Y-115967547D01*
X133694812Y-115996244D01*
X133611928Y-116010880D01*
X133462802Y-116014976D01*
X133402465Y-116014526D01*
X133278111Y-116007164D01*
X133214690Y-115988037D01*
X133196941Y-115953623D01*
X133198887Y-115939699D01*
X133230792Y-115911002D01*
X133313676Y-115896366D01*
X133462802Y-115892270D01*
X133523140Y-115892720D01*
G37*
G36*
X152993398Y-121925282D02*
G01*
X152993398Y-125504187D01*
X152809340Y-125504187D01*
X152754334Y-125502310D01*
X152661839Y-125487678D01*
X152625282Y-125463285D01*
X152626518Y-125457917D01*
X152673816Y-125432656D01*
X152768438Y-125422383D01*
X152911594Y-125422383D01*
X152911594Y-121925282D01*
X152911594Y-118428180D01*
X152768438Y-118428180D01*
X152749651Y-118427827D01*
X152661238Y-118414313D01*
X152625282Y-118387278D01*
X152633728Y-118375055D01*
X152699572Y-118354500D01*
X152809340Y-118346377D01*
X152993398Y-118346377D01*
X152993398Y-121925282D01*
G37*
G36*
X140221820Y-116918044D02*
G01*
X140223811Y-116918104D01*
X140286596Y-116926525D01*
X140283172Y-116941903D01*
X140278396Y-116944536D01*
X140252105Y-116999814D01*
X140236925Y-117124227D01*
X140232045Y-117323832D01*
X140232145Y-117357625D01*
X140238466Y-117545966D01*
X140255205Y-117659993D01*
X140283172Y-117705762D01*
X140290864Y-117711268D01*
X140259728Y-117722091D01*
X140170693Y-117726392D01*
X140128885Y-117725641D01*
X140061167Y-117718333D01*
X140058213Y-117705762D01*
X140067681Y-117698917D01*
X140091401Y-117635880D01*
X140104999Y-117505184D01*
X140109340Y-117299973D01*
X140109340Y-116914815D01*
X140221820Y-116918044D01*
G37*
G36*
X141914917Y-117211282D02*
G01*
X141949920Y-117242029D01*
X141948731Y-117251805D01*
X141909018Y-117282930D01*
X141895505Y-117290488D01*
X141875129Y-117352621D01*
X141868009Y-117453880D01*
X141873450Y-117565600D01*
X141890759Y-117659116D01*
X141919243Y-117705762D01*
X141926935Y-117711268D01*
X141895799Y-117722091D01*
X141806763Y-117726392D01*
X141764956Y-117725641D01*
X141697238Y-117718333D01*
X141694284Y-117705762D01*
X141710985Y-117690235D01*
X141736547Y-117601171D01*
X141745411Y-117443129D01*
X141745411Y-117440548D01*
X141747737Y-117306795D01*
X141760107Y-117235199D01*
X141790693Y-117206422D01*
X141847665Y-117201127D01*
X141914917Y-117211282D01*
G37*
G36*
X143403646Y-117201132D02*
G01*
X143484540Y-117218232D01*
X143500130Y-117256396D01*
X143442834Y-117297722D01*
X143413472Y-117322296D01*
X143383849Y-117407427D01*
X143381138Y-117518447D01*
X143404490Y-117622986D01*
X143453060Y-117688672D01*
X143480640Y-117713117D01*
X143446906Y-117725311D01*
X143340580Y-117726862D01*
X143281188Y-117724479D01*
X143220708Y-117716076D01*
X143228100Y-117704655D01*
X143242446Y-117699760D01*
X143277709Y-117664185D01*
X143295053Y-117585103D01*
X143299678Y-117443538D01*
X143299678Y-117440231D01*
X143302020Y-117306640D01*
X143314410Y-117235140D01*
X143344997Y-117206410D01*
X143401933Y-117201127D01*
X143403646Y-117201132D01*
G37*
G36*
X134559493Y-115051514D02*
G01*
X134574536Y-115140387D01*
X134584191Y-115294410D01*
X134587601Y-115503703D01*
X134587601Y-115974074D01*
X134721656Y-115974074D01*
X134816611Y-115985116D01*
X134949458Y-116040733D01*
X135047551Y-116129284D01*
X135095626Y-116235018D01*
X135078422Y-116342190D01*
X135059129Y-116368988D01*
X134969976Y-116414104D01*
X134850966Y-116412829D01*
X134725115Y-116371539D01*
X134615436Y-116296608D01*
X134544942Y-116194412D01*
X134533745Y-116147816D01*
X134520450Y-116030154D01*
X134511470Y-115871153D01*
X134506777Y-115688389D01*
X134506345Y-115499441D01*
X134510149Y-115321884D01*
X134518160Y-115173296D01*
X134530352Y-115071253D01*
X134546699Y-115033333D01*
X134559493Y-115051514D01*
G37*
G36*
X151345010Y-116466003D02*
G01*
X151417630Y-116495884D01*
X151493118Y-116550836D01*
X151546448Y-116609686D01*
X151552599Y-116651261D01*
X151519940Y-116657523D01*
X151453672Y-116624105D01*
X151411594Y-116594346D01*
X151396795Y-116611102D01*
X151409612Y-116694345D01*
X151418310Y-116741401D01*
X151440987Y-116880744D01*
X151462681Y-117031785D01*
X151471122Y-117107913D01*
X151470255Y-117209515D01*
X151444400Y-117242029D01*
X151430512Y-117241553D01*
X151398173Y-117231803D01*
X151397040Y-117223486D01*
X151385592Y-117154391D01*
X151364448Y-117031507D01*
X151336876Y-116873913D01*
X151312766Y-116736844D01*
X151289995Y-116600026D01*
X151280729Y-116519016D01*
X151284807Y-116479220D01*
X151302066Y-116466044D01*
X151332345Y-116464895D01*
X151345010Y-116466003D01*
G37*
G36*
X141082335Y-115568621D02*
G01*
X141109203Y-115591570D01*
X141124110Y-115649598D01*
X141130517Y-115758276D01*
X141131884Y-115933172D01*
X141131092Y-116078316D01*
X141125992Y-116199221D01*
X141113097Y-116266304D01*
X141088946Y-116295137D01*
X141050081Y-116301288D01*
X141010125Y-116295259D01*
X140982998Y-116262567D01*
X140970988Y-116184790D01*
X140968277Y-116043607D01*
X140968017Y-116012422D01*
X140954997Y-115848441D01*
X140924597Y-115747059D01*
X140879973Y-115714548D01*
X140824279Y-115757183D01*
X140799784Y-115783309D01*
X140730265Y-115804888D01*
X140677280Y-115768217D01*
X140670364Y-115686802D01*
X140704691Y-115616042D01*
X140787213Y-115570919D01*
X140891892Y-115599849D01*
X140940910Y-115622567D01*
X140968277Y-115606304D01*
X140983619Y-115582328D01*
X141050081Y-115565056D01*
X141082335Y-115568621D01*
G37*
G36*
X139071638Y-115293893D02*
G01*
X139127777Y-115330835D01*
X139122074Y-115375372D01*
X139045894Y-115413300D01*
X139021262Y-115421826D01*
X138990771Y-115450085D01*
X138973513Y-115509656D01*
X138965837Y-115617360D01*
X138964090Y-115790016D01*
X138964570Y-115897134D01*
X138969240Y-116030797D01*
X138981916Y-116109071D01*
X139006250Y-116148776D01*
X139045894Y-116166731D01*
X139093429Y-116189767D01*
X139127697Y-116244706D01*
X139112676Y-116273377D01*
X139042126Y-116294817D01*
X138902738Y-116301288D01*
X138768842Y-116295983D01*
X138697974Y-116276935D01*
X138677778Y-116239935D01*
X138684904Y-116211323D01*
X138739131Y-116178583D01*
X138758299Y-116173368D01*
X138779407Y-116139440D01*
X138792295Y-116062657D01*
X138798731Y-115930053D01*
X138800483Y-115728663D01*
X138800483Y-115278744D01*
X138964090Y-115278744D01*
X139071638Y-115293893D01*
G37*
G36*
X140401786Y-115566170D02*
G01*
X140491342Y-115583748D01*
X140518358Y-115626409D01*
X140503175Y-115662187D01*
X140436554Y-115687761D01*
X140400322Y-115692273D01*
X140370847Y-115722042D01*
X140357735Y-115796105D01*
X140354751Y-115933172D01*
X140356254Y-116041869D01*
X140366177Y-116130293D01*
X140390865Y-116169628D01*
X140436554Y-116178583D01*
X140484258Y-116189970D01*
X140518358Y-116239935D01*
X140517874Y-116247328D01*
X140491953Y-116279873D01*
X140415446Y-116296576D01*
X140272947Y-116301288D01*
X140132111Y-116296280D01*
X140051574Y-116278394D01*
X140027536Y-116244706D01*
X140042868Y-116207817D01*
X140109340Y-116166731D01*
X140109774Y-116166617D01*
X140152741Y-116145880D01*
X140177350Y-116099534D01*
X140188514Y-116008875D01*
X140191143Y-115855198D01*
X140191143Y-115565056D01*
X140354751Y-115565056D01*
X140401786Y-115566170D01*
G37*
G36*
X142292608Y-117222515D02*
G01*
X142375459Y-117289733D01*
X142378640Y-117294362D01*
X142431808Y-117426032D01*
X142431113Y-117561666D01*
X142376467Y-117668576D01*
X142327717Y-117703754D01*
X142216205Y-117732154D01*
X142106203Y-117714008D01*
X142031723Y-117651046D01*
X142009706Y-117595888D01*
X142030284Y-117569243D01*
X142041185Y-117570478D01*
X142072625Y-117605769D01*
X142073163Y-117613610D01*
X142111008Y-117657836D01*
X142183529Y-117663240D01*
X142255499Y-117625936D01*
X142271818Y-117606335D01*
X142311400Y-117501250D01*
X142311002Y-117382300D01*
X142268953Y-117291111D01*
X142230569Y-117258188D01*
X142177357Y-117251930D01*
X142142577Y-117323832D01*
X142132822Y-117352326D01*
X142089413Y-117401423D01*
X142048961Y-117387606D01*
X142039104Y-117313607D01*
X142043142Y-117295353D01*
X142098339Y-117227321D01*
X142190865Y-117202376D01*
X142292608Y-117222515D01*
G37*
G36*
X145867842Y-115568621D02*
G01*
X145894710Y-115591570D01*
X145909617Y-115649598D01*
X145916025Y-115758276D01*
X145917391Y-115933172D01*
X145916599Y-116078316D01*
X145911499Y-116199221D01*
X145898604Y-116266304D01*
X145874454Y-116295137D01*
X145835588Y-116301288D01*
X145802018Y-116297648D01*
X145770869Y-116269756D01*
X145756967Y-116198093D01*
X145753784Y-116063695D01*
X145753776Y-116059314D01*
X145743472Y-115914079D01*
X145717812Y-115795836D01*
X145682844Y-115718168D01*
X145644615Y-115694657D01*
X145609173Y-115738889D01*
X145583687Y-115774134D01*
X145519335Y-115806366D01*
X145455495Y-115805704D01*
X145426570Y-115766876D01*
X145452736Y-115663942D01*
X145523546Y-115591577D01*
X145615434Y-115570637D01*
X145704702Y-115614138D01*
X145741712Y-115642594D01*
X145753784Y-115614138D01*
X145769184Y-115585561D01*
X145835588Y-115565056D01*
X145867842Y-115568621D01*
G37*
G36*
X151962853Y-116485169D02*
G01*
X152045739Y-116534888D01*
X152090934Y-116599191D01*
X152078819Y-116656876D01*
X152051843Y-116662056D01*
X152006655Y-116617936D01*
X151974256Y-116576673D01*
X151900820Y-116544784D01*
X151835477Y-116569069D01*
X151807247Y-116645516D01*
X151807247Y-116645617D01*
X151847133Y-116751300D01*
X151966981Y-116870846D01*
X152014254Y-116911969D01*
X152111269Y-117020361D01*
X152169363Y-117119694D01*
X152212009Y-117242029D01*
X152009628Y-117242029D01*
X151944963Y-117240021D01*
X151844677Y-117223799D01*
X151810411Y-117198208D01*
X151846913Y-117171635D01*
X151958931Y-117152469D01*
X152110615Y-117139774D01*
X151897578Y-116930505D01*
X151887218Y-116920258D01*
X151784713Y-116810614D01*
X151712107Y-116718252D01*
X151684541Y-116662236D01*
X151707631Y-116570974D01*
X151789156Y-116492194D01*
X151907393Y-116471612D01*
X151962853Y-116485169D01*
G37*
G36*
X132060958Y-115279071D02*
G01*
X132153442Y-115307439D01*
X132257004Y-115367609D01*
X132304366Y-115405283D01*
X132347532Y-115462457D01*
X132331286Y-115511797D01*
X132318753Y-115525717D01*
X132273473Y-115542616D01*
X132209433Y-115498396D01*
X132191509Y-115482774D01*
X132163965Y-115468130D01*
X132146889Y-115487008D01*
X132137783Y-115551480D01*
X132134151Y-115673614D01*
X132133495Y-115865480D01*
X132133438Y-115928980D01*
X132131622Y-116101306D01*
X132125235Y-116210340D01*
X132111581Y-116270440D01*
X132087965Y-116295970D01*
X132051691Y-116301288D01*
X132023951Y-116298688D01*
X131998818Y-116280820D01*
X131982972Y-116234308D01*
X131974285Y-116145862D01*
X131970632Y-116002195D01*
X131969887Y-115790016D01*
X131970332Y-115608651D01*
X131973262Y-115454401D01*
X131980856Y-115357592D01*
X131995287Y-115304916D01*
X132018726Y-115283069D01*
X132053347Y-115278744D01*
X132060958Y-115279071D01*
G37*
G36*
X148582141Y-115279857D02*
G01*
X148671696Y-115297436D01*
X148698712Y-115340096D01*
X148683529Y-115375874D01*
X148616908Y-115401449D01*
X148580426Y-115406632D01*
X148555806Y-115432901D01*
X148542176Y-115495438D01*
X148536340Y-115609418D01*
X148535105Y-115790016D01*
X148536196Y-115963308D01*
X148541726Y-116080252D01*
X148554892Y-116144997D01*
X148578888Y-116172715D01*
X148616908Y-116178583D01*
X148664612Y-116189970D01*
X148698712Y-116239935D01*
X148698228Y-116247328D01*
X148672307Y-116279873D01*
X148595800Y-116296576D01*
X148453301Y-116301288D01*
X148312465Y-116296280D01*
X148231928Y-116278394D01*
X148207891Y-116244706D01*
X148223222Y-116207817D01*
X148289694Y-116166731D01*
X148296460Y-116164855D01*
X148330736Y-116147049D01*
X148352654Y-116108002D01*
X148364938Y-116032577D01*
X148370312Y-115905636D01*
X148371498Y-115712042D01*
X148371498Y-115278744D01*
X148535105Y-115278744D01*
X148582141Y-115279857D01*
G37*
G36*
X139706456Y-115279857D02*
G01*
X139796012Y-115297436D01*
X139823028Y-115340096D01*
X139807844Y-115375874D01*
X139741224Y-115401449D01*
X139704741Y-115406632D01*
X139680122Y-115432901D01*
X139666491Y-115495438D01*
X139660656Y-115609418D01*
X139659420Y-115790016D01*
X139660512Y-115963308D01*
X139666042Y-116080252D01*
X139679208Y-116144997D01*
X139703203Y-116172715D01*
X139741224Y-116178583D01*
X139788928Y-116189970D01*
X139823028Y-116239935D01*
X139822544Y-116247328D01*
X139796623Y-116279873D01*
X139720116Y-116296576D01*
X139577617Y-116301288D01*
X139548048Y-116301167D01*
X139417865Y-116294687D01*
X139351053Y-116275560D01*
X139332206Y-116239935D01*
X139347389Y-116204157D01*
X139414010Y-116178583D01*
X139429427Y-116178029D01*
X139460183Y-116166902D01*
X139479628Y-116130544D01*
X139490334Y-116054812D01*
X139494872Y-115925566D01*
X139495813Y-115728663D01*
X139495813Y-115278744D01*
X139659420Y-115278744D01*
X139706456Y-115279857D01*
G37*
G36*
X143260744Y-116101512D02*
G01*
X143201310Y-116215190D01*
X143137484Y-116265520D01*
X143012241Y-116301817D01*
X142886309Y-116283317D01*
X142790725Y-116210384D01*
X142775728Y-116183718D01*
X142740949Y-116068851D01*
X142727053Y-115933172D01*
X142911111Y-115933172D01*
X142911186Y-115953452D01*
X142918557Y-116059876D01*
X142945612Y-116111123D01*
X143003140Y-116130300D01*
X143040967Y-116133377D01*
X143077040Y-116116470D01*
X143092127Y-116056118D01*
X143095169Y-115933172D01*
X143094164Y-115846917D01*
X143084519Y-115765895D01*
X143057158Y-115735321D01*
X143003140Y-115736044D01*
X142993006Y-115737633D01*
X142940317Y-115759857D01*
X142916615Y-115817334D01*
X142911111Y-115933172D01*
X142727053Y-115933172D01*
X142729536Y-115864965D01*
X142768578Y-115698341D01*
X142855028Y-115598375D01*
X142988895Y-115565056D01*
X143050834Y-115569823D01*
X143177498Y-115626889D01*
X143253740Y-115748146D01*
X143279227Y-115933172D01*
X143260744Y-116101512D01*
G37*
G36*
X143960751Y-117208797D02*
G01*
X143995008Y-117242029D01*
X143993820Y-117251805D01*
X143954106Y-117282930D01*
X143942159Y-117290899D01*
X143921414Y-117355895D01*
X143913205Y-117464956D01*
X143914024Y-117507163D01*
X143934000Y-117626325D01*
X143984783Y-117688672D01*
X144013192Y-117713828D01*
X143980145Y-117727266D01*
X143874711Y-117731606D01*
X143839074Y-117731704D01*
X143751599Y-117727572D01*
X143731023Y-117712119D01*
X143765638Y-117679780D01*
X143793651Y-117654800D01*
X143820438Y-117587529D01*
X143809721Y-117474819D01*
X143801132Y-117434463D01*
X143761647Y-117328158D01*
X143714128Y-117290690D01*
X143664924Y-117328476D01*
X143633364Y-117360821D01*
X143583077Y-117337280D01*
X143563715Y-117308916D01*
X143563337Y-117245593D01*
X143610466Y-117210471D01*
X143699451Y-117207021D01*
X143782319Y-117250209D01*
X143819328Y-117278665D01*
X143831401Y-117250209D01*
X143846800Y-117221631D01*
X143913205Y-117201127D01*
X143960751Y-117208797D01*
G37*
G36*
X147886811Y-115279857D02*
G01*
X147976366Y-115297436D01*
X148003382Y-115340096D01*
X147988199Y-115375874D01*
X147921578Y-115401449D01*
X147885096Y-115406632D01*
X147860476Y-115432901D01*
X147846845Y-115495438D01*
X147841010Y-115609418D01*
X147839775Y-115790016D01*
X147840866Y-115963308D01*
X147846396Y-116080252D01*
X147859562Y-116144997D01*
X147883558Y-116172715D01*
X147921578Y-116178583D01*
X147969282Y-116189970D01*
X148003382Y-116239935D01*
X148002898Y-116247328D01*
X147976977Y-116279873D01*
X147900470Y-116296576D01*
X147757971Y-116301288D01*
X147728402Y-116301167D01*
X147598220Y-116294687D01*
X147531408Y-116275560D01*
X147512561Y-116239935D01*
X147527744Y-116204157D01*
X147594364Y-116178583D01*
X147609781Y-116178029D01*
X147640537Y-116166902D01*
X147659982Y-116130544D01*
X147670688Y-116054812D01*
X147675226Y-115925566D01*
X147676168Y-115728663D01*
X147676168Y-115278744D01*
X147839775Y-115278744D01*
X147886811Y-115279857D01*
G37*
G36*
X145345276Y-117160235D02*
G01*
X145373821Y-117196775D01*
X145385668Y-117282930D01*
X145389428Y-117347694D01*
X145421462Y-117395501D01*
X145508374Y-117405636D01*
X145509900Y-117405639D01*
X145595537Y-117417819D01*
X145631079Y-117446538D01*
X145631070Y-117447046D01*
X145594529Y-117475592D01*
X145508374Y-117487439D01*
X145443610Y-117491198D01*
X145395803Y-117523233D01*
X145385668Y-117610145D01*
X145385665Y-117611671D01*
X145373485Y-117697308D01*
X145344767Y-117732850D01*
X145344258Y-117732841D01*
X145315712Y-117696300D01*
X145303865Y-117610145D01*
X145300106Y-117545381D01*
X145268072Y-117497574D01*
X145181160Y-117487439D01*
X145179633Y-117487436D01*
X145093997Y-117475256D01*
X145058454Y-117446538D01*
X145058464Y-117446029D01*
X145095004Y-117417483D01*
X145181160Y-117405636D01*
X145245923Y-117401877D01*
X145293730Y-117369843D01*
X145303865Y-117282930D01*
X145303868Y-117281404D01*
X145316048Y-117195768D01*
X145344767Y-117160225D01*
X145345276Y-117160235D01*
G37*
G36*
X131560890Y-115315962D02*
G01*
X131648741Y-115387238D01*
X131683575Y-115489592D01*
X131681022Y-115512215D01*
X131639856Y-115558789D01*
X131570026Y-115554118D01*
X131499715Y-115497058D01*
X131480704Y-115475943D01*
X131407884Y-115450496D01*
X131343311Y-115486548D01*
X131315459Y-115572450D01*
X131326642Y-115618191D01*
X131385499Y-115719708D01*
X131480460Y-115832338D01*
X131603558Y-115985090D01*
X131669870Y-116150875D01*
X131694278Y-116301288D01*
X131423065Y-116301288D01*
X131354932Y-116300731D01*
X131231970Y-116293173D01*
X131169347Y-116274055D01*
X131151852Y-116239935D01*
X131154821Y-116222297D01*
X131201698Y-116188714D01*
X131315459Y-116178583D01*
X131381837Y-116176371D01*
X131457617Y-116156921D01*
X131479066Y-116111579D01*
X131463536Y-116066321D01*
X131404122Y-115974035D01*
X131315459Y-115867082D01*
X131259947Y-115802272D01*
X131169896Y-115648115D01*
X131155646Y-115506682D01*
X131215524Y-115369648D01*
X131228987Y-115352597D01*
X131326037Y-115292241D01*
X131444997Y-115282163D01*
X131560890Y-115315962D01*
G37*
G36*
X139941725Y-117434997D02*
G01*
X139933839Y-117566158D01*
X139881459Y-117668576D01*
X139861576Y-117685208D01*
X139755766Y-117725869D01*
X139636493Y-117726008D01*
X139544895Y-117683768D01*
X139531393Y-117669523D01*
X139495457Y-117609669D01*
X139515382Y-117592014D01*
X139580011Y-117632762D01*
X139583901Y-117636200D01*
X139679982Y-117677795D01*
X139765652Y-117647833D01*
X139815801Y-117554633D01*
X139814025Y-117519517D01*
X139770060Y-117494189D01*
X139662420Y-117487439D01*
X139607726Y-117485424D01*
X139516028Y-117458337D01*
X139494565Y-117392823D01*
X139505938Y-117363450D01*
X139618519Y-117363450D01*
X139640817Y-117427583D01*
X139720773Y-117446538D01*
X139786317Y-117434828D01*
X139820840Y-117380776D01*
X139785627Y-117287196D01*
X139770525Y-117268963D01*
X139706641Y-117250558D01*
X139645690Y-117286746D01*
X139618519Y-117363450D01*
X139505938Y-117363450D01*
X139538154Y-117280242D01*
X139560066Y-117250902D01*
X139651176Y-117206576D01*
X139765212Y-117212191D01*
X139870934Y-117268819D01*
X139906150Y-117314311D01*
X139925742Y-117380776D01*
X139941725Y-117434997D01*
G37*
G36*
X143001915Y-117214665D02*
G01*
X143098893Y-117225608D01*
X143136071Y-117244411D01*
X143134900Y-117253551D01*
X143095169Y-117282930D01*
X143081656Y-117290488D01*
X143061281Y-117352621D01*
X143054160Y-117453880D01*
X143059601Y-117565600D01*
X143076910Y-117659116D01*
X143105395Y-117705762D01*
X143113085Y-117711359D01*
X143081959Y-117723106D01*
X142992915Y-117728995D01*
X142951185Y-117728835D01*
X142879736Y-117719225D01*
X142883088Y-117697494D01*
X142885694Y-117695713D01*
X142920209Y-117623016D01*
X142923990Y-117483386D01*
X142921447Y-117450555D01*
X142906192Y-117354141D01*
X142873347Y-117312408D01*
X142808857Y-117303381D01*
X142744829Y-117312303D01*
X142709432Y-117356651D01*
X142693738Y-117459617D01*
X142692414Y-117482065D01*
X142700682Y-117597068D01*
X142729422Y-117674352D01*
X142748843Y-117709178D01*
X142719305Y-117728179D01*
X142621990Y-117732850D01*
X142527774Y-117729436D01*
X142501046Y-117714589D01*
X142533401Y-117681723D01*
X142540477Y-117675700D01*
X142588602Y-117583306D01*
X142612797Y-117426087D01*
X142624799Y-117221578D01*
X142880435Y-117213734D01*
X143001915Y-117214665D01*
G37*
G36*
X136448631Y-115933172D02*
G01*
X136448389Y-115973670D01*
X136440061Y-116109601D01*
X136415605Y-116191926D01*
X136369236Y-116243232D01*
X136242114Y-116294723D01*
X136097206Y-116285941D01*
X135974171Y-116215394D01*
X135929188Y-116153388D01*
X135924232Y-116086627D01*
X135972399Y-116058197D01*
X136060530Y-116087578D01*
X136125713Y-116120799D01*
X136221729Y-116132093D01*
X136277830Y-116080327D01*
X136286131Y-116053141D01*
X136275299Y-116004825D01*
X136208705Y-115980664D01*
X136073698Y-115974074D01*
X136015343Y-115973571D01*
X135934230Y-115963366D01*
X135902134Y-115927846D01*
X135896457Y-115851368D01*
X135905044Y-115800241D01*
X136070290Y-115800241D01*
X136089012Y-115837863D01*
X136182770Y-115851368D01*
X136273966Y-115839028D01*
X136295250Y-115800241D01*
X136263723Y-115768395D01*
X136182770Y-115749114D01*
X136119590Y-115760317D01*
X136070290Y-115800241D01*
X135905044Y-115800241D01*
X135912233Y-115757442D01*
X135986105Y-115645511D01*
X136101182Y-115578916D01*
X136236034Y-115568001D01*
X136369236Y-115623112D01*
X136381939Y-115633169D01*
X136422846Y-115689514D01*
X136443149Y-115781986D01*
X136443811Y-115800241D01*
X136448631Y-115933172D01*
G37*
G36*
X137769291Y-115568621D02*
G01*
X137796159Y-115591570D01*
X137811067Y-115649598D01*
X137817474Y-115758276D01*
X137818841Y-115933172D01*
X137818049Y-116078316D01*
X137812949Y-116199221D01*
X137800054Y-116266304D01*
X137775903Y-116295137D01*
X137737037Y-116301288D01*
X137696198Y-116294839D01*
X137669630Y-116261394D01*
X137657880Y-116182668D01*
X137655234Y-116040435D01*
X137653223Y-115948282D01*
X137634675Y-115804191D01*
X137595673Y-115730150D01*
X137530498Y-115697584D01*
X137484784Y-115730806D01*
X137458890Y-115836024D01*
X137450725Y-116017389D01*
X137450709Y-116036248D01*
X137447891Y-116178540D01*
X137436693Y-116258438D01*
X137412056Y-116293502D01*
X137368921Y-116301288D01*
X137361238Y-116301174D01*
X137321415Y-116290629D01*
X137299074Y-116250577D01*
X137289285Y-116163603D01*
X137287118Y-116012287D01*
X137292876Y-115856475D01*
X137308093Y-115723848D01*
X137329459Y-115644171D01*
X137332987Y-115638027D01*
X137410187Y-115578628D01*
X137514065Y-115569273D01*
X137606152Y-115614138D01*
X137643161Y-115642594D01*
X137655234Y-115614138D01*
X137670633Y-115585561D01*
X137737037Y-115565056D01*
X137769291Y-115568621D01*
G37*
G36*
X143786527Y-115283423D02*
G01*
X143822250Y-115323234D01*
X143831401Y-115421900D01*
X143831754Y-115440687D01*
X143845268Y-115529100D01*
X143872303Y-115565056D01*
X143891119Y-115571978D01*
X143913205Y-115626409D01*
X143908590Y-115654633D01*
X143872303Y-115687761D01*
X143856360Y-115704931D01*
X143838393Y-115783292D01*
X143831401Y-115903620D01*
X143830374Y-115948574D01*
X143809749Y-116103494D01*
X143767729Y-116210384D01*
X143710638Y-116263373D01*
X143606225Y-116293212D01*
X143498964Y-116274450D01*
X143415251Y-116213486D01*
X143381482Y-116116722D01*
X143404555Y-116049523D01*
X143464341Y-116031188D01*
X143530996Y-116078107D01*
X143583324Y-116124474D01*
X143630031Y-116108088D01*
X143657575Y-116026297D01*
X143660192Y-115887602D01*
X143657656Y-115854990D01*
X143641701Y-115757482D01*
X143605979Y-115712235D01*
X143534863Y-115695270D01*
X143460797Y-115675038D01*
X143421553Y-115629680D01*
X143450268Y-115585148D01*
X143545089Y-115565056D01*
X143626258Y-115557531D01*
X143660954Y-115518081D01*
X143667794Y-115421900D01*
X143670468Y-115357273D01*
X143693217Y-115294757D01*
X143749598Y-115278744D01*
X143786527Y-115283423D01*
G37*
G36*
X138507473Y-116126425D02*
G01*
X138472973Y-116220039D01*
X138462421Y-116237070D01*
X138414923Y-116273963D01*
X138328331Y-116291713D01*
X138181495Y-116295821D01*
X137931216Y-116294624D01*
X137945703Y-116068880D01*
X138153854Y-116068880D01*
X138157578Y-116086110D01*
X138203533Y-116151820D01*
X138271365Y-116174150D01*
X138328713Y-116139946D01*
X138340246Y-116113650D01*
X138319848Y-116048518D01*
X138226070Y-116002657D01*
X138211425Y-115999118D01*
X138158052Y-116004563D01*
X138153854Y-116068880D01*
X137945703Y-116068880D01*
X137951112Y-115984601D01*
X137956144Y-115915037D01*
X137974746Y-115764416D01*
X138003145Y-115671854D01*
X138045898Y-115619817D01*
X138109544Y-115586079D01*
X138231196Y-115566461D01*
X138349025Y-115588224D01*
X138438044Y-115644920D01*
X138473269Y-115730102D01*
X138449578Y-115790060D01*
X138389253Y-115809981D01*
X138330113Y-115769565D01*
X138314212Y-115751816D01*
X138247159Y-115729382D01*
X138177923Y-115743580D01*
X138146055Y-115790016D01*
X138166069Y-115830035D01*
X138248309Y-115851368D01*
X138286956Y-115855815D01*
X138393468Y-115904758D01*
X138479066Y-115987601D01*
X138514171Y-116079017D01*
X138509278Y-116113650D01*
X138507473Y-116126425D01*
G37*
G36*
X145324316Y-115933172D02*
G01*
X145305833Y-116101512D01*
X145246398Y-116215190D01*
X145238084Y-116223848D01*
X145135789Y-116281806D01*
X145013506Y-116294092D01*
X144895776Y-116266103D01*
X144807141Y-116203237D01*
X144772142Y-116110891D01*
X144773016Y-116100256D01*
X144810536Y-116060934D01*
X144882572Y-116066248D01*
X144960305Y-116115492D01*
X144960684Y-116115870D01*
X145040654Y-116155001D01*
X145110408Y-116130026D01*
X145140258Y-116051501D01*
X145140257Y-116051061D01*
X145126470Y-116002605D01*
X145071875Y-115979785D01*
X144956200Y-115974074D01*
X144894332Y-115973500D01*
X144811703Y-115963524D01*
X144778346Y-115930398D01*
X144772142Y-115860469D01*
X144772355Y-115846774D01*
X144783749Y-115800241D01*
X144945770Y-115800241D01*
X144957346Y-115835250D01*
X145034595Y-115851368D01*
X145104977Y-115839280D01*
X145140258Y-115787171D01*
X145123014Y-115751829D01*
X145062292Y-115735009D01*
X144991271Y-115751948D01*
X144945770Y-115800241D01*
X144783749Y-115800241D01*
X144808643Y-115698571D01*
X144899534Y-115600511D01*
X145033983Y-115565056D01*
X145095922Y-115569823D01*
X145222587Y-115626889D01*
X145298828Y-115748146D01*
X145304204Y-115787171D01*
X145324316Y-115933172D01*
G37*
G36*
X147369404Y-115933172D02*
G01*
X147350921Y-116101512D01*
X147291487Y-116215190D01*
X147283172Y-116223848D01*
X147180878Y-116281806D01*
X147058595Y-116294092D01*
X146940865Y-116266103D01*
X146852229Y-116203237D01*
X146817230Y-116110891D01*
X146818105Y-116100256D01*
X146855624Y-116060934D01*
X146927661Y-116066248D01*
X147005394Y-116115492D01*
X147005773Y-116115870D01*
X147085742Y-116155001D01*
X147155497Y-116130026D01*
X147185346Y-116051501D01*
X147185346Y-116051061D01*
X147171559Y-116002605D01*
X147116964Y-115979785D01*
X147001288Y-115974074D01*
X146939421Y-115973500D01*
X146856792Y-115963524D01*
X146823434Y-115930398D01*
X146817230Y-115860469D01*
X146817444Y-115846774D01*
X146828838Y-115800241D01*
X146990858Y-115800241D01*
X147002435Y-115835250D01*
X147079683Y-115851368D01*
X147150065Y-115839280D01*
X147185346Y-115787171D01*
X147168103Y-115751829D01*
X147107381Y-115735009D01*
X147036360Y-115751948D01*
X146990858Y-115800241D01*
X146828838Y-115800241D01*
X146853732Y-115698571D01*
X146944622Y-115600511D01*
X147079072Y-115565056D01*
X147141011Y-115569823D01*
X147267675Y-115626889D01*
X147343917Y-115748146D01*
X147349293Y-115787171D01*
X147369404Y-115933172D01*
G37*
G36*
X144484712Y-115285457D02*
G01*
X144519091Y-115325089D01*
X144526731Y-115421900D01*
X144527085Y-115440687D01*
X144540598Y-115529100D01*
X144567633Y-115565056D01*
X144586449Y-115571978D01*
X144608535Y-115626409D01*
X144604586Y-115654551D01*
X144573314Y-115687761D01*
X144554651Y-115715441D01*
X144532768Y-115804883D01*
X144515701Y-115934700D01*
X144501167Y-116047037D01*
X144473953Y-116170090D01*
X144443660Y-116241463D01*
X144426428Y-116257906D01*
X144329904Y-116295349D01*
X144215299Y-116293937D01*
X144125894Y-116252206D01*
X144096318Y-116208639D01*
X144077329Y-116123034D01*
X144092334Y-116047487D01*
X144139448Y-116014976D01*
X144170966Y-116021917D01*
X144225628Y-116076328D01*
X144259667Y-116134450D01*
X144291554Y-116125940D01*
X144313839Y-116049603D01*
X144322222Y-115912721D01*
X144320547Y-115800372D01*
X144309025Y-115724465D01*
X144278531Y-115693601D01*
X144219968Y-115687761D01*
X144153270Y-115675753D01*
X144117714Y-115626409D01*
X144137727Y-115586390D01*
X144219968Y-115565056D01*
X144280203Y-115558343D01*
X144314583Y-115518711D01*
X144322222Y-115421900D01*
X144327017Y-115337570D01*
X144355326Y-115289439D01*
X144424477Y-115278744D01*
X144484712Y-115285457D01*
G37*
G36*
X136955931Y-115283423D02*
G01*
X136991655Y-115323234D01*
X137000805Y-115421900D01*
X137000916Y-115434938D01*
X137016781Y-115534013D01*
X137062158Y-115565056D01*
X137090770Y-115572182D01*
X137123511Y-115626409D01*
X137116384Y-115655021D01*
X137062158Y-115687761D01*
X137059948Y-115687801D01*
X137024370Y-115709533D01*
X137006016Y-115781697D01*
X137000805Y-115919726D01*
X137000359Y-115957981D01*
X136981400Y-116125682D01*
X136933113Y-116226489D01*
X136925652Y-116234390D01*
X136818050Y-116294919D01*
X136704239Y-116283061D01*
X136609656Y-116200832D01*
X136571423Y-116119133D01*
X136570225Y-116057676D01*
X136603898Y-116025988D01*
X136675351Y-116022081D01*
X136729284Y-116076328D01*
X136730023Y-116078238D01*
X136768583Y-116138256D01*
X136803001Y-116125064D01*
X136827723Y-116047079D01*
X136837198Y-115912721D01*
X136835523Y-115800372D01*
X136824000Y-115724465D01*
X136793507Y-115693601D01*
X136734944Y-115687761D01*
X136668245Y-115675753D01*
X136632689Y-115626409D01*
X136652703Y-115586390D01*
X136734944Y-115565056D01*
X136795179Y-115558343D01*
X136829558Y-115518711D01*
X136837198Y-115421900D01*
X136839872Y-115357273D01*
X136862621Y-115294757D01*
X136919002Y-115278744D01*
X136955931Y-115283423D01*
G37*
G36*
X140913460Y-117669216D02*
G01*
X140883246Y-117700028D01*
X140796851Y-117720412D01*
X140643222Y-117724778D01*
X140529564Y-117719222D01*
X140432839Y-117705134D01*
X140395652Y-117686157D01*
X140396439Y-117679123D01*
X140434417Y-117651046D01*
X140450368Y-117634258D01*
X140471971Y-117556320D01*
X140472889Y-117548202D01*
X140573692Y-117548202D01*
X140621708Y-117625848D01*
X140670622Y-117667530D01*
X140742601Y-117686284D01*
X140790934Y-117627846D01*
X140799094Y-117593803D01*
X140768496Y-117521895D01*
X140665757Y-117480632D01*
X140662136Y-117480031D01*
X140589248Y-117492740D01*
X140573692Y-117548202D01*
X140472889Y-117548202D01*
X140485544Y-117436312D01*
X140490210Y-117368226D01*
X140505632Y-117271776D01*
X140536846Y-117225539D01*
X140594096Y-117207962D01*
X140612342Y-117205662D01*
X140753273Y-117210016D01*
X140850332Y-117253136D01*
X140886474Y-117328020D01*
X140876715Y-117376660D01*
X140835346Y-117395410D01*
X140814760Y-117383615D01*
X140784219Y-117320424D01*
X140766240Y-117275471D01*
X140705163Y-117249697D01*
X140634526Y-117263229D01*
X140590163Y-117316746D01*
X140587501Y-117360415D01*
X140626586Y-117404362D01*
X140730150Y-117443887D01*
X140847391Y-117493063D01*
X140918516Y-117570308D01*
X140917315Y-117593803D01*
X140913460Y-117669216D01*
G37*
G36*
X146694525Y-115933172D02*
G01*
X146688448Y-116035924D01*
X146644568Y-116187289D01*
X146561749Y-116274533D01*
X146444063Y-116291822D01*
X146409937Y-116287745D01*
X146343769Y-116297327D01*
X146326409Y-116349274D01*
X146329984Y-116370651D01*
X146377616Y-116416363D01*
X146450644Y-116422874D01*
X146510467Y-116383092D01*
X146525047Y-116367117D01*
X146594685Y-116342190D01*
X146628712Y-116353741D01*
X146651948Y-116409753D01*
X146635717Y-116483740D01*
X146582045Y-116543422D01*
X146487137Y-116576223D01*
X146357836Y-116582756D01*
X146254084Y-116553422D01*
X146210427Y-116504064D01*
X146162234Y-116370137D01*
X146132231Y-116168258D01*
X146123076Y-115935586D01*
X146326409Y-115935586D01*
X146326573Y-115967330D01*
X146333715Y-116075140D01*
X146356946Y-116125338D01*
X146403837Y-116137681D01*
X146465430Y-116111393D01*
X146514560Y-116030356D01*
X146534976Y-115921387D01*
X146522100Y-115812110D01*
X146471357Y-115730150D01*
X146440324Y-115708662D01*
X146377182Y-115706876D01*
X146339138Y-115782619D01*
X146326409Y-115935586D01*
X146123076Y-115935586D01*
X146121900Y-115905687D01*
X146121900Y-115570899D01*
X146346587Y-115570899D01*
X146514902Y-115587534D01*
X146622191Y-115645650D01*
X146678316Y-115756959D01*
X146693441Y-115921387D01*
X146694525Y-115933172D01*
G37*
G36*
X149378335Y-115990308D02*
G01*
X149407109Y-116135611D01*
X149427317Y-116240583D01*
X149434944Y-116285340D01*
X149419250Y-116294653D01*
X149352118Y-116301288D01*
X149349431Y-116301264D01*
X149281824Y-116271655D01*
X149244327Y-116176463D01*
X149200991Y-116084975D01*
X149134439Y-116056156D01*
X149070240Y-116091256D01*
X149033435Y-116188808D01*
X149006996Y-116272224D01*
X148941406Y-116301288D01*
X148920713Y-116301080D01*
X148889305Y-116294771D01*
X148872253Y-116270252D01*
X148869804Y-116215106D01*
X148882205Y-116116914D01*
X148909703Y-115963255D01*
X148939620Y-115808555D01*
X149098393Y-115808555D01*
X149101863Y-115903573D01*
X149136394Y-115933172D01*
X149174800Y-115908752D01*
X149183450Y-115828065D01*
X149151631Y-115708212D01*
X149131893Y-115670530D01*
X149115776Y-115688376D01*
X149101367Y-115779790D01*
X149098393Y-115808555D01*
X148939620Y-115808555D01*
X148952547Y-115741712D01*
X148970352Y-115651136D01*
X149006082Y-115480909D01*
X149035126Y-115372119D01*
X149062851Y-115311202D01*
X149094628Y-115284598D01*
X149135826Y-115278744D01*
X149200647Y-115294123D01*
X149250437Y-115370773D01*
X149257798Y-115403545D01*
X149280724Y-115511295D01*
X149311130Y-115658264D01*
X149345004Y-115824564D01*
X149345708Y-115828065D01*
X149378335Y-115990308D01*
G37*
G36*
X131008111Y-115906808D02*
G01*
X131003681Y-116036843D01*
X131003056Y-116055175D01*
X130990262Y-116149132D01*
X130966690Y-116206033D01*
X130929300Y-116243232D01*
X130857635Y-116278952D01*
X130742834Y-116301288D01*
X130725864Y-116301131D01*
X130619054Y-116287024D01*
X130547213Y-116241270D01*
X130503888Y-116151457D01*
X130482626Y-116005176D01*
X130476973Y-115790016D01*
X130477039Y-115763416D01*
X130615125Y-115763416D01*
X130627852Y-115940323D01*
X130639274Y-116036112D01*
X130668475Y-116104320D01*
X130724067Y-116129181D01*
X130766799Y-116131767D01*
X130844552Y-116103437D01*
X130866725Y-116036843D01*
X130832318Y-115948766D01*
X130740332Y-115855986D01*
X130615125Y-115763416D01*
X130477039Y-115763416D01*
X130477054Y-115757380D01*
X130484390Y-115551976D01*
X130485436Y-115545901D01*
X130628680Y-115545901D01*
X130648926Y-115626364D01*
X130743662Y-115722808D01*
X130870544Y-115816615D01*
X130857816Y-115639708D01*
X130855707Y-115612302D01*
X130840592Y-115514492D01*
X130807763Y-115472035D01*
X130742834Y-115462802D01*
X130667929Y-115478635D01*
X130628680Y-115545901D01*
X130485436Y-115545901D01*
X130508182Y-115413821D01*
X130554885Y-115330505D01*
X130630951Y-115289615D01*
X130742834Y-115278744D01*
X130759805Y-115278900D01*
X130866615Y-115293007D01*
X130938455Y-115338762D01*
X130981780Y-115428574D01*
X131003042Y-115574856D01*
X131008696Y-115790016D01*
X131008563Y-115816615D01*
X131008111Y-115906808D01*
G37*
G36*
X141500000Y-117589694D02*
G01*
X141500038Y-117604079D01*
X141505928Y-117755357D01*
X141520293Y-117858393D01*
X141540902Y-117896457D01*
X141550678Y-117897646D01*
X141581804Y-117937359D01*
X141579574Y-117944353D01*
X141528289Y-117968505D01*
X141430467Y-117978261D01*
X141360612Y-117976061D01*
X141312853Y-117961642D01*
X141328213Y-117929178D01*
X141355427Y-117887268D01*
X141377295Y-117793106D01*
X141374821Y-117758353D01*
X141344221Y-117721019D01*
X141259641Y-117723384D01*
X141168036Y-117716414D01*
X141075802Y-117653410D01*
X141022788Y-117548407D01*
X141019668Y-117464496D01*
X141134057Y-117464496D01*
X141174225Y-117612834D01*
X141205955Y-117660335D01*
X141247848Y-117691948D01*
X141310466Y-117663030D01*
X141357077Y-117580006D01*
X141375621Y-117470019D01*
X141361849Y-117360595D01*
X141311516Y-117279257D01*
X141293806Y-117265389D01*
X141241349Y-117250378D01*
X141188811Y-117302517D01*
X141173480Y-117325522D01*
X141134057Y-117464496D01*
X141019668Y-117464496D01*
X141018090Y-117422043D01*
X141070805Y-117294953D01*
X141076335Y-117287299D01*
X141131523Y-117237412D01*
X141216559Y-117213266D01*
X141357117Y-117206970D01*
X141449431Y-117210344D01*
X141544821Y-117224139D01*
X141581804Y-117244950D01*
X141580637Y-117253948D01*
X141540902Y-117282930D01*
X141538984Y-117283218D01*
X141518814Y-117327387D01*
X141505075Y-117435124D01*
X141503929Y-117470019D01*
X141500000Y-117589694D01*
G37*
G36*
X141908602Y-115963393D02*
G01*
X141905743Y-116120472D01*
X141898301Y-116219512D01*
X141884150Y-116273802D01*
X141861163Y-116296631D01*
X141827214Y-116301288D01*
X141779585Y-116292048D01*
X141745411Y-116252206D01*
X141736858Y-116223750D01*
X141696329Y-116252206D01*
X141617047Y-116293962D01*
X141505625Y-116291001D01*
X141413661Y-116234470D01*
X141412001Y-116232395D01*
X141377770Y-116142810D01*
X141360821Y-116006226D01*
X141361153Y-115854383D01*
X141366216Y-115815470D01*
X141545314Y-115815470D01*
X141548990Y-115940182D01*
X141555338Y-116014083D01*
X141583024Y-116130379D01*
X141629516Y-116168590D01*
X141695817Y-116130012D01*
X141733020Y-116070362D01*
X141750723Y-115962480D01*
X141733484Y-115851075D01*
X141686806Y-115763890D01*
X141616192Y-115728663D01*
X141591683Y-115730265D01*
X141557440Y-115752126D01*
X141545314Y-115815470D01*
X141366216Y-115815470D01*
X141378767Y-115719019D01*
X141413661Y-115631874D01*
X141489884Y-115580360D01*
X141601043Y-115569357D01*
X141696329Y-115614138D01*
X141725188Y-115627695D01*
X141740996Y-115584459D01*
X141745411Y-115470982D01*
X141745536Y-115443783D01*
X141752638Y-115338405D01*
X141776951Y-115290237D01*
X141827214Y-115278744D01*
X141854955Y-115281344D01*
X141880087Y-115299212D01*
X141895934Y-115345724D01*
X141904620Y-115434169D01*
X141908273Y-115577837D01*
X141909018Y-115790016D01*
X141908604Y-115962480D01*
X141908602Y-115963393D01*
G37*
G36*
X144567633Y-117589694D02*
G01*
X144567671Y-117604079D01*
X144573561Y-117755357D01*
X144587925Y-117858393D01*
X144608535Y-117896457D01*
X144618311Y-117897646D01*
X144649437Y-117937359D01*
X144647207Y-117944353D01*
X144595922Y-117968505D01*
X144498100Y-117978261D01*
X144428245Y-117976061D01*
X144380486Y-117961642D01*
X144395846Y-117929178D01*
X144423060Y-117887268D01*
X144444928Y-117793106D01*
X144442454Y-117758353D01*
X144411854Y-117721019D01*
X144327274Y-117723384D01*
X144235669Y-117716414D01*
X144143435Y-117653410D01*
X144090420Y-117548407D01*
X144087301Y-117464496D01*
X144201690Y-117464496D01*
X144241858Y-117612834D01*
X144273588Y-117660335D01*
X144315481Y-117691948D01*
X144378099Y-117663030D01*
X144424710Y-117580006D01*
X144443253Y-117470019D01*
X144429482Y-117360595D01*
X144379149Y-117279257D01*
X144361439Y-117265389D01*
X144308982Y-117250378D01*
X144256444Y-117302517D01*
X144241113Y-117325522D01*
X144201690Y-117464496D01*
X144087301Y-117464496D01*
X144085723Y-117422043D01*
X144138437Y-117294953D01*
X144143968Y-117287299D01*
X144199155Y-117237412D01*
X144284192Y-117213266D01*
X144424750Y-117206970D01*
X144517064Y-117210344D01*
X144612453Y-117224139D01*
X144649437Y-117244950D01*
X144648269Y-117253948D01*
X144608535Y-117282930D01*
X144606617Y-117283218D01*
X144586446Y-117327387D01*
X144572708Y-117435124D01*
X144571562Y-117470019D01*
X144567633Y-117589694D01*
G37*
G36*
X144428203Y-121530858D02*
G01*
X144545444Y-121626306D01*
X144645764Y-121771900D01*
X144694675Y-121830642D01*
X144773581Y-121863929D01*
X144819994Y-121875271D01*
X144853945Y-121925282D01*
X144846819Y-121953894D01*
X144792593Y-121986634D01*
X144760203Y-121997884D01*
X144734596Y-122058212D01*
X144737864Y-122092555D01*
X144760651Y-122211283D01*
X144798781Y-122358093D01*
X144845428Y-122511445D01*
X144893766Y-122649800D01*
X144936969Y-122751618D01*
X144968209Y-122795359D01*
X144969176Y-122795670D01*
X145003081Y-122784771D01*
X144995571Y-122710880D01*
X144992444Y-122696825D01*
X144998081Y-122607813D01*
X145046654Y-122571302D01*
X145121599Y-122601648D01*
X145154579Y-122635945D01*
X145176100Y-122725278D01*
X145116885Y-122822199D01*
X145018450Y-122880165D01*
X144914868Y-122861444D01*
X144811305Y-122765982D01*
X144710423Y-122596258D01*
X144614885Y-122354750D01*
X144553828Y-122181913D01*
X144504702Y-122073285D01*
X144459700Y-122015412D01*
X144410743Y-121994015D01*
X144373037Y-121982476D01*
X144328035Y-121936923D01*
X144331251Y-121887254D01*
X144388009Y-121863929D01*
X144403765Y-121862915D01*
X144435989Y-121834246D01*
X144426219Y-121751449D01*
X144394391Y-121664022D01*
X144341517Y-121580613D01*
X144312663Y-121554848D01*
X144292220Y-121563733D01*
X144293081Y-121641965D01*
X144294621Y-121677915D01*
X144278459Y-121744377D01*
X144220528Y-121761674D01*
X144207207Y-121760860D01*
X144142013Y-121720848D01*
X144123430Y-121642262D01*
X144160246Y-121555201D01*
X144203156Y-121517264D01*
X144309091Y-121492272D01*
X144428203Y-121530858D01*
G37*
G36*
X144428203Y-130856462D02*
G01*
X144545444Y-130951910D01*
X144645764Y-131097504D01*
X144694675Y-131156246D01*
X144773581Y-131189533D01*
X144819994Y-131200875D01*
X144853945Y-131250885D01*
X144846819Y-131279498D01*
X144792593Y-131312238D01*
X144760203Y-131323488D01*
X144734596Y-131383816D01*
X144737864Y-131418159D01*
X144760651Y-131536887D01*
X144798781Y-131683697D01*
X144845428Y-131837049D01*
X144893766Y-131975404D01*
X144936969Y-132077222D01*
X144968209Y-132120963D01*
X144969176Y-132121273D01*
X145003081Y-132110375D01*
X144995571Y-132036484D01*
X144992444Y-132022429D01*
X144998081Y-131933417D01*
X145046654Y-131896905D01*
X145121599Y-131927252D01*
X145154579Y-131961548D01*
X145176100Y-132050882D01*
X145116885Y-132147803D01*
X145018450Y-132205769D01*
X144914868Y-132187048D01*
X144811305Y-132091586D01*
X144710423Y-131921862D01*
X144614885Y-131680354D01*
X144553828Y-131507517D01*
X144504702Y-131398889D01*
X144459700Y-131341016D01*
X144410743Y-131319619D01*
X144373037Y-131308079D01*
X144328035Y-131262527D01*
X144331251Y-131212858D01*
X144388009Y-131189533D01*
X144403765Y-131188519D01*
X144435989Y-131159850D01*
X144426219Y-131077053D01*
X144394391Y-130989626D01*
X144341517Y-130906216D01*
X144312663Y-130880452D01*
X144292220Y-130889337D01*
X144293081Y-130967569D01*
X144294621Y-131003518D01*
X144278459Y-131069980D01*
X144220528Y-131087278D01*
X144207207Y-131086464D01*
X144142013Y-131046452D01*
X144123430Y-130967866D01*
X144160246Y-130880805D01*
X144203156Y-130842868D01*
X144309091Y-130817876D01*
X144428203Y-130856462D01*
G37*
G36*
X144461436Y-126050016D02*
G01*
X144544525Y-126129222D01*
X144614278Y-126238583D01*
X144673279Y-126328462D01*
X144761676Y-126363124D01*
X144819273Y-126372130D01*
X144853945Y-126404026D01*
X144847024Y-126422841D01*
X144792593Y-126444927D01*
X144754630Y-126462285D01*
X144731941Y-126536956D01*
X144742328Y-126620238D01*
X144769215Y-126753369D01*
X144806135Y-126909580D01*
X144846623Y-127063037D01*
X144884215Y-127187905D01*
X144912447Y-127258349D01*
X144912510Y-127258451D01*
X144962445Y-127304103D01*
X144995553Y-127280863D01*
X144993447Y-127201610D01*
X144986126Y-127168039D01*
X144993808Y-127112578D01*
X145055304Y-127099356D01*
X145137609Y-127126748D01*
X145172161Y-127197681D01*
X145139826Y-127283934D01*
X145075925Y-127324616D01*
X144972585Y-127344766D01*
X144899956Y-127332906D01*
X144825135Y-127282554D01*
X144755408Y-127183011D01*
X144683821Y-127023917D01*
X144603419Y-126794914D01*
X144554495Y-126652693D01*
X144504614Y-126537212D01*
X144458888Y-126475227D01*
X144409135Y-126452308D01*
X144394698Y-126449689D01*
X144331602Y-126418208D01*
X144333329Y-126381047D01*
X144401898Y-126363124D01*
X144444544Y-126358678D01*
X144462477Y-126326430D01*
X144439627Y-126242793D01*
X144393281Y-126145971D01*
X144332715Y-126068960D01*
X144300150Y-126044736D01*
X144281323Y-126052061D01*
X144295137Y-126125432D01*
X144301499Y-126158352D01*
X144291731Y-126243028D01*
X144242918Y-126270180D01*
X144169548Y-126227979D01*
X144143621Y-126195662D01*
X144128667Y-126118226D01*
X144170688Y-126054141D01*
X144251968Y-126014210D01*
X144354790Y-126009234D01*
X144461436Y-126050016D01*
G37*
G36*
X145608873Y-126388561D02*
G01*
X145651792Y-126414919D01*
X145627071Y-126447404D01*
X145618951Y-126454209D01*
X145602795Y-126530094D01*
X145629851Y-126672355D01*
X145699725Y-126878653D01*
X145699721Y-126915454D01*
X145639889Y-126935749D01*
X145580157Y-126915935D01*
X145530481Y-126825534D01*
X145487874Y-126684681D01*
X145436187Y-126561167D01*
X145386542Y-126481510D01*
X145347886Y-126463450D01*
X145339247Y-126474128D01*
X145336512Y-126550019D01*
X145367037Y-126681128D01*
X145381238Y-126728142D01*
X145413776Y-126845377D01*
X145420201Y-126907320D01*
X145399333Y-126931576D01*
X145349994Y-126935749D01*
X145326222Y-126932915D01*
X145278000Y-126889610D01*
X145248721Y-126781301D01*
X145247152Y-126772013D01*
X145215834Y-126657754D01*
X145170458Y-126557667D01*
X145122965Y-126493313D01*
X145085298Y-126486253D01*
X145081413Y-126498376D01*
X145086992Y-126570664D01*
X145110798Y-126680259D01*
X145129239Y-126758388D01*
X145134862Y-126849022D01*
X145106623Y-126903940D01*
X145103106Y-126907256D01*
X145031010Y-126926571D01*
X144954188Y-126889282D01*
X144904393Y-126810121D01*
X144903310Y-126806068D01*
X144899908Y-126774291D01*
X144930411Y-126811859D01*
X144959508Y-126846776D01*
X144990092Y-126849433D01*
X144994016Y-126784389D01*
X144969579Y-126658311D01*
X144950339Y-126542142D01*
X144964262Y-126435649D01*
X145018347Y-126388425D01*
X145108042Y-126408674D01*
X145165621Y-126430423D01*
X145232719Y-126409729D01*
X145267697Y-126389426D01*
X145353647Y-126408778D01*
X145406500Y-126428339D01*
X145485353Y-126406158D01*
X145522245Y-126387351D01*
X145608873Y-126388561D01*
G37*
G36*
X145120328Y-121905263D02*
G01*
X145174826Y-121934652D01*
X145240371Y-121906608D01*
X145281635Y-121883157D01*
X145370631Y-121897228D01*
X145413378Y-121913483D01*
X145512607Y-121892694D01*
X145516804Y-121890221D01*
X145600912Y-121880769D01*
X145678684Y-121922689D01*
X145712883Y-121996651D01*
X145700892Y-122011181D01*
X145651530Y-121986634D01*
X145647203Y-121983074D01*
X145601354Y-121957757D01*
X145590177Y-121996934D01*
X145592202Y-122018248D01*
X145613839Y-122112216D01*
X145651530Y-122232045D01*
X145669231Y-122282868D01*
X145700501Y-122376959D01*
X145712883Y-122421245D01*
X145698378Y-122429998D01*
X145632656Y-122436554D01*
X145615866Y-122435215D01*
X145555030Y-122393400D01*
X145509085Y-122283172D01*
X145505436Y-122270639D01*
X145457169Y-122138066D01*
X145402825Y-122027536D01*
X145339908Y-121925282D01*
X145362512Y-122068438D01*
X145385766Y-122201526D01*
X145410611Y-122324074D01*
X145419064Y-122368536D01*
X145410148Y-122423459D01*
X145353130Y-122436554D01*
X145316274Y-122430967D01*
X145271556Y-122385082D01*
X145243150Y-122276719D01*
X145239041Y-122254811D01*
X145202963Y-122131354D01*
X145157403Y-122041534D01*
X145134744Y-122014761D01*
X145114418Y-122008940D01*
X145111989Y-122060110D01*
X145124635Y-122180215D01*
X145127815Y-122207337D01*
X145135644Y-122326270D01*
X145122106Y-122390065D01*
X145083560Y-122419976D01*
X145006047Y-122418718D01*
X144928972Y-122370734D01*
X144895473Y-122298615D01*
X144902668Y-122283130D01*
X144934151Y-122312664D01*
X144957315Y-122342866D01*
X144990863Y-122352397D01*
X144999994Y-122304466D01*
X144977795Y-122214604D01*
X144945387Y-122095458D01*
X144943355Y-121975433D01*
X144976041Y-121894598D01*
X145037134Y-121866644D01*
X145120328Y-121905263D01*
G37*
G36*
X145120328Y-131230867D02*
G01*
X145174826Y-131260256D01*
X145240371Y-131232212D01*
X145281635Y-131208761D01*
X145370631Y-131222832D01*
X145413378Y-131239087D01*
X145512607Y-131218298D01*
X145516804Y-131215825D01*
X145600912Y-131206373D01*
X145678684Y-131248292D01*
X145712883Y-131322254D01*
X145700892Y-131336785D01*
X145651530Y-131312238D01*
X145647203Y-131308678D01*
X145601354Y-131283360D01*
X145590177Y-131322538D01*
X145592202Y-131343852D01*
X145613839Y-131437820D01*
X145651530Y-131557649D01*
X145669231Y-131608471D01*
X145700501Y-131702562D01*
X145712883Y-131746849D01*
X145698378Y-131755602D01*
X145632656Y-131762158D01*
X145615866Y-131760819D01*
X145555030Y-131719004D01*
X145509085Y-131608776D01*
X145505436Y-131596242D01*
X145457169Y-131463669D01*
X145402825Y-131353140D01*
X145339908Y-131250885D01*
X145362512Y-131394042D01*
X145385766Y-131527129D01*
X145410611Y-131649678D01*
X145419064Y-131694140D01*
X145410148Y-131749062D01*
X145353130Y-131762158D01*
X145316274Y-131756570D01*
X145271556Y-131710686D01*
X145243150Y-131602323D01*
X145239041Y-131580415D01*
X145202963Y-131456958D01*
X145157403Y-131367138D01*
X145134744Y-131340365D01*
X145114418Y-131334544D01*
X145111989Y-131385714D01*
X145124635Y-131505819D01*
X145127815Y-131532941D01*
X145135644Y-131651874D01*
X145122106Y-131715669D01*
X145083560Y-131745580D01*
X145006047Y-131744322D01*
X144928972Y-131696338D01*
X144895473Y-131624219D01*
X144902668Y-131608734D01*
X144934151Y-131638268D01*
X144957315Y-131668470D01*
X144990863Y-131678001D01*
X144999994Y-131630070D01*
X144977795Y-131540208D01*
X144945387Y-131421062D01*
X144943355Y-131301037D01*
X144976041Y-131220201D01*
X145037134Y-131192248D01*
X145120328Y-131230867D01*
G37*
G36*
X152510821Y-118346725D02*
G01*
X152521265Y-118350300D01*
X152530670Y-118361031D01*
X152539092Y-118382846D01*
X152546583Y-118419675D01*
X152553199Y-118475446D01*
X152558994Y-118554088D01*
X152564023Y-118659530D01*
X152568340Y-118795700D01*
X152571998Y-118966528D01*
X152575054Y-119175943D01*
X152577560Y-119427873D01*
X152579571Y-119726246D01*
X152581142Y-120074993D01*
X152582328Y-120478041D01*
X152583181Y-120939320D01*
X152583758Y-121462759D01*
X152584112Y-122052285D01*
X152584297Y-122711829D01*
X152584368Y-123445318D01*
X152584380Y-124256683D01*
X152584375Y-124852361D01*
X152584326Y-125606922D01*
X152584177Y-126286454D01*
X152583875Y-126894886D01*
X152583366Y-127436147D01*
X152582594Y-127914166D01*
X152581505Y-128332872D01*
X152580046Y-128696193D01*
X152578161Y-129008058D01*
X152575797Y-129272397D01*
X152572898Y-129493137D01*
X152569411Y-129674208D01*
X152565282Y-129819539D01*
X152560455Y-129933058D01*
X152554876Y-130018694D01*
X152548492Y-130080376D01*
X152541247Y-130122034D01*
X152533087Y-130147595D01*
X152523959Y-130160988D01*
X152513807Y-130166143D01*
X152502577Y-130166988D01*
X152494332Y-130166640D01*
X152483888Y-130163065D01*
X152474483Y-130152334D01*
X152466062Y-130130519D01*
X152458570Y-130093690D01*
X152451954Y-130037919D01*
X152446159Y-129959277D01*
X152441130Y-129853835D01*
X152436814Y-129717665D01*
X152433155Y-129546837D01*
X152430100Y-129337422D01*
X152427594Y-129085492D01*
X152425582Y-128787119D01*
X152424011Y-128438372D01*
X152422826Y-128035324D01*
X152421972Y-127574045D01*
X152421395Y-127050606D01*
X152421042Y-126461080D01*
X152420856Y-125801536D01*
X152420785Y-125068047D01*
X152420773Y-124256683D01*
X152420778Y-123661004D01*
X152420827Y-122906443D01*
X152420976Y-122226911D01*
X152421278Y-121618479D01*
X152421788Y-121077218D01*
X152422560Y-120599199D01*
X152423648Y-120180493D01*
X152425107Y-119817172D01*
X152426992Y-119505307D01*
X152429357Y-119240968D01*
X152432255Y-119020228D01*
X152435742Y-118839157D01*
X152439872Y-118693826D01*
X152444699Y-118580307D01*
X152450277Y-118494671D01*
X152456662Y-118432989D01*
X152463906Y-118391331D01*
X152472066Y-118365770D01*
X152481195Y-118352377D01*
X152491347Y-118347222D01*
X152502577Y-118346377D01*
X152510821Y-118346725D01*
G37*
G36*
X151071015Y-118346377D02*
G01*
X151643639Y-118346377D01*
X152216264Y-118346377D01*
X152216264Y-118673591D01*
X152216264Y-119246216D01*
X152216264Y-119798389D01*
X152216264Y-120350563D01*
X152216264Y-120677778D01*
X152216264Y-123500000D01*
X152216264Y-124072625D01*
X152216264Y-124256683D01*
X152216264Y-124319169D01*
X152216264Y-124645249D01*
X152216264Y-124931562D01*
X152216264Y-128121900D01*
X152216264Y-128694525D01*
X152216264Y-129267149D01*
X152216264Y-129594364D01*
X152216264Y-130166988D01*
X150273430Y-130166988D01*
X150235317Y-130166992D01*
X149724860Y-130167935D01*
X149295278Y-130170549D01*
X148945715Y-130174852D01*
X148675320Y-130180863D01*
X148483237Y-130188600D01*
X148368614Y-130198083D01*
X148330596Y-130209329D01*
X148316597Y-130230779D01*
X148251481Y-130209329D01*
X148247008Y-130207423D01*
X148170486Y-130195483D01*
X148016375Y-130185491D01*
X147788334Y-130177546D01*
X147490021Y-130171747D01*
X147125095Y-130168195D01*
X146697214Y-130166988D01*
X145222061Y-130166988D01*
X145222061Y-130351046D01*
X145220185Y-130406052D01*
X145205552Y-130498547D01*
X145181160Y-130535104D01*
X145168936Y-130526659D01*
X145148382Y-130460814D01*
X145140258Y-130351046D01*
X145140258Y-130166988D01*
X144117714Y-130166988D01*
X143095169Y-130166988D01*
X143095169Y-130432850D01*
X143090275Y-130561639D01*
X143075641Y-130661147D01*
X143054267Y-130698711D01*
X143034454Y-130666896D01*
X143019145Y-130571779D01*
X143013366Y-130432850D01*
X143013366Y-130166988D01*
X139966184Y-130166988D01*
X136919002Y-130166988D01*
X136919002Y-130289694D01*
X136918999Y-130291220D01*
X136906818Y-130376857D01*
X136878100Y-130412399D01*
X136877591Y-130412390D01*
X136849046Y-130375849D01*
X136837198Y-130289694D01*
X136837198Y-130166988D01*
X135814654Y-130166988D01*
X134792110Y-130166988D01*
X134792110Y-130351046D01*
X134790233Y-130406052D01*
X134775601Y-130498547D01*
X134751208Y-130535104D01*
X134738984Y-130526659D01*
X134718430Y-130460814D01*
X134710306Y-130351046D01*
X134710306Y-130166988D01*
X133687762Y-130166988D01*
X132665218Y-130166988D01*
X132665218Y-130409985D01*
X132661043Y-130519196D01*
X132646201Y-130626770D01*
X132624316Y-130678261D01*
X132604991Y-130666522D01*
X132589025Y-130584633D01*
X132583414Y-130435264D01*
X132583414Y-130166988D01*
X130701933Y-130166988D01*
X130239530Y-130166226D01*
X129812070Y-130163719D01*
X129459022Y-130159497D01*
X129181861Y-130153590D01*
X128982061Y-130146032D01*
X128861099Y-130136853D01*
X128820451Y-130126087D01*
X128846518Y-130107615D01*
X128935142Y-130091394D01*
X129065862Y-130085185D01*
X129311272Y-130085185D01*
X129311272Y-129839774D01*
X129433978Y-129839774D01*
X129433978Y-130085185D01*
X131008696Y-130085185D01*
X132583414Y-130085185D01*
X132665218Y-130085185D01*
X133687762Y-130085185D01*
X134710306Y-130085185D01*
X134792110Y-130085185D01*
X135814654Y-130085185D01*
X136837198Y-130085185D01*
X136919002Y-130085185D01*
X137287118Y-130085185D01*
X137655234Y-130085185D01*
X137737037Y-130085185D01*
X140375201Y-130085185D01*
X143013366Y-130085185D01*
X143095169Y-130085185D01*
X144117714Y-130085185D01*
X145140258Y-130085185D01*
X145222061Y-130085185D01*
X145794686Y-130085185D01*
X145795215Y-130085185D01*
X146034021Y-130082346D01*
X146214077Y-130074219D01*
X146327726Y-130061348D01*
X146367311Y-130044283D01*
X146392698Y-130017383D01*
X146469565Y-130003381D01*
X146547854Y-129985725D01*
X146571820Y-129921578D01*
X146899034Y-129921578D01*
X146921104Y-129984209D01*
X147001288Y-130003381D01*
X147068540Y-130013536D01*
X147103543Y-130044283D01*
X147120947Y-130056859D01*
X147208703Y-130072010D01*
X147361554Y-130081745D01*
X147569504Y-130085185D01*
X148035465Y-130085185D01*
X147956164Y-129931803D01*
X147941093Y-129900287D01*
X147907857Y-129800418D01*
X148062737Y-129800418D01*
X148092097Y-129911929D01*
X148153363Y-130010923D01*
X148203772Y-130057939D01*
X148255132Y-130085185D01*
X148282681Y-130057897D01*
X148291991Y-129976222D01*
X148282043Y-129864883D01*
X148256921Y-129749126D01*
X148220711Y-129654196D01*
X148177496Y-129605339D01*
X148153687Y-129599329D01*
X148094773Y-129623262D01*
X148064043Y-129697244D01*
X148062737Y-129800418D01*
X147907857Y-129800418D01*
X147901245Y-129780550D01*
X147893549Y-129686393D01*
X147897987Y-129644314D01*
X147882578Y-129616118D01*
X147831336Y-129601213D01*
X147728938Y-129595371D01*
X147560061Y-129594364D01*
X148330596Y-129594364D01*
X148330596Y-129839774D01*
X148330596Y-129976222D01*
X148330596Y-130085185D01*
X149690580Y-130084559D01*
X149769906Y-130084480D01*
X150141578Y-130082801D01*
X150451232Y-130079071D01*
X150694913Y-130073408D01*
X150868666Y-130065928D01*
X150968538Y-130056750D01*
X150990573Y-130045991D01*
X150949058Y-129990861D01*
X150936104Y-129937439D01*
X151043583Y-129937439D01*
X151048361Y-129999818D01*
X151059458Y-130014489D01*
X151111916Y-130044283D01*
X151150502Y-130031344D01*
X151180335Y-129974331D01*
X151157435Y-129909834D01*
X151146215Y-129900642D01*
X151086858Y-129895589D01*
X151043583Y-129937439D01*
X150936104Y-129937439D01*
X150925385Y-129893235D01*
X150922844Y-129811377D01*
X150918949Y-129722332D01*
X150913281Y-129699032D01*
X150989211Y-129699032D01*
X150996351Y-129732898D01*
X151039340Y-129756433D01*
X151091466Y-129717069D01*
X151101852Y-129668423D01*
X151082769Y-129632478D01*
X151208698Y-129632478D01*
X151210942Y-129668423D01*
X151213917Y-129716077D01*
X151229875Y-129812986D01*
X151252877Y-129890902D01*
X151265510Y-129935630D01*
X151263414Y-129974331D01*
X151260732Y-130023832D01*
X151257984Y-130044705D01*
X151259463Y-130045991D01*
X151281682Y-130065307D01*
X151349004Y-130077635D01*
X151472663Y-130083619D01*
X151665374Y-130085185D01*
X152093559Y-130085185D01*
X152093559Y-129839774D01*
X152093559Y-129594364D01*
X151776570Y-129595664D01*
X151711532Y-129596079D01*
X151581475Y-129599481D01*
X151516984Y-129608538D01*
X151506123Y-129626231D01*
X151536960Y-129655542D01*
X151592661Y-129694069D01*
X151659665Y-129730445D01*
X151674852Y-129739914D01*
X151671029Y-129782926D01*
X151641396Y-129788578D01*
X151554685Y-129764009D01*
X151435822Y-129706722D01*
X151350506Y-129659888D01*
X151260229Y-129612656D01*
X151218936Y-129594364D01*
X151217917Y-129594488D01*
X151208698Y-129632478D01*
X151082769Y-129632478D01*
X151075782Y-129619317D01*
X151027287Y-129616561D01*
X151012311Y-129630595D01*
X150989211Y-129699032D01*
X150913281Y-129699032D01*
X150904120Y-129661377D01*
X150866559Y-129623266D01*
X150794464Y-129602754D01*
X150676036Y-129594596D01*
X150499474Y-129593548D01*
X150252979Y-129594364D01*
X149598551Y-129594364D01*
X149598551Y-129702957D01*
X149598551Y-129778422D01*
X149596624Y-129833435D01*
X149581607Y-129925924D01*
X149556573Y-129962480D01*
X149514988Y-129940660D01*
X149432379Y-129874104D01*
X149330537Y-129778422D01*
X149181041Y-129628926D01*
X149353140Y-129628926D01*
X149374029Y-129670837D01*
X149434944Y-129737520D01*
X149486053Y-129780794D01*
X149512537Y-129777759D01*
X149516747Y-129702957D01*
X149516695Y-129696043D01*
X149497691Y-129616717D01*
X149434944Y-129594364D01*
X149387452Y-129600828D01*
X149353140Y-129628926D01*
X149181041Y-129628926D01*
X149146479Y-129594364D01*
X148738537Y-129594364D01*
X148330596Y-129594364D01*
X147560061Y-129594364D01*
X147404774Y-129596254D01*
X147297268Y-129603933D01*
X147252091Y-129619106D01*
X147258970Y-129643446D01*
X147282156Y-129675422D01*
X147289219Y-129700167D01*
X147308052Y-129766151D01*
X147307799Y-129774624D01*
X147289221Y-129815419D01*
X147227525Y-129834835D01*
X147103543Y-129839774D01*
X147056240Y-129840124D01*
X146955503Y-129848041D01*
X146909801Y-129872512D01*
X146899034Y-129921578D01*
X146571820Y-129921578D01*
X146549749Y-129858947D01*
X146469565Y-129839774D01*
X146402867Y-129827766D01*
X146367311Y-129778422D01*
X146387325Y-129738403D01*
X146469565Y-129717069D01*
X146536264Y-129705061D01*
X146571820Y-129655716D01*
X146899034Y-129655716D01*
X146920315Y-129696581D01*
X147006297Y-129717069D01*
X147048820Y-129715857D01*
X147087464Y-129700167D01*
X147062641Y-129655716D01*
X147027060Y-129623219D01*
X146955378Y-129594364D01*
X146929201Y-129601433D01*
X146899034Y-129655716D01*
X146571820Y-129655716D01*
X146563812Y-129635205D01*
X146528635Y-129617861D01*
X146455255Y-129606095D01*
X146332777Y-129598917D01*
X146150305Y-129595337D01*
X145896941Y-129594364D01*
X145222061Y-129594364D01*
X145222061Y-129839774D01*
X145222061Y-130085185D01*
X145140258Y-130085185D01*
X145140258Y-129839774D01*
X145140258Y-129594364D01*
X144117714Y-129594364D01*
X143095169Y-129594364D01*
X143095169Y-129839774D01*
X143095169Y-130085185D01*
X143013366Y-130085185D01*
X143013366Y-129839774D01*
X143013366Y-129594364D01*
X140375201Y-129594364D01*
X137737037Y-129594364D01*
X137737037Y-129839774D01*
X137737037Y-130085185D01*
X137655234Y-130085185D01*
X137655234Y-129839774D01*
X137655234Y-129594364D01*
X137287118Y-129594364D01*
X136919002Y-129594364D01*
X136919002Y-129839774D01*
X136919002Y-130085185D01*
X136837198Y-130085185D01*
X136837198Y-129839774D01*
X136837198Y-129594364D01*
X135814654Y-129594364D01*
X134792110Y-129594364D01*
X134792110Y-129839774D01*
X134792110Y-130085185D01*
X134710306Y-130085185D01*
X134710306Y-129839774D01*
X134710306Y-129594364D01*
X133687762Y-129594364D01*
X132665218Y-129594364D01*
X132665218Y-129839774D01*
X132665218Y-130085185D01*
X132583414Y-130085185D01*
X132583414Y-129839774D01*
X132583414Y-129594364D01*
X131008696Y-129594364D01*
X129433978Y-129594364D01*
X129433978Y-129839774D01*
X129311272Y-129839774D01*
X129311272Y-129594364D01*
X129065862Y-129594364D01*
X128955032Y-129590019D01*
X128857707Y-129575249D01*
X128820451Y-129553462D01*
X128846518Y-129534990D01*
X128935142Y-129518769D01*
X129065862Y-129512560D01*
X129311272Y-129512560D01*
X129311272Y-129267149D01*
X129311272Y-129021739D01*
X129433978Y-129021739D01*
X129433978Y-129267149D01*
X129433978Y-129512560D01*
X131008696Y-129512560D01*
X132583414Y-129512560D01*
X132583414Y-129378549D01*
X132583147Y-129342483D01*
X132572148Y-129275730D01*
X132527384Y-129254059D01*
X132425106Y-129259634D01*
X132314972Y-129256595D01*
X132170615Y-129220141D01*
X132050689Y-129157725D01*
X131983858Y-129080953D01*
X131967827Y-129064649D01*
X131926421Y-129051027D01*
X131867712Y-129042760D01*
X132153945Y-129042760D01*
X132312322Y-129114053D01*
X132421620Y-129162253D01*
X132480718Y-129179786D01*
X132508900Y-129166164D01*
X132528398Y-129122229D01*
X132539247Y-129086394D01*
X132528120Y-129042344D01*
X132463562Y-129025569D01*
X132332035Y-129029690D01*
X132153945Y-129042760D01*
X131867712Y-129042760D01*
X131851833Y-129040524D01*
X131735960Y-129032766D01*
X131570698Y-129027382D01*
X131347945Y-129023998D01*
X131059599Y-129022242D01*
X130697556Y-129021739D01*
X129433978Y-129021739D01*
X129311272Y-129021739D01*
X129065862Y-129021739D01*
X129062061Y-129021590D01*
X132644767Y-129021590D01*
X132648425Y-129086394D01*
X132658625Y-129267075D01*
X132664918Y-129378549D01*
X132672483Y-129512560D01*
X133691395Y-129512560D01*
X134710306Y-129512560D01*
X134710306Y-129267149D01*
X134792110Y-129267149D01*
X134792110Y-129512560D01*
X135814654Y-129512560D01*
X136837198Y-129512560D01*
X136919002Y-129512560D01*
X137287118Y-129512560D01*
X137655234Y-129512560D01*
X137737037Y-129512560D01*
X139092373Y-129512560D01*
X140447709Y-129512560D01*
X140340871Y-129405722D01*
X140337147Y-129401930D01*
X140256262Y-129286740D01*
X140218827Y-129188600D01*
X140325005Y-129188600D01*
X140400155Y-129273229D01*
X140555978Y-129367741D01*
X140635303Y-129408064D01*
X140722288Y-129450246D01*
X140771178Y-129465048D01*
X140804291Y-129457499D01*
X140843945Y-129432627D01*
X140868780Y-129413439D01*
X140874609Y-129372997D01*
X140823495Y-129304610D01*
X140748529Y-129238511D01*
X140633223Y-129167303D01*
X140511420Y-129112984D01*
X140407284Y-129086041D01*
X140344975Y-129096957D01*
X140330731Y-129114115D01*
X140325005Y-129188600D01*
X140218827Y-129188600D01*
X140208036Y-129160311D01*
X140182039Y-129021739D01*
X140729159Y-129021739D01*
X140853503Y-129146083D01*
X140915714Y-129214761D01*
X140957352Y-129297999D01*
X140954370Y-129372997D01*
X140953634Y-129391494D01*
X140929420Y-129512560D01*
X141971393Y-129512560D01*
X143013366Y-129512560D01*
X143095169Y-129512560D01*
X144117714Y-129512560D01*
X145140258Y-129512560D01*
X145222061Y-129512560D01*
X145896941Y-129512560D01*
X146087786Y-129512028D01*
X146290374Y-129509064D01*
X146429446Y-129502668D01*
X146515627Y-129491915D01*
X146559543Y-129475875D01*
X146571820Y-129453621D01*
X146571906Y-129447988D01*
X146600671Y-129378669D01*
X146673303Y-129370817D01*
X146778561Y-129425939D01*
X146793141Y-129436597D01*
X146873282Y-129490577D01*
X146917427Y-129512560D01*
X146918611Y-129511780D01*
X146900898Y-129472745D01*
X146846546Y-129386514D01*
X146765701Y-129269355D01*
X146612999Y-129055217D01*
X147062641Y-129055217D01*
X147067673Y-129085189D01*
X147090710Y-129177485D01*
X147126104Y-129302397D01*
X147188284Y-129511780D01*
X147189567Y-129516100D01*
X147441425Y-129512560D01*
X148330596Y-129512560D01*
X148739614Y-129512560D01*
X148834934Y-129512493D01*
X148987692Y-129510573D01*
X149080505Y-129503188D01*
X149128310Y-129486638D01*
X149146040Y-129457225D01*
X149147396Y-129433170D01*
X149312238Y-129433170D01*
X149333835Y-129492938D01*
X149414493Y-129512560D01*
X149460003Y-129504564D01*
X149513137Y-129454643D01*
X149512611Y-129386542D01*
X149451704Y-129332745D01*
X149410171Y-129321742D01*
X149337934Y-129344492D01*
X149312238Y-129433170D01*
X149147396Y-129433170D01*
X149148631Y-129411249D01*
X149162479Y-129342444D01*
X149220191Y-129267149D01*
X149598551Y-129267149D01*
X149598551Y-129454643D01*
X149598551Y-129512560D01*
X150350746Y-129512560D01*
X151102941Y-129512560D01*
X150866506Y-129267149D01*
X150652526Y-129045046D01*
X150948309Y-129045046D01*
X150950180Y-129055309D01*
X150986363Y-129124707D01*
X151054946Y-129224590D01*
X151137857Y-129331347D01*
X151217025Y-129421369D01*
X151274378Y-129471045D01*
X151296802Y-129479187D01*
X151398323Y-129496271D01*
X151548177Y-129508123D01*
X151722754Y-129512560D01*
X152093559Y-129512560D01*
X152093559Y-129267149D01*
X152093559Y-129021739D01*
X151520934Y-129021739D01*
X151446612Y-129021936D01*
X151250556Y-129024519D01*
X151092397Y-129029628D01*
X150986770Y-129036669D01*
X150948309Y-129045046D01*
X150652526Y-129045046D01*
X150630071Y-129021739D01*
X150114311Y-129021739D01*
X149598551Y-129021739D01*
X149598551Y-129145883D01*
X149598551Y-129267149D01*
X149220191Y-129267149D01*
X149229796Y-129254618D01*
X149328805Y-129209412D01*
X149432201Y-129224780D01*
X149482133Y-129246763D01*
X149510930Y-129229176D01*
X149516747Y-129145883D01*
X149516747Y-129021739D01*
X149253300Y-129021739D01*
X149124731Y-129027071D01*
X149014862Y-129043113D01*
X148962371Y-129066205D01*
X148939796Y-129088550D01*
X148890424Y-129066205D01*
X148852219Y-129048148D01*
X148748760Y-129029122D01*
X148613498Y-129021739D01*
X148527717Y-129023474D01*
X148421991Y-129041617D01*
X148363005Y-129092839D01*
X148337234Y-129193305D01*
X148334735Y-129261476D01*
X148331154Y-129359178D01*
X148330596Y-129512560D01*
X147441425Y-129512560D01*
X147719180Y-129508656D01*
X148248792Y-129501212D01*
X148248792Y-129261476D01*
X148248792Y-129021739D01*
X147655717Y-129021739D01*
X147563643Y-129022145D01*
X147366023Y-129026033D01*
X147207063Y-129033382D01*
X147101143Y-129043381D01*
X147062641Y-129055217D01*
X146612999Y-129055217D01*
X146592271Y-129026149D01*
X145907166Y-129023944D01*
X145222061Y-129021739D01*
X145222061Y-129267149D01*
X145222061Y-129512560D01*
X145140258Y-129512560D01*
X145140258Y-129267149D01*
X145140258Y-129021739D01*
X144117714Y-129021739D01*
X143095169Y-129021739D01*
X143095169Y-129267149D01*
X143095169Y-129376488D01*
X143095169Y-129512560D01*
X143013366Y-129512560D01*
X143013366Y-129376488D01*
X143007433Y-129286219D01*
X142974277Y-129253170D01*
X142891184Y-129258348D01*
X142802264Y-129265574D01*
X142624373Y-129231909D01*
X142476089Y-129125093D01*
X142379388Y-129023152D01*
X141554274Y-129022446D01*
X140729159Y-129021739D01*
X140182039Y-129021739D01*
X138959538Y-129021739D01*
X137737037Y-129021739D01*
X137737037Y-129267149D01*
X137737037Y-129512560D01*
X137655234Y-129512560D01*
X137655234Y-129267149D01*
X137655234Y-129021739D01*
X137287118Y-129021739D01*
X136919002Y-129021739D01*
X136919002Y-129267149D01*
X136919002Y-129512560D01*
X136837198Y-129512560D01*
X136837198Y-129267149D01*
X136837198Y-129021739D01*
X135814654Y-129021739D01*
X134792110Y-129021739D01*
X134792110Y-129267149D01*
X134710306Y-129267149D01*
X134710306Y-129021739D01*
X133677536Y-129021664D01*
X132644767Y-129021590D01*
X129062061Y-129021590D01*
X128955032Y-129017394D01*
X128857707Y-129002624D01*
X128820451Y-128980837D01*
X128846518Y-128962365D01*
X128935142Y-128946145D01*
X129065862Y-128939935D01*
X129311272Y-128939935D01*
X129311272Y-128694525D01*
X129311272Y-128449114D01*
X129433978Y-128449114D01*
X129433978Y-128694525D01*
X129433978Y-128939935D01*
X130681482Y-128939935D01*
X131029157Y-128939699D01*
X131309446Y-128938647D01*
X131524796Y-128936278D01*
X131683702Y-128932089D01*
X131794663Y-128925581D01*
X131866175Y-128916250D01*
X131906734Y-128903596D01*
X131924839Y-128887117D01*
X131926059Y-128880997D01*
X132010789Y-128880997D01*
X132020056Y-128907375D01*
X132079234Y-128931366D01*
X132205073Y-128936624D01*
X132399356Y-128933314D01*
X132237214Y-128857821D01*
X132200771Y-128841398D01*
X132088223Y-128804267D01*
X132028397Y-128817108D01*
X132010789Y-128880997D01*
X131926059Y-128880997D01*
X131928986Y-128866312D01*
X131945733Y-128789419D01*
X132026560Y-128718528D01*
X132172351Y-128694678D01*
X132218749Y-128698229D01*
X132339571Y-128729126D01*
X132457831Y-128781322D01*
X132547716Y-128842022D01*
X132583414Y-128898432D01*
X132603046Y-128909525D01*
X132698321Y-128922584D01*
X132869699Y-128932115D01*
X132919844Y-128933314D01*
X133113859Y-128937953D01*
X133427478Y-128939935D01*
X134271542Y-128939935D01*
X134160286Y-128828679D01*
X134130024Y-128796627D01*
X134070517Y-128697940D01*
X134064692Y-128583269D01*
X134080353Y-128449114D01*
X134552992Y-128449114D01*
X134672551Y-128568673D01*
X134752726Y-128671281D01*
X134792110Y-128814084D01*
X134792110Y-128939935D01*
X135814654Y-128939935D01*
X136837198Y-128939935D01*
X136919002Y-128939935D01*
X137287118Y-128939935D01*
X137655234Y-128939935D01*
X137737037Y-128939935D01*
X138964090Y-128939935D01*
X140191143Y-128939935D01*
X140272947Y-128939935D01*
X141315942Y-128939935D01*
X141377521Y-128939928D01*
X141683348Y-128939470D01*
X141918281Y-128937823D01*
X142091603Y-128934334D01*
X142212597Y-128928347D01*
X142290545Y-128919206D01*
X142334729Y-128906257D01*
X142354432Y-128888844D01*
X142358937Y-128866312D01*
X142359739Y-128849740D01*
X142402129Y-128760817D01*
X142495679Y-128709569D01*
X142621871Y-128695723D01*
X142762188Y-128719009D01*
X142898112Y-128779153D01*
X143011127Y-128875886D01*
X143020634Y-128885470D01*
X143058150Y-128905413D01*
X143123671Y-128919953D01*
X143227954Y-128929884D01*
X143381756Y-128935996D01*
X143595835Y-128939083D01*
X143880947Y-128939935D01*
X144697610Y-128939935D01*
X144588096Y-128809785D01*
X144558969Y-128773312D01*
X144502757Y-128668029D01*
X144501634Y-128564375D01*
X144524686Y-128449114D01*
X145010281Y-128449114D01*
X145116171Y-128574958D01*
X145119860Y-128579403D01*
X145193153Y-128701671D01*
X145222061Y-128820368D01*
X145222061Y-128939935D01*
X145794686Y-128939935D01*
X145795215Y-128939935D01*
X146034021Y-128937097D01*
X146214077Y-128928969D01*
X146327726Y-128916099D01*
X146367311Y-128899034D01*
X146392698Y-128872133D01*
X146469565Y-128858132D01*
X146547854Y-128840476D01*
X146571820Y-128776328D01*
X146899034Y-128776328D01*
X146921104Y-128838959D01*
X147001288Y-128858132D01*
X147068540Y-128868287D01*
X147103543Y-128899034D01*
X147103543Y-128899071D01*
X147143283Y-128916129D01*
X147257072Y-128928990D01*
X147437253Y-128937108D01*
X147676168Y-128939935D01*
X147766899Y-128939798D01*
X147971634Y-128937544D01*
X148110471Y-128931552D01*
X148195129Y-128920564D01*
X148237330Y-128903327D01*
X148248792Y-128878583D01*
X148253559Y-128850339D01*
X148290978Y-128817230D01*
X148313435Y-128824385D01*
X148356707Y-128878583D01*
X148413270Y-128923622D01*
X148542450Y-128939935D01*
X148704649Y-128939935D01*
X148985024Y-128939935D01*
X149250886Y-128939935D01*
X149516747Y-128939935D01*
X149516747Y-128735426D01*
X149519508Y-128661759D01*
X149534317Y-128567704D01*
X149557649Y-128530918D01*
X149572383Y-128544719D01*
X149591194Y-128618766D01*
X149598551Y-128735426D01*
X149598551Y-128939935D01*
X150107736Y-128939935D01*
X150616921Y-128939935D01*
X150557655Y-128798093D01*
X150553325Y-128787454D01*
X150514384Y-128661550D01*
X150498390Y-128552682D01*
X150498390Y-128511307D01*
X150788426Y-128511307D01*
X150795011Y-128603565D01*
X150830460Y-128758216D01*
X150876217Y-128939935D01*
X151484888Y-128939935D01*
X152093559Y-128939935D01*
X152093559Y-128694525D01*
X152093559Y-128449114D01*
X151884729Y-128449114D01*
X151782943Y-128453317D01*
X151659584Y-128483053D01*
X151554377Y-128551368D01*
X151533981Y-128567920D01*
X151442903Y-128628937D01*
X151377778Y-128653623D01*
X151367261Y-128652275D01*
X151293438Y-128617811D01*
X151201179Y-128551368D01*
X151105744Y-128488921D01*
X150932179Y-128449114D01*
X150882811Y-128450264D01*
X150815946Y-128465515D01*
X150788426Y-128511307D01*
X150498390Y-128511307D01*
X150498390Y-128449114D01*
X149741707Y-128449114D01*
X148985024Y-128449114D01*
X148985024Y-128694525D01*
X148985024Y-128719352D01*
X148985024Y-128939935D01*
X148704649Y-128939935D01*
X148619877Y-128832165D01*
X148562631Y-128724189D01*
X148535105Y-128586754D01*
X148535105Y-128563335D01*
X148699127Y-128563335D01*
X148708075Y-128679134D01*
X148761115Y-128819261D01*
X148761987Y-128820944D01*
X148823231Y-128915029D01*
X148867427Y-128929288D01*
X148894212Y-128863977D01*
X148903221Y-128719352D01*
X148899288Y-128607706D01*
X148879209Y-128514702D01*
X148838177Y-128473808D01*
X148800240Y-128464180D01*
X148730954Y-128486728D01*
X148699127Y-128563335D01*
X148535105Y-128563335D01*
X148535105Y-128449114D01*
X147872496Y-128449114D01*
X147795300Y-128449204D01*
X147562538Y-128451253D01*
X147400890Y-128456507D01*
X147301990Y-128465636D01*
X147257472Y-128479310D01*
X147258970Y-128498196D01*
X147282156Y-128530172D01*
X147289219Y-128554918D01*
X147308052Y-128620902D01*
X147307799Y-128629375D01*
X147289221Y-128670169D01*
X147227525Y-128689586D01*
X147103543Y-128694525D01*
X147056240Y-128694875D01*
X146955503Y-128702791D01*
X146909801Y-128727262D01*
X146899034Y-128776328D01*
X146571820Y-128776328D01*
X146549749Y-128713697D01*
X146469565Y-128694525D01*
X146402867Y-128682517D01*
X146367311Y-128633172D01*
X146387325Y-128593153D01*
X146469565Y-128571819D01*
X146536264Y-128559811D01*
X146571820Y-128510467D01*
X146899034Y-128510467D01*
X146920315Y-128551332D01*
X147006297Y-128571819D01*
X147048820Y-128570607D01*
X147087464Y-128554918D01*
X147062641Y-128510467D01*
X147027060Y-128477970D01*
X146955378Y-128449114D01*
X146929201Y-128456183D01*
X146899034Y-128510467D01*
X146571820Y-128510467D01*
X146570596Y-128501821D01*
X146551695Y-128482378D01*
X146501979Y-128468266D01*
X146411252Y-128458686D01*
X146269319Y-128452834D01*
X146065983Y-128449911D01*
X145791050Y-128449114D01*
X145010281Y-128449114D01*
X144524686Y-128449114D01*
X142398817Y-128449114D01*
X140272947Y-128449114D01*
X140272947Y-128694525D01*
X140272947Y-128939935D01*
X140191143Y-128939935D01*
X140191143Y-128694525D01*
X140191143Y-128449114D01*
X138964090Y-128449114D01*
X137737037Y-128449114D01*
X137737037Y-128694525D01*
X137737037Y-128939935D01*
X137655234Y-128939935D01*
X137655234Y-128694525D01*
X137655234Y-128449114D01*
X137287118Y-128449114D01*
X136919002Y-128449114D01*
X136919002Y-128694525D01*
X136919002Y-128803863D01*
X136919002Y-128939935D01*
X136837198Y-128939935D01*
X136837198Y-128803863D01*
X136831265Y-128713594D01*
X136798110Y-128680545D01*
X136715016Y-128685723D01*
X136626096Y-128692949D01*
X136448205Y-128659284D01*
X136299921Y-128552468D01*
X136203221Y-128450527D01*
X135378106Y-128449821D01*
X134552992Y-128449114D01*
X134080353Y-128449114D01*
X131757165Y-128449114D01*
X129433978Y-128449114D01*
X129311272Y-128449114D01*
X129065862Y-128449114D01*
X128955032Y-128444769D01*
X128857707Y-128429999D01*
X128820451Y-128408212D01*
X128846518Y-128389741D01*
X128935142Y-128373520D01*
X129065862Y-128367311D01*
X129311272Y-128367311D01*
X129311272Y-128121900D01*
X129311272Y-128121703D01*
X129433978Y-128121703D01*
X129433978Y-128367311D01*
X132808374Y-128367311D01*
X132811953Y-128367311D01*
X133415666Y-128367247D01*
X133942786Y-128366981D01*
X134398493Y-128366399D01*
X134787969Y-128365390D01*
X135116395Y-128363839D01*
X135388952Y-128361633D01*
X135610822Y-128358661D01*
X135787185Y-128354808D01*
X135923223Y-128349961D01*
X136024118Y-128344008D01*
X136095049Y-128336835D01*
X136141199Y-128328330D01*
X136167748Y-128318379D01*
X136179878Y-128306869D01*
X136182770Y-128293687D01*
X136183571Y-128277116D01*
X136225962Y-128188192D01*
X136319512Y-128136944D01*
X136445704Y-128123098D01*
X136586020Y-128146384D01*
X136721945Y-128206529D01*
X136834960Y-128303261D01*
X136872613Y-128331529D01*
X136950215Y-128352897D01*
X137078815Y-128364079D01*
X137273716Y-128367311D01*
X137659316Y-128367311D01*
X137732955Y-128367311D01*
X138962049Y-128367311D01*
X140191143Y-128367311D01*
X140191143Y-128121900D01*
X140272947Y-128121900D01*
X140272947Y-128367311D01*
X143422383Y-128367311D01*
X143974953Y-128367171D01*
X144492982Y-128366650D01*
X144939104Y-128365653D01*
X145318439Y-128364083D01*
X145636107Y-128361845D01*
X145897227Y-128358842D01*
X146106920Y-128354979D01*
X146270306Y-128350160D01*
X146392504Y-128344289D01*
X146478635Y-128337271D01*
X146533817Y-128329009D01*
X146563173Y-128319408D01*
X146571820Y-128308372D01*
X146571906Y-128302738D01*
X146600671Y-128233419D01*
X146673303Y-128225568D01*
X146778561Y-128280690D01*
X146793141Y-128291347D01*
X146873282Y-128345327D01*
X146917427Y-128367311D01*
X146918611Y-128366531D01*
X146900898Y-128327495D01*
X146846546Y-128241265D01*
X146765701Y-128124105D01*
X146612999Y-127909967D01*
X147062641Y-127909967D01*
X147067605Y-127939648D01*
X147090562Y-128031717D01*
X147125889Y-128156423D01*
X147188284Y-128366531D01*
X147189136Y-128369401D01*
X148046179Y-128365617D01*
X148903221Y-128361832D01*
X148903221Y-128121900D01*
X148985024Y-128121900D01*
X148985024Y-128367311D01*
X149733490Y-128367311D01*
X150481956Y-128367311D01*
X150491713Y-128340329D01*
X150801091Y-128340329D01*
X150840876Y-128363332D01*
X150942826Y-128367311D01*
X151000783Y-128365191D01*
X151100351Y-128337368D01*
X151169508Y-128265056D01*
X151236386Y-128195134D01*
X151358270Y-128162802D01*
X151358941Y-128162801D01*
X151444486Y-128152586D01*
X151480032Y-128128239D01*
X151475356Y-128106862D01*
X151419091Y-128038743D01*
X151320399Y-127974820D01*
X151206258Y-127934214D01*
X151118126Y-127925300D01*
X150980638Y-127962480D01*
X150878684Y-128071721D01*
X150810032Y-128254831D01*
X150803867Y-128281695D01*
X150801091Y-128340329D01*
X150491713Y-128340329D01*
X150534157Y-128222951D01*
X150535537Y-128219202D01*
X150604411Y-128089228D01*
X150695338Y-127977541D01*
X150804317Y-127876489D01*
X151363620Y-127876489D01*
X151483670Y-127996540D01*
X151501832Y-128015820D01*
X151581362Y-128128239D01*
X151582908Y-128130425D01*
X151628793Y-128241951D01*
X151645257Y-128307383D01*
X151677595Y-128348451D01*
X151746152Y-128364539D01*
X151873712Y-128367311D01*
X152093559Y-128367311D01*
X152093559Y-128121900D01*
X152093559Y-127876489D01*
X151728589Y-127876489D01*
X151363620Y-127876489D01*
X150804317Y-127876489D01*
X149894671Y-127876489D01*
X148985024Y-127876489D01*
X148985024Y-128119161D01*
X148985024Y-128121900D01*
X148903221Y-128121900D01*
X148903221Y-128119161D01*
X148903221Y-127876489D01*
X147982931Y-127876489D01*
X147844656Y-127876869D01*
X147593914Y-127879647D01*
X147378798Y-127884765D01*
X147210851Y-127891805D01*
X147101618Y-127900345D01*
X147062641Y-127909967D01*
X146612999Y-127909967D01*
X146592271Y-127880900D01*
X143432609Y-127878694D01*
X140272947Y-127876489D01*
X140272947Y-128121291D01*
X140272947Y-128121900D01*
X140191143Y-128121900D01*
X140191143Y-128121291D01*
X140191143Y-127875272D01*
X138974316Y-127886106D01*
X137757488Y-127896940D01*
X137745221Y-128132125D01*
X137732955Y-128367311D01*
X137659316Y-128367311D01*
X137647049Y-128132125D01*
X137634783Y-127896940D01*
X133534380Y-127886518D01*
X129433978Y-127876096D01*
X129433978Y-128121703D01*
X129311272Y-128121703D01*
X129311272Y-127876489D01*
X129065862Y-127876489D01*
X128955032Y-127872145D01*
X128857707Y-127857374D01*
X128820451Y-127835587D01*
X128851696Y-127829822D01*
X128963842Y-127823759D01*
X129157240Y-127818264D01*
X129431597Y-127813338D01*
X129786619Y-127808983D01*
X130222015Y-127805203D01*
X130737490Y-127801998D01*
X131332751Y-127799371D01*
X132007505Y-127797324D01*
X132761460Y-127795860D01*
X133594322Y-127794980D01*
X134505797Y-127794686D01*
X140191143Y-127794686D01*
X140191143Y-127610628D01*
X140193020Y-127555622D01*
X140207652Y-127463127D01*
X140232045Y-127426570D01*
X140244269Y-127435015D01*
X140264823Y-127500860D01*
X140272947Y-127610628D01*
X140272947Y-127794686D01*
X144588084Y-127794686D01*
X144987720Y-127794656D01*
X145637749Y-127794428D01*
X146212924Y-127793923D01*
X146717695Y-127793077D01*
X147156512Y-127791827D01*
X147533826Y-127790111D01*
X147854085Y-127787864D01*
X148121740Y-127785023D01*
X148341240Y-127781525D01*
X148517037Y-127777307D01*
X148653579Y-127772306D01*
X148755316Y-127766458D01*
X148826699Y-127759700D01*
X148872178Y-127751969D01*
X148896202Y-127743201D01*
X148903221Y-127733333D01*
X148907835Y-127705109D01*
X148944123Y-127671980D01*
X148962939Y-127678902D01*
X148985024Y-127733333D01*
X148985322Y-127736781D01*
X148997379Y-127752028D01*
X149032437Y-127764396D01*
X149097846Y-127774173D01*
X149200958Y-127781649D01*
X149349121Y-127787116D01*
X149549686Y-127790863D01*
X149810003Y-127793180D01*
X150137422Y-127794358D01*
X150539292Y-127794686D01*
X152093559Y-127794686D01*
X152093559Y-126649436D01*
X152093559Y-125504187D01*
X150212077Y-125504187D01*
X149729291Y-125504957D01*
X149298475Y-125507454D01*
X148947839Y-125511699D01*
X148676558Y-125517711D01*
X148483807Y-125525507D01*
X148368761Y-125535106D01*
X148330596Y-125546527D01*
X148316597Y-125567977D01*
X148251481Y-125546527D01*
X148204371Y-125537874D01*
X148074150Y-125529013D01*
X147863607Y-125521481D01*
X147573533Y-125515289D01*
X147204721Y-125510451D01*
X146757962Y-125506979D01*
X146234047Y-125504887D01*
X145633768Y-125504187D01*
X143095169Y-125504187D01*
X143095169Y-125626892D01*
X143095166Y-125628418D01*
X143082986Y-125714055D01*
X143054267Y-125749597D01*
X143053759Y-125749588D01*
X143025213Y-125713047D01*
X143013366Y-125626892D01*
X143013366Y-125504187D01*
X141990821Y-125504187D01*
X140968277Y-125504187D01*
X140968277Y-125708695D01*
X140965517Y-125782363D01*
X140950707Y-125876418D01*
X140927375Y-125913204D01*
X140912642Y-125899403D01*
X140893831Y-125825356D01*
X140886474Y-125708695D01*
X140886474Y-125504187D01*
X138902738Y-125504187D01*
X136919002Y-125504187D01*
X136919002Y-125626892D01*
X136918999Y-125628418D01*
X136906818Y-125714055D01*
X136878100Y-125749597D01*
X136877591Y-125749588D01*
X136849046Y-125713047D01*
X136837198Y-125626892D01*
X136837198Y-125504187D01*
X135814654Y-125504187D01*
X134792110Y-125504187D01*
X134792110Y-125626892D01*
X134792107Y-125628418D01*
X134779926Y-125714055D01*
X134751208Y-125749597D01*
X134750699Y-125749588D01*
X134722154Y-125713047D01*
X134710306Y-125626892D01*
X134710306Y-125504187D01*
X133687762Y-125504187D01*
X132665218Y-125504187D01*
X132665218Y-125624478D01*
X132653784Y-125714755D01*
X132624316Y-125770048D01*
X132618733Y-125772425D01*
X132593102Y-125742823D01*
X132583414Y-125649757D01*
X132583414Y-125504187D01*
X130701933Y-125504187D01*
X130239530Y-125503424D01*
X129812070Y-125500917D01*
X129459022Y-125496695D01*
X129181861Y-125490788D01*
X128982061Y-125483230D01*
X128861099Y-125474051D01*
X128820451Y-125463285D01*
X128846518Y-125444813D01*
X128935142Y-125428592D01*
X129065862Y-125422383D01*
X129311272Y-125422383D01*
X129429895Y-125422383D01*
X131008696Y-125422383D01*
X132587496Y-125422383D01*
X132575230Y-125187198D01*
X132562963Y-124952013D01*
X131008696Y-124952013D01*
X129454428Y-124952013D01*
X129442162Y-125187198D01*
X129429895Y-125422383D01*
X129311272Y-125422383D01*
X129311272Y-125176972D01*
X129311272Y-124931562D01*
X132665218Y-124931562D01*
X132665218Y-125176972D01*
X132665218Y-125422383D01*
X133687762Y-125422383D01*
X134710306Y-125422383D01*
X134792110Y-125422383D01*
X135814654Y-125422383D01*
X136837198Y-125422383D01*
X136919002Y-125422383D01*
X137289159Y-125422383D01*
X137659316Y-125422383D01*
X137732955Y-125422383D01*
X139309714Y-125422383D01*
X140886474Y-125422383D01*
X140886474Y-125176972D01*
X140968277Y-125176972D01*
X140968277Y-125422383D01*
X141990821Y-125422383D01*
X143013366Y-125422383D01*
X143095169Y-125422383D01*
X144117714Y-125422383D01*
X145140258Y-125422383D01*
X145222061Y-125422383D01*
X145784461Y-125416255D01*
X146026296Y-125412970D01*
X146237049Y-125407454D01*
X146385768Y-125398548D01*
X146483029Y-125384647D01*
X146539408Y-125364151D01*
X146565479Y-125335456D01*
X146571820Y-125296961D01*
X146570865Y-125294326D01*
X146899034Y-125294326D01*
X146901528Y-125316606D01*
X146944291Y-125365941D01*
X147052416Y-125396130D01*
X147102765Y-125402365D01*
X147243899Y-125412285D01*
X147425448Y-125419214D01*
X147620631Y-125421933D01*
X148035465Y-125422383D01*
X147958071Y-125270578D01*
X147944640Y-125242814D01*
X147901657Y-125128539D01*
X148071058Y-125128539D01*
X148096067Y-125246209D01*
X148148976Y-125343273D01*
X148204342Y-125395069D01*
X148255132Y-125422383D01*
X148326514Y-125422383D01*
X150210036Y-125422383D01*
X152093559Y-125422383D01*
X152093559Y-125176972D01*
X152093559Y-124931562D01*
X151756119Y-124932923D01*
X151596832Y-124934152D01*
X151499672Y-124938821D01*
X151460966Y-124950720D01*
X151468798Y-124973672D01*
X151511256Y-125011500D01*
X151587395Y-125068597D01*
X151654412Y-125106794D01*
X151673046Y-125118233D01*
X151671433Y-125160622D01*
X151670899Y-125161147D01*
X151618785Y-125160295D01*
X151516826Y-125125035D01*
X151385121Y-125062271D01*
X151132367Y-124928170D01*
X150375685Y-124940091D01*
X149619002Y-124952013D01*
X149612034Y-125060606D01*
X149606535Y-125146296D01*
X149600085Y-125210489D01*
X149579204Y-125303870D01*
X149552753Y-125340579D01*
X149551635Y-125340513D01*
X149502227Y-125310654D01*
X149415937Y-125236892D01*
X149310729Y-125134521D01*
X149166625Y-124986575D01*
X149353140Y-124986575D01*
X149373421Y-125041089D01*
X149434944Y-125115620D01*
X149437477Y-125117911D01*
X149492545Y-125162063D01*
X149513454Y-125146670D01*
X149516747Y-125060606D01*
X149515379Y-125018329D01*
X149493658Y-124949698D01*
X149434944Y-124931562D01*
X149387245Y-124941951D01*
X149353140Y-124986575D01*
X149166625Y-124986575D01*
X149110021Y-124928462D01*
X148730534Y-124940237D01*
X148351047Y-124952013D01*
X148338780Y-125187198D01*
X148329640Y-125362448D01*
X148326514Y-125422383D01*
X148255132Y-125422383D01*
X148265227Y-125419027D01*
X148286047Y-125362448D01*
X148285697Y-125249596D01*
X148263707Y-125098162D01*
X148253123Y-125053562D01*
X148216493Y-124989518D01*
X148151227Y-124980570D01*
X148116944Y-124988756D01*
X148077210Y-125031339D01*
X148071058Y-125128539D01*
X147901657Y-125128539D01*
X147899074Y-125121671D01*
X147880676Y-125025168D01*
X147878872Y-124990786D01*
X147861952Y-124957732D01*
X147813174Y-124940018D01*
X147715893Y-124932882D01*
X147553462Y-124931562D01*
X147377350Y-124937271D01*
X147260930Y-124956354D01*
X147223971Y-124988616D01*
X147267150Y-125033816D01*
X147289270Y-125060184D01*
X147292244Y-125072584D01*
X147308052Y-125138484D01*
X147307360Y-125154465D01*
X147287827Y-125194840D01*
X147226518Y-125213402D01*
X147103543Y-125217874D01*
X147070769Y-125218047D01*
X146962316Y-125225195D01*
X146911593Y-125248183D01*
X146899034Y-125294326D01*
X146570865Y-125294326D01*
X146550287Y-125237557D01*
X146469565Y-125217874D01*
X146402867Y-125205866D01*
X146367311Y-125156521D01*
X146387325Y-125116502D01*
X146469565Y-125095169D01*
X146547854Y-125077513D01*
X146571820Y-125013365D01*
X146899034Y-125013365D01*
X146899103Y-125018574D01*
X146924331Y-125078330D01*
X147007628Y-125095169D01*
X147073444Y-125092925D01*
X147090193Y-125072584D01*
X147042190Y-125013365D01*
X146984084Y-124958911D01*
X146933596Y-124931562D01*
X146913531Y-124946862D01*
X146899034Y-125013365D01*
X146571820Y-125013365D01*
X146570020Y-124989999D01*
X146556068Y-124966288D01*
X146518283Y-124950039D01*
X146445072Y-124939847D01*
X146324840Y-124934307D01*
X146145995Y-124932014D01*
X145896941Y-124931562D01*
X145222061Y-124931562D01*
X145222061Y-125176972D01*
X145222061Y-125422383D01*
X145140258Y-125422383D01*
X145140258Y-125176972D01*
X145140258Y-124931562D01*
X144117714Y-124931562D01*
X143095169Y-124931562D01*
X143095169Y-125176972D01*
X143095169Y-125422383D01*
X143013366Y-125422383D01*
X143013366Y-125176972D01*
X143013366Y-124931562D01*
X141990821Y-124931562D01*
X140968277Y-124931562D01*
X140968277Y-125176486D01*
X140968277Y-125176972D01*
X140886474Y-125176972D01*
X140886474Y-125176486D01*
X140886474Y-124930590D01*
X139321981Y-124941301D01*
X137757488Y-124952013D01*
X137745221Y-125187198D01*
X137732955Y-125422383D01*
X137659316Y-125422383D01*
X137647049Y-125187198D01*
X137634783Y-124952013D01*
X137276892Y-124940195D01*
X136919002Y-124928377D01*
X136919002Y-125175380D01*
X136919002Y-125176972D01*
X136919002Y-125422383D01*
X136837198Y-125422383D01*
X136837198Y-125176972D01*
X136837198Y-124931562D01*
X135814654Y-124931562D01*
X134792110Y-124931562D01*
X134792110Y-125176972D01*
X134792110Y-125422383D01*
X134710306Y-125422383D01*
X134710306Y-125176972D01*
X134710306Y-124931562D01*
X133687762Y-124931562D01*
X132665218Y-124931562D01*
X129311272Y-124931562D01*
X129055636Y-124923681D01*
X128800000Y-124915800D01*
X129055636Y-124901278D01*
X129311272Y-124886757D01*
X129311272Y-124643298D01*
X129311272Y-124399839D01*
X129433978Y-124399839D01*
X129433978Y-124645249D01*
X129433978Y-124890660D01*
X131008696Y-124890660D01*
X132583414Y-124890660D01*
X132665218Y-124890660D01*
X133687762Y-124890660D01*
X134710306Y-124890660D01*
X134792110Y-124890660D01*
X135814654Y-124890660D01*
X136837198Y-124890660D01*
X136919002Y-124890660D01*
X137259850Y-124890660D01*
X137313991Y-124890318D01*
X137465372Y-124885421D01*
X137577044Y-124875926D01*
X137627966Y-124863392D01*
X137638327Y-124836578D01*
X137650492Y-124745273D01*
X137655234Y-124617981D01*
X137655234Y-124399839D01*
X137732955Y-124399839D01*
X137744332Y-124617981D01*
X137745221Y-124635024D01*
X137757488Y-124870209D01*
X139321981Y-124880921D01*
X140886474Y-124891632D01*
X140886474Y-124890660D01*
X140968277Y-124890660D01*
X141990821Y-124890660D01*
X143013366Y-124890660D01*
X143095169Y-124890660D01*
X144117714Y-124890660D01*
X145140258Y-124890660D01*
X145222061Y-124890660D01*
X145896941Y-124890660D01*
X146087786Y-124890128D01*
X146290374Y-124887163D01*
X146429446Y-124880768D01*
X146515627Y-124870015D01*
X146559543Y-124853975D01*
X146571820Y-124831721D01*
X146575326Y-124806755D01*
X146616610Y-124745101D01*
X146623633Y-124742195D01*
X146690545Y-124754198D01*
X146780217Y-124805264D01*
X146836260Y-124844923D01*
X146884318Y-124868787D01*
X146885910Y-124843442D01*
X146840026Y-124763582D01*
X146745652Y-124623899D01*
X146613356Y-124433317D01*
X147062641Y-124433317D01*
X147067508Y-124462578D01*
X147090348Y-124554318D01*
X147125578Y-124678727D01*
X147174493Y-124843442D01*
X147188515Y-124890660D01*
X147544821Y-124887785D01*
X147604677Y-124886844D01*
X147771434Y-124879434D01*
X147905744Y-124866714D01*
X147982931Y-124850769D01*
X148045549Y-124835151D01*
X148156763Y-124837627D01*
X148204282Y-124844274D01*
X148234268Y-124824606D01*
X148246476Y-124758879D01*
X148248792Y-124629233D01*
X148248792Y-124603975D01*
X148335645Y-124603975D01*
X148336073Y-124629233D01*
X148337808Y-124731619D01*
X148351047Y-124870209D01*
X148749839Y-124881916D01*
X149148631Y-124893622D01*
X149148631Y-124811270D01*
X149312238Y-124811270D01*
X149333835Y-124871038D01*
X149414493Y-124890660D01*
X149460003Y-124882664D01*
X149513137Y-124832742D01*
X149512611Y-124764642D01*
X149451704Y-124710845D01*
X149410171Y-124699842D01*
X149337934Y-124722592D01*
X149312238Y-124811270D01*
X149148631Y-124811270D01*
X149148631Y-124790830D01*
X149162550Y-124721050D01*
X149220189Y-124645249D01*
X149598551Y-124645249D01*
X149598551Y-124832742D01*
X149598551Y-124890660D01*
X150334783Y-124890660D01*
X150554263Y-124890151D01*
X150760982Y-124888588D01*
X150924618Y-124886164D01*
X151032264Y-124883073D01*
X151071015Y-124879512D01*
X151069421Y-124876453D01*
X151032153Y-124831421D01*
X150955528Y-124745591D01*
X150852996Y-124634101D01*
X150656669Y-124423146D01*
X150948309Y-124423146D01*
X150950180Y-124433409D01*
X150986363Y-124502807D01*
X151054946Y-124602689D01*
X151137857Y-124709447D01*
X151217025Y-124799469D01*
X151274378Y-124849145D01*
X151296802Y-124857287D01*
X151398323Y-124874370D01*
X151463332Y-124879512D01*
X151548177Y-124886223D01*
X151722754Y-124890660D01*
X152093559Y-124890660D01*
X152093559Y-124645249D01*
X152093559Y-124399839D01*
X151520934Y-124399839D01*
X151446612Y-124400036D01*
X151250556Y-124402619D01*
X151092397Y-124407728D01*
X150986770Y-124414769D01*
X150948309Y-124423146D01*
X150656669Y-124423146D01*
X150634978Y-124399839D01*
X150116764Y-124399839D01*
X149598551Y-124399839D01*
X149598551Y-124523983D01*
X149598551Y-124645249D01*
X149220189Y-124645249D01*
X149229728Y-124632705D01*
X149328596Y-124587360D01*
X149432201Y-124602880D01*
X149482133Y-124624863D01*
X149510930Y-124607275D01*
X149516747Y-124523983D01*
X149516747Y-124399839D01*
X149253300Y-124399839D01*
X149124731Y-124405171D01*
X149014862Y-124421213D01*
X148962371Y-124444304D01*
X148939796Y-124466650D01*
X148890424Y-124444304D01*
X148850472Y-124425837D01*
X148745850Y-124407098D01*
X148609507Y-124399839D01*
X148503470Y-124401420D01*
X148414915Y-124412655D01*
X148370563Y-124441658D01*
X148348813Y-124496433D01*
X148335645Y-124603975D01*
X148248792Y-124603975D01*
X148248792Y-124399839D01*
X147655717Y-124399839D01*
X147563643Y-124400244D01*
X147366023Y-124404133D01*
X147207063Y-124411482D01*
X147101143Y-124421480D01*
X147062641Y-124433317D01*
X146613356Y-124433317D01*
X146592271Y-124402943D01*
X145907166Y-124401391D01*
X145222061Y-124399839D01*
X145222061Y-124645249D01*
X145222061Y-124890660D01*
X145140258Y-124890660D01*
X145140258Y-124645249D01*
X145140258Y-124399839D01*
X144117714Y-124399839D01*
X143095169Y-124399839D01*
X143095169Y-124645249D01*
X143095169Y-124890660D01*
X143013366Y-124890660D01*
X143013366Y-124645249D01*
X143013366Y-124399839D01*
X141990821Y-124399839D01*
X140968277Y-124399839D01*
X140968277Y-124645249D01*
X140968277Y-124645735D01*
X140968277Y-124890660D01*
X140886474Y-124890660D01*
X140886474Y-124645735D01*
X140886474Y-124399839D01*
X139309714Y-124399839D01*
X137732955Y-124399839D01*
X137655234Y-124399839D01*
X137287118Y-124399839D01*
X136919002Y-124399839D01*
X136919002Y-124645249D01*
X136919002Y-124890660D01*
X136837198Y-124890660D01*
X136837198Y-124645249D01*
X136837198Y-124399839D01*
X135814654Y-124399839D01*
X134792110Y-124399839D01*
X134792110Y-124645249D01*
X134792110Y-124890660D01*
X134710306Y-124890660D01*
X134710306Y-124645249D01*
X134710306Y-124399839D01*
X133687762Y-124399839D01*
X132665218Y-124399839D01*
X132665218Y-124645249D01*
X132665218Y-124890660D01*
X132583414Y-124890660D01*
X132583414Y-124645249D01*
X132583414Y-124399839D01*
X131008696Y-124399839D01*
X129433978Y-124399839D01*
X129311272Y-124399839D01*
X129065862Y-124399839D01*
X128955032Y-124395494D01*
X128857707Y-124380724D01*
X128820451Y-124358937D01*
X128846518Y-124340465D01*
X128935142Y-124324244D01*
X129065862Y-124318035D01*
X129311272Y-124318035D01*
X129311272Y-124072625D01*
X129311272Y-123827214D01*
X129433978Y-123827214D01*
X129433978Y-124072625D01*
X129433978Y-124318035D01*
X131008696Y-124318035D01*
X132583414Y-124318035D01*
X132583414Y-124184024D01*
X132583147Y-124147958D01*
X132572148Y-124081205D01*
X132527384Y-124059534D01*
X132425106Y-124065109D01*
X132314972Y-124062070D01*
X132170615Y-124025616D01*
X132050689Y-123963200D01*
X131983858Y-123886428D01*
X131967827Y-123870124D01*
X131926421Y-123856502D01*
X131867712Y-123848235D01*
X132153945Y-123848235D01*
X132312322Y-123919528D01*
X132421620Y-123967728D01*
X132480718Y-123985261D01*
X132508900Y-123971639D01*
X132528398Y-123927704D01*
X132539247Y-123891869D01*
X132528120Y-123847819D01*
X132463562Y-123831044D01*
X132332035Y-123835165D01*
X132153945Y-123848235D01*
X131867712Y-123848235D01*
X131851833Y-123845999D01*
X131735960Y-123838241D01*
X131570698Y-123832857D01*
X131347945Y-123829473D01*
X131059599Y-123827717D01*
X130697556Y-123827214D01*
X129433978Y-123827214D01*
X129311272Y-123827214D01*
X129065862Y-123827214D01*
X129062061Y-123827065D01*
X132644767Y-123827065D01*
X132648425Y-123891869D01*
X132658625Y-124072550D01*
X132664918Y-124184024D01*
X132672483Y-124318035D01*
X133691395Y-124318035D01*
X134710306Y-124318035D01*
X134792110Y-124318035D01*
X135814654Y-124318035D01*
X136837198Y-124318035D01*
X136919002Y-124318035D01*
X137259850Y-124318035D01*
X137313991Y-124317693D01*
X137465372Y-124312796D01*
X137577044Y-124303301D01*
X137627966Y-124290767D01*
X137638327Y-124263953D01*
X137650492Y-124172648D01*
X137655234Y-124045357D01*
X137655234Y-123827214D01*
X137732955Y-123827214D01*
X137744332Y-124045357D01*
X137745221Y-124062399D01*
X137757488Y-124297584D01*
X139103165Y-124308376D01*
X140448843Y-124319169D01*
X140337020Y-124207346D01*
X140305616Y-124174027D01*
X140246574Y-124075626D01*
X140242495Y-123994075D01*
X140325005Y-123994075D01*
X140400155Y-124078704D01*
X140555978Y-124173216D01*
X140635303Y-124213539D01*
X140722288Y-124255721D01*
X140771178Y-124270523D01*
X140804291Y-124262974D01*
X140843945Y-124238102D01*
X140868780Y-124218914D01*
X140874609Y-124178473D01*
X140823495Y-124110085D01*
X140748529Y-124043986D01*
X140633223Y-123972778D01*
X140511420Y-123918459D01*
X140407284Y-123891516D01*
X140344975Y-123902432D01*
X140330731Y-123919590D01*
X140325005Y-123994075D01*
X140242495Y-123994075D01*
X140240859Y-123961369D01*
X140256521Y-123827214D01*
X140729159Y-123827214D01*
X140848718Y-123946773D01*
X140928893Y-124049381D01*
X140964496Y-124178473D01*
X140968277Y-124192184D01*
X140968277Y-124318035D01*
X141990821Y-124318035D01*
X143013366Y-124318035D01*
X143095169Y-124318035D01*
X144117714Y-124318035D01*
X145140258Y-124318035D01*
X145222061Y-124318035D01*
X145794686Y-124318035D01*
X145795215Y-124318035D01*
X146034021Y-124315197D01*
X146214077Y-124307069D01*
X146327726Y-124294199D01*
X146367311Y-124277133D01*
X146392698Y-124250233D01*
X146469565Y-124236232D01*
X146547854Y-124218575D01*
X146571820Y-124154428D01*
X146899034Y-124154428D01*
X146921104Y-124217059D01*
X147001288Y-124236232D01*
X147068540Y-124246387D01*
X147103543Y-124277133D01*
X147103543Y-124277171D01*
X147143283Y-124294229D01*
X147257072Y-124307090D01*
X147437253Y-124315208D01*
X147676168Y-124318035D01*
X147718729Y-124318026D01*
X147933073Y-124317145D01*
X148080256Y-124313559D01*
X148172848Y-124305470D01*
X148223420Y-124291084D01*
X148244545Y-124268603D01*
X148248792Y-124236232D01*
X148257195Y-124188648D01*
X148293523Y-124154428D01*
X148323615Y-124169847D01*
X148359646Y-124236232D01*
X148374880Y-124272534D01*
X148430436Y-124308403D01*
X148542844Y-124318035D01*
X148704649Y-124318035D01*
X148985024Y-124318035D01*
X149250886Y-124318035D01*
X149516747Y-124318035D01*
X149516747Y-124113526D01*
X149519508Y-124039859D01*
X149534317Y-123945803D01*
X149557649Y-123909017D01*
X149572383Y-123922819D01*
X149591194Y-123996866D01*
X149598551Y-124113526D01*
X149598551Y-124318035D01*
X150107736Y-124318035D01*
X150616921Y-124318035D01*
X150557655Y-124176193D01*
X150553325Y-124165553D01*
X150514384Y-124039650D01*
X150498390Y-123930782D01*
X150498390Y-123827214D01*
X150774247Y-123827214D01*
X150801228Y-123995944D01*
X150806625Y-124026876D01*
X150836409Y-124151971D01*
X150869247Y-124241354D01*
X150889877Y-124269461D01*
X150927845Y-124291211D01*
X150994842Y-124305345D01*
X151104060Y-124313461D01*
X151268689Y-124317158D01*
X151501922Y-124318035D01*
X152093559Y-124318035D01*
X152093559Y-124072625D01*
X152093559Y-123827214D01*
X151870458Y-123827214D01*
X151861378Y-123827229D01*
X151719399Y-123835635D01*
X151624667Y-123866354D01*
X151545103Y-123929468D01*
X151536231Y-123938109D01*
X151449087Y-124004505D01*
X151377778Y-124031723D01*
X151371915Y-124031358D01*
X151297058Y-123998754D01*
X151210453Y-123929468D01*
X151200228Y-123919513D01*
X151088016Y-123847839D01*
X150941223Y-123827214D01*
X150774247Y-123827214D01*
X150498390Y-123827214D01*
X149741707Y-123827214D01*
X148985024Y-123827214D01*
X148985024Y-124072625D01*
X148985024Y-124096168D01*
X148985024Y-124318035D01*
X148704649Y-124318035D01*
X148619877Y-124210265D01*
X148562631Y-124102289D01*
X148535105Y-123964854D01*
X148535105Y-123937527D01*
X148701153Y-123937527D01*
X148708402Y-124051115D01*
X148745154Y-124170704D01*
X148752121Y-124185626D01*
X148812092Y-124280313D01*
X148859993Y-124295679D01*
X148891732Y-124233655D01*
X148903221Y-124096168D01*
X148899393Y-123986555D01*
X148879336Y-123893036D01*
X148838177Y-123851908D01*
X148802641Y-123842809D01*
X148735923Y-123849946D01*
X148724285Y-123860533D01*
X148701153Y-123937527D01*
X148535105Y-123937527D01*
X148535105Y-123827214D01*
X147872496Y-123827214D01*
X147795300Y-123827304D01*
X147562538Y-123829353D01*
X147400890Y-123834607D01*
X147301990Y-123843736D01*
X147257472Y-123857409D01*
X147258970Y-123876296D01*
X147282156Y-123908272D01*
X147289219Y-123933017D01*
X147308052Y-123999001D01*
X147307799Y-124007475D01*
X147289221Y-124048269D01*
X147227525Y-124067686D01*
X147103543Y-124072625D01*
X147056240Y-124072975D01*
X146955503Y-124080891D01*
X146909801Y-124105362D01*
X146899034Y-124154428D01*
X146571820Y-124154428D01*
X146549749Y-124091797D01*
X146469565Y-124072625D01*
X146402867Y-124060616D01*
X146367311Y-124011272D01*
X146387325Y-123971253D01*
X146469565Y-123949919D01*
X146536264Y-123937911D01*
X146571820Y-123888567D01*
X146899034Y-123888567D01*
X146920315Y-123929431D01*
X147006297Y-123949919D01*
X147048820Y-123948707D01*
X147087464Y-123933017D01*
X147062641Y-123888567D01*
X147027060Y-123856070D01*
X146955378Y-123827214D01*
X146929201Y-123834283D01*
X146899034Y-123888567D01*
X146571820Y-123888567D01*
X146563812Y-123868055D01*
X146528635Y-123850711D01*
X146455255Y-123838945D01*
X146332777Y-123831767D01*
X146150305Y-123828187D01*
X145896941Y-123827214D01*
X145222061Y-123827214D01*
X145222061Y-124072625D01*
X145222061Y-124318035D01*
X145140258Y-124318035D01*
X145140258Y-124072625D01*
X145140258Y-123827214D01*
X144117714Y-123827214D01*
X143095169Y-123827214D01*
X143095169Y-124072625D01*
X143095169Y-124181963D01*
X143095169Y-124318035D01*
X143013366Y-124318035D01*
X143013366Y-124181963D01*
X143007433Y-124091694D01*
X142974277Y-124058645D01*
X142891184Y-124063823D01*
X142802264Y-124071049D01*
X142624373Y-124037384D01*
X142476089Y-123930568D01*
X142379388Y-123828627D01*
X141554274Y-123827921D01*
X140729159Y-123827214D01*
X140256521Y-123827214D01*
X138994738Y-123827214D01*
X137732955Y-123827214D01*
X137655234Y-123827214D01*
X137287118Y-123827214D01*
X136919002Y-123827214D01*
X136919002Y-124072625D01*
X136919002Y-124181963D01*
X136919002Y-124318035D01*
X136837198Y-124318035D01*
X136837198Y-124181963D01*
X136831265Y-124091694D01*
X136798110Y-124058645D01*
X136715016Y-124063823D01*
X136626096Y-124071049D01*
X136448205Y-124037384D01*
X136299921Y-123930568D01*
X136295305Y-123925711D01*
X136258348Y-123890074D01*
X136217320Y-123864421D01*
X136159264Y-123847097D01*
X136071226Y-123836442D01*
X135940250Y-123830799D01*
X135753382Y-123828511D01*
X135497665Y-123827921D01*
X134792110Y-123827214D01*
X134792110Y-124072625D01*
X134792110Y-124181963D01*
X134792110Y-124318035D01*
X134710306Y-124318035D01*
X134710306Y-124181963D01*
X134704373Y-124091694D01*
X134671217Y-124058645D01*
X134588124Y-124063823D01*
X134499204Y-124071049D01*
X134321313Y-124037384D01*
X134173029Y-123930568D01*
X134166146Y-123923335D01*
X134129583Y-123888540D01*
X134088242Y-123863502D01*
X134029285Y-123846596D01*
X133939875Y-123836201D01*
X133807173Y-123830693D01*
X133618344Y-123828449D01*
X133360548Y-123827846D01*
X132644767Y-123827065D01*
X129062061Y-123827065D01*
X128955032Y-123822869D01*
X128857707Y-123808099D01*
X128820451Y-123786312D01*
X128846518Y-123767841D01*
X128935142Y-123751620D01*
X129065862Y-123745410D01*
X129311272Y-123745410D01*
X129311272Y-123500000D01*
X129311272Y-123254589D01*
X129433978Y-123254589D01*
X129433978Y-123500000D01*
X129433978Y-123745410D01*
X130681482Y-123745410D01*
X131029157Y-123745174D01*
X131309446Y-123744122D01*
X131524796Y-123741753D01*
X131683702Y-123737565D01*
X131794663Y-123731056D01*
X131866175Y-123721725D01*
X131906734Y-123709071D01*
X131924839Y-123692592D01*
X131926059Y-123686472D01*
X132010789Y-123686472D01*
X132020056Y-123712850D01*
X132079234Y-123736841D01*
X132205073Y-123742099D01*
X132399356Y-123738789D01*
X132237214Y-123663296D01*
X132200771Y-123646873D01*
X132088223Y-123609742D01*
X132028397Y-123622583D01*
X132010789Y-123686472D01*
X131926059Y-123686472D01*
X131928986Y-123671787D01*
X131945733Y-123594894D01*
X132026560Y-123524003D01*
X132172351Y-123500153D01*
X132218749Y-123503704D01*
X132339571Y-123534601D01*
X132457831Y-123586797D01*
X132547716Y-123647497D01*
X132583414Y-123703907D01*
X132590419Y-123711088D01*
X132663301Y-123725748D01*
X132811942Y-123736513D01*
X132887495Y-123738789D01*
X133032129Y-123743146D01*
X133319646Y-123745410D01*
X133531416Y-123745105D01*
X133737551Y-123743241D01*
X133881513Y-123738703D01*
X133974316Y-123730390D01*
X134026969Y-123717201D01*
X134050486Y-123698033D01*
X134055878Y-123671787D01*
X134056679Y-123655216D01*
X134099070Y-123566292D01*
X134192620Y-123515044D01*
X134318812Y-123501198D01*
X134459128Y-123524484D01*
X134595053Y-123584628D01*
X134708068Y-123681361D01*
X134734661Y-123702616D01*
X134787913Y-123720606D01*
X134876714Y-123732912D01*
X135012622Y-123740501D01*
X135207197Y-123744345D01*
X135471997Y-123745410D01*
X135648756Y-123745196D01*
X135858602Y-123743507D01*
X136005175Y-123739147D01*
X136099676Y-123730955D01*
X136153307Y-123717772D01*
X136177271Y-123698436D01*
X136182770Y-123671787D01*
X136183571Y-123655216D01*
X136225962Y-123566292D01*
X136319512Y-123515044D01*
X136445704Y-123501198D01*
X136586020Y-123524484D01*
X136721945Y-123584628D01*
X136834960Y-123681361D01*
X136871838Y-123709268D01*
X136949066Y-123730846D01*
X137077236Y-123742144D01*
X137271675Y-123745410D01*
X137655234Y-123745410D01*
X137737037Y-123745410D01*
X140047987Y-123745410D01*
X140238259Y-123745399D01*
X140703153Y-123745194D01*
X141094798Y-123744575D01*
X141419448Y-123743343D01*
X141683362Y-123741298D01*
X141892796Y-123738243D01*
X142054006Y-123733976D01*
X142173248Y-123728300D01*
X142256781Y-123721013D01*
X142310859Y-123711918D01*
X142341740Y-123700815D01*
X142355681Y-123687505D01*
X142358937Y-123671787D01*
X142359739Y-123655216D01*
X142402129Y-123566292D01*
X142495679Y-123515044D01*
X142621871Y-123501198D01*
X142762188Y-123524484D01*
X142898112Y-123584628D01*
X143011127Y-123681361D01*
X143020634Y-123690945D01*
X143058150Y-123710888D01*
X143123671Y-123725428D01*
X143227954Y-123735359D01*
X143381756Y-123741471D01*
X143595835Y-123744558D01*
X143880947Y-123745410D01*
X144697610Y-123745410D01*
X144588096Y-123615260D01*
X144558969Y-123578787D01*
X144502757Y-123473504D01*
X144501634Y-123369850D01*
X144524686Y-123254589D01*
X145010281Y-123254589D01*
X145116171Y-123380433D01*
X145119860Y-123384878D01*
X145193153Y-123507146D01*
X145222061Y-123625843D01*
X145222061Y-123745410D01*
X145896941Y-123745410D01*
X146087786Y-123744879D01*
X146290374Y-123741914D01*
X146429446Y-123735519D01*
X146515627Y-123724765D01*
X146559543Y-123708726D01*
X146571820Y-123686472D01*
X146571906Y-123680838D01*
X146600671Y-123611519D01*
X146673303Y-123603668D01*
X146778561Y-123658790D01*
X146793141Y-123669447D01*
X146873282Y-123723427D01*
X146917427Y-123745410D01*
X146918611Y-123744630D01*
X146900898Y-123705595D01*
X146846546Y-123619364D01*
X146765701Y-123502205D01*
X146612999Y-123288067D01*
X147062641Y-123288067D01*
X147067605Y-123317747D01*
X147090562Y-123409816D01*
X147125889Y-123534523D01*
X147188283Y-123744630D01*
X147189136Y-123747501D01*
X148046179Y-123743717D01*
X148903221Y-123739932D01*
X148903221Y-123500000D01*
X148985024Y-123500000D01*
X148985024Y-123745410D01*
X149731482Y-123745257D01*
X150477939Y-123745104D01*
X150488906Y-123718429D01*
X150801091Y-123718429D01*
X150840876Y-123741432D01*
X150942826Y-123745410D01*
X151000783Y-123743291D01*
X151100351Y-123715468D01*
X151169508Y-123643156D01*
X151236386Y-123573234D01*
X151358270Y-123540902D01*
X151358941Y-123540901D01*
X151444486Y-123530686D01*
X151480032Y-123506339D01*
X151475356Y-123484962D01*
X151419091Y-123416843D01*
X151320399Y-123352920D01*
X151206258Y-123312314D01*
X151118126Y-123303400D01*
X150980638Y-123340580D01*
X150878684Y-123449821D01*
X150810032Y-123632930D01*
X150803867Y-123659795D01*
X150801091Y-123718429D01*
X150488906Y-123718429D01*
X150549695Y-123570565D01*
X150569411Y-123528172D01*
X150648031Y-123408071D01*
X150733753Y-123326396D01*
X150765024Y-123305171D01*
X150777088Y-123287911D01*
X150759036Y-123275288D01*
X150702255Y-123266558D01*
X150598130Y-123260977D01*
X150438045Y-123257800D01*
X150213387Y-123256281D01*
X149915540Y-123255677D01*
X148985024Y-123254589D01*
X151363620Y-123254589D01*
X151396942Y-123287911D01*
X151483670Y-123374640D01*
X151501832Y-123393920D01*
X151581362Y-123506339D01*
X151582908Y-123508525D01*
X151628793Y-123620050D01*
X151645257Y-123685483D01*
X151677595Y-123726550D01*
X151746152Y-123742639D01*
X151873712Y-123745410D01*
X152093559Y-123745410D01*
X152093559Y-123500000D01*
X152093559Y-123254589D01*
X151728589Y-123254589D01*
X151363620Y-123254589D01*
X148985024Y-123254589D01*
X148985024Y-123497261D01*
X148985024Y-123500000D01*
X148903221Y-123500000D01*
X148903221Y-123497261D01*
X148903221Y-123254589D01*
X147982931Y-123254589D01*
X147844656Y-123254969D01*
X147593914Y-123257746D01*
X147378798Y-123262865D01*
X147210851Y-123269904D01*
X147101618Y-123278445D01*
X147062641Y-123288067D01*
X146612999Y-123288067D01*
X146592271Y-123258999D01*
X145801276Y-123256794D01*
X145010281Y-123254589D01*
X144524686Y-123254589D01*
X141130862Y-123254589D01*
X137737037Y-123254589D01*
X137737037Y-123500000D01*
X137737037Y-123745410D01*
X137655234Y-123745410D01*
X137655234Y-123500000D01*
X137655234Y-123254589D01*
X133544606Y-123254589D01*
X129433978Y-123254589D01*
X129311272Y-123254589D01*
X129065862Y-123254589D01*
X128955032Y-123250245D01*
X128857707Y-123235474D01*
X128820451Y-123213687D01*
X128846518Y-123195216D01*
X128935142Y-123178995D01*
X129065862Y-123172786D01*
X129311272Y-123172786D01*
X129311272Y-121925282D01*
X129311272Y-120677778D01*
X129433978Y-120677778D01*
X129433978Y-121925282D01*
X129433978Y-123172786D01*
X133545205Y-123172786D01*
X137656433Y-123172786D01*
X137735838Y-123172786D01*
X143319529Y-123172786D01*
X143911481Y-123172746D01*
X144648549Y-123172544D01*
X145310609Y-123172131D01*
X145901575Y-123171465D01*
X146425364Y-123170502D01*
X146885892Y-123169200D01*
X147287074Y-123167516D01*
X147632827Y-123165405D01*
X147927066Y-123162827D01*
X148173707Y-123159736D01*
X148376667Y-123156091D01*
X148539860Y-123151849D01*
X148667203Y-123146966D01*
X148762612Y-123141399D01*
X148830002Y-123135105D01*
X148873290Y-123128041D01*
X148896391Y-123120165D01*
X148903221Y-123111433D01*
X148907835Y-123083209D01*
X148944123Y-123050080D01*
X148962939Y-123057002D01*
X148985024Y-123111433D01*
X148985322Y-123114881D01*
X148997379Y-123130128D01*
X149032437Y-123142496D01*
X149097846Y-123152272D01*
X149200958Y-123159749D01*
X149349121Y-123165216D01*
X149549686Y-123168963D01*
X149810003Y-123171280D01*
X150137422Y-123172458D01*
X150539292Y-123172786D01*
X152093559Y-123172786D01*
X152093559Y-121925282D01*
X152093559Y-120677778D01*
X151402999Y-120677778D01*
X151176994Y-120677452D01*
X150974548Y-120679582D01*
X150833511Y-120690085D01*
X150742828Y-120714915D01*
X150691445Y-120760025D01*
X150668308Y-120831368D01*
X150662363Y-120934899D01*
X150662555Y-121076570D01*
X150665900Y-121155495D01*
X150708350Y-121320368D01*
X150798310Y-121420908D01*
X150934198Y-121454911D01*
X150998474Y-121452804D01*
X151016957Y-121432916D01*
X150969987Y-121374463D01*
X150929626Y-121319178D01*
X150895237Y-121194117D01*
X150927265Y-121079787D01*
X151016642Y-120996380D01*
X151154296Y-120964090D01*
X151155128Y-120964091D01*
X151277213Y-120998359D01*
X151359958Y-121085682D01*
X151396571Y-121204177D01*
X151380260Y-121331961D01*
X151304234Y-121447152D01*
X151185670Y-121525633D01*
X151003387Y-121566334D01*
X150804856Y-121536617D01*
X150683902Y-121472301D01*
X150594898Y-121352483D01*
X150555086Y-121176729D01*
X150561804Y-120938483D01*
X150589723Y-120677778D01*
X147905892Y-120677778D01*
X145222061Y-120677778D01*
X145222061Y-120943639D01*
X145217167Y-121072428D01*
X145202533Y-121171937D01*
X145181160Y-121209501D01*
X145161346Y-121177686D01*
X145146037Y-121082568D01*
X145140258Y-120943639D01*
X145140258Y-120677778D01*
X144117714Y-120677778D01*
X143095169Y-120677778D01*
X143095169Y-120943639D01*
X143090275Y-121072428D01*
X143075641Y-121171937D01*
X143054267Y-121209501D01*
X143034454Y-121177686D01*
X143019145Y-121082568D01*
X143013366Y-120943639D01*
X143013366Y-120677778D01*
X141990821Y-120677778D01*
X140968277Y-120677778D01*
X140968277Y-120882286D01*
X140965517Y-120955954D01*
X140950707Y-121050009D01*
X140927375Y-121086795D01*
X140912588Y-121072855D01*
X140893814Y-120998620D01*
X140886474Y-120881800D01*
X140886474Y-120676805D01*
X139321981Y-120687517D01*
X137757488Y-120698228D01*
X137746663Y-121935507D01*
X137735838Y-123172786D01*
X137656433Y-123172786D01*
X137645608Y-121935507D01*
X137634783Y-120698228D01*
X135150000Y-120687686D01*
X132665218Y-120677144D01*
X132665218Y-120943322D01*
X132660315Y-121072392D01*
X132645683Y-121171932D01*
X132624316Y-121209501D01*
X132604502Y-121177686D01*
X132589193Y-121082568D01*
X132583414Y-120943639D01*
X132583414Y-120677778D01*
X131008696Y-120677778D01*
X129433978Y-120677778D01*
X129311272Y-120677778D01*
X129065862Y-120677778D01*
X128955032Y-120673433D01*
X128857707Y-120658662D01*
X128820451Y-120636876D01*
X128846518Y-120618404D01*
X128935142Y-120602183D01*
X129065862Y-120595974D01*
X129311272Y-120595974D01*
X129311272Y-120350563D01*
X129433978Y-120350563D01*
X129433978Y-120595974D01*
X131008696Y-120595974D01*
X132583414Y-120595974D01*
X132583414Y-120350893D01*
X132665218Y-120350893D01*
X132665218Y-120595974D01*
X135162267Y-120595974D01*
X137659316Y-120595974D01*
X137732955Y-120595974D01*
X139309714Y-120595974D01*
X140886474Y-120595974D01*
X140886474Y-120350563D01*
X140968277Y-120350563D01*
X140968277Y-120595974D01*
X141990821Y-120595974D01*
X143013366Y-120595974D01*
X143095169Y-120595974D01*
X144117714Y-120595974D01*
X145140258Y-120595974D01*
X145222061Y-120595974D01*
X145794686Y-120595974D01*
X145795215Y-120595974D01*
X146034021Y-120593135D01*
X146214077Y-120585008D01*
X146327726Y-120572138D01*
X146367311Y-120555072D01*
X146392698Y-120528172D01*
X146469565Y-120514170D01*
X146547854Y-120496514D01*
X146571820Y-120432367D01*
X146899034Y-120432367D01*
X146921104Y-120494998D01*
X147001288Y-120514170D01*
X147068540Y-120524325D01*
X147103543Y-120555072D01*
X147122215Y-120562791D01*
X147217289Y-120572769D01*
X147391384Y-120581020D01*
X147642852Y-120587504D01*
X147970044Y-120592184D01*
X148371312Y-120595020D01*
X148845006Y-120595974D01*
X150586470Y-120595974D01*
X150586106Y-120595668D01*
X151173269Y-120595668D01*
X151633414Y-120595821D01*
X152093559Y-120595974D01*
X152093559Y-120350563D01*
X152093559Y-120105153D01*
X151878825Y-120106705D01*
X151781546Y-120109236D01*
X151689628Y-120126655D01*
X151675644Y-120136954D01*
X151623865Y-120175088D01*
X151551541Y-120270955D01*
X151521218Y-120311645D01*
X151413262Y-120428824D01*
X151306131Y-120514661D01*
X151173269Y-120595668D01*
X150586106Y-120595668D01*
X150455065Y-120485404D01*
X150437198Y-120469604D01*
X150337503Y-120356809D01*
X150267320Y-120239993D01*
X150237738Y-120169194D01*
X150416586Y-120169194D01*
X150436134Y-120257942D01*
X150490270Y-120367154D01*
X150555640Y-120441966D01*
X150595146Y-120464094D01*
X150646589Y-120458981D01*
X150652448Y-120430454D01*
X150756652Y-120430454D01*
X150761845Y-120502198D01*
X150792638Y-120530848D01*
X150881968Y-120543568D01*
X151002268Y-120526803D01*
X151128718Y-120484764D01*
X151236499Y-120421662D01*
X151282679Y-120377346D01*
X151355181Y-120288592D01*
X151414539Y-120198333D01*
X151439131Y-120136954D01*
X151437029Y-120123147D01*
X151395526Y-120098114D01*
X151319238Y-120112471D01*
X151232410Y-120158345D01*
X151159286Y-120227858D01*
X151071427Y-120314603D01*
X150977761Y-120348418D01*
X150886957Y-120346273D01*
X150978986Y-120282076D01*
X151032599Y-120237675D01*
X151072016Y-120167910D01*
X151040079Y-120122124D01*
X150939681Y-120112787D01*
X150936431Y-120113109D01*
X150850501Y-120131721D01*
X150845849Y-120136759D01*
X150804588Y-120181448D01*
X150774951Y-120287464D01*
X150769104Y-120318434D01*
X150756652Y-120430454D01*
X150652448Y-120430454D01*
X150662555Y-120381240D01*
X150666924Y-120315637D01*
X150687777Y-120197182D01*
X150695445Y-120136759D01*
X150660976Y-120110617D01*
X150564513Y-120105153D01*
X150532429Y-120105774D01*
X150443313Y-120123284D01*
X150416586Y-120169194D01*
X150237738Y-120169194D01*
X150210980Y-120105153D01*
X149289955Y-120105153D01*
X149051122Y-120105565D01*
X148803001Y-120107672D01*
X148619839Y-120112117D01*
X148492085Y-120119512D01*
X148410191Y-120130466D01*
X148364604Y-120145590D01*
X148345775Y-120165494D01*
X148328572Y-120196680D01*
X148288733Y-120202552D01*
X148205934Y-120165494D01*
X148102131Y-120132577D01*
X147927372Y-120111868D01*
X147679221Y-120105153D01*
X147269195Y-120105153D01*
X147290356Y-120210956D01*
X147293736Y-120227858D01*
X147318277Y-120350563D01*
X147108656Y-120350563D01*
X147053245Y-120351030D01*
X146954292Y-120359250D01*
X146909529Y-120383771D01*
X146899034Y-120432367D01*
X146571820Y-120432367D01*
X146549749Y-120369736D01*
X146469565Y-120350563D01*
X146402867Y-120338555D01*
X146367311Y-120289211D01*
X146387325Y-120249192D01*
X146469565Y-120227858D01*
X146536264Y-120215850D01*
X146571820Y-120166505D01*
X146899034Y-120166505D01*
X146920315Y-120207370D01*
X147006297Y-120227858D01*
X147048820Y-120226646D01*
X147087464Y-120210956D01*
X147062641Y-120166505D01*
X147027060Y-120134008D01*
X146955378Y-120105153D01*
X146929201Y-120112222D01*
X146899034Y-120166505D01*
X146571820Y-120166505D01*
X146563812Y-120145994D01*
X146528635Y-120128650D01*
X146455255Y-120116884D01*
X146332777Y-120109706D01*
X146150305Y-120106126D01*
X145896941Y-120105153D01*
X145222061Y-120105153D01*
X145222061Y-120350563D01*
X145222061Y-120595974D01*
X145140258Y-120595974D01*
X145140258Y-120350563D01*
X145140258Y-120105153D01*
X144117714Y-120105153D01*
X143095169Y-120105153D01*
X143095169Y-120350563D01*
X143095169Y-120595974D01*
X143013366Y-120595974D01*
X143013366Y-120350563D01*
X143013366Y-120105153D01*
X141990821Y-120105153D01*
X140968277Y-120105153D01*
X140968277Y-120350077D01*
X140968277Y-120350563D01*
X140886474Y-120350563D01*
X140886474Y-120350077D01*
X140886474Y-120104181D01*
X139321981Y-120114892D01*
X137757488Y-120125604D01*
X137745221Y-120360789D01*
X137732955Y-120595974D01*
X137659316Y-120595974D01*
X137647049Y-120360789D01*
X137634783Y-120125604D01*
X135150000Y-120115708D01*
X132665218Y-120105812D01*
X132665218Y-120350563D01*
X132665218Y-120350893D01*
X132583414Y-120350893D01*
X132583414Y-120350563D01*
X132583414Y-120105153D01*
X131008696Y-120105153D01*
X129433978Y-120105153D01*
X129433978Y-120350563D01*
X129311272Y-120350563D01*
X129311272Y-120105153D01*
X129065862Y-120105153D01*
X128955032Y-120100808D01*
X128857707Y-120086038D01*
X128820451Y-120064251D01*
X128846518Y-120045779D01*
X128935142Y-120029558D01*
X129065862Y-120023349D01*
X129311272Y-120023349D01*
X129311272Y-119798389D01*
X129311272Y-119573430D01*
X129433978Y-119573430D01*
X129433978Y-119798389D01*
X129433978Y-120023349D01*
X131008696Y-120023349D01*
X132583414Y-120023349D01*
X132583414Y-119909788D01*
X132583237Y-119888701D01*
X132572333Y-119827128D01*
X132527462Y-119806213D01*
X132425106Y-119811325D01*
X132314972Y-119808286D01*
X132170615Y-119771832D01*
X132050689Y-119709416D01*
X131983858Y-119632644D01*
X131967827Y-119616340D01*
X131926421Y-119602718D01*
X131867718Y-119594451D01*
X132153945Y-119594451D01*
X132312322Y-119665744D01*
X132421620Y-119713944D01*
X132480718Y-119731477D01*
X132508900Y-119717855D01*
X132528398Y-119673920D01*
X132539247Y-119638085D01*
X132528120Y-119594035D01*
X132463562Y-119577260D01*
X132332035Y-119581381D01*
X132153945Y-119594451D01*
X131867718Y-119594451D01*
X131851833Y-119592214D01*
X131735960Y-119584457D01*
X131570698Y-119579073D01*
X131347945Y-119575689D01*
X131059599Y-119573932D01*
X130697556Y-119573430D01*
X129433978Y-119573430D01*
X129311272Y-119573430D01*
X129065862Y-119573430D01*
X129063005Y-119573318D01*
X132644767Y-119573318D01*
X132648800Y-119638085D01*
X132658778Y-119798334D01*
X132665717Y-119909788D01*
X132672788Y-120023349D01*
X133447730Y-120023349D01*
X134222672Y-120023349D01*
X134143163Y-119938006D01*
X134079372Y-119836841D01*
X134037462Y-119713047D01*
X134011269Y-119573430D01*
X134552992Y-119573430D01*
X134677059Y-119697497D01*
X134705190Y-119726881D01*
X134773808Y-119828250D01*
X134781839Y-119922456D01*
X134762552Y-120023349D01*
X135556058Y-120023349D01*
X136349564Y-120023349D01*
X136266167Y-119933833D01*
X136212275Y-119847221D01*
X136182770Y-119708873D01*
X136182770Y-119573430D01*
X136679884Y-119573430D01*
X136803951Y-119697497D01*
X136832082Y-119726881D01*
X136900700Y-119828250D01*
X136908731Y-119922456D01*
X136889444Y-120023349D01*
X137272339Y-120023349D01*
X137655234Y-120023349D01*
X137737037Y-120023349D01*
X139311755Y-120023349D01*
X140886474Y-120023349D01*
X140968277Y-120023349D01*
X141990821Y-120023349D01*
X143013366Y-120023349D01*
X143095169Y-120023349D01*
X144117714Y-120023349D01*
X145140258Y-120023349D01*
X145222061Y-120023349D01*
X145896941Y-120023349D01*
X146087786Y-120022817D01*
X146290374Y-120019853D01*
X146429446Y-120013457D01*
X146515627Y-120002704D01*
X146559543Y-119986664D01*
X146571820Y-119964410D01*
X146571906Y-119958777D01*
X146600671Y-119889458D01*
X146673303Y-119881606D01*
X146778561Y-119936729D01*
X146837280Y-119978824D01*
X146899704Y-120014822D01*
X146909858Y-119999169D01*
X146867587Y-119928235D01*
X146772740Y-119798389D01*
X146612729Y-119586457D01*
X147062641Y-119586457D01*
X147067798Y-119608971D01*
X147090651Y-119691598D01*
X147125578Y-119811417D01*
X147181334Y-119999169D01*
X147188515Y-120023349D01*
X147593862Y-120023349D01*
X147999208Y-120023349D01*
X147936797Y-119873979D01*
X147927298Y-119849739D01*
X147907097Y-119774363D01*
X148060581Y-119774363D01*
X148092045Y-119886903D01*
X148152722Y-119971527D01*
X148224560Y-120016804D01*
X148247021Y-120020115D01*
X148280520Y-120008949D01*
X148288248Y-119955259D01*
X148275693Y-119840079D01*
X148259961Y-119737638D01*
X148233847Y-119635015D01*
X148198289Y-119585977D01*
X148144903Y-119573430D01*
X148330596Y-119573430D01*
X148330596Y-119798389D01*
X148330596Y-119955259D01*
X148330596Y-120023349D01*
X149291788Y-120023349D01*
X150252979Y-120023349D01*
X150252979Y-119993769D01*
X150436466Y-119993769D01*
X150461329Y-120018282D01*
X150551486Y-120023349D01*
X150560865Y-120023287D01*
X150660470Y-120014717D01*
X150716533Y-119996081D01*
X150729672Y-119972222D01*
X150828479Y-119972222D01*
X150858858Y-120008343D01*
X150948309Y-120023349D01*
X150997639Y-120019339D01*
X151063427Y-119983058D01*
X151058160Y-119919440D01*
X150979637Y-119841279D01*
X150930408Y-119809106D01*
X150887386Y-119801966D01*
X150859807Y-119849185D01*
X150847010Y-119886629D01*
X150845389Y-119891373D01*
X150828479Y-119972222D01*
X150729672Y-119972222D01*
X150734079Y-119964220D01*
X150743532Y-119886629D01*
X150731274Y-119811586D01*
X150700210Y-119777939D01*
X150640535Y-119790120D01*
X150535159Y-119852147D01*
X150456986Y-119942483D01*
X150436466Y-119993769D01*
X150252979Y-119993769D01*
X150252979Y-119924233D01*
X150254264Y-119907313D01*
X150289809Y-119805482D01*
X150358870Y-119699273D01*
X150442971Y-119599325D01*
X151087511Y-119599325D01*
X151127989Y-119650396D01*
X151133416Y-119656690D01*
X151191973Y-119753958D01*
X151238506Y-119875355D01*
X151244955Y-119897386D01*
X151287348Y-119983058D01*
X151292728Y-119993930D01*
X151359250Y-120023349D01*
X151405297Y-120017926D01*
X151443841Y-119992673D01*
X151446215Y-119967880D01*
X151433813Y-119834367D01*
X151391315Y-119685910D01*
X151366959Y-119634615D01*
X151326942Y-119600955D01*
X151657885Y-119600955D01*
X151659714Y-119638128D01*
X151663290Y-119649117D01*
X151678407Y-119741918D01*
X151684541Y-119863087D01*
X151684541Y-119967880D01*
X151684541Y-120023349D01*
X151889050Y-120023349D01*
X152093559Y-120023349D01*
X152093559Y-119798389D01*
X152093559Y-119573430D01*
X151864223Y-119573430D01*
X151800144Y-119573969D01*
X151699430Y-119581234D01*
X151657885Y-119600955D01*
X151326942Y-119600955D01*
X151308545Y-119585480D01*
X151202869Y-119573430D01*
X151182946Y-119573461D01*
X151101632Y-119577994D01*
X151087511Y-119599325D01*
X150442971Y-119599325D01*
X150464760Y-119573430D01*
X150031655Y-119573430D01*
X149598551Y-119573430D01*
X149598551Y-119682023D01*
X149598551Y-119757488D01*
X149596624Y-119812501D01*
X149581607Y-119904990D01*
X149556573Y-119941546D01*
X149514988Y-119919726D01*
X149432379Y-119853171D01*
X149330537Y-119757488D01*
X149181041Y-119607992D01*
X149353140Y-119607992D01*
X149374029Y-119649903D01*
X149434944Y-119716586D01*
X149486053Y-119759860D01*
X149512537Y-119756825D01*
X149516747Y-119682023D01*
X149516695Y-119675109D01*
X149497691Y-119595783D01*
X149434944Y-119573430D01*
X149387452Y-119579894D01*
X149353140Y-119607992D01*
X149181041Y-119607992D01*
X149146479Y-119573430D01*
X148738537Y-119573430D01*
X148330596Y-119573430D01*
X148144903Y-119573430D01*
X148101326Y-119592442D01*
X148065174Y-119667316D01*
X148060581Y-119774363D01*
X147907097Y-119774363D01*
X147896448Y-119734631D01*
X147894153Y-119649019D01*
X147895737Y-119642552D01*
X147895506Y-119610854D01*
X147868365Y-119590648D01*
X147800595Y-119579378D01*
X147678474Y-119574491D01*
X147488280Y-119573430D01*
X147354363Y-119574094D01*
X147203612Y-119576793D01*
X147100713Y-119581087D01*
X147062641Y-119586457D01*
X146612729Y-119586457D01*
X146602893Y-119573430D01*
X145912477Y-119573430D01*
X145222061Y-119573430D01*
X145222061Y-119798389D01*
X145222061Y-119910575D01*
X145222061Y-120023349D01*
X145140258Y-120023349D01*
X145140258Y-119910575D01*
X145139448Y-119872021D01*
X145124319Y-119822612D01*
X145072553Y-119806717D01*
X144961806Y-119811993D01*
X144842256Y-119812753D01*
X144745650Y-119780530D01*
X144639418Y-119699808D01*
X144495481Y-119573430D01*
X143795325Y-119573430D01*
X143095169Y-119573430D01*
X143095169Y-119798389D01*
X143095169Y-119907728D01*
X143095169Y-120023349D01*
X143013366Y-120023349D01*
X143013366Y-119907728D01*
X143009088Y-119841799D01*
X142976977Y-119805670D01*
X142891184Y-119810039D01*
X142802264Y-119817265D01*
X142624373Y-119783600D01*
X142476089Y-119676784D01*
X142471472Y-119671927D01*
X142434516Y-119636289D01*
X142393487Y-119610637D01*
X142335431Y-119593312D01*
X142247394Y-119582658D01*
X142116418Y-119577015D01*
X141929549Y-119574727D01*
X141673833Y-119574136D01*
X140968277Y-119573430D01*
X140968277Y-119798389D01*
X140968277Y-120023349D01*
X140886474Y-120023349D01*
X140886474Y-119798389D01*
X140886474Y-119573430D01*
X139311755Y-119573430D01*
X137737037Y-119573430D01*
X137737037Y-119798389D01*
X137737037Y-120023349D01*
X137655234Y-120023349D01*
X137655234Y-119798389D01*
X137655234Y-119573430D01*
X137167559Y-119573430D01*
X136679884Y-119573430D01*
X136182770Y-119573430D01*
X135367881Y-119573430D01*
X134552992Y-119573430D01*
X134011269Y-119573430D01*
X133328018Y-119573374D01*
X132644767Y-119573318D01*
X129063005Y-119573318D01*
X128955032Y-119569085D01*
X128857707Y-119554315D01*
X128820451Y-119532528D01*
X128846518Y-119514056D01*
X128935142Y-119497835D01*
X129065862Y-119491626D01*
X129311272Y-119491626D01*
X129311272Y-119246216D01*
X129311272Y-119000805D01*
X129433978Y-119000805D01*
X129433978Y-119246216D01*
X129433978Y-119491626D01*
X130658799Y-119491626D01*
X131883620Y-119491626D01*
X131911729Y-119432687D01*
X132010789Y-119432687D01*
X132020056Y-119459066D01*
X132079234Y-119483057D01*
X132205073Y-119488315D01*
X132399356Y-119485004D01*
X132237214Y-119409512D01*
X132200771Y-119393089D01*
X132088223Y-119355958D01*
X132028397Y-119368799D01*
X132010789Y-119432687D01*
X131911729Y-119432687D01*
X131937264Y-119379146D01*
X132017570Y-119292408D01*
X132142742Y-119252167D01*
X132290205Y-119259726D01*
X132438544Y-119313914D01*
X132566345Y-119413560D01*
X132578283Y-119425848D01*
X132614652Y-119451377D01*
X132669412Y-119469342D01*
X132755245Y-119481046D01*
X132831264Y-119485004D01*
X132884830Y-119487793D01*
X133070850Y-119490885D01*
X133325985Y-119491626D01*
X134014976Y-119491626D01*
X134096780Y-119491626D01*
X135112507Y-119491626D01*
X135331196Y-119490989D01*
X135591351Y-119488431D01*
X135815244Y-119484191D01*
X135991490Y-119478567D01*
X136108705Y-119471857D01*
X136155502Y-119464358D01*
X136165863Y-119437544D01*
X136178028Y-119346239D01*
X136181754Y-119246216D01*
X136223672Y-119246216D01*
X136223672Y-119491626D01*
X136912185Y-119491626D01*
X137085615Y-119490753D01*
X137294694Y-119487119D01*
X137464152Y-119481151D01*
X137579929Y-119473386D01*
X137627966Y-119464358D01*
X137638327Y-119437544D01*
X137650492Y-119346239D01*
X137655234Y-119218948D01*
X137655234Y-119000805D01*
X137732955Y-119000805D01*
X137744332Y-119218948D01*
X137745221Y-119235990D01*
X137757488Y-119471175D01*
X139103165Y-119481967D01*
X140448843Y-119492760D01*
X140337020Y-119380937D01*
X140305616Y-119347618D01*
X140246574Y-119249217D01*
X140242495Y-119167666D01*
X140325005Y-119167666D01*
X140400155Y-119252295D01*
X140555978Y-119346807D01*
X140635303Y-119387130D01*
X140722288Y-119429312D01*
X140771178Y-119444114D01*
X140804291Y-119436565D01*
X140843945Y-119411693D01*
X140868780Y-119392505D01*
X140874609Y-119352063D01*
X140823495Y-119283676D01*
X140748529Y-119217577D01*
X140633223Y-119146369D01*
X140511420Y-119092050D01*
X140407284Y-119065107D01*
X140344975Y-119076023D01*
X140330731Y-119093181D01*
X140325005Y-119167666D01*
X140242495Y-119167666D01*
X140240859Y-119134960D01*
X140256521Y-119000805D01*
X140729159Y-119000805D01*
X140848718Y-119120364D01*
X140928893Y-119222972D01*
X140964495Y-119352063D01*
X140968277Y-119365775D01*
X140968277Y-119491626D01*
X141663607Y-119491626D01*
X141818849Y-119491460D01*
X142031053Y-119489880D01*
X142179285Y-119485634D01*
X142274867Y-119477522D01*
X142329121Y-119464345D01*
X142353370Y-119444905D01*
X142358937Y-119418003D01*
X142359739Y-119401431D01*
X142402129Y-119312508D01*
X142495679Y-119261259D01*
X142621871Y-119247414D01*
X142762188Y-119270699D01*
X142898112Y-119330844D01*
X143011127Y-119427577D01*
X143036918Y-119448411D01*
X143089668Y-119466576D01*
X143177817Y-119479002D01*
X143312962Y-119486667D01*
X143506699Y-119490549D01*
X143770623Y-119491626D01*
X144476961Y-119491626D01*
X144502469Y-119389995D01*
X144511594Y-119363909D01*
X144585002Y-119287289D01*
X144702139Y-119251588D01*
X144841407Y-119256806D01*
X144981208Y-119302943D01*
X145099944Y-119389998D01*
X145115683Y-119406471D01*
X145155872Y-119441558D01*
X145204910Y-119465385D01*
X145277388Y-119480130D01*
X145387895Y-119487967D01*
X145551024Y-119491074D01*
X145781365Y-119491626D01*
X145792772Y-119491621D01*
X146032988Y-119488624D01*
X146213770Y-119480463D01*
X146327687Y-119467657D01*
X146367311Y-119450724D01*
X146392698Y-119423824D01*
X146469565Y-119409823D01*
X146547854Y-119392166D01*
X146571820Y-119328019D01*
X146899034Y-119328019D01*
X146921104Y-119390650D01*
X147001288Y-119409823D01*
X147068559Y-119420731D01*
X147103543Y-119453731D01*
X147131845Y-119470885D01*
X147235101Y-119483345D01*
X147415885Y-119488208D01*
X147676168Y-119485585D01*
X148248792Y-119473530D01*
X148248792Y-119263737D01*
X148335183Y-119263737D01*
X148337275Y-119373788D01*
X148338957Y-119385006D01*
X148351409Y-119426070D01*
X148383082Y-119452253D01*
X148449617Y-119467692D01*
X148566656Y-119476523D01*
X148749839Y-119482882D01*
X149086356Y-119492760D01*
X149148631Y-119494588D01*
X149148631Y-119412237D01*
X149312238Y-119412237D01*
X149333835Y-119472004D01*
X149414493Y-119491626D01*
X149460003Y-119483630D01*
X149513137Y-119433709D01*
X149512611Y-119365608D01*
X149451704Y-119311812D01*
X149410171Y-119300808D01*
X149337934Y-119323558D01*
X149312238Y-119412237D01*
X149148631Y-119412237D01*
X149148631Y-119391796D01*
X149162550Y-119322016D01*
X149220189Y-119246216D01*
X149598551Y-119246216D01*
X149598551Y-119433709D01*
X149598551Y-119491626D01*
X150189213Y-119491626D01*
X150276567Y-119491291D01*
X150477024Y-119487776D01*
X150640632Y-119481044D01*
X150752407Y-119471850D01*
X150781396Y-119464822D01*
X150926698Y-119464822D01*
X150968448Y-119488147D01*
X151072037Y-119491626D01*
X151107776Y-119490713D01*
X151198342Y-119477759D01*
X151234622Y-119454360D01*
X151209670Y-119413883D01*
X151147402Y-119348136D01*
X151071091Y-119278797D01*
X151004026Y-119226996D01*
X150969499Y-119213858D01*
X150968772Y-119215025D01*
X150954581Y-119264750D01*
X150934756Y-119358695D01*
X150926821Y-119402321D01*
X150926698Y-119464822D01*
X150781396Y-119464822D01*
X150797367Y-119460950D01*
X150822344Y-119387658D01*
X150842796Y-119268564D01*
X150851043Y-119148586D01*
X150842502Y-119067648D01*
X150831191Y-119049007D01*
X150796322Y-119028203D01*
X150728830Y-119014275D01*
X150616422Y-119005929D01*
X150446810Y-119001870D01*
X150207701Y-119000805D01*
X151268650Y-119000805D01*
X151384484Y-119148586D01*
X151388874Y-119154187D01*
X151421348Y-119196640D01*
X151502304Y-119310675D01*
X151557357Y-119399597D01*
X151577604Y-119432493D01*
X151605348Y-119454360D01*
X151625489Y-119470235D01*
X151708385Y-119487501D01*
X151849587Y-119491626D01*
X152093559Y-119491626D01*
X152093559Y-119246216D01*
X152093559Y-119000805D01*
X151681104Y-119000805D01*
X151268650Y-119000805D01*
X150207701Y-119000805D01*
X149598551Y-119000805D01*
X149598551Y-119124949D01*
X149598551Y-119246216D01*
X149220189Y-119246216D01*
X149229728Y-119233671D01*
X149328596Y-119188326D01*
X149432201Y-119203846D01*
X149482133Y-119225829D01*
X149510930Y-119208242D01*
X149516747Y-119124949D01*
X149516747Y-119000805D01*
X149253300Y-119000805D01*
X149124731Y-119006137D01*
X149014862Y-119022179D01*
X148962371Y-119045271D01*
X148939796Y-119067616D01*
X148890424Y-119045271D01*
X148850944Y-119026913D01*
X148746634Y-119008097D01*
X148610581Y-119000805D01*
X148586680Y-119000812D01*
X148464064Y-119003762D01*
X148398209Y-119020024D01*
X148367258Y-119061127D01*
X148349353Y-119138603D01*
X148338192Y-119237167D01*
X148335183Y-119263737D01*
X148248792Y-119263737D01*
X148248792Y-119237167D01*
X148248792Y-119000805D01*
X147729340Y-119000805D01*
X147570245Y-119001562D01*
X147402049Y-119005813D01*
X147300190Y-119014649D01*
X147255540Y-119029023D01*
X147258970Y-119049887D01*
X147282156Y-119081863D01*
X147289219Y-119106608D01*
X147308052Y-119172592D01*
X147307799Y-119181066D01*
X147289221Y-119221860D01*
X147227525Y-119241277D01*
X147103543Y-119246216D01*
X147056240Y-119246566D01*
X146955503Y-119254482D01*
X146909801Y-119278953D01*
X146899034Y-119328019D01*
X146571820Y-119328019D01*
X146549749Y-119265388D01*
X146469565Y-119246216D01*
X146402867Y-119234207D01*
X146367311Y-119184863D01*
X146387325Y-119144844D01*
X146469565Y-119123510D01*
X146536264Y-119111502D01*
X146571820Y-119062158D01*
X146899034Y-119062158D01*
X146920315Y-119103022D01*
X147006297Y-119123510D01*
X147048820Y-119122298D01*
X147087464Y-119106608D01*
X147062641Y-119062158D01*
X147027060Y-119029661D01*
X146955378Y-119000805D01*
X146929201Y-119007874D01*
X146899034Y-119062158D01*
X146571820Y-119062158D01*
X146567749Y-119053071D01*
X146547013Y-119042438D01*
X146503834Y-119033323D01*
X146432816Y-119025615D01*
X146328562Y-119019199D01*
X146185677Y-119013962D01*
X145998763Y-119009791D01*
X145762425Y-119006573D01*
X145471265Y-119004194D01*
X145119889Y-119002542D01*
X144702898Y-119001501D01*
X144214897Y-119000960D01*
X143650489Y-119000805D01*
X140729159Y-119000805D01*
X140256521Y-119000805D01*
X138994738Y-119000805D01*
X137732955Y-119000805D01*
X137655234Y-119000805D01*
X136939453Y-119000805D01*
X136223672Y-119000805D01*
X136223672Y-119218948D01*
X136223672Y-119246216D01*
X136181754Y-119246216D01*
X136182770Y-119218948D01*
X136182770Y-119000805D01*
X135139775Y-119000805D01*
X134096780Y-119000805D01*
X134096780Y-119246216D01*
X134096780Y-119491626D01*
X134014976Y-119491626D01*
X134014976Y-119246216D01*
X134014976Y-119000805D01*
X131724477Y-119000805D01*
X129433978Y-119000805D01*
X129311272Y-119000805D01*
X129065862Y-119000805D01*
X128955032Y-118996460D01*
X128857707Y-118981690D01*
X128820451Y-118959903D01*
X128846518Y-118941432D01*
X128935142Y-118925211D01*
X129065862Y-118919001D01*
X129311272Y-118919001D01*
X129311272Y-118673591D01*
X129433978Y-118673591D01*
X129433978Y-118919001D01*
X131724477Y-118919001D01*
X134014976Y-118919001D01*
X134096780Y-118919001D01*
X135139775Y-118919001D01*
X136182770Y-118919001D01*
X136223672Y-118919001D01*
X136939453Y-118919001D01*
X137655234Y-118919001D01*
X137737037Y-118919001D01*
X142154428Y-118919001D01*
X142423946Y-118918987D01*
X143100119Y-118918787D01*
X143700422Y-118918304D01*
X144229188Y-118917482D01*
X144690749Y-118916262D01*
X145089440Y-118914586D01*
X145429593Y-118912398D01*
X145715543Y-118909638D01*
X145951623Y-118906249D01*
X146142166Y-118902174D01*
X146291505Y-118897354D01*
X146403974Y-118891732D01*
X146483907Y-118885249D01*
X146535636Y-118877849D01*
X146563496Y-118869473D01*
X146571820Y-118860063D01*
X146571906Y-118854429D01*
X146600671Y-118785110D01*
X146673303Y-118777259D01*
X146778561Y-118832381D01*
X146793141Y-118843038D01*
X146873282Y-118897018D01*
X146917427Y-118919001D01*
X146918611Y-118918221D01*
X146900898Y-118879186D01*
X146846546Y-118792955D01*
X146765701Y-118675796D01*
X146612999Y-118461658D01*
X147062641Y-118461658D01*
X147067508Y-118490919D01*
X147090348Y-118582660D01*
X147125578Y-118707069D01*
X147188283Y-118918221D01*
X147188515Y-118919001D01*
X147718654Y-118919001D01*
X147750208Y-118918983D01*
X147962006Y-118917231D01*
X148105649Y-118911623D01*
X148193250Y-118900758D01*
X148236926Y-118883234D01*
X148248792Y-118857649D01*
X148253559Y-118829405D01*
X148290978Y-118796296D01*
X148313435Y-118803451D01*
X148356707Y-118857649D01*
X148413270Y-118902688D01*
X148542450Y-118919001D01*
X148704649Y-118919001D01*
X148985024Y-118919001D01*
X149250886Y-118919001D01*
X149516747Y-118919001D01*
X149516747Y-118714492D01*
X149519508Y-118640825D01*
X149534317Y-118546770D01*
X149557649Y-118509984D01*
X149572383Y-118523785D01*
X149591194Y-118597832D01*
X149598551Y-118714492D01*
X149598551Y-118919001D01*
X150148455Y-118919001D01*
X150698360Y-118919001D01*
X150629093Y-118765612D01*
X151043501Y-118765612D01*
X151073134Y-118860202D01*
X151081242Y-118868319D01*
X151133775Y-118892539D01*
X151230765Y-118908150D01*
X151384620Y-118916516D01*
X151607746Y-118919001D01*
X152093559Y-118919001D01*
X152093559Y-118673591D01*
X152093559Y-118428180D01*
X151586931Y-118428180D01*
X151080303Y-118428180D01*
X151061902Y-118550885D01*
X151052319Y-118614791D01*
X151043501Y-118765612D01*
X150629093Y-118765612D01*
X150588149Y-118674943D01*
X150477939Y-118430884D01*
X149731482Y-118429532D01*
X148985024Y-118428180D01*
X150700450Y-118428180D01*
X150791170Y-118550885D01*
X150805680Y-118569965D01*
X150871358Y-118643720D01*
X150915099Y-118673591D01*
X150915487Y-118673582D01*
X150938682Y-118637072D01*
X150948309Y-118550885D01*
X150944350Y-118484898D01*
X150911865Y-118438063D01*
X150824380Y-118428180D01*
X150700450Y-118428180D01*
X148985024Y-118428180D01*
X148985024Y-118673591D01*
X148985024Y-118698418D01*
X148985024Y-118919001D01*
X148704649Y-118919001D01*
X148619877Y-118811231D01*
X148562631Y-118703255D01*
X148535105Y-118565820D01*
X148535105Y-118542401D01*
X148699127Y-118542401D01*
X148708075Y-118658200D01*
X148761115Y-118798327D01*
X148761987Y-118800010D01*
X148823231Y-118894095D01*
X148867427Y-118908354D01*
X148894212Y-118843043D01*
X148903221Y-118698418D01*
X148899288Y-118586772D01*
X148879209Y-118493768D01*
X148838177Y-118452874D01*
X148800240Y-118443246D01*
X148730954Y-118465794D01*
X148699127Y-118542401D01*
X148535105Y-118542401D01*
X148535105Y-118428180D01*
X147798873Y-118428180D01*
X147579372Y-118429709D01*
X147372661Y-118434402D01*
X147209032Y-118441683D01*
X147101390Y-118450964D01*
X147062641Y-118461658D01*
X146612999Y-118461658D01*
X146592271Y-118432590D01*
X142164654Y-118430385D01*
X137737037Y-118428180D01*
X137737037Y-118673591D01*
X137737037Y-118919001D01*
X137655234Y-118919001D01*
X137655234Y-118673591D01*
X137655234Y-118428180D01*
X136939453Y-118428180D01*
X136223672Y-118428180D01*
X136223672Y-118673591D01*
X136223672Y-118919001D01*
X136182770Y-118919001D01*
X136182770Y-118673591D01*
X136182770Y-118428180D01*
X135139775Y-118428180D01*
X134096780Y-118428180D01*
X134096780Y-118673591D01*
X134096780Y-118919001D01*
X134014976Y-118919001D01*
X134014976Y-118673591D01*
X134014976Y-118428180D01*
X131724477Y-118428180D01*
X129433978Y-118428180D01*
X129433978Y-118673591D01*
X129311272Y-118673591D01*
X129311272Y-118428180D01*
X129065862Y-118428180D01*
X128955032Y-118423836D01*
X128857707Y-118409065D01*
X128820451Y-118387278D01*
X128820809Y-118386352D01*
X128869163Y-118377102D01*
X128998299Y-118369038D01*
X129207293Y-118362174D01*
X129495217Y-118356526D01*
X129861148Y-118352107D01*
X130304158Y-118348933D01*
X130823321Y-118347018D01*
X131417714Y-118346377D01*
X134014976Y-118346377D01*
X134014976Y-118164732D01*
X134016516Y-118114495D01*
X134031027Y-118010789D01*
X134055878Y-117957810D01*
X134069986Y-117958620D01*
X134089690Y-118016251D01*
X134096780Y-118139454D01*
X134096780Y-118346377D01*
X135139775Y-118346377D01*
X136182770Y-118346377D01*
X136190336Y-118131642D01*
X136197902Y-117916908D01*
X136212933Y-118131885D01*
X136227964Y-118346862D01*
X142565592Y-118346120D01*
X148903221Y-118345377D01*
X148903221Y-117998212D01*
X148903495Y-117953790D01*
X148910087Y-117795215D01*
X148924196Y-117689492D01*
X148944123Y-117651046D01*
X148949394Y-117653413D01*
X148968059Y-117709501D01*
X148980501Y-117829400D01*
X148985024Y-117998711D01*
X148985024Y-118346377D01*
X149721256Y-118346377D01*
X150457488Y-118346377D01*
X150457488Y-118221332D01*
X150458214Y-118187391D01*
X150467584Y-118121977D01*
X150641546Y-118121977D01*
X150641546Y-118325926D01*
X150794928Y-118338620D01*
X150819472Y-118340297D01*
X150910563Y-118332453D01*
X150946678Y-118289469D01*
X150930412Y-118200787D01*
X150864356Y-118055850D01*
X150829963Y-117994736D01*
X150756221Y-117909534D01*
X150696375Y-117903487D01*
X150656219Y-117974874D01*
X150641546Y-118121977D01*
X150467584Y-118121977D01*
X150487693Y-117981582D01*
X150552071Y-117782946D01*
X150640003Y-117628340D01*
X150734541Y-117509778D01*
X150856720Y-117640570D01*
X150878676Y-117665938D01*
X150977042Y-117832140D01*
X151045399Y-118035997D01*
X151071015Y-118241783D01*
X151071015Y-118289469D01*
X151071015Y-118346377D01*
G37*
%TD*%
M02*
